<svg xmlns="http://www.w3.org/2000/svg" viewBox="0 0 500 500"><g id="freepik--background-simple--inject-21"><path d="M324.3,34.7s-77-27.37-152.56,16.21S58,181,25.29,250.32s-13.9,139.8,43.79,171.94S166,407,246.93,404.71,349.62,414,416.78,368.26s79.29-153.69,26.32-233.58S324.3,34.7,324.3,34.7Z" style="fill:#FF6B6B"></path><path d="M324.3,34.7s-77-27.37-152.56,16.21S58,181,25.29,250.32s-13.9,139.8,43.79,171.94S166,407,246.93,404.71,349.62,414,416.78,368.26s79.29-153.69,26.32-233.58S324.3,34.7,324.3,34.7Z" style="fill:#fff;opacity:0.7000000000000001"></path></g><g id="freepik--Pictures--inject-21"><rect x="404" y="54" width="55" height="65" style="fill:none;stroke:#263238;stroke-miterlimit:10"></rect><rect x="409.92" y="61" width="43.15" height="51" style="fill:none;stroke:#263238;stroke-miterlimit:10"></rect><rect x="431" y="129" width="55" height="65" style="fill:none;stroke:#263238;stroke-miterlimit:10"></rect><rect x="436.92" y="136" width="43.15" height="51" style="fill:none;stroke:#263238;stroke-miterlimit:10"></rect></g><g id="freepik--Mirrors--inject-21"><rect x="50.16" y="19.8" width="167" height="275" style="fill:none;stroke:#263238;stroke-miterlimit:10"></rect><line x1="181.2" y1="73.66" x2="91.08" y2="150.47" style="fill:none;stroke:#263238;stroke-miterlimit:10"></line><line x1="193.67" y1="63.04" x2="187.98" y2="67.89" style="fill:none;stroke:#263238;stroke-miterlimit:10"></line><line x1="66.93" y1="163.51" x2="63.42" y2="166.53" style="fill:none;stroke:#263238;stroke-miterlimit:10"></line><line x1="108.03" y1="128.16" x2="72.44" y2="158.76" style="fill:none;stroke:#263238;stroke-miterlimit:10"></line><line x1="134.09" y1="263.59" x2="130.33" y2="266.45" style="fill:none;stroke:#263238;stroke-miterlimit:10"></line><line x1="178.51" y1="229.87" x2="139.04" y2="259.83" style="fill:none;stroke:#263238;stroke-miterlimit:10"></line><rect x="224.16" y="19.8" width="167" height="275" style="fill:none;stroke:#263238;stroke-miterlimit:10"></rect><line x1="355.2" y1="73.66" x2="265.08" y2="150.47" style="fill:none;stroke:#263238;stroke-miterlimit:10"></line><line x1="367.67" y1="63.04" x2="361.98" y2="67.89" style="fill:none;stroke:#263238;stroke-miterlimit:10"></line><line x1="240.93" y1="163.51" x2="237.42" y2="166.53" style="fill:none;stroke:#263238;stroke-miterlimit:10"></line><line x1="282.03" y1="128.16" x2="246.44" y2="158.76" style="fill:none;stroke:#263238;stroke-miterlimit:10"></line><line x1="308.09" y1="263.59" x2="304.33" y2="266.45" style="fill:none;stroke:#263238;stroke-miterlimit:10"></line><line x1="352.51" y1="229.87" x2="313.04" y2="259.83" style="fill:none;stroke:#263238;stroke-miterlimit:10"></line><rect x="32.16" y="295.03" width="381" height="161" style="fill:none;stroke:#263238;stroke-miterlimit:10"></rect><rect x="38.16" y="298.03" width="369" height="32" style="fill:none;stroke:#263238;stroke-miterlimit:10"></rect><path d="M291.16,340V448h116V340ZM401.79,443H296.53V345H401.79Z" style="fill:none;stroke:#263238;stroke-miterlimit:10"></path><path d="M165.16,340V448h116V340ZM275.79,443H170.53V345H275.79Z" style="fill:none;stroke:#263238;stroke-miterlimit:10"></path><path d="M39.16,340V448h116V340ZM149.79,443H44.53V345H149.79Z" style="fill:none;stroke:#263238;stroke-miterlimit:10"></path><line x1="10.16" y1="456.03" x2="480.05" y2="456.03" style="fill:none;stroke:#263238;stroke-miterlimit:10"></line><rect x="59.03" y="256.65" width="13.9" height="37.85" style="fill:none;stroke:#263238;stroke-miterlimit:10"></rect><rect x="59.03" y="256.65" width="13.9" height="11.97" style="fill:none;stroke:#263238;stroke-miterlimit:10"></rect><rect x="156.03" y="256.65" width="13.9" height="37.85" style="fill:none;stroke:#263238;stroke-miterlimit:10"></rect><rect x="156.03" y="256.65" width="13.9" height="11.97" style="fill:none;stroke:#263238;stroke-miterlimit:10"></rect><rect x="77.18" y="240.81" width="13.9" height="53.69" style="fill:none;stroke:#263238;stroke-miterlimit:10"></rect><rect x="77.18" y="240.81" width="13.9" height="16.98" style="fill:none;stroke:#263238;stroke-miterlimit:10"></rect></g><g id="freepik--Plants--inject-21"><path d="M443.89,252.71s.44,55,.44,69.59-.44,101.61-.44,101.61" style="fill:none;stroke:#263238;stroke-linecap:round;stroke-linejoin:round;stroke-width:3px"></path><polygon points="476.92 266.8 463.27 255.35 489.73 261.13 467.68 248.74 490.61 243.95 463.27 242.58 493.66 219.68 459.31 236.85 479.13 202.94 452.7 233.33 461.95 188.84 444.77 230.25 443.01 184 439.49 231.13 420.75 189.49 433.76 235.09 405.73 204.51 430.24 242.14 395.54 217.38 428.04 248.74 391.25 228.64 424.95 251.39 394.47 247.41 424.07 255.79 400.37 259.75 424.95 258.87 410.42 268.56 444.77 259.31 476.92 266.8" style="fill:#FF6B6B"></polygon><path d="M430.68,308.2s-1.32,11.45-.44,15.86a80.48,80.48,0,0,1,1.32,15.41c0,5.73.44,30.06.44,34s-.44,37.63-.44,40.72v10.57" style="fill:none;stroke:#263238;stroke-linecap:round;stroke-linejoin:round;stroke-width:3px"></path><path d="M432,369.09s1.76-33.58,3.52-38,3.09-3.08,3.53-8.36.44-7.49,1.32-9.25a36.53,36.53,0,0,0,1.76-4.85l.88-3.52" style="fill:none;stroke:#263238;stroke-linecap:round;stroke-linejoin:round;stroke-width:3px"></path><polygon points="463.27 319.65 449.62 308.2 487.94 312.61 454.02 301.6 488.81 295.43 449.62 295.43 480.01 272.53 445.65 289.7 465.47 255.79 439.05 286.18 448.3 241.7 431.12 283.1 429.36 236.85 425.83 283.98 412.18 241.26 420.11 287.94 395.88 253.15 416.58 294.99 384.81 274.23 414.38 301.6 381.6 288.17 411.3 304.24 380.52 301.58 410.42 308.64 389.64 313.38 411.3 311.73 396.77 321.41 431.12 312.17 463.27 319.65" style="fill:#FF6B6B"></polygon><polygon points="464.18 395.17 450.53 383.72 488.84 388.12 454.93 377.11 489.73 370.94 450.53 370.94 480.92 348.04 446.56 365.22 466.38 331.31 439.96 361.69 449.21 317.21 432.03 358.61 430.27 312.37 426.74 359.49 413.09 316.77 421.02 363.46 396.79 328.66 417.5 370.5 385.72 349.74 415.29 377.11 382.5 363.69 412.21 379.75 381.43 377.1 411.33 384.16 390.55 388.89 412.21 387.24 397.68 396.93 432.03 387.68 464.18 395.17" style="fill:#FF6B6B"></polygon><path d="M418.61,412.31,409.19,428a10.37,10.37,0,0,0-1.13,8l4.19,15.61a5.2,5.2,0,0,0,5,3.85h42.94a5.2,5.2,0,0,0,5-3.85l4.19-15.61a10.41,10.41,0,0,0-1.12-8l-9.43-15.71a3.57,3.57,0,0,0-3.05-1.73H421.67A3.59,3.59,0,0,0,418.61,412.31Z" style="fill:#263238;stroke:#263238;stroke-linejoin:round"></path></g><g id="freepik--character-2--inject-21"><path d="M261.05,434.86l.42,14.67s-15.3,7.81-21,9.22c-8.39,2.1-7.9,5.27-5.45,6.29,5,2.1,21,1.68,26.41,1.26s16.35,1.26,18-2.1-.58-14.15-.58-15.41.16-16.45.16-16.45Z" style="fill:#a6a6a6;stroke:#263238;stroke-miterlimit:10"></path><path d="M279.5,464.2c.86-1.73,1.31-5.25.43-9.08a50.6,50.6,0,0,1-17.62-1l-.84-4.61s-15.3,7.81-21,9.22c-8.39,2.1-7.9,5.27-5.45,6.29,5,2.1,21,1.68,26.41,1.26S277.82,467.56,279.5,464.2Z" style="fill:#FF6B6B;stroke:#263238;stroke-miterlimit:10"></path><path d="M279.5,464.2a3.91,3.91,0,0,0,.33-1.28,125.92,125.92,0,0,1-14.17.86c-10.25,0-27.84-.63-32.14-.8a2.11,2.11,0,0,0,1.54,2.06c5,2.1,21,1.68,26.41,1.26S277.82,467.56,279.5,464.2Z" style="fill:#fff;stroke:#263238;stroke-miterlimit:10"></path><path d="M348.25,434.86l5,21.38s-4.61,8.8-12.16,13.83-5.45,8.81,2.52,9.23,18.86-2.1,23.48-5.45,5.86-12.16,5-14.26-2.52-10.48-2.52-10.48l-1.26-18Z" style="fill:#a6a6a6;stroke:#263238;stroke-miterlimit:10"></path><path d="M361.67,456.24c-4.62-4.61-8.39,2.09-8.39,2.09l-1.17-.1c-1.82,2.89-5.67,8.3-11,11.84-7.54,5-5.45,8.81,2.52,9.23s18.86-2.1,23.48-5.45,5.87-12.16,5-14.26a24.73,24.73,0,0,1-.81-2.75l-3.81,4S366.28,460.85,361.67,456.24Z" style="fill:#FF6B6B;stroke:#263238;stroke-miterlimit:10"></path><path d="M372.2,463.73c-3.92,5.19-6.84,7.9-16,10.95-7.66,2.55-16,1-19.6.09-.86,2.54,1.82,4.25,7,4.53,8,.42,18.86-2.1,23.48-5.45C370.12,471.66,371.69,467.18,372.2,463.73Z" style="fill:#fff;stroke:#263238;stroke-miterlimit:10"></path><path d="M259.37,273.87s-9.22,55.76-9.22,71.27S259.79,434,259.79,434l19.71.84S287,375.33,287,371.13s4.19-27.67,4.19-27.67l11.74-36,4.2,1.26s9.64,59.95,12.57,66.66,26,60.37,26,60.37l21.8-2.1-8-69.17,2.1-93.07-19.29-15.1-80.49,7.55Z" style="fill:#263238;stroke:#263238;stroke-miterlimit:10"></path><path d="M282.7,130.7l-1.32.41c-4.35,1.36-18.47,5.91-26.79,10.07-9.92,5-29.49,28.93-29.49,28.93s-5-7.44-10.75-17.91a196.39,196.39,0,0,1-10.47-23.15l-5.24-16.54-19,9.92s.55,6.34,3.58,10.75,7.72,6.07,8,7.44,8,36.11,12.13,46.58,9.37,18.74,12.68,19,14.33-4.13,20.12-6.62,12.4-5.23,12.4-5.23,3.31,36.1,5.24,50.71,3.3,29.22,3.3,29.22,19.57,6.89,46.58,7.44a257.11,257.11,0,0,0,46.58-3l2.48-9.38,3,8.82,7.44-3.58S361,232.4,361,227.72s6.34-44.1,7.16-61.19S367.59,142,358,136.77s-23.43-12.13-31.42-13S295.38,125.74,282.7,130.7Z" style="fill:#a6a6a6;stroke:#263238;stroke-miterlimit:10"></path><path d="M206.08,106.45s-19.29,6.06-28.38,8.82S165.29,117.75,165,120s3,10.75,5,11.85,3.58-1.92,6.34-4.41,23.7-9.92,28.11-10.74,6.06,0,9.1,1.1,1.93-4.14-.28-7.44S206.91,105.07,206.08,106.45Z" style="fill:#263238;stroke:#263238;stroke-miterlimit:10"></path><path d="M230.63,97.2C228.56,88,221,81.85,213.7,83.49s-11.49,10.43-9.42,19.64a20.07,20.07,0,0,0,5.09,9.61,34.21,34.21,0,0,1,7.26,10.52,36.85,36.85,0,0,1,2.08,6,135.94,135.94,0,0,1,1.88,15.4l5-1.13,3-.68,5-1.13a136.26,136.26,0,0,1-4.9-14.72,37.93,37.93,0,0,1-.69-6.32,34.24,34.24,0,0,1,2.07-12.62A20,20,0,0,0,230.63,97.2Z" style="fill:#263238;stroke:#263238;stroke-miterlimit:10"></path><path d="M181.56,104.52s-5.52,0-6.07,2.48,1.66,9.65,3.58,8.82S181.28,106.17,181.56,104.52Z" style="fill:#a6a6a6;stroke:#263238;stroke-miterlimit:10"></path><path d="M187.89,103.14s-5.23-2.48-6.89.28-1.1,10.19-1.1,10.19a5.75,5.75,0,0,0,3.31,0c1.65-.55,2.75-4.68,3.31-5.51S187.89,103.14,187.89,103.14Z" style="fill:#a6a6a6;stroke:#263238;stroke-miterlimit:10"></path><path d="M197.54,106.72s-5.24-8-8.27-7.71-3.58,10.47-4.41,11.85,2.21,2.48,3.59,1.65a17.55,17.55,0,0,0,3.3-3.31Z" style="fill:#a6a6a6;stroke:#263238;stroke-miterlimit:10"></path><line x1="191.75" y1="109.2" x2="193.13" y2="105.35" style="fill:#a6a6a6;stroke:#263238;stroke-miterlimit:10"></line><path d="M203.88,106.72s-5.24-8-8.27-7.71-3.58,10.47-4.41,11.85,2.21,2.48,3.58,1.65a17.38,17.38,0,0,0,3.31-3.31Z" style="fill:#a6a6a6;stroke:#263238;stroke-miterlimit:10"></path><line x1="198.09" y1="109.2" x2="199.47" y2="105.35" style="fill:#fff;stroke:#263238;stroke-miterlimit:10"></line><path d="M202.23,133.46s2.75-6.89,3-10.2-3.59-11.3-3.59-11.3a73.13,73.13,0,0,1-8.26-4.13c-2.48-1.66-3.59,3.3-2.21,4.68s4.69,5.24,4.69,5.24-4.14,6.34-3.86,9.37,3,5.79,3,5.79" style="fill:#a6a6a6;stroke:#263238;stroke-miterlimit:10"></path><path d="M363.18,274.57S361,232.4,361,227.72s6.34-44.1,7.16-61.19S367.59,142,358,136.77s-23.43-12.13-31.42-13-31.15,1.93-43.83,6.89l-1.32.41c-4.35,1.36-18.47,5.91-26.79,10.07-6.45,3.22-17,14.47-23.54,22a49.88,49.88,0,0,0-.71,17.72c1.11,8.54,7.1,13.95,10.89,16.57,4-1.68,7.3-3.06,7.3-3.06s3.31,36.1,5.24,50.71,3.3,29.22,3.3,29.22,19.57,6.89,46.58,7.44a257.11,257.11,0,0,0,46.58-3l2.48-9.38,3,8.82Z" style="fill:#FF6B6B;stroke:#263238;stroke-miterlimit:10"></path><line x1="248.53" y1="194.37" x2="240.5" y2="170.23" style="fill:#FF6B6B;stroke:#263238;stroke-miterlimit:10"></line><path d="M280.5,136.49s-2.76.55-3.86,6.61a63.5,63.5,0,0,0-.55,13.51s6.06-3.58,7.17-3.86,6.33,3.58,6.33,3.58,5.24-4.13,6.9-3.58,5.23,5.24,5.23,5.24a73,73,0,0,0,14.06-5.79c8.54-4.41,16-16.54,16-25.36s-6.61-12.4-9.64-12.4S295.38,114.72,280.5,136.49Z" style="fill:#fff;stroke:#263238;stroke-miterlimit:10"></path><path d="M282.15,139s5.79,19,7.44,17.36c.82-.81,2.44-2.84,3.88-4.68a16.15,16.15,0,0,1,6.7-5.05c5.48-2.22,15.15-6.88,19.19-13.42,5.79-9.37,5.24-14.6,5.24-14.6l-5.79-18.19s-17.09,12.12-21.22,14.6S282.15,139,282.15,139Z" style="fill:#a6a6a6;stroke:#263238;stroke-miterlimit:10"></path><path d="M315.78,88.81s-2.21-13.78-6.34-19-19.85-8-31.15-.82S267.55,81.09,268.1,90.19s.55,41.06,1.93,45.47,13.78,8.55,29.49,3.31,19-13.23,18.74-18.47S316.88,104,316.88,104s6.34-1.66,6.89-7.72.83-11.3-2.48-11.57S315.78,88.81,315.78,88.81Z" style="fill:#a6a6a6;stroke:#263238;stroke-miterlimit:10"></path><path d="M315.5,90.74c.28-1.93.28-5.24-1.1-2.48s-.83,4.41-.55,7.44.55,15.71-.55,17.36-7.44,7.17-8.82,8-3.31,1.37-3.59-1.11-3.58-5.51-5.51-5.51-6.06,1.93-9.37,1.93a45.46,45.46,0,0,1-7.44-.83s-2.76-.27-4.13,1.38-1.66,5-1.66,5a7.42,7.42,0,0,1-3.3-3.86c-.28-.59-.49-1.13-.68-1.63.23,9,.58,17.2,1.23,19.27,1.37,4.41,13.78,8.55,29.49,3.31s19-13.23,18.74-18.47S316.88,104,316.88,104,315.23,92.67,315.5,90.74Z" style="fill:#263238;stroke:#263238;stroke-miterlimit:10"></path><path d="M280,102.59s-2.48,14.61-1.1,16.54,6.89,1.37,9.37-.83a22.88,22.88,0,0,0,3.58-3.86s-2.21-2.48-3.58-1.93" style="fill:#a6a6a6;stroke:#263238;stroke-miterlimit:10"></path><path d="M295.76,122.19s-5.77-.45-9.08-.55-5,.68-7.48,1.16a19.14,19.14,0,0,1-3.87.43s3.18,4.24,6.45,5.71,6.88.21,9.41-1.37S295.76,122.19,295.76,122.19Z" style="fill:gray;stroke:#263238;stroke-miterlimit:10"></path><path d="M275.33,123.23a26.55,26.55,0,0,0,20.43-1" style="fill:none;stroke:#263238;stroke-miterlimit:10"></path><path d="M294.83,103.42c0,1.21-.62,2.2-1.38,2.2s-1.37-1-1.37-2.2.61-2.21,1.37-2.21S294.83,102.2,294.83,103.42Z" style="fill:#263238"></path><path d="M275.81,104c0,1.22-.61,2.2-1.37,2.2s-1.38-1-1.38-2.2.61-2.21,1.38-2.21S275.81,102.75,275.81,104Z" style="fill:#263238"></path><path d="M288.49,96.53s4.69-5.79,10.2-1.38" style="fill:none;stroke:#263238;stroke-linecap:round;stroke-miterlimit:10;stroke-width:2px"></path><path d="M278.57,100.11s-3.58-4.41-7.44-1.65" style="fill:none;stroke:#263238;stroke-linecap:round;stroke-miterlimit:10;stroke-width:2px"></path><path d="M345.54,150.27c0,.83-5,8.27-5,14.61a40.2,40.2,0,0,0,1.93,11.85s-24,5.51-30,6.06a57.67,57.67,0,0,1-10.75,0s-5.51-4.13-15.71-7.71-11.57.27-11.57.27,3,4.69,1.37,6.89-6.33-1.93-9.37.28.28,4.13,3.86,5.51,9.92,1.65,11.85,3,5.52,4.14,10.2,4.69a62.67,62.67,0,0,0,10.75,0s28.94,6.89,40.24,6.89,23.15-.55,31.69-2.76,11.58-2.48,11-8-3.58-17.37-5.51-24-3-19.29-11.85-25.36S353.81,139,353.81,139" style="fill:#FF6B6B;stroke:#263238;stroke-miterlimit:10"></path><path d="M386.06,191.89c-.55-5.51-3.58-17.37-5.51-24-.53-1.82-1-4.1-1.59-6.58a53.12,53.12,0,0,0-13.85-1.69c-14.17,0-22.06,11.66-23.47,14,.45,1.93.87,3.14.87,3.14s-24,5.51-30,6.06a57.67,57.67,0,0,1-10.75,0s-5.51-4.13-15.71-7.71-11.57.27-11.57.27,3,4.69,1.37,6.89-6.33-1.93-9.37.28.28,4.13,3.86,5.51,9.92,1.65,11.85,3,5.52,4.14,10.2,4.69a62.67,62.67,0,0,0,10.75,0s28.94,6.89,40.24,6.89,23.15-.55,31.69-2.76S386.61,197.4,386.06,191.89Z" style="fill:#a6a6a6;stroke:#263238;stroke-miterlimit:10"></path><path d="M286.84,188,246.05,182s-.83-8.82,4.13-10.2,32.8,2.2,35,4.13S288.77,182.24,286.84,188Z" style="fill:#263238;stroke:#263238;stroke-miterlimit:10"></path><path d="M342.51,176.73s15.44-9.65,25.08-6.62" style="fill:none;stroke:#263238;stroke-miterlimit:10"></path><path d="M277.47,168.46s-6.07-.83-7.44-.83-5,6.89-6.07,9.1-1.93,5-.27,5,4.68-5.51,4.68-5.51l3.86-3.31Z" style="fill:#a6a6a6;stroke:#263238;stroke-miterlimit:10"></path><path d="M287.39,171.22s-5.24-2.21-8.27-3.59-3.58.83-6.06,3.59-2.76,3.58-1.93,5.51.27,6.89,2.48,5.79,1.93-7.17,1.93-7.17l3.31-1.65,1.93,1.65Z" style="fill:#a6a6a6;stroke:#263238;stroke-miterlimit:10"></path><path d="M291.25,172.6S286,170.39,283,169s-3.58.83-6.06,3.59-2.76,3.58-1.93,5.51.27,6.89,2.48,5.79,1.93-7.17,1.93-7.17l3.3-1.65,1.93,1.65Z" style="fill:#a6a6a6;stroke:#263238;stroke-miterlimit:10"></path><path d="M303.1,184.17s-6.89-8.54-8.54-10.75-3.31-1.65-8-1.1-5.51,2.76-5.51,4.13-3,8-1.93,9.1a2.22,2.22,0,0,0,3.58-.55c.83-1.38,2.76-5.51,2.76-5.51l3.58-.56s1.11,8.82,2.76,10.75,4.69,1.93,5.79,1.93" style="fill:#a6a6a6;stroke:#263238;stroke-miterlimit:10"></path><polygon points="255.6 427.73 257.82 439.36 280.82 439.36 283.69 426.89 255.6 427.73" style="fill:#a6a6a6;stroke:#263238;stroke-miterlimit:10"></polygon><polygon points="339.45 428.15 345.72 441.3 372.14 438.36 370.47 423.12 339.45 428.15" style="fill:#a6a6a6;stroke:#263238;stroke-miterlimit:10"></polygon></g><g id="freepik--character-1--inject-21"><path d="M203.2,168s-5,11.31-4,13.64,2,7,.67,9-7,8.65-5.32,10.64a14.76,14.76,0,0,0,5,3.33s-1,14,2,17.29,17.29-.33,17.29-.33l-.66,2,31.92-7.31-1.33-11.31s6.21-12.79,7.31-21.94-9-21.62-14.29-25.94-34.59-7.32-43.9-1S203.2,168,203.2,168Z" style="fill:#fff;stroke:#263238;stroke-miterlimit:10"></path><path d="M235.74,154.54c-10.6-2.72-30.48-3.55-37.86,1.45-9.31,6.32,5.32,12,5.32,12a32.42,32.42,0,0,0,10.64,3.33c6.65,1,7.65,1,7.65,1s-8,7.65-6,9.65,7.31,5,7.31,5,.33,18.29.33,19.28-10.31,4-10.31,4-2-5.32-6.31-6a15,15,0,0,0-7,.33s-1,14,2,17.29,17.29-.33,17.29-.33,10.64-5,11-9.64-.33-21-.33-22.62,2.66-5.65,5.32-2.66,3.66,7.32,2.33,10.64a22.31,22.31,0,0,1-3.33,5.66s6,3,9,3a21.68,21.68,0,0,0,6-1s6.21-12.79,7.31-21.94c.65-5.33-2.49-11.76-6.27-17.07C246.43,159.32,241.78,157,235.74,154.54Z" style="fill:#263238;stroke:#263238;stroke-miterlimit:10"></path><path d="M207.52,189.74c0,1.38-.59,2.5-1.33,2.5s-1.33-1.12-1.33-2.5.6-2.49,1.33-2.49S207.52,188.36,207.52,189.74Z" style="fill:#263238;stroke:#263238;stroke-miterlimit:10"></path><path d="M202.54,183.59s4-2.33,7,.67" style="fill:none;stroke:#263238;stroke-linecap:round;stroke-miterlimit:10;stroke-width:2px"></path><polygon points="222.82 221.83 213.84 224.82 213.51 228.15 254.74 216.84 252.08 213.52 222.82 221.83" style="fill:#fff;stroke:#263238;stroke-miterlimit:10"></polygon><path d="M78.5,425.68s-12.64,1.66-20,1.66S46.91,426,45.91,431.66s20.62,14,29.6,17.29,23.94,8.65,26.93,7.32,4.33-15.63,4.66-17S78.5,425.68,78.5,425.68Z" style="fill:#263238;stroke:#263238;stroke-miterlimit:10"></path><path d="M104.72,452.23c-6.78-1-23.36-4-35.53-9.26-12.4-5.39-20-10.35-22.95-12.56a7.81,7.81,0,0,0-.33,1.25c-1,5.65,20.62,14,29.6,17.29s23.94,8.65,26.93,7.32C103.35,455.87,104.1,454.28,104.72,452.23Z" style="fill:#fff;stroke:#263238;stroke-miterlimit:10"></path><path d="M126.72,320.59s-25.27.67-27.6,2.67-18.29,95.43-18.29,95.43-2.66,1-3.66,2.66a28.71,28.71,0,0,0-2,5.32s12.3,10,18.95,13a106.32,106.32,0,0,0,12.3,4.66s3.33-9.65,3.66-15.63,1-11,1.33-13,13-41.57,15.3-47.22,6-14.63,6-14.63h52.54s-17.62-16.63-27.93-22S132.7,319.6,126.72,320.59Z" style="fill:#FF6B6B;stroke:#263238;stroke-miterlimit:10"></path><path d="M112,342.77c9.53,10.89,20.73,11.08,20.73,11.08s-4.39,4.57-15.28-.87" style="fill:none;stroke:#263238;stroke-miterlimit:10"></path><path d="M92.91,436.37s8.17-6.81,8.51-11.24-2-4.76,0-10.21,14.64-46.28,15-52.07-1-7.83-3.75-10.89,2-1.36,2.39-2.38-1.7-4.43-1.7-4.43,6.12.68,11.23,1.36,43.9,1,43.9,1" style="fill:none;stroke:#263238;stroke-miterlimit:10"></path><polygon points="145.67 389.76 112.62 457.72 117.88 459.92 149.91 392.36 202.46 392.36 202.11 387.97 145.67 389.76" style="fill:#263238;stroke:#263238;stroke-miterlimit:10"></polygon><polygon points="249.84 486.02 137.82 486.02 149.99 466.48 233.38 466.48 249.84 486.02" style="fill:#263238;stroke:#263238;stroke-miterlimit:10"></polygon><polygon points="218.83 455.94 166.29 455.94 179.43 386.77 205.69 386.77 218.83 455.94" style="fill:#263238;stroke:#263238;stroke-miterlimit:10"></polygon><path d="M235.52,476.26h0a1.7,1.7,0,0,1-1.26,2.59c-28.25,3-54.45,3.45-82.84.28h0a2,2,0,0,1-1.19-3.16l16.06-20h52.54Z" style="fill:#a6a6a6;stroke:#263238;stroke-miterlimit:10"></path><polygon points="216.96 457.51 212.83 457.51 225.33 477.56 231.86 477.04 216.96 457.51" style="fill:#fff"></polygon><polygon points="213.38 457.51 208.87 457.51 219.85 478.08 226.38 477.56 213.38 457.51" style="fill:#263238"></polygon><polygon points="167.06 457.51 171.19 457.51 158.69 477.56 152.16 477.04 167.06 457.51" style="fill:#fff"></polygon><polygon points="170.64 457.51 175.15 457.51 164.17 478.08 157.64 477.56 170.64 457.51" style="fill:#263238"></polygon><path d="M176.08,481a367.35,367.35,0,0,0,40.49-.61l-10.63-24.47h-23Z" style="fill:#263238;stroke:#263238;stroke-miterlimit:10"></path><path d="M252.75,353.52H143s-14.3-2-14,10.3,14,25.28,16.62,25.94,98.77,0,98.77,0l11.63-35.91Z" style="fill:#263238;stroke:#263238;stroke-miterlimit:10"></path><polygon points="141.35 324.58 164.96 391.76 246.43 391.76 263.72 338.55 257.4 338.55 244.1 384.77 168.95 384.77 147.34 323.59 141.35 324.58" style="fill:#a6a6a6;stroke:#263238;stroke-miterlimit:10"></polygon><polygon points="119.61 457.8 113.5 472.64 58.66 452.02 59.97 448.51 113.06 454.65 119.61 457.8" style="fill:#263238;stroke:#263238;stroke-miterlimit:10"></polygon><path d="M213.51,228.15a364.77,364.77,0,0,0-21.28,29.93c-10.31,16.29-21.95,26.6-30.26,35.58s-21.29,13.3-27.94,17a32.83,32.83,0,0,0-10.64,10,42.49,42.49,0,0,1,23.28,12c10.64,10.64,34.58,28.26,63.18,33.58s50.55-10.31,58.53-15.29,15.29-17.3,15.29-17.3S279.68,296,279,279s-4.66-21.95-7.32-26.6-10.64-28.27-12.3-30.93a33.31,33.31,0,0,0-5-5.65Z" style="fill:#263238;stroke:#263238;stroke-miterlimit:10"></path><path d="M187.65,306a84.74,84.74,0,0,1,16.68,1.82c12.59,3,28.89,9.63,28.89,9.63" style="fill:none;stroke:#949494;stroke-miterlimit:10"></path><path d="M174.7,306.38s1.7-.14,4.43-.25" style="fill:none;stroke:#949494;stroke-miterlimit:10"></path><path d="M228.9,304.41a30.18,30.18,0,0,1,3.58,1.23" style="fill:none;stroke:#949494;stroke-miterlimit:10"></path><path d="M196.92,304.9s13.73-3.31,26.42-1.61" style="fill:none;stroke:#949494;stroke-miterlimit:10"></path><path d="M224.42,282.39l-.83,4.74" style="fill:none;stroke:#949494;stroke-miterlimit:10"></path><path d="M243.59,230.09A21.11,21.11,0,0,0,231,245.65c-1.31,7-3.67,20.28-5.37,29.92" style="fill:none;stroke:#949494;stroke-miterlimit:10"></path><path d="M232.48,233.06s-7.41,7.4-8.89,14.81-6.67,26.66-6.67,26.66" style="fill:none;stroke:#949494;stroke-miterlimit:10"></path><path d="M267.61,304.44c-.2,2.7-.32,4.5-.32,4.91" style="fill:none;stroke:#949494;stroke-miterlimit:10"></path><path d="M265.7,244.63c2.14,4,4.21,8.71,4.55,12.13.5,5-1,26.13-2.06,40.07" style="fill:none;stroke:#949494;stroke-miterlimit:10"></path><path d="M260.62,236s.73,1.09,1.79,2.83" style="fill:none;stroke:#949494;stroke-miterlimit:10"></path><path d="M259.92,356.77l19.14-18.69a13.64,13.64,0,0,0,4-10.95l-3.61-40.52" style="fill:none;stroke:#949494;stroke-miterlimit:10"></path></g></svg>