<svg xmlns="http://www.w3.org/2000/svg" viewBox="0 0 500 500"><g id="freepik--background-simple--inject-3"><path d="M468.54,277.61S471.65,156.7,400.41,100c-62.89-50.08-151-59.2-212,.58-21.71,21.29-34.09,57.81-61,72.85-30.23,16.87-70.86,27.75-92.57,82.52S34.21,373,79.53,400.64,189,383.69,251.35,371,459.19,427.73,468.54,277.61Z" style="fill:#FF6B6B"></path><path d="M468.54,277.61S471.65,156.7,400.41,100c-62.89-50.08-151-59.2-212,.58-21.71,21.29-34.09,57.81-61,72.85-30.23,16.87-70.86,27.75-92.57,82.52S34.21,373,79.53,400.64,189,383.69,251.35,371,459.19,427.73,468.54,277.61Z" style="fill:#fff;opacity:0.7000000000000001"></path></g><g id="freepik--Table--inject-3"><line x1="449.56" y1="432.96" x2="461.86" y2="432.96" style="fill:none;stroke:#263238;stroke-linecap:round;stroke-linejoin:round"></line><line x1="52.05" y1="432.96" x2="441.08" y2="432.96" style="fill:none;stroke:#263238;stroke-linecap:round;stroke-linejoin:round"></line></g><g id="freepik--Combs--inject-3"><path d="M430.1,87.55H400.49a9.55,9.55,0,0,0-9.33,9.75v55.46a9.55,9.55,0,0,0,9.33,9.75h6.4a40,40,0,0,1,4.71,16.68c.37,10-2.21,20.82-3.69,31.23a101.55,101.55,0,0,0-.52,17.15,7.91,7.91,0,1,0,15.82,0,100.54,100.54,0,0,0-.53-17.15c-1.48-10.41-4.06-21.21-3.69-31.23a40.16,40.16,0,0,1,4.71-16.68h6.4a9.55,9.55,0,0,0,9.34-9.75V97.3A9.55,9.55,0,0,0,430.1,87.55Z" style="fill:none;stroke:#263238;stroke-linecap:round;stroke-linejoin:round"></path><rect x="396.1" y="93.2" width="38.4" height="63.62" rx="6.32" style="fill:none;stroke:#263238;stroke-linecap:round;stroke-linejoin:round"></rect><path d="M402.71,98.87a1.85,1.85,0,1,0-1.85,1.85A1.85,1.85,0,0,0,402.71,98.87Z" style="fill:none;stroke:#263238;stroke-linecap:round;stroke-linejoin:round"></path><circle cx="406.77" cy="98.87" r="1.85" style="fill:none;stroke:#263238;stroke-linecap:round;stroke-linejoin:round"></circle><circle cx="412.68" cy="98.87" r="1.85" style="fill:none;stroke:#263238;stroke-linecap:round;stroke-linejoin:round"></circle><circle cx="418.58" cy="98.87" r="1.85" style="fill:none;stroke:#263238;stroke-linecap:round;stroke-linejoin:round"></circle><circle cx="424.49" cy="98.87" r="1.85" style="fill:none;stroke:#263238;stroke-linecap:round;stroke-linejoin:round"></circle><circle cx="430.4" cy="98.87" r="1.85" style="fill:none;stroke:#263238;stroke-linecap:round;stroke-linejoin:round"></circle><path d="M402.71,105.52a1.85,1.85,0,1,0-1.85,1.84A1.85,1.85,0,0,0,402.71,105.52Z" style="fill:none;stroke:#263238;stroke-linecap:round;stroke-linejoin:round"></path><circle cx="406.77" cy="105.52" r="1.85" style="fill:none;stroke:#263238;stroke-linecap:round;stroke-linejoin:round"></circle><circle cx="412.68" cy="105.52" r="1.85" style="fill:none;stroke:#263238;stroke-linecap:round;stroke-linejoin:round"></circle><circle cx="418.58" cy="105.52" r="1.85" style="fill:none;stroke:#263238;stroke-linecap:round;stroke-linejoin:round"></circle><circle cx="424.49" cy="105.52" r="1.85" style="fill:none;stroke:#263238;stroke-linecap:round;stroke-linejoin:round"></circle><circle cx="430.4" cy="105.52" r="1.85" style="fill:none;stroke:#263238;stroke-linecap:round;stroke-linejoin:round"></circle><path d="M402.71,112.16a1.85,1.85,0,1,0-1.85,1.85A1.84,1.84,0,0,0,402.71,112.16Z" style="fill:none;stroke:#263238;stroke-linecap:round;stroke-linejoin:round"></path><circle cx="406.77" cy="112.16" r="1.85" style="fill:none;stroke:#263238;stroke-linecap:round;stroke-linejoin:round"></circle><circle cx="412.68" cy="112.16" r="1.85" style="fill:none;stroke:#263238;stroke-linecap:round;stroke-linejoin:round"></circle><circle cx="418.58" cy="112.16" r="1.85" style="fill:none;stroke:#263238;stroke-linecap:round;stroke-linejoin:round"></circle><circle cx="424.49" cy="112.16" r="1.85" style="fill:none;stroke:#263238;stroke-linecap:round;stroke-linejoin:round"></circle><circle cx="430.4" cy="112.16" r="1.85" style="fill:none;stroke:#263238;stroke-linecap:round;stroke-linejoin:round"></circle><path d="M402.71,118.81a1.85,1.85,0,1,0-1.85,1.84A1.85,1.85,0,0,0,402.71,118.81Z" style="fill:none;stroke:#263238;stroke-linecap:round;stroke-linejoin:round"></path><circle cx="406.77" cy="118.81" r="1.85" style="fill:none;stroke:#263238;stroke-linecap:round;stroke-linejoin:round"></circle><circle cx="412.68" cy="118.81" r="1.85" style="fill:none;stroke:#263238;stroke-linecap:round;stroke-linejoin:round"></circle><circle cx="418.58" cy="118.81" r="1.85" style="fill:none;stroke:#263238;stroke-linecap:round;stroke-linejoin:round"></circle><circle cx="424.49" cy="118.81" r="1.85" style="fill:none;stroke:#263238;stroke-linecap:round;stroke-linejoin:round"></circle><circle cx="430.4" cy="118.81" r="1.85" style="fill:none;stroke:#263238;stroke-linecap:round;stroke-linejoin:round"></circle><path d="M402.71,125.45a1.85,1.85,0,1,0-1.85,1.85A1.84,1.84,0,0,0,402.71,125.45Z" style="fill:none;stroke:#263238;stroke-linecap:round;stroke-linejoin:round"></path><circle cx="406.77" cy="125.45" r="1.85" style="fill:none;stroke:#263238;stroke-linecap:round;stroke-linejoin:round"></circle><circle cx="412.68" cy="125.45" r="1.85" style="fill:none;stroke:#263238;stroke-linecap:round;stroke-linejoin:round"></circle><circle cx="418.58" cy="125.45" r="1.85" style="fill:none;stroke:#263238;stroke-linecap:round;stroke-linejoin:round"></circle><circle cx="424.49" cy="125.45" r="1.85" style="fill:none;stroke:#263238;stroke-linecap:round;stroke-linejoin:round"></circle><circle cx="430.4" cy="125.45" r="1.85" style="fill:none;stroke:#263238;stroke-linecap:round;stroke-linejoin:round"></circle><path d="M402.71,132.1a1.85,1.85,0,1,0-1.85,1.85A1.85,1.85,0,0,0,402.71,132.1Z" style="fill:none;stroke:#263238;stroke-linecap:round;stroke-linejoin:round"></path><circle cx="406.77" cy="132.1" r="1.85" style="fill:none;stroke:#263238;stroke-linecap:round;stroke-linejoin:round"></circle><circle cx="412.68" cy="132.1" r="1.85" style="fill:none;stroke:#263238;stroke-linecap:round;stroke-linejoin:round"></circle><circle cx="418.58" cy="132.1" r="1.85" style="fill:none;stroke:#263238;stroke-linecap:round;stroke-linejoin:round"></circle><circle cx="424.49" cy="132.1" r="1.85" style="fill:none;stroke:#263238;stroke-linecap:round;stroke-linejoin:round"></circle><circle cx="430.4" cy="132.1" r="1.85" style="fill:none;stroke:#263238;stroke-linecap:round;stroke-linejoin:round"></circle><path d="M402.71,138.75a1.85,1.85,0,1,0-1.85,1.84A1.85,1.85,0,0,0,402.71,138.75Z" style="fill:none;stroke:#263238;stroke-linecap:round;stroke-linejoin:round"></path><circle cx="406.77" cy="138.75" r="1.85" style="fill:none;stroke:#263238;stroke-linecap:round;stroke-linejoin:round"></circle><circle cx="412.68" cy="138.75" r="1.85" style="fill:none;stroke:#263238;stroke-linecap:round;stroke-linejoin:round"></circle><circle cx="418.58" cy="138.75" r="1.85" style="fill:none;stroke:#263238;stroke-linecap:round;stroke-linejoin:round"></circle><circle cx="424.49" cy="138.75" r="1.85" style="fill:none;stroke:#263238;stroke-linecap:round;stroke-linejoin:round"></circle><circle cx="430.4" cy="138.75" r="1.85" style="fill:none;stroke:#263238;stroke-linecap:round;stroke-linejoin:round"></circle><path d="M402.71,145.39a1.85,1.85,0,1,0-1.85,1.85A1.84,1.84,0,0,0,402.71,145.39Z" style="fill:none;stroke:#263238;stroke-linecap:round;stroke-linejoin:round"></path><circle cx="406.77" cy="145.39" r="1.85" style="fill:none;stroke:#263238;stroke-linecap:round;stroke-linejoin:round"></circle><circle cx="412.68" cy="145.39" r="1.85" style="fill:none;stroke:#263238;stroke-linecap:round;stroke-linejoin:round"></circle><circle cx="418.58" cy="145.39" r="1.85" style="fill:none;stroke:#263238;stroke-linecap:round;stroke-linejoin:round"></circle><circle cx="424.49" cy="145.39" r="1.85" style="fill:none;stroke:#263238;stroke-linecap:round;stroke-linejoin:round"></circle><circle cx="430.4" cy="145.39" r="1.85" style="fill:none;stroke:#263238;stroke-linecap:round;stroke-linejoin:round"></circle><path d="M402.71,152a1.85,1.85,0,1,0-1.85,1.84A1.85,1.85,0,0,0,402.71,152Z" style="fill:none;stroke:#263238;stroke-linecap:round;stroke-linejoin:round"></path><circle cx="406.77" cy="152.04" r="1.85" style="fill:none;stroke:#263238;stroke-linecap:round;stroke-linejoin:round"></circle><circle cx="412.68" cy="152.04" r="1.85" style="fill:none;stroke:#263238;stroke-linecap:round;stroke-linejoin:round"></circle><circle cx="418.58" cy="152.04" r="1.85" style="fill:none;stroke:#263238;stroke-linecap:round;stroke-linejoin:round"></circle><circle cx="424.49" cy="152.04" r="1.85" style="fill:none;stroke:#263238;stroke-linecap:round;stroke-linejoin:round"></circle><circle cx="430.4" cy="152.04" r="1.85" style="fill:none;stroke:#263238;stroke-linecap:round;stroke-linejoin:round"></circle><path d="M326.58,136.35l13.25-20.54A7.88,7.88,0,0,0,337.25,105L298.79,80.16a7.88,7.88,0,0,0-10.94,2.11L285,86.71a33,33,0,0,1-13.68-4.2c-7.12-4.23-13.45-10.85-20-16.53a83.24,83.24,0,0,0-11.66-8,6.53,6.53,0,1,0-7.08,11,82.48,82.48,0,0,0,12.13,7.31c7.88,3.63,16.52,6.67,23.31,11.42a32.94,32.94,0,0,1,9.46,10.73l-2.86,4.44a7.89,7.89,0,0,0,2.58,10.84l38.46,24.81A7.88,7.88,0,0,0,326.58,136.35Z" style="fill:none;stroke:#263238;stroke-linecap:round;stroke-linejoin:round"></path><rect x="291.38" y="83.06" width="31.69" height="52.51" rx="6.32" transform="translate(565.64 -89.58) rotate(122.83)" style="fill:none;stroke:#263238;stroke-linecap:round;stroke-linejoin:round"></rect><path d="M331,112.28a1.53,1.53,0,1,0-.45-2.1A1.52,1.52,0,0,0,331,112.28Z" style="fill:none;stroke:#263238;stroke-linecap:round;stroke-linejoin:round"></path><path d="M328.35,116.38a1.52,1.52,0,1,0-.45-2.11A1.53,1.53,0,0,0,328.35,116.38Z" style="fill:none;stroke:#263238;stroke-linecap:round;stroke-linejoin:round"></path><path d="M325.71,120.48a1.52,1.52,0,1,0-.46-2.11A1.52,1.52,0,0,0,325.71,120.48Z" style="fill:none;stroke:#263238;stroke-linecap:round;stroke-linejoin:round"></path><path d="M323.06,124.57a1.53,1.53,0,1,0-.45-2.1A1.52,1.52,0,0,0,323.06,124.57Z" style="fill:none;stroke:#263238;stroke-linecap:round;stroke-linejoin:round"></path><path d="M320.42,128.67a1.52,1.52,0,1,0,1.65-2.56,1.52,1.52,0,0,0-1.65,2.56Z" style="fill:none;stroke:#263238;stroke-linecap:round;stroke-linejoin:round"></path><path d="M317.78,132.77a1.52,1.52,0,0,0,1.65-2.56,1.52,1.52,0,1,0-1.65,2.56Z" style="fill:none;stroke:#263238;stroke-linecap:round;stroke-linejoin:round"></path><path d="M326.38,109.31a1.53,1.53,0,1,0-.45-2.11A1.52,1.52,0,0,0,326.38,109.31Z" style="fill:none;stroke:#263238;stroke-linecap:round;stroke-linejoin:round"></path><path d="M323.74,113.41a1.52,1.52,0,1,0,1.65-2.56,1.52,1.52,0,0,0-1.65,2.56Z" style="fill:none;stroke:#263238;stroke-linecap:round;stroke-linejoin:round"></path><path d="M321.1,117.5a1.52,1.52,0,0,0,1.65-2.56,1.52,1.52,0,1,0-1.65,2.56Z" style="fill:none;stroke:#263238;stroke-linecap:round;stroke-linejoin:round"></path><path d="M318.45,121.6a1.53,1.53,0,1,0-.45-2.11A1.53,1.53,0,0,0,318.45,121.6Z" style="fill:none;stroke:#263238;stroke-linecap:round;stroke-linejoin:round"></path><path d="M315.81,125.7a1.52,1.52,0,1,0,1.65-2.56,1.52,1.52,0,0,0-1.65,2.56Z" style="fill:none;stroke:#263238;stroke-linecap:round;stroke-linejoin:round"></path><path d="M313.17,129.8a1.53,1.53,0,1,0-.46-2.11A1.52,1.52,0,0,0,313.17,129.8Z" style="fill:none;stroke:#263238;stroke-linecap:round;stroke-linejoin:round"></path><path d="M321.77,106.34a1.53,1.53,0,1,0-.45-2.11A1.53,1.53,0,0,0,321.77,106.34Z" style="fill:none;stroke:#263238;stroke-linecap:round;stroke-linejoin:round"></path><path d="M319.13,110.43a1.52,1.52,0,1,0-.45-2.1A1.52,1.52,0,0,0,319.13,110.43Z" style="fill:none;stroke:#263238;stroke-linecap:round;stroke-linejoin:round"></path><path d="M316.49,114.53a1.52,1.52,0,1,0-.46-2.11A1.52,1.52,0,0,0,316.49,114.53Z" style="fill:none;stroke:#263238;stroke-linecap:round;stroke-linejoin:round"></path><path d="M313.84,118.63a1.53,1.53,0,1,0-.45-2.11A1.53,1.53,0,0,0,313.84,118.63Z" style="fill:none;stroke:#263238;stroke-linecap:round;stroke-linejoin:round"></path><path d="M311.2,122.72a1.52,1.52,0,1,0-.45-2.1A1.52,1.52,0,0,0,311.2,122.72Z" style="fill:none;stroke:#263238;stroke-linecap:round;stroke-linejoin:round"></path><path d="M308.56,126.82a1.52,1.52,0,1,0-.46-2.11A1.52,1.52,0,0,0,308.56,126.82Z" style="fill:none;stroke:#263238;stroke-linecap:round;stroke-linejoin:round"></path><path d="M317.17,103.36a1.52,1.52,0,1,0-.46-2.11A1.52,1.52,0,0,0,317.17,103.36Z" style="fill:none;stroke:#263238;stroke-linecap:round;stroke-linejoin:round"></path><path d="M314.52,107.46a1.52,1.52,0,1,0,1.65-2.56,1.52,1.52,0,0,0-1.65,2.56Z" style="fill:none;stroke:#263238;stroke-linecap:round;stroke-linejoin:round"></path><path d="M311.88,111.56a1.53,1.53,0,1,0-.46-2.11A1.52,1.52,0,0,0,311.88,111.56Z" style="fill:none;stroke:#263238;stroke-linecap:round;stroke-linejoin:round"></path><path d="M309.23,115.65a1.53,1.53,0,1,0-.45-2.1A1.52,1.52,0,0,0,309.23,115.65Z" style="fill:none;stroke:#263238;stroke-linecap:round;stroke-linejoin:round"></path><path d="M306.59,119.75a1.52,1.52,0,1,0-.45-2.11A1.53,1.53,0,0,0,306.59,119.75Z" style="fill:none;stroke:#263238;stroke-linecap:round;stroke-linejoin:round"></path><path d="M304,123.85a1.52,1.52,0,1,0-.46-2.11A1.52,1.52,0,0,0,304,123.85Z" style="fill:none;stroke:#263238;stroke-linecap:round;stroke-linejoin:round"></path><path d="M312.56,100.39a1.52,1.52,0,1,0-.46-2.11A1.52,1.52,0,0,0,312.56,100.39Z" style="fill:none;stroke:#263238;stroke-linecap:round;stroke-linejoin:round"></path><path d="M309.91,104.48a1.52,1.52,0,1,0-.45-2.1A1.52,1.52,0,0,0,309.91,104.48Z" style="fill:none;stroke:#263238;stroke-linecap:round;stroke-linejoin:round"></path><path d="M307.27,108.58a1.52,1.52,0,1,0-.46-2.1A1.53,1.53,0,0,0,307.27,108.58Z" style="fill:none;stroke:#263238;stroke-linecap:round;stroke-linejoin:round"></path><path d="M304.63,112.68a1.52,1.52,0,0,0,1.65-2.56,1.52,1.52,0,1,0-1.65,2.56Z" style="fill:none;stroke:#263238;stroke-linecap:round;stroke-linejoin:round"></path><path d="M302,116.78a1.52,1.52,0,1,0,1.65-2.56,1.52,1.52,0,0,0-1.65,2.56Z" style="fill:none;stroke:#263238;stroke-linecap:round;stroke-linejoin:round"></path><path d="M299.34,120.87a1.52,1.52,0,0,0,1.65-2.56,1.52,1.52,0,1,0-1.65,2.56Z" style="fill:none;stroke:#263238;stroke-linecap:round;stroke-linejoin:round"></path><path d="M308,97.41a1.52,1.52,0,0,0,1.65-2.56A1.52,1.52,0,1,0,308,97.41Z" style="fill:none;stroke:#263238;stroke-linecap:round;stroke-linejoin:round"></path><path d="M305.3,101.51a1.52,1.52,0,1,0-.45-2.11A1.53,1.53,0,0,0,305.3,101.51Z" style="fill:none;stroke:#263238;stroke-linecap:round;stroke-linejoin:round"></path><path d="M302.66,105.61a1.52,1.52,0,1,0-.46-2.11A1.53,1.53,0,0,0,302.66,105.61Z" style="fill:none;stroke:#263238;stroke-linecap:round;stroke-linejoin:round"></path><path d="M300,109.71a1.53,1.53,0,1,0-.46-2.11A1.52,1.52,0,0,0,300,109.71Z" style="fill:none;stroke:#263238;stroke-linecap:round;stroke-linejoin:round"></path><path d="M297.37,113.8a1.52,1.52,0,1,0-.45-2.1A1.52,1.52,0,0,0,297.37,113.8Z" style="fill:none;stroke:#263238;stroke-linecap:round;stroke-linejoin:round"></path><path d="M294.73,117.9a1.52,1.52,0,1,0-.46-2.11A1.53,1.53,0,0,0,294.73,117.9Z" style="fill:none;stroke:#263238;stroke-linecap:round;stroke-linejoin:round"></path><path d="M303.34,94.44a1.52,1.52,0,1,0-.46-2.11A1.52,1.52,0,0,0,303.34,94.44Z" style="fill:none;stroke:#263238;stroke-linecap:round;stroke-linejoin:round"></path><path d="M300.69,98.54a1.53,1.53,0,1,0-.45-2.11A1.53,1.53,0,0,0,300.69,98.54Z" style="fill:none;stroke:#263238;stroke-linecap:round;stroke-linejoin:round"></path><path d="M298.05,102.63a1.52,1.52,0,1,0-.45-2.1A1.52,1.52,0,0,0,298.05,102.63Z" style="fill:none;stroke:#263238;stroke-linecap:round;stroke-linejoin:round"></path><path d="M295.41,106.73a1.52,1.52,0,1,0-.46-2.11A1.52,1.52,0,0,0,295.41,106.73Z" style="fill:none;stroke:#263238;stroke-linecap:round;stroke-linejoin:round"></path><path d="M292.76,110.83a1.53,1.53,0,1,0-.45-2.11A1.53,1.53,0,0,0,292.76,110.83Z" style="fill:none;stroke:#263238;stroke-linecap:round;stroke-linejoin:round"></path><path d="M290.12,114.93a1.52,1.52,0,1,0,1.65-2.56,1.52,1.52,0,0,0-1.65,2.56Z" style="fill:none;stroke:#263238;stroke-linecap:round;stroke-linejoin:round"></path><path d="M298.73,91.47a1.53,1.53,0,1,0-.46-2.11A1.52,1.52,0,0,0,298.73,91.47Z" style="fill:none;stroke:#263238;stroke-linecap:round;stroke-linejoin:round"></path><path d="M296.08,95.56a1.53,1.53,0,1,0-.45-2.1A1.52,1.52,0,0,0,296.08,95.56Z" style="fill:none;stroke:#263238;stroke-linecap:round;stroke-linejoin:round"></path><path d="M293.44,99.66a1.52,1.52,0,1,0-.45-2.11A1.53,1.53,0,0,0,293.44,99.66Z" style="fill:none;stroke:#263238;stroke-linecap:round;stroke-linejoin:round"></path><path d="M290.8,103.76a1.52,1.52,0,1,0-.46-2.11A1.52,1.52,0,0,0,290.8,103.76Z" style="fill:none;stroke:#263238;stroke-linecap:round;stroke-linejoin:round"></path><path d="M288.15,107.85a1.53,1.53,0,1,0-.45-2.1A1.52,1.52,0,0,0,288.15,107.85Z" style="fill:none;stroke:#263238;stroke-linecap:round;stroke-linejoin:round"></path><path d="M285.51,112a1.52,1.52,0,1,0-.45-2.1A1.51,1.51,0,0,0,285.51,112Z" style="fill:none;stroke:#263238;stroke-linecap:round;stroke-linejoin:round"></path><path d="M294.12,88.49a1.52,1.52,0,1,0-.46-2.1A1.52,1.52,0,0,0,294.12,88.49Z" style="fill:none;stroke:#263238;stroke-linecap:round;stroke-linejoin:round"></path><path d="M291.47,92.59a1.53,1.53,0,1,0-.45-2.11A1.52,1.52,0,0,0,291.47,92.59Z" style="fill:none;stroke:#263238;stroke-linecap:round;stroke-linejoin:round"></path><path d="M288.83,96.69a1.52,1.52,0,1,0,1.65-2.56,1.52,1.52,0,0,0-1.65,2.56Z" style="fill:none;stroke:#263238;stroke-linecap:round;stroke-linejoin:round"></path><path d="M286.19,100.78a1.52,1.52,0,0,0,1.65-2.56,1.52,1.52,0,1,0-1.65,2.56Z" style="fill:none;stroke:#263238;stroke-linecap:round;stroke-linejoin:round"></path><path d="M283.54,104.88a1.53,1.53,0,1,0-.45-2.11A1.53,1.53,0,0,0,283.54,104.88Z" style="fill:none;stroke:#263238;stroke-linecap:round;stroke-linejoin:round"></path><path d="M280.9,109a1.52,1.52,0,1,0,1.65-2.56A1.52,1.52,0,0,0,280.9,109Z" style="fill:none;stroke:#263238;stroke-linecap:round;stroke-linejoin:round"></path><path d="M175.58,63.52l-.14-.06c-5.45-2.24-11.82,3.63-16.05,6.3L139.09,82.6l-4.39,2.78L114.73,98,98.79,108.1l-11.51,7.28c-2.79,1.76-7.21,3.66-8.86,6.6a8.31,8.31,0,0,0-1,4.6c.46,6,6.75,12,10.26,16.67L95,153a.37.37,0,0,0,.65-.36l-8.69-23,15,19a.31.31,0,0,0,.53-.33L91.84,126.9a.76.76,0,0,1,.27-1h0a.77.77,0,0,1,1,.17L108,144.91a.31.31,0,0,0,.53-.33L97.82,123.11a.76.76,0,0,1,.28-1h0a.76.76,0,0,1,1,.17l14.83,18.83a.32.32,0,0,0,.53-.34l-10.66-21.46a.76.76,0,0,1,.27-1h0a.76.76,0,0,1,1,.17l14.83,18.83a.31.31,0,0,0,.53-.33l-10.66-21.47a.78.78,0,0,1,.28-1h0a.77.77,0,0,1,1,.18l14.83,18.83a.32.32,0,0,0,.53-.34l-10.66-21.47a.75.75,0,0,1,.27-1h0a.76.76,0,0,1,1,.17l14.83,18.83a.31.31,0,0,0,.53-.33L121.76,108a.78.78,0,0,1,.28-1h0a.77.77,0,0,1,1,.17L137.88,126a.31.31,0,0,0,.53-.33l-10.66-21.47a.76.76,0,0,1,.27-1h0a.77.77,0,0,1,1,.18l14.83,18.83a.32.32,0,0,0,.53-.34L133.73,100.4a.77.77,0,0,1,.28-1h0a.76.76,0,0,1,1,.17l14.83,18.83a.31.31,0,0,0,.53-.33L139.72,96.61a.76.76,0,0,1,.27-1h0a.76.76,0,0,1,1,.18l14.83,18.83a.32.32,0,0,0,.53-.34L145.7,92.82a.76.76,0,0,1,.28-1h0a.76.76,0,0,1,1,.17l14.83,18.83a.31.31,0,0,0,.53-.33L151.69,89a.76.76,0,0,1,.27-1h0a.77.77,0,0,1,1,.17l14.83,18.83a.31.31,0,0,0,.53-.33L157.67,85.25a.76.76,0,0,1,.28-1h0a.76.76,0,0,1,1,.17l14.83,18.83a.32.32,0,0,0,.53-.34L163.66,81.47a.76.76,0,0,1,.27-1h0a.76.76,0,0,1,1,.17l14.83,18.83a.31.31,0,0,0,.53-.33L169.64,77.68a.78.78,0,0,1,.28-1h0a.77.77,0,0,1,1,.18L185.76,95.7a.32.32,0,0,0,.53-.34L176.07,74.78l16.16,16.8a.38.38,0,0,0,.61-.44l-6.84-13C183.44,73.34,180.93,65.86,175.58,63.52Z" style="fill:none;stroke:#263238;stroke-linecap:round;stroke-linejoin:round"></path><path d="M51.64,210l-.09.1c-3.61,3.61-1,10.65-.3,14.92q1.77,10.25,3.52,20.5l.76,4.43L59,270.11l2.76,16.09q1,5.81,2,11.62c.49,2.82.54,7,2.34,9.28a7.18,7.18,0,0,0,3.36,2.3c5,1.63,11.82-1.42,16.73-2.67l10.24-2.59a.33.33,0,0,0-.07-.65l-21.26-.68,20.19-5.66a.27.27,0,0,0-.1-.53L74.48,298a.67.67,0,0,1-.7-.55h0a.66.66,0,0,1,.48-.75l20-5.6a.27.27,0,0,0-.09-.53L73.44,292a.66.66,0,0,1-.7-.54h0a.67.67,0,0,1,.48-.75l20-5.6a.28.28,0,0,0-.09-.54L72.4,285.92a.65.65,0,0,1-.69-.55h0a.66.66,0,0,1,.47-.75l20-5.6a.27.27,0,0,0-.09-.53l-20.7,1.39a.67.67,0,0,1-.7-.55h0a.66.66,0,0,1,.47-.75l20-5.6a.27.27,0,0,0-.1-.53l-20.7,1.38a.66.66,0,0,1-.7-.54h0a.66.66,0,0,1,.47-.75l20-5.6a.28.28,0,0,0-.09-.54l-20.71,1.39a.66.66,0,0,1-.7-.55h0a.67.67,0,0,1,.48-.75l20-5.6a.27.27,0,0,0-.09-.53l-20.71,1.39a.66.66,0,0,1-.69-.55h0a.66.66,0,0,1,.47-.75l20-5.6a.27.27,0,0,0-.09-.53l-20.71,1.39a.67.67,0,0,1-.69-.55h0a.66.66,0,0,1,.47-.75l20-5.6a.28.28,0,0,0-.09-.54l-20.7,1.39a.66.66,0,0,1-.7-.55h0a.67.67,0,0,1,.47-.75l20-5.6a.27.27,0,0,0-.09-.53l-20.71,1.39a.67.67,0,0,1-.7-.55h0a.67.67,0,0,1,.48-.75l20-5.6a.27.27,0,0,0-.09-.53L64.1,237.58a.66.66,0,0,1-.69-.55h0a.65.65,0,0,1,.47-.75l20-5.6a.27.27,0,0,0-.09-.53l-20.71,1.38a.65.65,0,0,1-.69-.55h0a.66.66,0,0,1,.47-.75l20-5.59a.28.28,0,0,0-.09-.54L62,225.49a.66.66,0,0,1-.7-.55h0a.67.67,0,0,1,.47-.75l20-5.6a.27.27,0,0,0-.1-.53L61,219.45a.67.67,0,0,1-.7-.55h0a.66.66,0,0,1,.48-.75l20-5.6a.27.27,0,0,0-.09-.53l-19.85,1.33L79.61,206a.33.33,0,0,0-.15-.63l-12.62,1.17C62.1,207,55.29,206.5,51.64,210Z" style="fill:none;stroke:#263238;stroke-linecap:round;stroke-linejoin:round"></path><path d="M434,340.63l-.14-.06c-5.45-2.25-11.82,3.62-16.05,6.3l-20.3,12.84-4.38,2.78-20,12.63L357.21,385.2l-11.52,7.29c-2.79,1.76-7.21,3.66-8.85,6.6a8.19,8.19,0,0,0-1,4.6c.46,6,6.76,12,10.27,16.67l7.3,9.77a.38.38,0,0,0,.66-.37l-8.7-23,15,19a.32.32,0,0,0,.53-.34L350.25,404a.76.76,0,0,1,.28-1h0a.76.76,0,0,1,1,.17L366.37,422a.31.31,0,0,0,.53-.33l-10.66-21.47a.76.76,0,0,1,.27-1h0a.76.76,0,0,1,1,.18l14.83,18.82a.31.31,0,0,0,.53-.33l-10.66-21.47a.76.76,0,0,1,.28-1h0a.76.76,0,0,1,1,.17l14.83,18.83a.32.32,0,0,0,.53-.34l-10.66-21.46a.76.76,0,0,1,.27-1h0a.77.77,0,0,1,1,.17l14.83,18.83a.31.31,0,0,0,.53-.33l-10.66-21.47a.78.78,0,0,1,.28-1h0a.77.77,0,0,1,1,.18l14.83,18.83a.32.32,0,0,0,.53-.34l-10.66-21.47a.75.75,0,0,1,.27-1h0a.76.76,0,0,1,1,.17l14.83,18.83a.31.31,0,0,0,.53-.33l-10.66-21.47a.78.78,0,0,1,.28-1h0a.77.77,0,0,1,1,.18l14.83,18.82a.31.31,0,0,0,.53-.33L392.15,377.5a.75.75,0,0,1,.27-1h0a.76.76,0,0,1,1,.17l14.83,18.83a.32.32,0,0,0,.53-.34l-10.66-21.46a.78.78,0,0,1,.28-1h0a.77.77,0,0,1,1,.17l14.83,18.83a.31.31,0,0,0,.53-.33l-10.66-21.47a.76.76,0,0,1,.27-1h0a.76.76,0,0,1,1,.18L420.23,388a.32.32,0,0,0,.53-.34L410.1,366.14a.75.75,0,0,1,.28-1h0a.76.76,0,0,1,1,.17l14.83,18.83a.31.31,0,0,0,.53-.33l-10.67-21.47a.78.78,0,0,1,.28-1h0a.76.76,0,0,1,1,.18l14.83,18.82a.31.31,0,0,0,.53-.33l-10.66-21.47a.75.75,0,0,1,.28-1h0a.76.76,0,0,1,1,.17l14.83,18.83a.31.31,0,0,0,.52-.34l-10.66-21.46a.78.78,0,0,1,.28-1h0a.77.77,0,0,1,1,.17l14.83,18.83a.31.31,0,0,0,.53-.33l-10.22-20.58,16.17,16.8a.38.38,0,0,0,.61-.44l-6.84-12.95C441.85,350.44,439.34,343,434,340.63Z" style="fill:none;stroke:#263238;stroke-linecap:round;stroke-linejoin:round"></path><path d="M66.47,366.93,61.06,396a9.54,9.54,0,0,0,7.88,11l54.52,10.13a9.54,9.54,0,0,0,11.29-7.39l1.17-6.3a40.19,40.19,0,0,1,17.26-1.58c9.92,1.47,20.06,6,30,9.33A99.88,99.88,0,0,0,200,414.84a7.91,7.91,0,1,0,2.89-15.55,101.59,101.59,0,0,0-17-2.62c-10.51-.45-21.59.12-31.38-2.07A40.07,40.07,0,0,1,139,386.91l1.17-6.29a9.56,9.56,0,0,0-7.88-11L77.76,359.53A9.55,9.55,0,0,0,66.47,366.93Z" style="fill:none;stroke:#263238;stroke-linecap:round;stroke-linejoin:round"></path><rect x="81.39" y="356.52" width="38.4" height="63.62" rx="6.32" transform="translate(-299.58 416.27) rotate(-79.47)" style="fill:none;stroke:#263238;stroke-linecap:round;stroke-linejoin:round"></rect><path d="M72.59,395.93a1.85,1.85,0,1,0,1.48,2.15A1.84,1.84,0,0,0,72.59,395.93Z" style="fill:none;stroke:#263238;stroke-linecap:round;stroke-linejoin:round"></path><circle cx="73.33" cy="391.94" r="1.85" transform="translate(-63.65 17.46) rotate(-9.49)" style="fill:none;stroke:#263238;stroke-linecap:round;stroke-linejoin:round"></circle><path d="M74.75,384.31a1.85,1.85,0,1,0-.68,3.63,1.85,1.85,0,0,0,.68-3.63Z" style="fill:none;stroke:#263238;stroke-linecap:round;stroke-linejoin:round"></path><path d="M75.83,378.5a1.85,1.85,0,1,0-.68,3.63,1.85,1.85,0,0,0,.68-3.63Z" style="fill:none;stroke:#263238;stroke-linecap:round;stroke-linejoin:round"></path><path d="M76.91,372.7a1.85,1.85,0,1,0,1.47,2.15A1.85,1.85,0,0,0,76.91,372.7Z" style="fill:none;stroke:#263238;stroke-linecap:round;stroke-linejoin:round"></path><circle cx="77.65" cy="368.7" r="1.85" transform="translate(-33.66 8.73) rotate(-5.29)" style="fill:none;stroke:#263238;stroke-linecap:round;stroke-linejoin:round"></circle><circle cx="78.78" cy="398.96" r="1.85" transform="translate(-36.45 8.96) rotate(-5.29)" style="fill:none;stroke:#263238;stroke-linecap:round;stroke-linejoin:round"></circle><path d="M80.2,391.33a1.85,1.85,0,1,0,1.48,2.16A1.86,1.86,0,0,0,80.2,391.33Z" style="fill:none;stroke:#263238;stroke-linecap:round;stroke-linejoin:round"></path><path d="M81.28,385.53a1.85,1.85,0,1,0-.67,3.63,1.85,1.85,0,0,0,.67-3.63Z" style="fill:none;stroke:#263238;stroke-linecap:round;stroke-linejoin:round"></path><path d="M82.36,379.72a1.85,1.85,0,1,0,1.48,2.15A1.86,1.86,0,0,0,82.36,379.72Z" style="fill:none;stroke:#263238;stroke-linecap:round;stroke-linejoin:round"></path><circle cx="83.1" cy="375.73" r="1.85" transform="translate(-60.84 18.85) rotate(-9.49)" style="fill:none;stroke:#263238;stroke-linecap:round;stroke-linejoin:round"></circle><path d="M84.52,368.1A1.85,1.85,0,1,0,86,370.25,1.85,1.85,0,0,0,84.52,368.1Z" style="fill:none;stroke:#263238;stroke-linecap:round;stroke-linejoin:round"></path><path d="M85.66,398.36a1.85,1.85,0,1,0,1.47,2.15A1.84,1.84,0,0,0,85.66,398.36Z" style="fill:none;stroke:#263238;stroke-linecap:round;stroke-linejoin:round"></path><circle cx="86.4" cy="394.36" r="1.85" transform="translate(-63.87 19.65) rotate(-9.49)" style="fill:none;stroke:#263238;stroke-linecap:round;stroke-linejoin:round"></circle><path d="M87.81,386.74a1.85,1.85,0,0,0-.67,3.63,1.85,1.85,0,1,0,.67-3.63Z" style="fill:none;stroke:#263238;stroke-linecap:round;stroke-linejoin:round"></path><circle cx="88.56" cy="382.75" r="1.85" transform="translate(-34.91 9.79) rotate(-5.29)" style="fill:none;stroke:#263238;stroke-linecap:round;stroke-linejoin:round"></circle><path d="M90,375.13a1.84,1.84,0,0,0-2.15,1.47,1.85,1.85,0,1,0,3.63.68A1.83,1.83,0,0,0,90,375.13Z" style="fill:none;stroke:#263238;stroke-linecap:round;stroke-linejoin:round"></path><path d="M91.05,369.32a1.85,1.85,0,1,0,1.48,2.15A1.84,1.84,0,0,0,91.05,369.32Z" style="fill:none;stroke:#263238;stroke-linecap:round;stroke-linejoin:round"></path><circle cx="91.85" cy="401.39" r="1.85" transform="translate(-36.62 10.18) rotate(-5.29)" style="fill:none;stroke:#263238;stroke-linecap:round;stroke-linejoin:round"></circle><path d="M93.27,393.76a1.85,1.85,0,1,0,1.48,2.16A1.85,1.85,0,0,0,93.27,393.76Z" style="fill:none;stroke:#263238;stroke-linecap:round;stroke-linejoin:round"></path><path d="M94.35,388a1.85,1.85,0,0,0-.68,3.63,1.85,1.85,0,1,0,.68-3.63Z" style="fill:none;stroke:#263238;stroke-linecap:round;stroke-linejoin:round"></path><path d="M95.43,382.15a1.85,1.85,0,0,0-.68,3.63,1.85,1.85,0,1,0,.68-3.63Z" style="fill:none;stroke:#263238;stroke-linecap:round;stroke-linejoin:round"></path><path d="M96.51,376.34A1.85,1.85,0,1,0,98,378.49,1.86,1.86,0,0,0,96.51,376.34Z" style="fill:none;stroke:#263238;stroke-linecap:round;stroke-linejoin:round"></path><path d="M97.59,370.53a1.85,1.85,0,1,0-.68,3.63,1.85,1.85,0,0,0,.68-3.63Z" style="fill:none;stroke:#263238;stroke-linecap:round;stroke-linejoin:round"></path><path d="M98.72,400.79a1.84,1.84,0,0,0-2.15,1.47,1.85,1.85,0,1,0,3.63.68A1.84,1.84,0,0,0,98.72,400.79Z" style="fill:none;stroke:#263238;stroke-linecap:round;stroke-linejoin:round"></path><path d="M99.8,395a1.85,1.85,0,1,0,1.48,2.15A1.84,1.84,0,0,0,99.8,395Z" style="fill:none;stroke:#263238;stroke-linecap:round;stroke-linejoin:round"></path><path d="M100.88,389.17a1.85,1.85,0,1,0,1.48,2.15A1.85,1.85,0,0,0,100.88,389.17Z" style="fill:none;stroke:#263238;stroke-linecap:round;stroke-linejoin:round"></path><path d="M102,383.36a1.85,1.85,0,1,0,1.48,2.15A1.86,1.86,0,0,0,102,383.36Z" style="fill:none;stroke:#263238;stroke-linecap:round;stroke-linejoin:round"></path><path d="M103,377.55a1.86,1.86,0,0,0-2.15,1.48,1.85,1.85,0,1,0,2.15-1.48Z" style="fill:none;stroke:#263238;stroke-linecap:round;stroke-linejoin:round"></path><path d="M104.12,371.75a1.85,1.85,0,1,0,1.48,2.15A1.84,1.84,0,0,0,104.12,371.75Z" style="fill:none;stroke:#263238;stroke-linecap:round;stroke-linejoin:round"></path><path d="M105.26,402a1.85,1.85,0,1,0,1.48,2.15A1.84,1.84,0,0,0,105.26,402Z" style="fill:none;stroke:#263238;stroke-linecap:round;stroke-linejoin:round"></path><path d="M106.34,396.19a1.85,1.85,0,1,0,1.48,2.15A1.85,1.85,0,0,0,106.34,396.19Z" style="fill:none;stroke:#263238;stroke-linecap:round;stroke-linejoin:round"></path><path d="M107.42,390.38a1.85,1.85,0,1,0-.68,3.63,1.85,1.85,0,0,0,.68-3.63Z" style="fill:none;stroke:#263238;stroke-linecap:round;stroke-linejoin:round"></path><circle cx="108.16" cy="386.39" r="1.85" transform="matrix(1, -0.09, 0.09, 1, -35.16, 11.62)" style="fill:none;stroke:#263238;stroke-linecap:round;stroke-linejoin:round"></circle><path d="M109.58,378.77a1.85,1.85,0,1,0,1.47,2.15A1.84,1.84,0,0,0,109.58,378.77Z" style="fill:none;stroke:#263238;stroke-linecap:round;stroke-linejoin:round"></path><circle cx="110.32" cy="374.78" r="1.85" transform="translate(-60.31 23.33) rotate(-9.49)" style="fill:none;stroke:#263238;stroke-linecap:round;stroke-linejoin:round"></circle><path d="M111.79,403.21a1.85,1.85,0,1,0,1.48,2.16A1.86,1.86,0,0,0,111.79,403.21Z" style="fill:none;stroke:#263238;stroke-linecap:round;stroke-linejoin:round"></path><path d="M112.87,397.41a1.85,1.85,0,1,0,1.48,2.15A1.84,1.84,0,0,0,112.87,397.41Z" style="fill:none;stroke:#263238;stroke-linecap:round;stroke-linejoin:round"></path><circle cx="113.61" cy="393.41" r="1.85" transform="translate(-63.34 24.13) rotate(-9.49)" style="fill:none;stroke:#263238;stroke-linecap:round;stroke-linejoin:round"></circle><path d="M115,385.79a1.85,1.85,0,1,0,1.48,2.15A1.84,1.84,0,0,0,115,385.79Z" style="fill:none;stroke:#263238;stroke-linecap:round;stroke-linejoin:round"></path><path d="M116.11,380a1.85,1.85,0,1,0,1.48,2.15A1.85,1.85,0,0,0,116.11,380Z" style="fill:none;stroke:#263238;stroke-linecap:round;stroke-linejoin:round"></path><path d="M117.19,374.17a1.85,1.85,0,1,0,1.48,2.16A1.85,1.85,0,0,0,117.19,374.17Z" style="fill:none;stroke:#263238;stroke-linecap:round;stroke-linejoin:round"></path><path d="M118.33,404.43a1.85,1.85,0,1,0,1.47,2.15A1.84,1.84,0,0,0,118.33,404.43Z" style="fill:none;stroke:#263238;stroke-linecap:round;stroke-linejoin:round"></path><circle cx="119.07" cy="400.44" r="1.85" transform="translate(-36.41 12.68) rotate(-5.29)" style="fill:none;stroke:#263238;stroke-linecap:round;stroke-linejoin:round"></circle><path d="M120.49,392.81a1.85,1.85,0,1,0-.68,3.63,1.85,1.85,0,0,0,.68-3.63Z" style="fill:none;stroke:#263238;stroke-linecap:round;stroke-linejoin:round"></path><path d="M121.56,387a1.85,1.85,0,1,0,1.48,2.16A1.86,1.86,0,0,0,121.56,387Z" style="fill:none;stroke:#263238;stroke-linecap:round;stroke-linejoin:round"></path><path d="M122.64,381.2a1.84,1.84,0,0,0-2.15,1.47,1.85,1.85,0,1,0,3.63.68A1.84,1.84,0,0,0,122.64,381.2Z" style="fill:none;stroke:#263238;stroke-linecap:round;stroke-linejoin:round"></path><circle cx="123.39" cy="377.2" r="1.85" transform="translate(-60.53 25.52) rotate(-9.49)" style="fill:none;stroke:#263238;stroke-linecap:round;stroke-linejoin:round"></circle><circle cx="124.52" cy="407.46" r="1.85" transform="translate(-65.51 26.12) rotate(-9.49)" style="fill:none;stroke:#263238;stroke-linecap:round;stroke-linejoin:round"></circle><path d="M125.94,399.84a1.85,1.85,0,1,0-.67,3.63,1.85,1.85,0,1,0,.67-3.63Z" style="fill:none;stroke:#263238;stroke-linecap:round;stroke-linejoin:round"></path><path d="M127,394a1.85,1.85,0,0,0-.68,3.63A1.85,1.85,0,1,0,127,394Z" style="fill:none;stroke:#263238;stroke-linecap:round;stroke-linejoin:round"></path><path d="M128.1,388.22a1.85,1.85,0,1,0,1.48,2.15A1.86,1.86,0,0,0,128.1,388.22Z" style="fill:none;stroke:#263238;stroke-linecap:round;stroke-linejoin:round"></path><circle cx="128.84" cy="384.23" r="1.85" transform="translate(-34.88 13.52) rotate(-5.29)" style="fill:none;stroke:#263238;stroke-linecap:round;stroke-linejoin:round"></circle><circle cx="129.92" cy="378.42" r="1.85" transform="translate(-60.64 26.61) rotate(-9.49)" style="fill:none;stroke:#263238;stroke-linecap:round;stroke-linejoin:round"></circle></g><g id="freepik--Character--inject-3"><path d="M352.85,212.65s8,3.75,5.78,16.31-3.69,14,3,20.7,10.35,7.76,8.87,18.48-10.72,15.16-10.35,20.7,8.87,4.44,11.83,11.83a33.09,33.09,0,0,1,1.85,15.15" style="fill:none;stroke:#263238;stroke-linecap:round;stroke-linejoin:round"></path><path d="M269,137.89s-13.22-21.48-33-16.11-17.76,17.35-21.48,24-24.37-5.37-33,10.32-2.89,23.13-5,26.85-20.24-1.24-22.72,14.46,2.48,14.87-1.24,19-19-1.24-22.71,12.8,13.63,19.41,9.08,28.91-15.69,3.31-20.65,15.29.83,13.21,3.72,23.13,2.06,14-7.44,22.3S105,341.52,110,346.89,122.79,351,124.44,358s-6.61,14.46-5,10.33-2.89-7-5.37-1.66.83,13.22,11.57,14.46,17.76-2.48,22.71-8.26H366.48s11.15-35.52,9.5-50.39-14-21.48-19.83-28.91,18.18-19.42,13.22-35.11-14-9.92-16.52-19.42,5.78-19,0-26.43-16.52-3.3-17.35-10.74,14.46-16.11,3.72-25.19-16.52-3.72-18.59-5.37.83-5.79-5.78-10.74-8.26-.42-11.57-5,.42-14.46-12-20.24S269,137.89,269,137.89Z" style="fill:#263238;stroke:#263238;stroke-linecap:round;stroke-linejoin:round"></path><path d="M214.48,145.74s-7.76,3.38-14.78,1.17-17-.37-23.29,9.24.37,20.7-3.7,25.87-18.48,1.85-21.43,9.61.74,21.07-1.48,24-14.05-2.22-20.7,7.76-2.59,14.78-1.48,19.59" style="fill:none;stroke:#263238;stroke-linecap:round;stroke-linejoin:round"></path><path d="M118.75,275.9s-6.65,8.14-4.43,15.16,11.24,3.67,7.39,14-17,21.07-17.37,29.57,6.28,8.5,14.41,20.7.73,13,.73,13" style="fill:none;stroke:#263238;stroke-linecap:round;stroke-linejoin:round"></path><path d="M197.39,271s-41.59,10.13-43.76,15.55-11.21,93.66-11.21,93.66-7.59,31.82-4.7,34S174.24,433,174.24,433H301.89l10.85-43s15.55-74.49,16.63-84.25,2.9-11.21-1.44-18.08S260.31,261.62,197.39,271Z" style="fill:#FF6B6B;stroke:#263238;stroke-linecap:round;stroke-linejoin:round"></path><path d="M197.39,271s-4.14,11.94-4.83,16.79,1,41.22,1,41.22l24.25,1.39-7.62,10.05a77.44,77.44,0,0,0,14.2,11.08,132.12,132.12,0,0,1,15.94,11.78s10-10.05,15.58-13.86,9.36-7.62,9-10a41.83,41.83,0,0,0-2.42-7.28l26.33,1s7.27-17,4.15-42.26-5.19-28.76-5.19-28.76l-52-9.35S207.41,257.35,197.39,271Z" style="fill:#FF6B6B;stroke:#263238;stroke-linecap:round;stroke-linejoin:round"></path><path d="M215.58,426.48s42.14-5.32,70.37-17.19" style="fill:#FF6B6B;stroke:#263238;stroke-linecap:round;stroke-linejoin:round"></path><path d="M243.4,425.25s30.28-4.5,43.78-10.23" style="fill:#FF6B6B;stroke:#263238;stroke-linecap:round;stroke-linejoin:round"></path><path d="M209.68,262s9.4,55.33,19.17,74.13S240.42,360,240.42,360s25.67-42.67,32.9-67.26,4.85-39.26,4.85-39.26,21.26-11.23,0-10.08S209.68,262,209.68,262Z" style="fill:#fff;stroke:#263238;stroke-linecap:round;stroke-linejoin:round"></path><path d="M229.38,271.49s5.15,11.18,3.86,22.78" style="fill:none;stroke:#263238;stroke-linecap:round;stroke-linejoin:round"></path><path d="M207.16,195.32s-4,27.6-.15,45.36,14.73,33.68,29.4,31.75,27-10.19,42.16-25.39c9.62-9.67,12.73-26.21,13.5-42s-1.15-10.08-4.24-21.66S270.47,159.75,257,158.2,216.42,152.85,207.16,195.32Z" style="fill:#fff;stroke:#263238;stroke-linecap:round;stroke-linejoin:round"></path><path d="M257.39,222.58a.76.76,0,0,1-.76.76.76.76,0,0,1,0-1.52A.76.76,0,0,1,257.39,222.58Z" style="fill:none;stroke:#263238;stroke-miterlimit:10;stroke-width:0.5px"></path><path d="M268.93,224.85a.76.76,0,1,1-.76-.76A.76.76,0,0,1,268.93,224.85Z" style="fill:none;stroke:#263238;stroke-miterlimit:10;stroke-width:0.5px"></path><path d="M262.5,228.25a.76.76,0,1,1-.76-.75A.76.76,0,0,1,262.5,228.25Z" style="fill:none;stroke:#263238;stroke-miterlimit:10;stroke-width:0.5px"></path><path d="M219.18,211.8a.76.76,0,0,1-1.51,0,.76.76,0,1,1,1.51,0Z" style="fill:none;stroke:#263238;stroke-miterlimit:10;stroke-width:0.5px"></path><path d="M230.72,214.07a.76.76,0,1,1-.76-.76A.76.76,0,0,1,230.72,214.07Z" style="fill:none;stroke:#263238;stroke-miterlimit:10;stroke-width:0.5px"></path><path d="M224.29,217.47a.76.76,0,1,1-1.51,0,.76.76,0,0,1,1.51,0Z" style="fill:none;stroke:#263238;stroke-miterlimit:10;stroke-width:0.5px"></path><path d="M240.08,199.37s.81,4.72-2.39,12.66a16.94,16.94,0,0,1-4.37,6.15s-4.32-2.46-5.86.92,0,10.17,9.55,9.86" style="fill:none;stroke:#263238;stroke-linecap:round;stroke-linejoin:round"></path><path d="M220.38,233.27s4.31,7.09,14.48,7.09,15.5-3,15.5-3-7.49,8.49-16.74,10S220.38,233.27,220.38,233.27Z" style="fill:#fff;stroke:#263238;stroke-linecap:round;stroke-linejoin:round"></path><path d="M252.35,211.53s.66-5.33,9.92-3c4.11,1,9.71,7.66,7.82,7.23S259.9,209.41,252.35,211.53Z" style="fill:#263238"></path><path d="M254.45,213.05s1,2.06,9.92,3.77" style="fill:none;stroke:#263238;stroke-linecap:round;stroke-linejoin:round"></path><path d="M250.1,193.84s9.65-5.91,18.85-2.8,9.2,11.51,9.2,11.51S269,192,250.1,193.84Z" style="fill:#263238"></path><path d="M240.09,192.61s-1.77-8.32-7.08-9.24-13.45,6.93-13.45,6.93S233.72,183.83,240.09,192.61Z" style="fill:#263238"></path><path d="M233.81,205.26c-.55,2.41-2.07,4.11-3.4,3.81s-2-2.5-1.41-4.91,2.08-4.1,3.4-3.8S234.36,202.86,233.81,205.26Z" style="fill:#263238"></path><path d="M258.21,163.21s-7.32-11.05-10-.62-8.22,17.67-12.86,21.15-12.73-4.64-17.75,5.79-.39,18.14-3.86,23.93-9.65,3.86-8.88,10,.39,11.19-7,16.21c-3.84,2.62-7.33,17-7.33,18.14s-13.51-23.16-6.57-34,14.29-12,14.29-17.37-8.5-25.09-1.93-34.35,14.67-6.57,18.91-10.81-.38-20.85,18.14-20.85S258.21,158.58,258.21,163.21Z" style="fill:#263238;stroke:#263238;stroke-linecap:round;stroke-linejoin:round"></path><path d="M183.72,240.71s-.58,22.56-.58,26.67,5.57,8.2,6.74,9.08,19.05,15,19.05,15l-6.16,19,16.71,6.74s10.25-30.47,9.37-35.16-7.91-9.38-7.91-9.38,5.57-13.48,5.86-15.82-10.25-6.45-10.25-6.45-14.07-5.57-17.88-7.33S185.48,237.49,183.72,240.71Z" style="fill:#fff;stroke:#263238;stroke-linecap:round;stroke-linejoin:round"></path><path d="M198,242.78s-7.17-1-7.66.65-4.23,23.48-4.23,23.48" style="fill:none;stroke:#263238;stroke-linecap:round;stroke-linejoin:round"></path><line x1="200.43" y1="244.25" x2="193.91" y2="268.21" style="fill:none;stroke:#263238;stroke-linecap:round;stroke-linejoin:round"></line><line x1="209.88" y1="248.16" x2="204.51" y2="269.84" style="fill:none;stroke:#263238;stroke-linecap:round;stroke-linejoin:round"></line><path d="M220.94,272.65l-6.33-5.26,3.1-5.7s-.33,2.28,2.61,1.47" style="fill:none;stroke:#263238;stroke-linecap:round;stroke-linejoin:round"></path><path d="M336,174.31a36.94,36.94,0,0,1,6.74,4.39,23.48,23.48,0,0,1,3,2.87,12.61,12.61,0,0,1,2.3,3.67,9.33,9.33,0,0,1,.59,4.5c-.14,1.48-.59,2.76-.61,3.78a3.45,3.45,0,0,0,.2,1.41,5.43,5.43,0,0,0,.3.66,1,1,0,0,0,.28.35c.3.34,1.43.38,2.62.15s2.48-.56,3.88-.79a10.94,10.94,0,0,1,2.26-.16,5.31,5.31,0,0,1,2.54.72,4.84,4.84,0,0,1,1.09.92,11.64,11.64,0,0,1,.71,1,7,7,0,0,1,.82,2.29,16.71,16.71,0,0,1,.06,4.28,7.73,7.73,0,0,0,.22,3.29l.13.3.18.27a.92.92,0,0,0,.16.2c0,.06.14.11.2.17a5.15,5.15,0,0,0,1.41.61,63.22,63.22,0,0,0,7.6,1.17,18.48,18.48,0,0,1,4.14,1,4.84,4.84,0,0,1,2.16,1.54,3.29,3.29,0,0,1,.41.71c.08.2.12.34.18.51.12.33.22.65.33,1,.79,2.53,1.4,5.06,2.73,7a5.22,5.22,0,0,0,2.49,2,11.78,11.78,0,0,0,3.54.68,16.21,16.21,0,0,1,4.13.74,14.4,14.4,0,0,1,3.74,2c1.14.84,2.11,1.69,3.12,2.54l3,2.54,6,5.13,12,10.26a.51.51,0,0,1,.05.71.5.5,0,0,1-.69.06l-24.67-19.54a12.15,12.15,0,0,0-3.23-1.64,13.79,13.79,0,0,0-3.62-.56,14.1,14.1,0,0,1-4.18-.73,7.62,7.62,0,0,1-3.62-2.78c-1.76-2.43-2.4-5.14-3.24-7.57-.1-.3-.2-.61-.31-.89s-.12-.31-.16-.41a.8.8,0,0,0-.09-.14,2.36,2.36,0,0,0-1.05-.66,16.22,16.22,0,0,0-3.53-.79,64.12,64.12,0,0,1-8-1.2,7.67,7.67,0,0,1-2.19-1,4.7,4.7,0,0,1-.56-.46,2.87,2.87,0,0,1-.47-.55l-.37-.55-.27-.59a10.2,10.2,0,0,1-.44-4.5,14.09,14.09,0,0,0,0-3.58,4.17,4.17,0,0,0-.51-1.4c-.12-.21-.29-.41-.42-.6a1.65,1.65,0,0,0-.41-.34,4.44,4.44,0,0,0-2.89-.17c-1.19.19-2.45.55-3.84.81a10.72,10.72,0,0,1-2.27.2,4.49,4.49,0,0,1-2.69-.94,4.06,4.06,0,0,1-1-1.17,7.25,7.25,0,0,1-.49-1.14,6.2,6.2,0,0,1-.33-2.47c.1-1.62.56-2.86.7-4a6.7,6.7,0,0,0-.29-3.26,16.88,16.88,0,0,0-4.17-5.93,59.3,59.3,0,0,0-5.87-5.05h0a.5.5,0,0,1-.09-.7A.49.49,0,0,1,336,174.31Z" style="fill:#263238"></path><path d="M380.36,313.69l11.21-26.4s7.23-22.05,11.93-25.67,11.21-10.12,13.74-15.55,5.43-6.87,5.43-1.81-1.09,9-3.26,11.57l13.59-3s-1.92,6.1-3.69,8.19c-2.19,2.58,3.48,5.33,3.12,10-.72,9.4,3.27,12,1.46,14.5s-24.24,18.77-25.33,19.85-8.67,24.23-8.67,24.23Z" style="fill:#fff;stroke:#263238;stroke-linecap:round;stroke-linejoin:round"></path><path d="M419.41,255.83s-5.7,7.17-6.34,8.65-.63,11.84-1.9,15.86a40,40,0,0,1-2.53,6.34" style="fill:none;stroke:#263238;stroke-linecap:round;stroke-linejoin:round"></path><path d="M426.61,247.14s-9.72,10.57-9.3,11.84,1.69,3.17,3,3,12.47-6.13,12.9-8.46S430.42,245.87,426.61,247.14Z" style="fill:#fff;stroke:#263238;stroke-linecap:round;stroke-linejoin:round"></path><path d="M432,277.78s-11.5,5.08-11.6,6.25.24,3.14,1.34,3.41,12.15-.55,13.3-2.27S435.53,278.1,432,277.78Z" style="fill:#fff;stroke:#263238;stroke-linecap:round;stroke-linejoin:round"></path><path d="M432.77,268.78s-12.54,5.54-12.66,6.81.27,3.42,1.47,3.72,13.25-.61,14.51-2.48S436.59,269.12,432.77,268.78Z" style="fill:#fff;stroke:#263238;stroke-linecap:round;stroke-linejoin:round"></path><path d="M432.2,259.61S419.9,267,420,268.37s.73,3.52,2,3.67,13.69-2.39,14.75-4.5S436.21,259.46,432.2,259.61Z" style="fill:#fff;stroke:#263238;stroke-linecap:round;stroke-linejoin:round"></path><path d="M317.08,280.79s17.72,4,17.36,15.18c-.25,7.68,5,27.74,8.32,39.64a35.39,35.39,0,0,0,5.88,12,31.26,31.26,0,0,1,2.6,4c.87,1.59-.53,7.62-.53,7.62l28.56-51.34,32.55,17s-14.1,36.16-18.08,49.54-15.91,47.73-20.25,53.16-14.47,7.59-24.95,7.23-16.27-2.89-19.17-7.59S312.74,390,312.74,390l4.24-36.6" style="fill:#FF6B6B;stroke:#263238;stroke-linecap:round;stroke-linejoin:round"></path><path d="M336.63,372c2.77-2.47,5-4.3,5-4.3" style="fill:none;stroke:#263238;stroke-linecap:round;stroke-linejoin:round"></path><path d="M327.18,392.47s-2.8-7.84,1.68-12.88c1.23-1.38,2.74-2.9,4.29-4.37" style="fill:none;stroke:#263238;stroke-linecap:round;stroke-linejoin:round"></path><line x1="394.89" y1="346.4" x2="397.66" y2="347.84" style="fill:none;stroke:#263238;stroke-linecap:round;stroke-linejoin:round"></line><line x1="372.34" y1="334.71" x2="390.79" y2="344.28" style="fill:none;stroke:#263238;stroke-linecap:round;stroke-linejoin:round"></line><line x1="397.66" y1="318.3" x2="389.22" y2="336.59" style="fill:none;stroke:#263238;stroke-linecap:round;stroke-linejoin:round"></line><path d="M335.71,390c-.38,2.6-.25,5.2,2.41,3.33" style="fill:none;stroke:#263238;stroke-linecap:round;stroke-linejoin:round"></path><line x1="350.71" y1="359.25" x2="336.61" y2="386.01" style="fill:none;stroke:#263238;stroke-linecap:round;stroke-linejoin:round"></line><path d="M336.47,219.25c-6.56-10.81-13.12-12.74-13.12-20.46s-3.48-17.76-12.74-26.25a72.92,72.92,0,0,0-10.75-7.6c-3.36-2.13-6.5-5.2-10-6.93a15.92,15.92,0,0,0-3.23-1.08c-5.21-1.3-21-5.61-24.63.56-8.6-1.24,7.86,17.84,8.65,8.69-.64,7.36-6.72,15-1.92,21.13s13.12,2.24,9.6,11.84-6.72,17-3.84,22.4c2.17,4.1,4.89,5.84,6.37,8.36,1,3,.94,5.06-1.88,8.64-4.24,5.4-5.12,7.57-5.55,16.23,0,0,2.82,5.39-.44,8.65s-10.85,9.76-7.59,15.91,10.49,5.78,7.59,10.49-16.27,5.78-16.27,16.27,6.15,18.08,12.29,18.8,9.41,10.49,5.79,13.74-15.19.73-15.55,14.11,11.93,13.37,12.66,18.8-7.6,9.4-8.68,4.7,0-6.87,0-6.87-5.43,4.34-2.89,10.85,12.65,6.51,18.8,4.7,7.95-14.83,7.95-14.83,6.15,6.15,14.11,4.34,9-7.95,9-7.95-11.21-2.17-10.49-6.87,11.57.72,16.27-10.49-6.51-15.19-8.68-21.34,2.17-5.78,11.94-8,9-11.57,3.25-20.61,1.81-13.38,5.06-19.89.73-15.19.73-15.19-2.24-11.32,4.32-20.2S343,230.06,336.47,219.25Z" style="fill:#263238;stroke:#263238;stroke-linecap:round;stroke-linejoin:round"></path><path d="M267.71,157a19,19,0,0,0,4.28,4,18.1,18.1,0,0,0,5.21,2.45,20.51,20.51,0,0,0,2.79.54,13.55,13.55,0,0,0,1.42.1l.71,0h.8c1.08,0,2.17,0,3.33.12a11.74,11.74,0,0,1,1.88.28,6.69,6.69,0,0,1,1.15.38,4.13,4.13,0,0,1,1.45,1.09,3.65,3.65,0,0,1,.82,2,5,5,0,0,1-.09,1.47,13.46,13.46,0,0,1-.56,1.9l-1.14,3c-.35,1-.7,1.9-1,2.85a12.12,12.12,0,0,0-.52,2.53c-.29,3.33,1.22,6.72,3.61,9.6a26.69,26.69,0,0,0,4.12,4c.78.58,1.56,1.16,2.37,1.69s1.57.94,2.76,1.74a12,12,0,0,1,4.8,6.46,13.44,13.44,0,0,1-.31,7.87A20.35,20.35,0,0,1,302,217.3a14.75,14.75,0,0,1-1.15,1.34c-.41.42-.8.87-1.24,1.25L297.32,222a14.38,14.38,0,0,0-3.11,4.22,11,11,0,0,0-.85,5c.15,3.64,1.45,7.61,2.78,11.52a58.48,58.48,0,0,1,1.83,6.4,23.14,23.14,0,0,1,.47,7.06,14.85,14.85,0,0,1-2.66,7,22.33,22.33,0,0,1-5,4.93c-1.79,1.34-3.66,2.49-5.42,3.59-.88.55-1.72,1.09-2.43,1.64a3.83,3.83,0,0,0-1.25,1.38.71.71,0,0,0,0,.45,2.88,2.88,0,0,0,.35.85,11.28,11.28,0,0,0,1.64,2.08c.33.36.69.69,1.05,1l1.17,1.12c.77.76,1.54,1.51,2.29,2.31a42.14,42.14,0,0,1,4.19,5.13,18.88,18.88,0,0,1,2.94,6.31,10,10,0,0,1-1.11,7.3c-.31.53-.71,1-1.06,1.49l-1,1.19c-.63.8-1.23,1.62-1.82,2.47a70.16,70.16,0,0,0-6,10.82h0l-.11-1a66.18,66.18,0,0,1,5.58,10.81,32,32,0,0,1,1.75,5.94,11.9,11.9,0,0,1-.37,6.5,6.17,6.17,0,0,1-2.18,2.79A22.64,22.64,0,0,1,286.2,344a43.73,43.73,0,0,1-5.68,2.28c-1.87.65-3.71,1.3-4.8,2.45a4.54,4.54,0,0,0-1,2.12c-.07.42-.1.86-.14,1.3l0,1.37-1-1.75c0,.61.53,3-.07,3a1.09,1.09,0,0,1-1.13-1.07h0l0-1.61c0-.56.09-1.12.18-1.67a6.8,6.8,0,0,1,1.57-3.19,9,9,0,0,1,2.8-1.91c1-.45,2-.79,2.89-1.12A41.24,41.24,0,0,0,285.2,342a19.76,19.76,0,0,0,2.42-1.43,4,4,0,0,0,1.45-1.85,9.94,9.94,0,0,0,.23-5.28,29.89,29.89,0,0,0-1.63-5.51,65,65,0,0,0-5.37-10.42h0a1.12,1.12,0,0,1-.09-1h0a67,67,0,0,1,5.68-11.6c.58-.92,1.19-1.82,1.83-2.71l1-1.3c.23-.38.53-.73.72-1.12a6.61,6.61,0,0,0,.52-4.94,15.38,15.38,0,0,0-2.62-5,39.35,39.35,0,0,0-4-4.51c-.71-.73-1.48-1.42-2.23-2.12l-1.15-1c-.41-.37-.83-.74-1.24-1.15a15.59,15.59,0,0,1-2.34-2.82,7.23,7.23,0,0,1-.88-2.06,5.16,5.16,0,0,1,.06-2.67,6.51,6.51,0,0,1,1.18-2.14,12.28,12.28,0,0,1,1.42-1.39,33.17,33.17,0,0,1,2.75-2c1.79-1.19,3.5-2.29,5.07-3.51a17.68,17.68,0,0,0,3.91-4,9.89,9.89,0,0,0,1.68-4.74c.29-3.5-.92-7.45-2.25-11.26-1.4-4.05-2.93-8.17-3.24-13a16.43,16.43,0,0,1,1.21-7.38,19,19,0,0,1,4.25-6l2.35-2.17c.36-.31.65-.67,1-1a10.18,10.18,0,0,0,.91-1.06,15,15,0,0,0,2.6-4.63,7.88,7.88,0,0,0,.23-4.58,6.33,6.33,0,0,0-2.67-3.45c-.38-.24-.59-.42-1.15-.74s-1-.57-1.45-.89c-1-.62-1.88-1.28-2.79-2a32.4,32.4,0,0,1-4.94-4.86,22.47,22.47,0,0,1-3.63-6.2,16.17,16.17,0,0,1-.91-7.45,17.44,17.44,0,0,1,.86-3.64c.38-1,.79-2.08,1.23-3.07l1.28-2.87a9.14,9.14,0,0,0,.41-1.11c.05-.13,0-.17.05-.1a1.23,1.23,0,0,0,.25.55c.18.17.2.16.19.14a2.49,2.49,0,0,0-.34-.13,11.1,11.1,0,0,0-1.23-.27c-.94-.14-2-.24-3-.32l-.78-.07-.87-.1a14.44,14.44,0,0,1-1.73-.26,19.46,19.46,0,0,1-3.35-1,19.87,19.87,0,0,1-5.88-3.55,19.13,19.13,0,0,1-4.32-5.24,1.11,1.11,0,0,1,.43-1.5,1.1,1.1,0,0,1,1.4.3Z" style="fill:#575757"></path><path d="M280.62,157.05c3.72.24,7.51.3,11.27.2l5.71-.15a11.69,11.69,0,0,1,3.16.37,6,6,0,0,1,3.08,1.87,6.15,6.15,0,0,1,1.35,3.38,12.53,12.53,0,0,1-.1,3.2,45.83,45.83,0,0,1-1.32,5.74c-.5,1.83-1.07,3.68-1.5,5.4a16.48,16.48,0,0,0-.48,5.13,9.79,9.79,0,0,0,1.53,4.57,13.77,13.77,0,0,0,3.57,3.57c.72.51,1.47,1,2.26,1.43.39.22.79.44,1.2.65s.92.48,1.35.76a16.06,16.06,0,0,1,4.53,4.35,17.27,17.27,0,0,1,3,11.88,15.35,15.35,0,0,1-2.07,5.92,16.67,16.67,0,0,1-1.92,2.49c-.78.8-1.38,1.33-2,2a15.12,15.12,0,0,0-2.89,4.3,11.72,11.72,0,0,0-.91,5c.11,3.5,1.33,7.08,2.63,10.58a52.85,52.85,0,0,1,3.48,11,16.32,16.32,0,0,1-.09,6,13.49,13.49,0,0,1-2.64,5.46c-2.49,3.17-5.77,5.32-8.83,7.51-.77.54-1.52,1.09-2.2,1.67a6,6,0,0,0-1.61,1.9c-.68,1.31.37,2.92,1.61,4.2s2.79,2.45,4.21,3.74,2.81,2.6,4.12,4a27.21,27.21,0,0,1,3.5,4.65,11.69,11.69,0,0,1,1.71,5.69l0-.19a10.7,10.7,0,0,1,.39,3.68,7.65,7.65,0,0,1-1.13,3.56,7.25,7.25,0,0,1-2.78,2.5,12.92,12.92,0,0,0-2.64,2,12.09,12.09,0,0,0-3.42,5.57,4.32,4.32,0,0,0,.22,3,4,4,0,0,0,2.28,1.84.65.65,0,0,1-.45,1.22h0a5.23,5.23,0,0,1-2.95-2.48,5.57,5.57,0,0,1-.28-3.82,13.62,13.62,0,0,1,3.79-6.13,14.14,14.14,0,0,1,2.89-2.18,6.06,6.06,0,0,0,2.33-2.1,7.85,7.85,0,0,0,.58-6.2v0a.45.45,0,0,1,0-.16,10.45,10.45,0,0,0-1.57-5.07,25.27,25.27,0,0,0-3.35-4.41,48.12,48.12,0,0,0-4.06-3.88c-1.4-1.24-2.94-2.33-4.35-3.74a9.62,9.62,0,0,1-1.85-2.46,3.91,3.91,0,0,1-.14-3.38,7.4,7.4,0,0,1,2-2.47c.74-.66,1.51-1.24,2.28-1.81,3.06-2.24,6.17-4.41,8.34-7.29a11.62,11.62,0,0,0,2.17-4.74,14.22,14.22,0,0,0-.06-5.28,32.61,32.61,0,0,0-1.49-5.29c-.63-1.74-1.4-3.44-2.13-5.23-1.4-3.56-2.81-7.24-3-11.36a14.57,14.57,0,0,1,1-6.13,17.93,17.93,0,0,1,3.31-5.17c.65-.73,1.45-1.49,2-2.06a13.06,13.06,0,0,0,1.5-2,12,12,0,0,0,1.56-4.77,14.13,14.13,0,0,0-2.52-9.68,12.58,12.58,0,0,0-3.64-3.45c-.37-.24-.69-.4-1.13-.63s-.87-.46-1.31-.7A28.41,28.41,0,0,1,305,193a16.81,16.81,0,0,1-4.44-4.42,12.57,12.57,0,0,1-2.07-6.09,19.54,19.54,0,0,1,.61-6.15c.49-1.95,1.07-3.72,1.62-5.54a42.23,42.23,0,0,0,1.37-5.3c.29-1.71.3-3.43-.44-4.34s-2.41-1.38-4.14-1.47-3.79-.06-5.67-.17a94,94,0,0,1-11.43-1.16.65.65,0,0,1,.16-1.28Z" style="fill:#575757"></path><path d="M254.49,150.12c-2.76-1.3-5.59-2.49-8.41-3.53a36.39,36.39,0,0,0-8.48-2.14,8.34,8.34,0,0,0-3.66.31,2.63,2.63,0,0,0-1.13.74,4.69,4.69,0,0,0-.9,1.32,14.92,14.92,0,0,0-1.2,3.79c-.28,1.39-.49,2.84-.67,4.32-.35,2.95-.51,6-.78,9.09-.14,1.55-.29,3.11-.51,4.7a27.64,27.64,0,0,1-1.08,5,8.89,8.89,0,0,1-1.48,2.78,7.28,7.28,0,0,1-2.72,2,17,17,0,0,1-5.25,1.14c-3.14.28-6,.47-8.14,1.58a9.12,9.12,0,0,0-4.48,5.62,18.26,18.26,0,0,0-.86,8.07c.26,2.81,1.1,5.67,1.68,8.9a17,17,0,0,1,.23,5.29,11,11,0,0,1-2.26,5.3,7.18,7.18,0,0,1-.94,1,10.07,10.07,0,0,1-1,1,16.55,16.55,0,0,1-2.21,1.5c-.37.21-.75.43-1.13.62l-1.14.53c-.76.36-1.52.61-2.27.92-3,1.1-6,1.9-8.69,3a20.15,20.15,0,0,0-7.06,4.23,12.47,12.47,0,0,0-2.29,3.15,18,18,0,0,0-.79,1.85c-.25.62-.35,1.3-.55,1.95a25.08,25.08,0,0,0-.1,8.44c.37,2.93,1,5.93,1.45,9.08a29.41,29.41,0,0,1,0,9.86c-.17.83-.45,1.66-.68,2.48-.16.42-.33.85-.52,1.27s-.42.83-.69,1.22a11.19,11.19,0,0,1-4.08,3.7c-3.18,1.67-6.46,2.09-9.53,2.52a59.39,59.39,0,0,0-8.8,1.46,11.8,11.8,0,0,0-3.59,1.7,6.26,6.26,0,0,0-1.29,1.33l-.56.77c-.15.27-.26.56-.4.84l-.2.42-.11.46c-.07.3-.18.6-.23.92a11.76,11.76,0,0,0-.08,2,20.7,20.7,0,0,0,.68,4.22c.71,2.89,1.75,5.82,2.36,9a21.7,21.7,0,0,1,.33,2.44l.08,1.24,0,1.27a14.66,14.66,0,0,1-.35,2.53,24.66,24.66,0,0,1-.72,2.36,11.83,11.83,0,0,1-2.66,4.41,11.08,11.08,0,0,1-2,1.61c-.71.43-1.42.79-2,1.15a7.46,7.46,0,0,0-2.9,2.69,4.45,4.45,0,0,0-.57,3.58,27.23,27.23,0,0,0,1.46,4.15A35.7,35.7,0,0,1,142,327.7a23.89,23.89,0,0,1,.49,9.51,35.15,35.15,0,0,1-.89,4.64,19.4,19.4,0,0,1-1.73,4.47c-.19.35-.44.69-.66,1s-.54.64-.81,1a5.23,5.23,0,0,1-2.24,1.35,4.58,4.58,0,0,1-2.62-.07c-.39-.16-.79-.32-1.16-.51l-1-.68a.55.55,0,0,1,.59-.93l.06,0,.92.56c.32.14.65.26,1,.39a3.44,3.44,0,0,0,1.91,0,5.25,5.25,0,0,0,2.8-2.82,25.46,25.46,0,0,0,2.13-8.61,21.52,21.52,0,0,0-.68-8.77,32.94,32.94,0,0,0-1.59-4.19,28.27,28.27,0,0,1-1.7-4.5,8.23,8.23,0,0,1-.19-2.69,10.37,10.37,0,0,1,.33-1.36,11.08,11.08,0,0,1,.59-1.25,10.18,10.18,0,0,1,3.67-3.62,14.48,14.48,0,0,0,3.47-2.44,9.06,9.06,0,0,0,2-3.5,20.19,20.19,0,0,0,.57-2.06,13.7,13.7,0,0,0,.22-2v-1l-.1-1.06c0-.7-.23-1.41-.34-2.12-.59-2.86-1.66-5.73-2.48-8.79a24.3,24.3,0,0,1-.85-4.86,15.41,15.41,0,0,1,.07-2.62c.06-.44.19-.88.29-1.32l.17-.66.27-.63c.19-.42.35-.85.57-1.25l.77-1.12a9.85,9.85,0,0,1,1.89-2,15.08,15.08,0,0,1,4.65-2.34,60.94,60.94,0,0,1,9.34-1.74c3-.44,5.92-1,8.19-2.24a7.31,7.31,0,0,0,2.65-2.46c.17-.24.28-.53.43-.79l.34-.87c.16-.66.37-1.31.5-2a25.6,25.6,0,0,0-.17-8.49c-.45-2.94-1.15-5.94-1.61-9.11a27.76,27.76,0,0,1,.06-9.91c.23-.83.37-1.68.68-2.48a21.79,21.79,0,0,1,1-2.4,16.53,16.53,0,0,1,3.08-4.29,24.37,24.37,0,0,1,8.56-5.28c3-1.2,6-2,8.75-3.06s5.27-2.27,6.68-4.14a6.21,6.21,0,0,0,1.3-3.08,12.76,12.76,0,0,0-.22-3.88c-.52-2.82-1.44-5.89-1.78-9.21a23,23,0,0,1,1-10.11,15.89,15.89,0,0,1,2.46-4.76,12.64,12.64,0,0,1,4.34-3.58c3.38-1.7,6.87-1.81,9.81-2.13a12.72,12.72,0,0,0,3.74-.76,2.41,2.41,0,0,0,.93-.68,4.16,4.16,0,0,0,.63-1.29,41.7,41.7,0,0,0,1.29-8.5c.25-3,.51-6.13.92-9.28a41.43,41.43,0,0,1,.88-4.77,19.73,19.73,0,0,1,1.86-4.88,9.07,9.07,0,0,1,1.85-2.35,6.91,6.91,0,0,1,2.83-1.54,12.23,12.23,0,0,1,5.47-.09,26.39,26.39,0,0,1,4.72,1.42,37.72,37.72,0,0,1,4.32,2,54.78,54.78,0,0,1,7.9,5.08.55.55,0,0,1,.1.77.54.54,0,0,1-.67.16Z" style="fill:#575757"></path><path d="M228.05,150.67s-5.17,15.51-15.11,15.91-24.65,7.95-24.26,20.28,6.37,20.28-.39,24.26-26.65,7.16-27.45,18.69,2.79,25.45-1.19,30.22-21.87,4-28.23,15.91,3.57,12.33,2.38,25.85-8,13.52-9.54,21.08,2,14.32,4.37,14.71" style="fill:none;stroke:#575757;stroke-linecap:round;stroke-linejoin:round"></path><path d="M190.38,297.6s11,4.52,21.47,7.77a106.55,106.55,0,0,1,16.63,6.51s-18.08,64.37-18.08,65.45S203.53,412.77,201,420s-17,18.45-23.5,20.62-18.08,3.61-27.48-7.24-11.94-12.65-12.3-19.16S190.38,297.6,190.38,297.6Z" style="fill:#FF6B6B;stroke:#263238;stroke-linecap:round;stroke-linejoin:round"></path><path d="M204.14,309.78a3.88,3.88,0,1,1-3.88-3.88A3.88,3.88,0,0,1,204.14,309.78Z" style="fill:#FF6B6B;stroke:#263238;stroke-linecap:round;stroke-linejoin:round"></path><path d="M209,306.22l-6.79,20.7s1.62,4.85-.32,8.74-6.15,4.52-6.47,6.79a21.59,21.59,0,0,0,0,4.85" style="fill:none;stroke:#263238;stroke-linecap:round;stroke-linejoin:round"></path><line x1="203.29" y1="351.09" x2="207.31" y2="352.53" style="fill:none;stroke:#263238;stroke-linecap:round;stroke-linejoin:round"></line><line x1="181.06" y1="343.15" x2="199.33" y2="349.67" style="fill:none;stroke:#263238;stroke-linecap:round;stroke-linejoin:round"></line></g></svg>
