<?xml version="1.0" encoding="utf-8"?>
<!-- Generator: Adobe Illustrator 26.0.3, SVG Export Plug-In . SVG Version: 6.00 Build 0)  -->
<svg version="1.1" id="Layer_1" xmlns="http://www.w3.org/2000/svg" xmlns:xlink="http://www.w3.org/1999/xlink" x="0px" y="0px"
	 width="500px" height="500px" viewBox="0 0 500 500" style="enable-background:new 0 0 500 500;" xml:space="preserve">
<style type="text/css">
	.st0{fill:#CCCCCC;}
	.st1{fill:#EBEBEB;}
	.st2{fill:#A7DCE5;}
	.st3{fill:#FFFFFF;}
	.st4{opacity:0.8;}
	.st5{fill:#2C324A;}
	.st6{fill:#263238;}
	.st7{opacity:0.3;}
</style>
<ellipse class="st0" cx="276.5" cy="460.2" rx="153" ry="20.6"/>
<g id="freepik--background-simple--inject-5">
	<path class="st1" d="M163.6,272c-6.9-15.4-28.8-20.4-34-36.4c-6.4-20,17.9-42.2,8-60.7c-4.4-8.3-14.9-12.1-24.1-10.5
		s-20.8,8.4-26.2,16.1c-23,33-24.3,71.7-0.8,104.4c7.2,10,20.3,18.1,31.8,22.6s25.2,4,35.2-3S168.6,283.2,163.6,272z"/>
	
		<ellipse transform="matrix(0.763 -0.6464 0.6464 0.763 -49.355 120.9958)" class="st1" cx="140.3" cy="127.8" rx="16.8" ry="16.8"/>
	<path class="st1" d="M398,200c-2-7.3-10.2-13.6-17.1-10.4l0.9-0.3c-6.5,1.8-10.9,7.8-10.7,14.6c0.5,7.6,8.1,13.9,15.7,12.9
		S400,207.3,398,200z"/>
	<path class="st1" d="M398.6,63.7c-21.1-22.4-51.8-33.2-82.2-28.8c-9,1.2-13.9,2.4-22.6,11.9c-7.7,6-9.1,22-4.6,30.6
		s13.2,14.4,22.1,18.2s18.5,6.2,27.4,10.3s17.3,10.2,21.2,19.1c4.8,10.9,2.4,24.9,10.3,33.8c6.3,7.1,17.5,8.2,26.1,4.4
		s14.9-11.6,19.1-20.1C428.6,116.6,418.8,85.3,398.6,63.7z"/>
</g>
<g id="freepik--Ghost--inject-5">
	<path class="st2" d="M325,460.6c-0.1-0.1-0.1-0.3-0.2-0.4l0,0L325,460.6z"/>
	<path class="st2" d="M393.9,371.7c1.6-16.1,21.4-27.8,18.3-43.6c-2.3-11.4-15.7-17.9-18.3-29.3c-1.4-6.1,0.8-12.4,2.2-18.5
		s2-13.2-1.9-18.1c-4.5-5.8-13-6.2-19.6-9.5c-9.2-4.7-14.4-15-23.4-20c-14.2-7.9-31.5-0.1-47.6,1.2c-18.7,1.5-36.7-6-54.9-10.4
		s-39.5-5.1-53.4,7.5c-8.6,7.9-12.8,19.7-13.6,31.4c-0.8,11.6,1.3,23.3,3.4,34.8c1.9,10.5,4.1,21.4,10.7,29.7
		c10.4,13,28.8,16.1,45.4,17.2s34.7,1.9,47.7,12.4c7.2,5.8,12.4,14.4,20.7,18.4c6.2,3,13.2,3.1,20.1,3.5s14,1.3,19.5,5.5
		s8.2,12.6,4.1,18c-2.6,3.4-6.9,4.8-10.8,6.6c-18.3,8.8-26.8,33.6-17.9,51.8c3.5,4.3,4.6,4.3,8.7,5.9c-3-1.9-2.7-6.6-0.5-9.4
		s5.8-4,9-5.3c16.5-6.5,31.5-16.3,44-28.9c6-6,11.6-13.1,12.3-21.5C399.1,391.1,392.9,381.6,393.9,371.7z"/>
	<path class="st3" d="M325,460.6c-0.1-0.1-0.1-0.3-0.2-0.4l0,0L325,460.6z"/>
	<g class="st4">
		<path class="st5" d="M393.9,371.7c1.6-16.1,21.4-27.8,18.3-43.6c-2.3-11.4-15.7-17.9-18.3-29.3c-1.4-6.1,0.8-12.4,2.2-18.5
			s2-13.2-1.9-18.1c-4.5-5.8-13-6.2-19.6-9.5c-9.2-4.7-14.4-15-23.4-20c-14.2-7.9-31.5-0.1-47.6,1.2c-18.7,1.5-36.7-6-54.9-10.4
			s-39.5-5.1-53.4,7.5c-8.6,7.9-12.8,19.7-13.6,31.4c-0.8,11.6,1.3,23.3,3.4,34.8c1.9,10.5,4.1,21.4,10.7,29.7
			c10.4,13,28.8,16.1,45.4,17.2s34.7,1.9,47.7,12.4c7.2,5.8,12.4,14.4,20.7,18.4c6.2,3,13.2,3.1,20.1,3.5s14,1.3,19.5,5.5
			s8.2,12.6,4.1,18c-2.6,3.4-6.9,4.8-10.8,6.6c-18.3,8.8-26.8,33.6-17.9,51.8c3.5,4.3,4.6,4.3,8.7,5.9c-3-1.9-2.7-6.6-0.5-9.4
			s5.8-4,9-5.3c16.5-6.5,31.5-16.3,44-28.9c6-6,11.6-13.1,12.3-21.5C399.1,391.1,392.9,381.6,393.9,371.7z"/>
	</g>
	<path class="st2" d="M375.3,263.5c-5.6-4.3-10.9-7.8-15.7-11c4.3-2.8,7.4-7.5,6.8-12.5c-0.9-7.7-9-12.1-16.3-14.7
		c-16.8-6.1-34.7-10-49.4-20.2c-20.6-14.3-32.2-40.6-28.9-65.3c0.4-2.3,0.9-4.6,1.3-6.9c0.1-0.5,0.2-1,0.4-1.5l-0.1,0.1l0.1-0.5
		c2.4-13.4,3.3-28.3-4.3-39.7c-7.9-11.8-23.6-16.7-37.7-14.5S205,87,194.4,96.5c-29,26.6-45.3,64.2-44.9,103.5
		c0.6,38.8,16.5,81.2,46,106.3c18.3,18,35.5,27.6,59.8,32.8c14.1,3,28,7.3,42,10.9c7.1,1.9,14.2,3.6,21.4,5
		c7.8,1.5,10.5,0.5,15.8,6.6c5.6,6.4,15.7,7.7,23.4,4s12.8-11.5,14.5-19.8s0.2-17-2.7-25c-3-8.1-7.6-15.6-13.4-22
		c4.5-0.2,9-0.9,13.3-2.2C383.4,292.6,388.8,273.8,375.3,263.5z"/>
	<path class="st6" d="M268.9,320.4l-0.7-0.2l-1.9-0.7c-0.8-0.3-1.8-0.7-2.9-1.1s-2.4-1-3.8-1.6c-2.8-1.2-6.1-2.9-9.7-4.8
		s-7.4-4.3-11.3-6.9s-7.4-5.4-10.6-8s-5.8-5.1-8-7.2c-1.1-1-2.1-2.1-2.9-2.9s-1.6-1.6-2.1-2.3l-1.3-1.5c-0.3-0.3-0.4-0.5-0.4-0.5
		c0.2,0.1,0.3,0.3,0.5,0.5l1.4,1.4c0.6,0.6,1.3,1.4,2.2,2.2s1.8,1.9,3,2.9c2.2,2.1,5,4.5,8.1,7.1s6.7,5.2,10.6,7.9s7.7,4.9,11.2,6.9
		s6.8,3.6,9.6,4.9c1.4,0.7,2.7,1.2,3.8,1.7s2.1,0.9,2.9,1.2l1.8,0.8C268.5,320.2,268.7,320.3,268.9,320.4z"/>
	<g class="st7">
		<path d="M215.1,227.9c6.7,17.6,20.5,29.5,35.9,40.4s31.5,19.9,50.9,22.5c-7.2-2.9-15.5-5.3-23.3-9.2
			c-10.5-5.2-21.1-13.6-30.8-20.3C235.5,252.7,224.3,240.7,215.1,227.9"/>
	</g>
	<path class="st2" d="M376,270.7c-4.8-6.1-13.9-13-20.5-17l2.3-2.4c4.2-4,6.6-10.2,4.2-14.5s-9.4-4-14.3-3.9c-4.3,0-8.3,2-10.9,5.4
		c-3.7,5.1-2.5,12.4,0.4,18c2.9,5.6,9.9,9.3,12.6,15s1,14.1-3,19c-3,3.7-7.9,5.1-12.5,6.3c3.3,5.9,5.9,12.2,6.4,18.9
		s-1.4,13.8-6,18.6s-12.3,7-18.4,4.3c6.2,6,11.4,12.1,17.5,18.1c5,4.5,14.3,8,20.7,5.4s11.6-9.6,13.2-16.3s0-13.7-2.2-20.3
		s-5.5-11.8-8.7-18c-0.9-1.9-4.5-6.5-4.7-8.6s0.5-2.7,2.3-3.7s4.5-0.4,6.5-0.5c5.9-0.4,11.5-2.3,14.8-7.4S379.7,275.4,376,270.7z"/>
	<g class="st7">
		<path d="M376,270.7c-4.8-6.1-13.9-13-20.5-17l2.3-2.4c4.2-4,6.6-10.2,4.2-14.5s-9.4-4-14.3-3.9c-4.3,0-8.3,2-10.9,5.4
			c-3.7,5.1-2.5,12.4,0.4,18c2.9,5.6,9.9,9.3,12.6,15s1,14.1-3,19c-3,3.7-7.9,5.1-12.5,6.3c3.3,5.9,5.9,12.2,6.4,18.9
			s-1.4,13.8-6,18.6s-12.3,7-18.4,4.3c6.2,6,11.4,12.1,17.5,18.1c5,4.5,14.3,8,20.7,5.4s11.6-9.6,13.2-16.3s0-13.7-2.2-20.3
			s-5.5-11.8-8.7-18c-0.9-1.9-4.5-6.5-4.7-8.6s0.5-2.7,2.3-3.7s4.5-0.4,6.5-0.5c5.9-0.4,11.5-2.3,14.8-7.4S379.7,275.4,376,270.7z"
			/>
	</g>
	<path class="st6" d="M211.9,108c-1.2-1.4-4.7-1.8-7.3-0.5c-6.8,3.3-11.3,7.4-14.7,14.8c-0.7,1.5-1.1,3.1-1.1,4.7
		c0.1,1.7,1,3.2,2.5,4c1.8,0.8,3.8,0.2,5.6-0.6c5.6-2.7,10-7.4,13.6-12.4c1.1-1.4,2-3.1,2.5-4.8C213.4,111.4,213,109.5,211.9,108z"
		/>
	<path class="st2" d="M224.5,108.5c1.8-0.5,4.9,1,6.4,3.5c3.9,6.5,5.4,12.3,4.3,20.4c-0.2,1.6-0.7,3.2-1.7,4.6c-1,1.4-2.6,2.1-4.2,2
		c-1.9-0.2-3.3-1.9-4.4-3.6c-3.2-5.3-4.4-11.6-4.6-17.8c-0.1-1.8,0-3.6,0.6-5.4C221.4,110.5,222.8,109.1,224.5,108.5z"/>
	<g class="st7">
		<path d="M224.5,108.5c1.8-0.5,4.9,1,6.4,3.5c3.9,6.5,5.4,12.3,4.3,20.4c-0.2,1.6-0.7,3.2-1.7,4.6c-1,1.4-2.6,2.1-4.2,2
			c-1.9-0.2-3.3-1.9-4.4-3.6c-3.2-5.3-4.4-11.6-4.6-17.8c-0.1-1.8,0-3.6,0.6-5.4C221.4,110.5,222.8,109.1,224.5,108.5z"/>
	</g>
	<path class="st2" d="M222.1,141.9c-0.6-1.1-1.5-2.1-2.5-2.9c-1.5-1.3-3.3-2.4-5.2-3.1c-2.8-0.8-6.9-2.2-9.7-1.4l0,0
		c-6.5,0.3-12.1,4.7-13.9,10.9c-0.7,2.4-0.6,5.4,1.4,6.9c1.8,1.4,4.4,0.9,6.5,0s4-2.3,6.3-2.6c2.1-0.3,4.2,0.3,5.9,1.7
		c1.5,1.3,2.5,3.2,4.2,4.2c2.1,1.1,4.7,0.8,6.5-0.8c1.7-1.6,2.7-3.9,2.6-6.2C224,146.2,223.3,143.9,222.1,141.9z"/>
	<g class="st7">
		<path d="M222.1,141.9c-0.6-1.1-1.5-2.1-2.5-2.9c-1.5-1.3-3.3-2.4-5.2-3.1c-2.8-0.8-6.9-2.2-9.7-1.4l0,0
			c-6.5,0.3-12.1,4.7-13.9,10.9c-0.7,2.4-0.6,5.4,1.4,6.9c1.8,1.4,4.4,0.9,6.5,0s4-2.3,6.3-2.6c2.1-0.3,4.2,0.3,5.9,1.7
			c1.5,1.3,2.5,3.2,4.2,4.2c2.1,1.1,4.7,0.8,6.5-0.8c1.7-1.6,2.7-3.9,2.6-6.2C224,146.2,223.3,143.9,222.1,141.9z"/>
	</g>
	<path class="st6" d="M219.6,139c-0.3-0.3-0.7-0.5-1-0.8l-0.2-0.1c-2.8-0.9-6.7-2.6-9.6-2l0,0c-6.5-0.2-12.4,3.9-14.6,10
		c-0.8,2.4-0.9,5.4,1,7l0.1,0.1c1.2-0.1,2.4-0.4,3.4-0.9c2.1-0.9,4-2.3,6.3-2.6c2.1-0.3,4.2,0.3,5.9,1.7c0.1,0.1,0.2,0.2,0.3,0.3
		c0.7,0.7,1.3,1.6,2.1,2.3c1.9,2.5,5.4,3,7.9,1.1c0.1-0.1,0.3-0.2,0.4-0.3c1.7-1.6,2.7-3.9,2.6-6.2c-0.1-2.3-0.8-4.6-2.1-6.6
		C221.4,140.8,220.6,139.8,219.6,139z"/>
	<path class="st2" d="M194.6,121.3c3.9-6.5,10.5-11,18-12.3c-0.2-0.4-0.4-0.7-0.7-1c-1.2-1.4-4.7-1.8-7.3-0.5
		c-6.8,3.3-11.3,7.4-14.7,14.8c-0.7,1.5-1.1,3.1-1.1,4.7c0.1,1.7,1,3.2,2.5,4c0.3,0.1,0.5,0.2,0.8,0.3
		C191.6,127.9,192.8,124.3,194.6,121.3z"/>
	<path class="st6" d="M227.1,108.8c-1.3,0.7-2.4,2-2.8,3.4c-0.5,1.7-0.7,3.6-0.6,5.4c0.2,6.2,1.4,12.5,4.6,17.8
		c0.7,1.3,1.8,2.4,3.1,3.2c0.8-0.4,1.5-0.9,2-1.6c0.9-1.4,1.5-2.9,1.7-4.6c1.2-8.1-0.3-13.9-4.3-20.4
		C230,110.6,228.7,109.5,227.1,108.8z"/>
	<g class="st7">
		<path d="M194.6,121.3c3.9-6.5,10.5-11,18-12.3c-0.2-0.4-0.4-0.7-0.7-1c-1.2-1.4-4.7-1.8-7.3-0.5c-6.8,3.3-11.3,7.4-14.7,14.8
			c-0.7,1.5-1.1,3.1-1.1,4.7c0.1,1.7,1,3.2,2.5,4c0.3,0.1,0.5,0.2,0.8,0.3C191.6,127.9,192.8,124.3,194.6,121.3z"/>
	</g>
	<path class="st6" d="M334.5,296.5h-0.4l-1.2-0.1c-1.1-0.1-2.7-0.1-4.7-0.3c-5.8-0.6-11.5-1.5-17.2-2.8
		c-13.4-3.1-26.3-8.1-38.3-14.8c-4.8-2.6-9.4-5.5-13.9-8.7c-8.7-6-17-12.6-24.8-19.7c-6.3-5.9-12-12.4-17-19.4
		c-3.3-4.8-6.2-9.8-8.6-15.1c-0.4-0.9-0.8-1.8-1.1-2.5s-0.5-1.4-0.8-1.9l-0.4-1.1c-0.1-0.1-0.1-0.3-0.1-0.4c0.1,0.1,0.1,0.2,0.2,0.4
		l0.5,1.1c0.2,0.5,0.5,1.1,0.8,1.8s0.7,1.6,1.1,2.5c2.5,5.2,5.4,10.3,8.8,15c5,7,10.7,13.5,17.1,19.3c7.8,7.1,16.1,13.7,24.7,19.6
		c4.5,3.1,9.1,6,13.9,8.6c4.4,2.5,9,4.7,13.7,6.7c7.9,3.4,16.1,6.2,24.4,8.1c5.6,1.3,11.4,2.3,17.1,3c2,0.2,3.6,0.3,4.7,0.4l1.2,0.1
		C334.2,296.5,334.4,296.5,334.5,296.5z"/>
	<path class="st6" d="M330.8,245c-0.3,0-0.5,0-0.8-0.1l-2.2-0.4c-1-0.1-2.1-0.4-3.5-0.7s-2.9-0.6-4.6-1.1l-2.6-0.7
		c-0.9-0.2-1.9-0.6-2.8-0.9c-2-0.6-4-1.4-6.2-2.1c-9.4-3.6-18.3-8.4-26.4-14.2c-1.9-1.4-3.6-2.7-5.2-4c-0.8-0.6-1.6-1.3-2.3-1.9
		l-2-1.9c-1.3-1.1-2.4-2.3-3.4-3.2s-1.8-1.8-2.5-2.6l-1.5-1.7c-0.2-0.2-0.4-0.4-0.5-0.6c0.2,0.2,0.4,0.3,0.6,0.5l1.6,1.6
		c0.7,0.7,1.5,1.5,2.5,2.5s2.1,2.1,3.5,3.2l2.1,1.8c0.7,0.6,1.5,1.2,2.3,1.9c1.6,1.3,3.4,2.6,5.2,4c4.1,2.9,8.3,5.5,12.7,7.9
		c4.4,2.4,9,4.4,13.6,6.3c2.2,0.8,4.2,1.6,6.2,2.2c1,0.3,1.9,0.6,2.8,0.9l2.6,0.7c1.7,0.5,3.2,0.8,4.6,1.1s2.5,0.6,3.5,0.8l2.2,0.5
		C330.3,244.9,330.5,244.9,330.8,245z"/>
	<path class="st3" d="M310,288.4c-1.5,0.2-2.9,0.4-4.4,0.7c-7,1.8-12.5,7.3-14.1,14.4c-0.3,1.4-0.5,2.9-0.6,4.4
		c-0.1-0.4-0.1-0.8-0.1-1.2c0-1.1,0.1-2.2,0.4-3.2c1.5-7.3,7.1-13,14.4-14.7c1.1-0.2,2.1-0.4,3.2-0.4
		C309.2,288.3,309.6,288.3,310,288.4z"/>
	<path class="st3" d="M323.7,299.6c0.3,0.7,0.4,1.4,0.5,2.1c0.1,1.8-0.1,3.5-0.8,5.2c-0.6,1.7-1.6,3.2-2.9,4.4
		c-0.5,0.5-1.1,1-1.8,1.3c0-0.1,0.6-0.6,1.5-1.5c2.3-2.6,3.6-5.9,3.5-9.3C323.8,300.5,323.6,299.6,323.7,299.6z"/>
	<path class="st3" d="M347,275.4c0.1,0.2,0.3,0.5,0.3,0.7c0.1,0.3,0.2,0.6,0.3,0.9c0.1,0.4,0.2,0.8,0.2,1.2c0.2,1.1,0.2,2.2,0.1,3.3
		c-0.2,2.7-1.2,5.3-2.7,7.5c-0.6,0.9-1.3,1.7-2.1,2.5c-0.3,0.3-0.7,0.6-1,0.8c-0.2,0.2-0.5,0.4-0.8,0.5c-0.2,0.2-0.5,0.3-0.7,0.4
		c-0.1-0.1,0.9-0.7,2.2-2c0.7-0.8,1.4-1.6,2-2.5c1.4-2.2,2.3-4.7,2.6-7.3c0.1-1.1,0.1-2.1,0-3.2C347.3,276.5,346.9,275.5,347,275.4z
		"/>
	<path class="st3" d="M325.1,247.6c-1,0.1-2.1,0-3.1-0.2c-2.5-0.3-5-0.8-7.4-1.5c-2.4-0.7-4.7-1.7-7-2.8c-1-0.4-1.9-1-2.7-1.6
		c1,0.4,1.9,0.8,2.9,1.2c2.3,1,4.6,1.9,7,2.6c2.4,0.7,4.8,1.3,7.3,1.7C323.1,247.1,324.1,247.3,325.1,247.6z"/>
	<path class="st3" d="M326.9,336.7c0-0.1,1.2-0.6,3-1.9c1-0.8,2-1.6,2.8-2.5c2.1-2.3,3.6-5.1,4.5-8.1c0.3-1.2,0.6-2.5,0.7-3.8
		c0.2-2.2-0.1-3.5,0-3.5c0.1,0.3,0.2,0.6,0.2,1c0.1,0.4,0.1,0.7,0.1,1.1c0,0.5,0,1,0,1.5c-0.1,1.3-0.2,2.6-0.6,3.9
		c-0.4,1.5-1,3-1.8,4.4c-0.8,1.4-1.7,2.7-2.8,3.9c-0.9,1-1.9,1.8-3,2.5c-0.4,0.3-0.8,0.5-1.3,0.8c-0.3,0.2-0.7,0.4-1,0.5
		C327.5,336.6,327.2,336.7,326.9,336.7z"/>
	<path class="st3" d="M295.8,286c-0.6,0.1-1.3,0.1-1.9-0.1c-1.6-0.2-3.1-0.6-4.5-1.2c-1.5-0.6-2.9-1.3-4.1-2.2
		c-0.6-0.3-1.1-0.8-1.5-1.3c1.9,1.1,3.8,2.1,5.8,3C291.6,284.9,293.7,285.5,295.8,286z"/>
	<path class="st3" d="M173.8,272.2l-0.2-0.2l-0.4-0.7l-1.6-2.7l-1.1-2c-0.4-0.7-0.8-1.5-1.2-2.4c-0.9-1.7-2-3.7-2.9-5.9l-1.6-3.5
		c-0.5-1.2-1-2.5-1.5-3.9c-1.1-2.7-2-5.6-3.1-8.6c-4.2-13.4-6.4-27.4-6.5-41.4c0-3.2,0-6.3,0.3-9.2c0.1-1.4,0.1-2.8,0.3-4.1
		s0.3-2.6,0.4-3.8c0.2-2.4,0.7-4.6,1-6.5c0.2-1,0.3-1.9,0.4-2.7s0.4-1.6,0.5-2.2c0.3-1.3,0.5-2.3,0.7-3.1l0.2-0.8
		c0-0.2,0.1-0.3,0.1-0.3c0,0.1,0,0.2,0,0.3l-0.1,0.8c-0.1,0.7-0.4,1.8-0.6,3.1c-0.1,0.7-0.3,1.4-0.4,2.2s-0.3,1.7-0.4,2.7
		c-0.3,1.9-0.7,4.1-0.9,6.5c-0.1,1.2-0.3,2.5-0.4,3.8s-0.2,2.7-0.3,4.1c-0.2,2.9-0.2,5.9-0.2,9.1c0.1,7,0.7,14,1.7,20.9
		c1.1,6.9,2.7,13.7,4.8,20.4c1,3.1,1.9,6,3,8.6c0.5,1.3,1,2.6,1.5,3.9s1,2.4,1.5,3.5c0.9,2.2,2,4.2,2.8,5.9c0.4,0.9,0.8,1.7,1.2,2.4
		l1.1,2l1.5,2.8l0.4,0.7C173.8,272,173.8,272.1,173.8,272.2z"/>
	<path class="st3" d="M179.2,280.1c-1.2-1.3-2.2-2.9-2.9-4.6c0.1-0.1,0.9,0.9,1.7,2.1C178.6,278.4,179,279.3,179.2,280.1z"/>
	<path class="st3" d="M202.6,128.5c-2.6,3.1-6.5,4.7-10.6,4.2c1.9-0.2,3.8-0.6,5.6-1.2C199.5,130.7,201.1,129.7,202.6,128.5z"/>
	<path class="st3" d="M222.2,155.8c-0.8,1.1-1.9,1.9-3.2,2.3c-1.2,0.6-2.6,0.8-3.9,0.6c0-0.2,1.7-0.2,3.7-1.1
		C220,157.1,221.1,156.5,222.2,155.8z"/>
	<path class="st3" d="M232,141.2c-0.7,0.7-1.6,1-2.5,1.1c-0.9,0.2-1.9,0.1-2.7-0.4c0-0.1,1.2,0.1,2.6-0.1S231.9,141.1,232,141.2z"/>
	<path class="st3" d="M233.6,241.5c0,0-0.2-0.1-0.4-0.3l-1.1-1.1c-0.5-0.5-1.1-1.1-1.8-1.7s-1.5-1.5-2.3-2.4
		c-4.5-4.7-8.5-9.7-12-15.1c-1.9-3-3.7-6.1-5.2-9.3c-0.7-1.5-1.4-2.9-1.9-4.2c-0.3-0.7-0.5-1.3-0.8-2l-0.6-1.9
		c-0.4-1.2-0.7-2.2-0.9-3.2c-0.1-0.5-0.2-0.9-0.4-1.3s-0.1-0.8-0.2-1.1c-0.1-0.6-0.2-1.1-0.3-1.6c0-0.2-0.1-0.4-0.1-0.6
		c0.1,0.2,0.1,0.3,0.2,0.5c0.1,0.4,0.2,0.9,0.4,1.5c0.1,0.3,0.2,0.7,0.3,1.1s0.2,0.9,0.4,1.3c0.3,0.9,0.6,2,1,3.2
		c0.2,0.6,0.4,1.2,0.6,1.8s0.5,1.3,0.8,1.9c0.5,1.4,1.2,2.7,1.9,4.2c1.6,3.2,3.3,6.2,5.2,9.2c3.5,5.4,7.5,10.4,11.8,15.1
		c0.8,0.9,1.6,1.7,2.3,2.4s1.3,1.3,1.8,1.8l1.1,1.1C233.5,241.4,233.6,241.5,233.6,241.5z"/>
	<path class="st2" d="M376.6,367.4c-7.9-1.5-15.5,3.7-16.9,11.6c-0.4,2.4-0.3,4.8,0.4,7.1c1.3,4,4.3,7.7,3.6,11.9
		c-1.1,6.9-11.6,9.3-12.5,16.2c-0.6,4.8,4,8.8,8.6,10c10.6,2.9,22.2-4,26.9-13.9c4.8-10.3,5.1-22.2,1-32.8
		C386,373.4,381,368.3,376.6,367.4"/>
	<circle class="st2" cx="343.1" cy="433.6" r="5.6"/>
	<path class="st2" d="M408.3,384.1c-3.8-2.8-5.1-8.1-4.2-12.8s3.4-8.8,5.9-12.8l7.4-11.9c0.2-0.5,0.6-0.9,1.1-1.1
		c1.2-0.4,1.9,1.2,2.1,2.4c0.8,3.9,1.5,7.9,1.1,11.9s-2,8-5.1,10.5c-1.6,1.2-3.5,2-4.9,3.4c-2.9,2.9-2.9,7.4-2.8,11.4"/>
	<g class="st4">
		<path class="st3" d="M408.3,384.1c-3.8-2.8-5.1-8.1-4.2-12.8s3.4-8.8,5.9-12.8l7.4-11.9c0.2-0.5,0.6-0.9,1.1-1.1
			c1.2-0.4,1.9,1.2,2.1,2.4c0.8,3.9,1.5,7.9,1.1,11.9s-2,8-5.1,10.5c-1.6,1.2-3.5,2-4.9,3.4c-2.9,2.9-2.9,7.4-2.8,11.4"/>
	</g>
</g>
</svg>
