<svg xmlns="http://www.w3.org/2000/svg" viewBox="0 0 500 500"><g id="freepik--Floor--inject-4"><path id="freepik--floor--inject-4" d="M101.87,291.22c-81.82,47.24-81.81,123.82,0,171s214.45,47.23,296.26,0,81.81-123.81,0-171S183.68,244,101.87,291.22Z" style="fill:#fafafa"></path></g><g id="freepik--Shadows--inject-4"><path id="freepik--Shadow--inject-4" d="M394.13,458l58.54-33.79c2.32-1.34,2.32-3.51,0-4.85l-150.2-86.72a9.26,9.26,0,0,0-8.39,0l-58.54,33.8c-2.32,1.34-2.32,3.51,0,4.85L385.74,458A9.26,9.26,0,0,0,394.13,458Z" style="fill:#e0e0e0"></path><path id="freepik--shadow--inject-4" d="M190.71,459.17,79.29,396c-2.23-1.27-2.25-3.36,0-4.66l108.19-63.43a8.93,8.93,0,0,1,8.07-.06L306.93,391c2.24,1.27,2.25,3.35,0,4.65l-108.2,63.44A8.91,8.91,0,0,1,190.71,459.17Z" style="fill:#e0e0e0"></path></g><g id="freepik--Plants--inject-4"><g id="freepik--plants--inject-4"><g id="freepik--Plant--inject-4"><path d="M77.66,281.89a1.65,1.65,0,1,0,2.32-.3A1.65,1.65,0,0,0,77.66,281.89Z" style="fill:#00AEBC"></path><path d="M73.89,289.1a1.65,1.65,0,1,0,2.32-.29A1.65,1.65,0,0,0,73.89,289.1Z" style="fill:#00AEBC"></path><path d="M71.47,281.28a1.37,1.37,0,1,0,1.92-.25A1.38,1.38,0,0,0,71.47,281.28Z" style="fill:#00AEBC"></path><path d="M66.09,283.74a1.37,1.37,0,1,0,1.93-.25A1.37,1.37,0,0,0,66.09,283.74Z" style="fill:#00AEBC"></path><path d="M64.59,278.55a1.37,1.37,0,1,0,1.92-.24A1.37,1.37,0,0,0,64.59,278.55Z" style="fill:#00AEBC"></path><path d="M99.66,331.91c1.49-12.07-2.29-24-9.57-33.67a50,50,0,0,0-6.56-7.16,31,31,0,0,0-8.19-5.67s-.06,0,0,0c2.18,1.86,4.54,3.47,6.68,5.37a55.54,55.54,0,0,1,5.89,6.09,47.34,47.34,0,0,1,8.45,15,43.3,43.3,0,0,1-3,34.54,37.62,37.62,0,0,1-6,8,35.38,35.38,0,0,1-8.13,5.87c-.55.31-.16,1.33.47,1.2,3.07-.63,5.78-2.76,8-4.89a38.42,38.42,0,0,0,6-7.43A43.08,43.08,0,0,0,99.66,331.91Z" style="fill:#37474f"></path></g><path d="M96.57,386.63c-6.44,3.71-21.94,4.77-31.54-.94-10.82-6.44-12.07-16-7-18.21,7.2-3.2,10.72,8.45,20.91,12.73,12.12,5.09,17.63,2.37,17.63,2.37Z" style="fill:#00AEBC"></path><path d="M96.57,386.63c-6.44,3.71-21.94,4.77-31.54-.94-10.82-6.44-12.07-16-7-18.21,7.2-3.2,10.72,8.45,20.91,12.73,12.12,5.09,17.63,2.37,17.63,2.37Z" style="fill:#fff;opacity:0.2"></path><path d="M86.28,386.83c-12.5,0-23.75-8-26.81-15.14a.44.44,0,0,1,.23-.58.45.45,0,0,1,.59.23c3.64,8.52,19.56,17.89,34.09,13.38a.44.44,0,0,1,.55.3.43.43,0,0,1-.29.55A28.09,28.09,0,0,1,86.28,386.83Z" style="fill:#fff"></path><g id="freepik--Flower--inject-4"><path d="M83.47,366.53a.24.24,0,0,1-.16.27c-10.47,3.16-21.63-1.55-28.43-12a.24.24,0,0,1,.07-.33.23.23,0,0,1,.32.07c6.69,10.27,17.64,14.9,27.9,11.81a.23.23,0,0,1,.29.16Z" style="fill:#455a64"></path><path d="M62.63,354.33a2.6,2.6,0,0,1,0,.39,8.76,8.76,0,0,1-.46,2.56,7.94,7.94,0,0,0-.22,4.87.2.2,0,0,1-.06.21.22.22,0,0,1-.22,0c-2-1.26-4.83-5-3.56-8.11.8-2,2.08-1.95,2.59-1.86A2.47,2.47,0,0,1,62.63,354.33Zm-1.18,7.19a9.21,9.21,0,0,1,.41-4.34,8.52,8.52,0,0,0,.44-2.45,2.06,2.06,0,0,0-1.62-2c-.89-.17-1.68.43-2.18,1.63-1.16,2.82,1.39,6.07,3,7.35A1.55,1.55,0,0,0,61.45,361.52Z" style="fill:#455a64"></path><path d="M62,362.17a.18.18,0,0,1,0,.16.18.18,0,0,1-.26,0c-1.64-1.47-2.5-5.33-1.71-7.65a.18.18,0,0,1,.24-.11.18.18,0,0,1,.12.23c-.82,2.4.2,6,1.6,7.25A.27.27,0,0,1,62,362.17Z" style="fill:#455a64"></path><path d="M60.63,360.91a.21.21,0,0,1,0,.17.2.2,0,0,1-.28.05c-1.19-.75-4.7.29-6.78,1.16a4.3,4.3,0,0,1-3.85-.14,2.6,2.6,0,0,1-1.17-2.22,2.19,2.19,0,0,1,1.35-2c2.13-1.05,6.61-.39,10.69,2.9A.23.23,0,0,1,60.63,360.91ZM49,360.42a2,2,0,0,0,.92,1.38,3.92,3.92,0,0,0,3.46.11c.18-.08,3.82-1.61,6.05-1.45-3.69-2.61-7.5-3.11-9.37-2.19a1.79,1.79,0,0,0-1.12,1.65A3.8,3.8,0,0,0,49,360.42Z" style="fill:#455a64"></path><path d="M60.63,360.91a.21.21,0,0,1,0,.15.22.22,0,0,1-.29.08,14.61,14.61,0,0,0-9.4-1.21.21.21,0,0,1-.26-.14.22.22,0,0,1,.13-.27c1.35-.43,6.38-.7,9.74,1.25A.25.25,0,0,1,60.63,360.91Z" style="fill:#455a64"></path><path d="M57.32,346.94a16.92,16.92,0,0,1-3,6.74c-3.86,1.22-5.54,1.49-8.61,1a4.93,4.93,0,0,1-2-.9,1.16,1.16,0,0,1-.19-1.51,1.81,1.81,0,0,1,1.18-.47l3.85-.53a8.36,8.36,0,0,1-4.08-1.3c-.44-.28-.91-.74-.77-1.24s1-.68,1.61-.59A15,15,0,0,1,50,349.59,16.49,16.49,0,0,1,47.51,345a1.11,1.11,0,0,1,0-1c.35-.49,1.13-.16,1.59.24a10.4,10.4,0,0,1,2.51,3.26,12.29,12.29,0,0,1-.07-5.53,1.07,1.07,0,0,1,.4-.74c.49-.31,1.07.25,1.33.76a10.12,10.12,0,0,1,1,4.45c.26-1,1.08-3.13,1.92-3.06S57.61,345.36,57.32,346.94Z" style="fill:#00AEBC"></path><path d="M57.32,346.94a16.92,16.92,0,0,1-3,6.74c-3.86,1.22-5.54,1.49-8.61,1a4.93,4.93,0,0,1-2-.9,1.16,1.16,0,0,1-.19-1.51,1.81,1.81,0,0,1,1.18-.47l3.85-.53a8.36,8.36,0,0,1-4.08-1.3c-.44-.28-.91-.74-.77-1.24s1-.68,1.61-.59A15,15,0,0,1,50,349.59,16.49,16.49,0,0,1,47.51,345a1.11,1.11,0,0,1,0-1c.35-.49,1.13-.16,1.59.24a10.4,10.4,0,0,1,2.51,3.26,12.29,12.29,0,0,1-.07-5.53,1.07,1.07,0,0,1,.4-.74c.49-.31,1.07.25,1.33.76a10.12,10.12,0,0,1,1,4.45c.26-1,1.08-3.13,1.92-3.06S57.61,345.36,57.32,346.94Z" style="opacity:0.15"></path></g><g id="freepik--flower--inject-4"><path d="M71.17,322.86a20.89,20.89,0,0,1,9.17,9.35,28.83,28.83,0,0,1,3.1,10.12,13.34,13.34,0,0,1,.1,2,5.65,5.65,0,0,0,0,1.23c0,.17.36.35.49.18.66-.82.49-2.25.41-3.23a27.08,27.08,0,0,0-1-4.95,24,24,0,0,0-5.78-10.46,21.37,21.37,0,0,0-6.46-4.43c-.1-.05-.1.15,0,.19Z" style="fill:#455a64"></path><path d="M77.16,327.74A21,21,0,0,0,77.55,315c-2-7.21-4.77-10.29-7.81-10.3a4,4,0,0,0-3.9,2.53s-3.21-1.23-4.51.21-.76,4.84-.76,4.84-1.87-.56-2.64-.2-2.3,6.65.54,10S70.73,330.15,77.16,327.74Z" style="fill:#00AEBC"></path><path d="M77.16,327.74A21,21,0,0,0,77.55,315c-2-7.21-4.77-10.29-7.81-10.3a4,4,0,0,0-3.9,2.53s-3.21-1.23-4.51.21-.76,4.84-.76,4.84-1.87-.56-2.64-.2-2.3,6.65.54,10S70.73,330.15,77.16,327.74Z" style="opacity:0.25"></path><path d="M76.23,328.3a25.2,25.2,0,0,1-11.79.37c-6.76-1.31-9.11-3.25-9.54-6.62s1.87-4.22,4.63-1.79c0,0,.19-1.8,1.27-2.23a3.79,3.79,0,0,1,3.32.54C64.58,319.09,69.26,327.09,76.23,328.3Z" style="fill:#00AEBC"></path><path d="M76.23,328.3a25.2,25.2,0,0,1-11.79.37c-6.76-1.31-9.11-3.25-9.54-6.62s1.87-4.22,4.63-1.79c0,0,.19-1.8,1.27-2.23a3.79,3.79,0,0,1,3.32.54C64.58,319.09,69.26,327.09,76.23,328.3Z" style="opacity:0.15"></path><path d="M77.94,325.41a22.27,22.27,0,0,0,3.53-8.81c.6-4.68-.29-8.61-2.92-7.37,0,0-.08-1.92-1.62-2.23s-4.85,3.49-4.66,7.42S77.94,325.41,77.94,325.41Z" style="fill:#00AEBC"></path><path d="M77.94,325.41a22.27,22.27,0,0,0,3.53-8.81c.6-4.68-.29-8.61-2.92-7.37,0,0-.08-1.92-1.62-2.23s-4.85,3.49-4.66,7.42S77.94,325.41,77.94,325.41Z" style="opacity:0.15"></path><path d="M76.23,328.3c-3.71.4-8.6-2-11-4.12-2.84-2.58-4.4-6.9-3.22-9.71s4.51-3.61,4.51-3.61.63-2.58,4-2.48c2.32.07,5.19,5.21,6.53,9.71S77.68,326.42,76.23,328.3Z" style="fill:#00AEBC"></path><path d="M79.68,330c-1.1-.33-2.3-.2-5.3.24s-5.69.55-5.95-1.31,4.71-1.3,4.71-1.3-2.66-3.2-1.23-4.62c1.88-1.84,4.88,2.25,4.88,2.25s.11-4.34,1.87-4.41,2.15,1.91,1.6,4.14S79.24,329,79.68,330Z" style="fill:#455a64"></path></g><path d="M96.57,386.63l7.25-4.19s9.2-16.91-6.11-30.14c-14.39-12.43-30.14-11.71-30.14-11.71s-4,20.33,3.29,33.48C78.64,388.07,96.57,386.63,96.57,386.63Z" style="fill:#00AEBC"></path><path d="M96.57,386.63l7.25-4.19s9.2-16.91-6.11-30.14c-14.39-12.43-30.14-11.71-30.14-11.71s-4,20.33,3.29,33.48C78.64,388.07,96.57,386.63,96.57,386.63Z" style="fill:#fff;opacity:0.5"></path><path d="M100.19,385a.44.44,0,0,1-.43-.37c-4.51-24.94-20.79-36.42-27.58-40.2a.45.45,0,1,1,.44-.78c6.9,3.84,23.44,15.51,28,40.82a.43.43,0,0,1-.36.52Z" style="fill:#fff"></path><path d="M92,363.4a.44.44,0,0,1-.3-.12c-3.13-2.81-13-3.06-18.29-.46a.43.43,0,0,1-.59-.2.43.43,0,0,1,.2-.59c5.59-2.79,15.87-2.47,19.28.59a.45.45,0,0,1-.3.78Z" style="fill:#fff"></path></g></g><g id="freepik--Pictures--inject-4"><g id="freepik--Picture--inject-4"><g id="freepik--Frame--inject-4"><polygon points="284.02 99.06 282.29 100.15 246.61 78.38 248.35 77.28 284.02 99.06" style="fill:#fafafa"></polygon><polygon points="248.35 77.28 282.28 97.99 282.28 60.42 248.35 39.73 248.35 77.28" style="fill:#fff"></polygon><path d="M243.33,80.38l42.24,25.78V58.42L243.33,32.64Zm3.28-41.73,35.67,21.77v39.73L246.61,78.38Z" style="fill:#f0f0f0"></path><polygon points="246.61 78.38 248.35 77.28 248.35 39.73 246.61 38.65 246.61 78.38" style="fill:#e0e0e0"></polygon><polygon points="243.33 32.65 245.09 31.58 287.33 57.35 285.56 58.42 243.33 32.65" style="fill:#fafafa"></polygon><polygon points="287.33 57.35 285.56 58.42 285.56 106.16 287.33 105.09 287.33 57.35" style="fill:#e0e0e0"></polygon></g><g id="freepik--Land--inject-4"><polygon points="249.67 76.16 280.96 95.26 280.96 85.71 273.14 66.61 268.26 71.39 270.02 79.39 259.21 54.97 249.67 66.61 249.67 76.16" style="fill:#f0f0f0"></polygon><path d="M268.56,57.39a5.47,5.47,0,0,1,2.31,4.24c0,1.56-1,2.19-2.31,1.41a5.45,5.45,0,0,1-2.31-4.23C266.25,57.25,267.28,56.61,268.56,57.39Z" style="fill:#f0f0f0"></path></g></g><g id="freepik--picture--inject-4"><g id="freepik--frame--inject-4"><polygon points="284.02 158 282.29 159.1 246.61 137.33 248.35 136.23 284.02 158" style="fill:#fafafa"></polygon><polygon points="248.35 136.23 282.28 156.94 282.28 119.37 248.35 98.68 248.35 136.23" style="fill:#fff"></polygon><path d="M243.33,139.33l42.24,25.78V117.37L243.33,91.59Zm3.28-41.73,35.67,21.77V159.1l-35.67-21.77Z" style="fill:#f0f0f0"></path><polygon points="246.61 137.33 248.35 136.23 248.35 98.68 246.61 97.6 246.61 137.33" style="fill:#e0e0e0"></polygon><polygon points="243.33 91.59 245.09 90.52 287.33 116.3 285.56 117.37 243.33 91.59" style="fill:#fafafa"></polygon><polygon points="287.33 116.3 285.56 117.37 285.56 165.11 287.33 164.04 287.33 116.3" style="fill:#e0e0e0"></polygon></g><g id="freepik--land--inject-4"><polygon points="249.67 135.11 280.96 154.2 280.96 144.66 273.14 125.56 268.26 130.33 270.02 138.34 259.21 113.91 249.67 125.56 249.67 135.11" style="fill:#f0f0f0"></polygon><path d="M268.56,116.34a5.47,5.47,0,0,1,2.31,4.24c0,1.56-1,2.19-2.31,1.41a5.47,5.47,0,0,1-2.31-4.24C266.25,116.19,267.28,115.56,268.56,116.34Z" style="fill:#f0f0f0"></path></g></g></g><g id="freepik--Mirror--inject-4"><g id="freepik--mirror--inject-4"><g id="freepik--mirror--inject-4"><g id="freepik--frame--inject-4"><polygon points="443.7 251.52 439.53 254 316.28 182.84 320.44 180.35 443.7 251.52" style="fill:#00AEBC"></polygon><polygon points="443.7 251.52 439.53 254 316.28 182.84 320.44 180.35 443.7 251.52" style="fill:#fff;opacity:0.85"></polygon><path d="M308.41,187.38l139,80.24V115.79l-139-80.24Zm7.87-138.21,123.25,71.16V254L316.28,182.84Z" style="fill:#00AEBC"></path><path d="M308.41,187.38l139,80.24V115.79l-139-80.24Zm7.87-138.21,123.25,71.16V254L316.28,182.84Z" style="fill:#fff;opacity:0.7000000000000001"></path><polygon points="316.28 182.84 320.44 180.35 320.44 51.61 316.28 49.17 316.28 182.84" style="fill:#00AEBC"></polygon><polygon points="316.28 182.84 320.44 180.35 320.44 51.61 316.28 49.17 316.28 182.84" style="fill:#fff;opacity:0.5"></polygon><polygon points="308.41 35.55 312.64 33.13 451.62 113.37 447.39 115.79 308.41 35.55" style="fill:#00AEBC"></polygon><polygon points="308.41 35.55 312.64 33.13 451.62 113.37 447.39 115.79 308.41 35.55" style="fill:#fff;opacity:0.85"></polygon><polygon points="451.62 113.37 447.39 115.79 447.39 267.62 451.62 265.18 451.62 113.37" style="fill:#00AEBC"></polygon><polygon points="451.62 113.37 447.39 115.79 447.39 267.62 451.62 265.18 451.62 113.37" style="fill:#fff;opacity:0.5"></polygon></g><polygon points="320.44 180.35 439.53 249.1 439.53 120.33 320.44 51.61 320.44 180.35" style="fill:#fff"></polygon><g style="opacity:0.05"><path d="M439.53,120.33l-3.19-1.84c-1.83-1.06-7.67,2.39-8.94,3.75a40.74,40.74,0,0,0-6,8.63,86.22,86.22,0,0,0-9.16,27.93c-1.48,10.11-1.27,20.83-6.11,29.82-3.21,6-8.37,10.56-13.79,14.51a41.13,41.13,0,0,1-7.69,4.76c-1.62.71-8.58,4.55-10.17,3.63L411.68,233a22.67,22.67,0,0,0,6.92-7c2.51-4.28,3-9.39,3.54-14.32.89-8.9,1.84-34.19,5.38-42.41a33.28,33.28,0,0,1,12-14.82Z" style="fill:#00AEBC"></path><path d="M337.93,171c3.85-1.11,8.22-1.2,12-2,4.71-.94,9.45-2.5,13.1-5.64a27.1,27.1,0,0,0,6.62-9.42c4.56-9.88,6-20.78,9.27-31.09,3.49-11,9.89-19.3,18.47-26.89L361.13,75.09c-.23-.13-5.3,7.82-5.72,8.8-2.52,5.85-2.65,13-3.72,19.22-1.19,6.88-2.37,13.86-5.24,20.29a42.17,42.17,0,0,1-10.69,14.41c-4.72,4.14-9.52,5.79-15.32,7.69v34.86l3.58,2.06a30.48,30.48,0,0,1,10.63-10.06A16.22,16.22,0,0,1,337.93,171Z" style="fill:#00AEBC"></path><path d="M370.13,191.33a78.11,78.11,0,0,0,7.75-3.22c8.14-4.06,15.66-10.2,19.27-18.75a51.26,51.26,0,0,0,2.53-8.5c1.76-7.67,3.17-15.43,5.62-22.9a58,58,0,0,1,7.42-15.36c.86-1.22,9.25-12.4,10.37-11.75l-11.75-6.78c-4.35,4.55-9,10-11.93,15.56-3.16,6-4.9,12.65-6.43,19.22-2.44,10.52-4.78,21.6-11.81,29.8-4.1,4.78-9.53,8.22-14.9,11.52-7.92,4.85-16.74,5.78-22.78,13.49l12.6,7.27c-1.64-.94,9-7.58,9.81-7.94C367.3,192.4,368.71,191.87,370.13,191.33Z" style="fill:#00AEBC"></path></g><g id="freepik--Character--inject-4" style="opacity:0.15"><g id="freepik--Top--inject-4"><path d="M368.86,94.61A6.19,6.19,0,0,1,367.4,98c-1.28,1.6-3,2.7-4.5,4.08-2.26,2.11-5.94,5.48-6.82,8.5-.17.61-.35,1.94.68,1.38a27.35,27.35,0,0,1,4.09-2.12,5.58,5.58,0,0,1,4.48.15,2,2,0,0,1,.92,1c.2.63-.15.89-.57,1.19a11.77,11.77,0,0,0-1.26,1.06c-.85.76-1.69,1.51-2.55,2.25-5,4.35-6.63,6.28-13.26,7.62-.95.19-5,.58-7.48,2.57-1.73,1.36-10.83,10.21-16.39,15.63V119.38c4.86-2.86,8.58-5.11,10-6.47a30.09,30.09,0,0,0,4.11-5.68,28.46,28.46,0,0,1,6.39-8,29.29,29.29,0,0,1,8.35-5,2.15,2.15,0,0,1,2.65.5,6.9,6.9,0,0,1,3.23-.92,10.83,10.83,0,0,1,2.65.71c1.39.4,2.47-.18,3.67-.85A4.54,4.54,0,0,1,367.6,93C368.67,92.94,368.91,93.75,368.86,94.61Z" style="fill:#ffbda7"></path><path d="M352.85,112.22a11.94,11.94,0,0,0-10.37,3.64s1.32-3.15,4.09-4.11A7.4,7.4,0,0,1,352.85,112.22Z" style="fill:#f0997a"></path><path d="M389.31,179.61c-1.08-.57-1.92-1.62-3-2.13-1.58-.75-3.58,1.45-5.14,2a20.53,20.53,0,0,1-7.52,1.33,18,18,0,0,1-5.82-.93c-1.6-.57-2.72-1.38-4.42-1.13a19.78,19.78,0,0,0-5.3,1.36c-1.51.67-2.92,1.57-4.46,2.15-2.68,1-5.36,1.8-9,.84a6.9,6.9,0,0,1-3.89-3.11,7.6,7.6,0,0,1-.38-5.69c-1.73,2-5.91,1.85-6.95-1.18a2.13,2.13,0,0,0,2.25.59,2.15,2.15,0,0,0,1.4-1.86c.08-1.44-1.26-2.52-1.81-3.86a3.74,3.74,0,0,1,.29-3.35c.51-.79,1.32-1.41,1.59-2.31a2.61,2.61,0,0,0-.52-2.35c-.42-.53-1-.91-1.41-1.45-1.09-1.43-.62-3.61.58-4.95a11.16,11.16,0,0,1,4.63-2.69,5.86,5.86,0,0,1-2.64-6.72,3.85,3.85,0,0,0,3.65,2,3.07,3.07,0,0,0,2.69-2.73c0-1.4-1.3-2.54-2-3.63a10.39,10.39,0,0,1-1.68-6.76c.37-2.14,1.48-4,3.1-4.68a5.78,5.78,0,0,0-5,3,8.09,8.09,0,0,1,2.68-6.68,27,27,0,0,1,5-2.92,8,8,0,0,0,3.52-3.19c.75-1.5.86-3.42,1.24-5.06.64-2.82,2.62-4.18,5.2-5.15a11.14,11.14,0,0,1,3.53-.65A4.5,4.5,0,0,1,358,107c-1.3-1.06-1.72-3.29-.48-4.42.42,1.81,3,2.24,4.65,1.43,1.9-.92,3.24-2.63,5.16-3.55a7,7,0,0,1,6.13,0c1.38.7,2.51,1.87,3.95,2.43,2.2.86,4.66.17,7,0a15.53,15.53,0,0,1,5,.45,10.84,10.84,0,0,1,4.7,2.39,9.6,9.6,0,0,1,2,2.63,6.83,6.83,0,0,1,.68,2.73A12.81,12.81,0,0,1,409,115.64a20.85,20.85,0,0,0,1.95,2.44,3.4,3.4,0,0,0,2.82,1,1.8,1.8,0,0,0,1.53-2.28,3.54,3.54,0,0,1,1.28,2,4.19,4.19,0,0,1-.21,2.4c-.79,1.64-3.21,2.25-4.85,1.8a21.54,21.54,0,0,1,3.49,1.83,16.75,16.75,0,0,1,3.11,1.77,7.17,7.17,0,0,1,2.49,6.86c-.41,1.81-1.54,3.63-.95,5.39s2.47,2.48,4,3.48,2.88,2.67,2.82,4.52-1.29,3.18-2.51,4.42-1.18,2.84-.4,4.4,2.14,2.41,3,3.76a6.66,6.66,0,0,1,.74,5.35c-.49,1.82-2.07,3.67-1.49,5.65.43,1.45,1.95,2.3,2.71,3.62a3.94,3.94,0,0,1-.95,4.87,3.65,3.65,0,0,0-1.12-2.88,10.82,10.82,0,0,0-2.61-1.82,8.12,8.12,0,0,1,1.55,3.94,3.71,3.71,0,0,1-1.86,3.58c-1.31.63-3.14.29-4,1.44a5.78,5.78,0,0,0-.64,2.6,5.93,5.93,0,0,1-4.12,4.36,9.75,9.75,0,0,1-6.19-.36c-1.46-.52-2.83-1.09-4.33-1.49-1.19-.32-2.56-.33-3.59-1.08s-1.6-2.34-2.55-3.4C395.62,181.18,392.32,181.2,389.31,179.61Z" style="fill:#263238"></path><path d="M334.08,141.53c-1.19.83-2.77,1-3.74-.23-.08-.1-.24.08-.19.17.93,1.83,2.88,1.41,4.35.36a4.63,4.63,0,0,0,.78.38,5.55,5.55,0,0,0,4.94-.68,4.92,4.92,0,0,0,1.89-3,7.78,7.78,0,0,0-.3-3.48,3.58,3.58,0,0,0-.94-1.82c-.1-.08-.26-.15-.34,0s0,.13,0,.2a17,17,0,0,1,.19,3.76,4.62,4.62,0,0,1-1.07,2.56,4,4,0,0,1-2,1.4,3,3,0,0,1-1.57-.14c-.6-.22-.09-.48.12-.87a2.8,2.8,0,0,0-.27-3.22,2.41,2.41,0,0,0-3-.28C330.94,138,332.45,140.31,334.08,141.53Zm-.53-3.45c.06-.74.7-1.26,1.41-.81a1.88,1.88,0,0,1,.73,1.49,2.89,2.89,0,0,1-.6,1.77A3,3,0,0,1,333.55,138.08Z" style="fill:#263238"></path><path d="M425.74,130.32a3,3,0,0,0-1.33,3.58,3.5,3.5,0,0,0,3.49,2c.56,0,1.13-.46,1.05.34a3.83,3.83,0,0,1-.69,1.85,5,5,0,0,1-2.68,1.54,5.87,5.87,0,0,1-3.47-.17,21.36,21.36,0,0,1-4.15-2.25.31.31,0,0,0-.25-.07c-.16,0-.16.26-.12.41a4.43,4.43,0,0,0,1.54,2.05,9.75,9.75,0,0,0,3.78,2.22,6.12,6.12,0,0,0,4.44-.5,6.91,6.91,0,0,0,3.44-5.21,5,5,0,0,0,0-1.09c2-1.09,3.52-3.07,2-5.11-.07-.1-.36,0-.29.12.89,1.78-.18,3.46-1.76,4.35C430.18,131.94,428.33,129,425.74,130.32ZM429,135a3.75,3.75,0,0,1-2.33-.28,2.37,2.37,0,0,1-1.28-1.64c-.14-1,.81-1.48,1.68-1.16C428.21,132.39,428.82,133.83,429,135Z" style="fill:#263238"></path><path d="M336.61,181.49a1.65,1.65,0,0,0,1.61-.05,2,2,0,0,0,.51-.45,3.06,3.06,0,0,0,2.48-.91,2.9,2.9,0,0,0,.7-1.61,2.5,2.5,0,0,0,0-.82,2.17,2.17,0,0,0-.34-.68c-.07-.12-.19.07-.17.15a3.55,3.55,0,0,1-.06,1.45,2.33,2.33,0,0,1-2.17,1.7,2,2,0,0,0,.09-.26,1.37,1.37,0,0,0-.37-1.32,1,1,0,0,0-1.2-.1,1.22,1.22,0,0,0-.56,1.27,1.48,1.48,0,0,0,1,1l.17,0a1.66,1.66,0,0,1-1.62.32C336.6,181.2,336.52,181.45,336.61,181.49Zm2.14-1.24a1.23,1.23,0,0,1-.78-.42c-.15-.18-.33-.63-.08-.81s.65.09.78.29A1.11,1.11,0,0,1,338.75,180.25Z" style="fill:#263238"></path><path d="M383.69,103.82c3.52-1.16,7.61-1.42,10.88.57a6.94,6.94,0,0,1,3.12,3.73,3.56,3.56,0,0,1,0,2.07c2.08-1.56,5.28-1.22,7.36.28a9.66,9.66,0,0,1,3.07,4,16.42,16.42,0,0,0,1.33,2.65,6.2,6.2,0,0,0,2.18,1.92c.16.09,0,.41-.16.39-1.5-.24-2.49-1.68-3.14-2.93-.81-1.56-1.36-3.21-2.58-4.51a7.1,7.1,0,0,0-4.07-2.24,6.12,6.12,0,0,0-4.21,1,4.09,4.09,0,0,1-1.33,1.58c-.19.13-.18-.18-.1-.27s.38-.46.55-.7v0l.21-.27a3.89,3.89,0,0,0,.46-1,3.14,3.14,0,0,0-.44-2.56,8.17,8.17,0,0,0-3.32-3c-3.06-1.55-6.52-1.13-9.77-.52C383.6,104,383.61,103.85,383.69,103.82Z" style="fill:#263238"></path><path d="M411.76,124a12.68,12.68,0,0,0,4.46,1.2,9.45,9.45,0,0,1,3.94,1.45,6.08,6.08,0,0,1,2.52,7,18.23,18.23,0,0,1-2.1,3.32,4.44,4.44,0,0,0-.66,4.13,4.37,4.37,0,0,0,2.91,2.63c.28.09,1,.05.91.5-.13,1-3-.84-3.34-1.19a4.75,4.75,0,0,1-1.26-3.25,6.44,6.44,0,0,1,1.46-3.61,7.79,7.79,0,0,0,1.85-3.84,5.7,5.7,0,0,0-1.57-4.24,8.2,8.2,0,0,0-4.46-2.31c-1.64-.34-3.46-.46-4.72-1.69C411.67,124.12,411.69,124,411.76,124Z" style="fill:#263238"></path><path d="M342,124.61a8.29,8.29,0,0,0,4.26-2.68c1.22-1.51,1.46-3.3,1.72-5.16.45-3.35,2.07-6.54,5.21-8.1a7.27,7.27,0,0,1,5.63-.46c.07,0,0,.2,0,.18a8.48,8.48,0,0,0-9.08,4.53c-.93,1.82-1,3.8-1.36,5.77a7.89,7.89,0,0,1-2.1,4.1A6.86,6.86,0,0,1,342,125C341.76,125,341.9,124.64,342,124.61Z" style="fill:#263238"></path><path d="M368.08,128a1.52,1.52,0,0,1-.77.89c-.06,0-.06.2,0,.17a1.88,1.88,0,0,0,1.1-1.09,2.47,2.47,0,0,0,.29-.06,3.05,3.05,0,0,0,1.81-3.2,3.58,3.58,0,0,0-.85-1.85,4.44,4.44,0,0,0-1.79-1.37c-.19-.06-.52.22-.37.42a4.17,4.17,0,0,0,.77.67,4.26,4.26,0,0,1,.61.59,3,3,0,0,1,.76,1.6,2.4,2.4,0,0,1-1.09,2.4,1.81,1.81,0,0,0-.36-1,1.87,1.87,0,0,0-1.57-.74,1.11,1.11,0,0,0-1,1.12C365.63,127.69,367,128.09,368.08,128Zm0-.73a2.14,2.14,0,0,1-1.7-.59c-.12-.17-.24-.54,0-.71s.67,0,.9.07a1.55,1.55,0,0,1,.9,1.22Z" style="fill:#263238"></path><path d="M395,112.31c3.47-.38,7.24.31,9.83,2.83a7.89,7.89,0,0,1,2.22,3.81c.39,1.74,0,3.63.71,5.3,1.38,3.07,5.18,3.79,7.69,5.61a6.52,6.52,0,0,1,2.66,3.76,9.77,9.77,0,0,1-.47,5.16c-.54,1.81-1.11,3.93.37,5.45a4.13,4.13,0,0,0,4.27,1c.19-.05.14.25,0,.32a3.72,3.72,0,0,1-3.64,0,3.94,3.94,0,0,1-2.15-3.13c-.19-1.8.64-3.52,1-5.26a6.66,6.66,0,0,0-1-5.25c-2-2.64-5.63-3.21-7.95-5.48a6.14,6.14,0,0,1-1.77-4.26,10.24,10.24,0,0,0-1.11-4.84c-2.23-3.71-6.68-4.61-10.7-4.68C394.87,112.57,394.91,112.32,395,112.31Z" style="fill:#455a64"></path><path d="M391.55,114.14a7,7,0,0,1,2.34-.48,6.44,6.44,0,0,1,6.43,4.89c.41,1.69.12,3.45.43,5.16a8.32,8.32,0,0,0,1.63,3.62,8.5,8.5,0,0,0,3.29,2.56,15.57,15.57,0,0,1,4.21,2.12,7.84,7.84,0,0,1,2.45,7.31c-.67,3.11-3.68,5.23-3.87,8.51-.19,3.09,2.78,4.67,4.7,6.56a8,8,0,0,1,2.43,4.05,3.93,3.93,0,0,1-1.32,4.06,3.57,3.57,0,0,1-1.22.52,3.43,3.43,0,0,0-2.69-2.83c-1.2-.1-2.54.93-1.63,2.13a3.94,3.94,0,0,0,3.78,1.39c0,.09,0,.19,0,.27a4.83,4.83,0,0,1-2.22,4,2.71,2.71,0,0,1-1.72.43,1.48,1.48,0,0,0,.08-.13,1.15,1.15,0,0,0-.36-1.53,1.06,1.06,0,0,0-1.36.13,1.18,1.18,0,0,0,.29,1.66,2.58,2.58,0,0,0,.37.24,2.93,2.93,0,0,1-.59.35,5,5,0,0,1-2.75.25c-.19,0-.33.34-.12.4a4.42,4.42,0,0,0,2.76-.1,3.68,3.68,0,0,0,1.22-.71,3.81,3.81,0,0,0,3-.95,5.5,5.5,0,0,0,2-4.44,4.29,4.29,0,0,0,2.62-1.92,5.52,5.52,0,0,0-.06-5.12,13.3,13.3,0,0,0-3.68-4.12c-1.41-1.18-2.93-2.54-2.89-4.54s1.5-3.89,2.57-5.63a8.56,8.56,0,0,0,1.44-4.76,8.38,8.38,0,0,0-1.36-4.34,7.94,7.94,0,0,0-3.78-3,22.44,22.44,0,0,1-2.81-1.21,8,8,0,0,1-2-1.7,8.29,8.29,0,0,1-1.94-5.1c-.09-1.93,0-3.82-1-5.57a6.65,6.65,0,0,0-8.73-2.71C391.42,113.9,391.38,114.21,391.55,114.14Zm16.55,54.17a1.47,1.47,0,0,1-.66-.54c-.11-.2-.21-.59.09-.64a.73.73,0,0,1,.46.19A.66.66,0,0,1,408.1,168.31Zm4.3-5.18a4,4,0,0,1-1.57-.17,3.32,3.32,0,0,1-1.52-1c-.59-.71,0-1.24.76-1.21C411.28,160.79,412.11,162,412.4,163.13Z" style="fill:#455a64"></path><path d="M371.38,121.56a17.22,17.22,0,0,1,5.84-2.59,12.65,12.65,0,0,1,6.57.4,9.76,9.76,0,0,1,4.77,3.22,5,5,0,0,1,1,2.43,11.65,11.65,0,0,1-.47,3,3.11,3.11,0,0,0,2.11,3.42,3.39,3.39,0,0,0,.72,2c1.07,1.37,2.74,2,4.12,3a4.1,4.1,0,0,1,1.66,2.08,2.33,2.33,0,0,1-.49,2.46c-.12.1-.12.46.08.33a2.79,2.79,0,0,0,.72-3.91c-1-1.56-2.81-2.2-4.24-3.23a4.34,4.34,0,0,1-1.83-2.46c1.23.17,2.84-.22,2.87-1.66a1.22,1.22,0,0,0-1.27-1.24,2.14,2.14,0,0,0-1.63.76,2.86,2.86,0,0,0-.61,1.15,2.83,2.83,0,0,1-.93-.75,2.72,2.72,0,0,1-.32-2.49,7.37,7.37,0,0,0,.35-2.51,5.31,5.31,0,0,0-.74-2.14c-1.73-2.92-5.38-4.44-8.65-4.65a13.11,13.11,0,0,0-9.69,3.3S371.29,121.61,371.38,121.56ZM392,130.87a2.2,2.2,0,0,1,.19-.62c.27-.54,1.34-1.42,1.82-.56S393,131,392.35,131A1.92,1.92,0,0,1,392,130.87Z" style="fill:#455a64"></path><path d="M351.45,144.87a3.19,3.19,0,0,1-1.43,2.9,3.35,3.35,0,0,1-1.11.41,2.26,2.26,0,0,0-.31-1.17c-.45-.76-1.57-1.45-2.36-.75a1.35,1.35,0,0,0,.31,2.2,3.16,3.16,0,0,0,1.7.46,2,2,0,0,1-2.36,1.21c-.23,0-.5.37-.23.46a2.45,2.45,0,0,0,3.14-1.72,4.14,4.14,0,0,0,3.09-2.3c.92-2-.15-3.95-1.65-5.34-.77-.72-1.61-1.35-2.35-2.1a3.22,3.22,0,0,1-1-1.73,3.93,3.93,0,0,1,.39-2,7.33,7.33,0,0,1,2.36-2.93,15.33,15.33,0,0,0,2.37-2,4.22,4.22,0,0,0,1-2.92,24.32,24.32,0,0,1-.17-3.71c.35-2.41,2.68-4.44,4.73-5.5a10.53,10.53,0,0,1,6.86-1A13.86,13.86,0,0,1,371,121c.06,0,.08-.08.06-.12-2.32-3.75-7.52-5-11.57-3.83a11.85,11.85,0,0,0-5,2.94,6.91,6.91,0,0,0-2.35,5.37,12.2,12.2,0,0,1,.09,3.41,4.38,4.38,0,0,1-1.79,2.38,21.7,21.7,0,0,0-2.27,1.81,7.57,7.57,0,0,0-1.69,2.62,3.59,3.59,0,0,0-.07,2.89,7.6,7.6,0,0,0,1.87,2.09C349.57,141.7,351.31,143,351.45,144.87Zm-3.11,3.36a2.36,2.36,0,0,1-1.51-.46,1,1,0,0,1-.43-.83c.06-.75.88-.45,1.19-.23A2,2,0,0,1,348.34,148.23Z" style="fill:#455a64"></path><path d="M361.07,106c2.35.14,4-1.63,6.05-2.43a7.67,7.67,0,0,1,6.27.37,28.64,28.64,0,0,1,2.82,2.1,5.56,5.56,0,0,0,3.9.79,31.15,31.15,0,0,1,3.6-.37,7.75,7.75,0,0,1,3.45.78,5.61,5.61,0,0,1,3.14,5.72c0,.08-.09,0-.09,0a5.42,5.42,0,0,0-3.64-5.4A8.11,8.11,0,0,0,383,107c-1.21.08-2.4.36-3.62.43a5.66,5.66,0,0,1-3.06-.55,29.88,29.88,0,0,1-2.71-2,7.14,7.14,0,0,0-6.73-.64c-1.8.79-3.76,2.75-5.88,2.06C360.9,106.22,361,106,361.07,106Z" style="fill:#455a64"></path><path d="M345.89,124.26a5.85,5.85,0,0,0-2.65,1.6,4.88,4.88,0,0,1,2.26-1.76,14.34,14.34,0,0,0,3.2-1.34,5.63,5.63,0,0,0,1.7-2.22,30.47,30.47,0,0,1,1.72-4.27,9.94,9.94,0,0,1,1.42-1.81,10.27,10.27,0,0,1,3.84-2.47,9.06,9.06,0,0,1,4-.49,33,33,0,0,1,5.15,1.4,10.34,10.34,0,0,0,5.38.21,47,47,0,0,0,5.12-1.9,7.67,7.67,0,0,1,5.38,0,15.43,15.43,0,0,1,4.95,3.08s0,.15,0,.12a37.62,37.62,0,0,0-4.53-2.49,7.68,7.68,0,0,0-5.38-.28c-1.67.55-3.21,1.4-4.91,1.88a10.75,10.75,0,0,1-4.91.29c-1.76-.33-3.41-1.06-5.14-1.48a8.77,8.77,0,0,0-4.63.06,9.89,9.89,0,0,0-6.29,5.85,29.11,29.11,0,0,1-1.05,3,5.36,5.36,0,0,1-1.41,1.79,7,7,0,0,1-2.33,1Z" style="fill:#455a64"></path><path d="M342,161.21c.14,1.55,1.17,2.46,2.28,3.41a4,4,0,0,1,1.5,2.14,3,3,0,0,1-1,2.31,7.78,7.78,0,0,0-2,3.78,3.6,3.6,0,0,0,1.28,3.56,3.15,3.15,0,0,0,.6.35,4.53,4.53,0,0,0,.18,2.69c.07.2.28,0,.27-.13a6.46,6.46,0,0,1,0-2.36,2.16,2.16,0,0,0,2.31-.31.75.75,0,0,0-.17-1.2,1.61,1.61,0,0,0-1.56.06,2.23,2.23,0,0,0-.75.67,3.11,3.11,0,0,1-1.6-2.92,6.23,6.23,0,0,1,1.61-3.56c.73-.85,1.63-1.76,1.54-3a4.37,4.37,0,0,0-1.91-2.79c-1.08-.91-2-1.86-1.93-3.36.06-3,3-4.54,5.4-5.49,2-.77,4.49-1.84,4.35-4.37,0-.11-.11-.05-.1,0a3.67,3.67,0,0,1-2.26,3,25.33,25.33,0,0,1-2.54,1,10.19,10.19,0,0,0-4.15,2.66A5.22,5.22,0,0,0,342,161.21Zm3.38,15.17a1.47,1.47,0,0,1,.46-.39c.26-.14.94-.27,1.12.11.26.56-.89.44-1.14.4A2.2,2.2,0,0,1,345.37,176.38Z" style="fill:#455a64"></path><path d="M350.75,160.21c1-1.53,2.2-2.89,2.24-4.83,0-.07.09-.13.11,0,.59,3.5-4.17,5.9-2.87,9.42.52,1.4,1.69,2.44,2.26,3.82a3.34,3.34,0,0,1-.63,3.84c-.16.16-.24-.09-.16-.22.84-1.31.38-3-.34-4.22s-1.7-2.17-1.95-3.52A6,6,0,0,1,350.75,160.21Z" style="fill:#455a64"></path><path d="M402.1,172.33a5.69,5.69,0,0,1-1.44-4.87c.41-1.68,1.59-3,2.33-4.56a5.34,5.34,0,0,0,.47-3.51c-.23-1.08-.79-2-1.11-3.06,0-.05.06-.21.12-.13a7.36,7.36,0,0,1,1.34,2.94,5.33,5.33,0,0,1,0,2.69c-.48,1.78-1.77,3.17-2.43,4.86a4.15,4.15,0,0,0-.06,3,8.72,8.72,0,0,0,1.75,2.62,12.13,12.13,0,0,1,3.19,5.17,6.38,6.38,0,0,1-1.58,6c-.16.16-.21-.1-.13-.22a7,7,0,0,0,.93-5.72C404.94,175.43,403.42,174,402.1,172.33Z" style="fill:#455a64"></path><g id="freepik--Arm--inject-4"><path d="M357.36,173.27,343,189.48l-18.3-10.56V147.59c4,3.88,10.28,9.95,17.37,16.27,1.75,1.56,4,2.73,7.84,4.68A49.86,49.86,0,0,1,357.36,173.27Z" style="fill:#ffbda7"></path><path d="M347.38,181.75l-1.85,4.91L343,189.48,340,187.71A55.87,55.87,0,0,1,347.38,181.75Z" style="fill:#f0997a"></path></g><g id="freepik--top--inject-4"><path d="M414,213.86c-1.13,4.37-2.79,9.25-4.41,14L343,189.48l-2-1.12c5.72-7.55,13.05-13.3,16.27-15.09,1.51.64,5.45.6,5.45.6,7.2-.1,13,2.3,19.08,2.91,3.57.36,10.41,1.2,15.51,2l6.42,1c-3.82,9.86-1.44,17.85.67,22.86C407,208.72,414,213.86,414,213.86Z" style="fill:#455a64"></path></g><g id="freepik--Head--inject-4"><path d="M391.22,170.27c0-3.25.48-14.63.48-14.63.69,3.23,6,3.23,9.2-.34,3.93-4.4,3.11-9.41.67-11.68s-6.41-2.16-9.14,2c-1.4,1.52-3.32.2-3-1.65a9.09,9.09,0,0,0,.14-3c-.45-2.44-2.59-3.9-3.74-5.94-1.39-2.46.77-3.81-.82-8.54a6.76,6.76,0,0,0-4.61-3.81,10.54,10.54,0,0,0-6.66.61c-.68.25-1.3.62-2,.85a2.54,2.54,0,0,1-2.09-.12,5.29,5.29,0,0,1-.94-1,5.38,5.38,0,0,0-4.71-1.51c-2.77.44-5.28,2.72-6.64,6.55-1.11,3.11,0,4.41-.91,9a41.13,41.13,0,0,0-1.53,8.34c-.85,10.9,1.14,16.42,5,18.81A18.55,18.55,0,0,0,370.33,167l-.19,2.5c-.24,2-.24,3.87-2.24,4l-5.09.4s-5.56,7.73,7.79,11c17.38,4.28,26.8-6.12,26.8-6.12s-1.71-.32-3.82-.79C391.12,177.43,391.24,173.88,391.22,170.27Z" style="fill:#ffbda7"></path><path d="M370.33,167c5.22-.13,7.7-.19,11.41-1.54a14.2,14.2,0,0,0,5.92-4.58s-1.88,4.57-5.42,6.31c-4.95,2.43-12.11,2.4-12.11,2.4Z" style="fill:#f0997a"></path><path d="M359.14,131.85l5.21-.87a2.53,2.53,0,0,0-3-2.2A2.77,2.77,0,0,0,359.14,131.85Z" style="fill:#263238"></path><path d="M381.3,135.67l-4.77-2.42A2.56,2.56,0,0,1,380,132,2.81,2.81,0,0,1,381.3,135.67Z" style="fill:#263238"></path><path d="M363.3,137.6a2.27,2.27,0,0,1-2.21,2.24,2.12,2.12,0,0,1-2.2-2.12,2.27,2.27,0,0,1,2.2-2.24A2.13,2.13,0,0,1,363.3,137.6Z" style="fill:#263238"></path><path d="M379.3,139.94a2.27,2.27,0,0,1-2.2,2.24,2.13,2.13,0,0,1-2.21-2.12,2.27,2.27,0,0,1,2.2-2.24A2.12,2.12,0,0,1,379.3,139.94Z" style="fill:#263238"></path><path d="M360.15,145.18l7.1,3.84,2.9-13.15C367.73,136.6,363.9,140.41,360.15,145.18Z" style="fill:#f0997a"></path><path d="M367,153.23l6.5-1.2a3.17,3.17,0,0,1-2.53,3.85A3.46,3.46,0,0,1,367,153.23Z" style="fill:#b16668"></path><path d="M369,155.63a3.44,3.44,0,0,1,4-2.25,3.13,3.13,0,0,1,.52.16,3.14,3.14,0,0,1-2.5,2.34A3.34,3.34,0,0,1,369,155.63Z" style="fill:#f28f8f"></path></g><path d="M435.23,193.28v30.27c-7.8-3-15.82-6.12-21.52-8.58-8.64-4.07-16.28-20.48-10.4-34.09.17-.38.34-.74.51-1.1,9.75,1.34,15.31,4.12,23.46,8.8C429.24,189.7,432.06,191.37,435.23,193.28Z" style="fill:#ffbda7"></path><path d="M432.75,152.15a7.67,7.67,0,0,0-1.5-.23,9.09,9.09,0,0,0-3.26.94,5.61,5.61,0,0,0-2.35,1.27,11.87,11.87,0,0,0-1,3.48c-.08.82.91,1.68.91,1.68s-.78.17-1.19,1.43a26.1,26.1,0,0,0-.69,2.87c-.1.3.9,1.4,2.3.17s1.57-1.69,2.59-1.39,4.05,1.42,4.32,2,.17,1.63.24,4.66.48,4.92,1.61,6.25l.49.59v-23.1C434.4,152.59,433.57,152.35,432.75,152.15Zm-2.77,5.9a11.37,11.37,0,0,0-2.53.36l.11-.84A4.84,4.84,0,0,1,430,157a35.57,35.57,0,0,1,5,2.64C435.31,159.93,430.73,158.15,430,158.05Zm5.13-18.77a10.67,10.67,0,0,0-1.79-1.11,9.86,9.86,0,0,0-2-.61,17,17,0,0,0-3.5-.18l-3.79,0a.67.67,0,0,0-.37.07.61.61,0,0,0-.23.56,2.83,2.83,0,0,0,.91,2,5.67,5.67,0,0,0,1.91,1.16,11.12,11.12,0,0,0,2.92.7,2.63,2.63,0,0,1,1.14.28,7.94,7.94,0,0,1,1.21,1.06l1.05,1.12c-1.61-.09-3-.23-3.85.38s-1.35,2.78-1.34,3.41a14.52,14.52,0,0,0,1.22,3l.35-2.24c1.71.42,4,.61,5.18,2,.23.25.46.51.7.76l.43.47V139.38Z" style="fill:#ffbda7"></path><path d="M435.23,144.66V145c-.9-.27-1.82-.48-2.69-.71A24.86,24.86,0,0,1,435.23,144.66Z" style="fill:#f0997a"></path><path d="M426.37,146.24a3.37,3.37,0,0,0,2.55,2.61,25.32,25.32,0,0,1,2.92.67,4.9,4.9,0,0,1-3.91,2.51c-2.9.32-5.82-2.45-5.82-2.45Z" style="fill:#263238"></path><circle cx="395.51" cy="153.98" r="2.07" style="fill:#fff"></circle></g></g></g><g id="freepik--Photo--inject-4"><polygon id="freepik--shadow--inject-4" points="320.44 63.86 341.74 67.37 348.05 101.74 326.23 98.14 320.44 66.48 320.44 63.86" style="opacity:0.1"></polygon><g id="freepik--photo--inject-4"><polygon points="320.44 65.11 340.54 68.43 346.85 102.8 325.02 99.19 320.45 70.94 320.44 65.11" style="fill:#455a64"></polygon><polygon points="326.28 97.51 321.41 67.38 321.95 67.38 339.31 70.13 344.88 100.47 326.28 97.51" style="fill:#fafafa"></polygon><polygon points="327.17 96.21 343.62 99.02 342.38 92.01 337.77 86.3 335.34 89.47 329.23 81.1 326.08 89.65 327.17 96.21" style="fill:#00AEBC"></polygon><polygon points="327.17 96.21 343.62 99.02 342.38 92.01 337.77 86.3 335.34 89.47 329.23 81.1 326.08 89.65 327.17 96.21" style="fill:#fff;opacity:0.7000000000000001"></polygon><path d="M335.74,76.11c-1.06-.25-1.66.73-1.34,2.2a4.25,4.25,0,0,0,2.5,3.15c1.06.26,1.66-.72,1.34-2.2A4.25,4.25,0,0,0,335.74,76.11Z" style="fill:#00AEBC;opacity:0.7000000000000001"></path></g></g></g></g><g id="freepik--Furniture--inject-4"><g id="freepik--Dresser--inject-4"><g id="freepik--Bookshelf--inject-4"><path d="M246.92,243.4l54.6-31.48a3,3,0,0,1,3-.3l3.94,2.27a3,3,0,0,1,1.24,2.73V324.8a9.29,9.29,0,0,1-4.2,7.27l-54.6,31.48a3,3,0,0,1-3,.29l-3.95-2.28a3,3,0,0,1-1.22-2.71V250.67A9.27,9.27,0,0,1,246.92,243.4Z" style="fill:#263238"></path><path d="M297.85,327.37l3.93,2.27v12.43a2.33,2.33,0,0,1-1,1.82L298.9,345a2.29,2.29,0,0,1-2.1,0L295,343.89a3.76,3.76,0,0,1-1.45-1.75L290,331.92Z" style="fill:#263238"></path><path d="M301.78,342.07a2.33,2.33,0,0,1-1,1.82L298.9,345a1,1,0,0,1-1.45-.54l-3.54-10.22,7.87-4.55Z" style="fill:#37474f"></path><path d="M258.47,350.05l3.94,2.28v12.42a2.32,2.32,0,0,1-1.05,1.82l-1.84,1.06a2.29,2.29,0,0,1-2.1,0l-1.83-1.06a3.76,3.76,0,0,1-1.45-1.75L250.6,354.6Z" style="fill:#263238"></path><path d="M262.41,364.75a2.32,2.32,0,0,1-1.05,1.82l-1.84,1.06a1,1,0,0,1-1.44-.54l-3.54-10.22,7.87-4.54Z" style="fill:#37474f"></path><path d="M305.18,214.27l-54.6,31.48a9.26,9.26,0,0,0-4.2,7.27V361.19a2.56,2.56,0,0,0,4.2,2.43l54.6-31.48a9.27,9.27,0,0,0,4.2-7.27V216.69a2.56,2.56,0,0,0-4.2-2.42Z" style="fill:#37474f"></path><g id="freepik--Bottom--inject-4"><polygon points="444.63 412.06 385.57 446.16 242.73 363.69 246.66 361.42 305.72 327.32 444.63 407.52 444.63 412.06" style="fill:#455a64"></polygon><polygon points="387.42 290.04 319.01 329.53 319.01 398.65 387.42 359.15 387.42 290.04" style="fill:#37474f"></polygon><polygon points="385.57 446.16 385.57 441.61 242.73 359.14 242.73 363.69 385.57 446.16" style="fill:#263238"></polygon><polygon points="319.01 329.53 342.63 361.36 381.63 383.88 381.63 365.69 319.01 329.53" style="opacity:0.1"></polygon></g><g id="freepik--Books--inject-4"><path d="M322.33,399.09,352.07,382a2.27,2.27,0,0,1,2,0l18.8,10.78a.62.62,0,0,1,0,1.17l-26.53,15.3a2.27,2.27,0,0,1-2,0l-7.48-4.32a2.25,2.25,0,0,0-2,0l-1.17.68a2.27,2.27,0,0,1-2,0l-9.31-5.3A.62.62,0,0,1,322.33,399.09Z" style="fill:#263238"></path><g id="freepik--Book--inject-4"><polygon points="350.9 340.67 327.51 354.35 327.39 399.19 350.79 385.51 350.9 340.67" style="fill:#00AEBC"></polygon><path d="M328.26,355.09l22.64-13.15a9.44,9.44,0,0,0,5.16,2.84l-22.45,13.09S332.16,357.53,328.26,355.09Z" style="fill:#f5f5f5"></path><path d="M335.78,357.79a4.81,4.81,0,0,1-4.34,0l-3.8-2.2a1.33,1.33,0,0,1,0-2.51l22.32-13,.94.54L329,353.5a.79.79,0,0,0,0,1.5l3.53,2a2.89,2.89,0,0,0,2.61,0L357,344.21l1.07.62Z" style="fill:#00AEBC"></path><path d="M335.78,357.79a4.81,4.81,0,0,1-4.34,0l-3.8-2.2a1.33,1.33,0,0,1,0-2.51l22.32-13,.94.54L329,353.5a.79.79,0,0,0,0,1.5l3.53,2a2.89,2.89,0,0,0,2.61,0L357,344.21l1.07.62Z" style="fill:#fff;opacity:0.6000000000000001"></path><path d="M358.1,344.82,358,389.67l-22.31,13a4.8,4.8,0,0,1-4.35,0l-3.8-2.19a1.5,1.5,0,0,1-.89-1.26l.11-44.84a1.52,1.52,0,0,0,.9,1.25l3.8,2.2a4.78,4.78,0,0,0,4.34,0Z" style="fill:#00AEBC"></path><path d="M358.1,344.82,358,389.67l-22.31,13a4.8,4.8,0,0,1-4.35,0l-3.8-2.19a1.5,1.5,0,0,1-.89-1.26l.11-44.84a1.52,1.52,0,0,0,.9,1.25l3.8,2.2a4.78,4.78,0,0,0,4.34,0Z" style="fill:#fff;opacity:0.4"></path><path d="M333.61,358.32a4.38,4.38,0,0,1-2.17-.52l-3.8-2.2a1.52,1.52,0,0,1-.9-1.25l-.11,44.84a1.5,1.5,0,0,0,.89,1.26l3.8,2.19a4.41,4.41,0,0,0,2.17.52Z" style="fill:#00AEBC"></path><path d="M333.61,358.32a4.38,4.38,0,0,1-2.17-.52l-3.8-2.2a1.52,1.52,0,0,1-.9-1.25l-.11,44.84a1.5,1.5,0,0,0,.89,1.26l3.8,2.19a4.41,4.41,0,0,0,2.17.52Z" style="fill:#fff;opacity:0.7000000000000001"></path></g><g id="freepik--book--inject-4"><polygon points="359.56 348.34 337.87 361.02 337.77 402.6 359.46 389.92 359.56 348.34" style="fill:#00AEBC"></polygon><polygon points="359.56 348.34 337.87 361.02 337.77 402.6 359.46 389.92 359.56 348.34" style="opacity:0.35000000000000003"></polygon><path d="M338.57,361.71l21-12.19a8.8,8.8,0,0,0,4.79,2.63l-20.82,12.14S342.19,364,338.57,361.71Z" style="fill:#fff"></path><path d="M345.55,364.21a4.44,4.44,0,0,1-4,0l-3.52-2a1.24,1.24,0,0,1,0-2.34l20.69-12,.88.5-20.35,11.89a.74.74,0,0,0,0,1.4l3.28,1.87a2.68,2.68,0,0,0,2.42,0l20.34-11.87,1,.57Z" style="fill:#00AEBC"></path><path d="M345.55,364.21a4.44,4.44,0,0,1-4,0l-3.52-2a1.24,1.24,0,0,1,0-2.34l20.69-12,.88.5-20.35,11.89a.74.74,0,0,0,0,1.4l3.28,1.87a2.68,2.68,0,0,0,2.42,0l20.34-11.87,1,.57Z" style="opacity:0.2"></path><path d="M366.24,352.19l-.11,41.58-20.69,12a4.47,4.47,0,0,1-4,0l-3.52-2a1.4,1.4,0,0,1-.83-1.16l.11-41.58a1.4,1.4,0,0,0,.82,1.17l3.53,2a4.44,4.44,0,0,0,4,0Z" style="fill:#00AEBC"></path><path d="M366.24,352.19l-.11,41.58-20.69,12a4.47,4.47,0,0,1-4,0l-3.52-2a1.4,1.4,0,0,1-.83-1.16l.11-41.58a1.4,1.4,0,0,0,.82,1.17l3.53,2a4.44,4.44,0,0,0,4,0Z" style="opacity:0.30000000000000004"></path><path d="M343.53,364.7a4.09,4.09,0,0,1-2-.48l-3.53-2a1.4,1.4,0,0,1-.82-1.17l-.11,41.58a1.4,1.4,0,0,0,.83,1.16l3.52,2a4,4,0,0,0,2,.47Z" style="fill:#00AEBC"></path><path d="M343.53,364.7a4.09,4.09,0,0,1-2-.48l-3.53-2a1.4,1.4,0,0,1-.82-1.17l-.11,41.58a1.4,1.4,0,0,0,.83,1.16l3.52,2a4,4,0,0,0,2,.47Z" style="opacity:0.1"></path></g></g><g id="freepik--books--inject-4"><path d="M343.67,414.84l36.63-21.36a2.25,2.25,0,0,1,2.08,0l19.33,11.08a.63.63,0,0,1,0,1.2l-27.28,15.73a2.31,2.31,0,0,1-2.08,0l-7.69-4.44a2.33,2.33,0,0,0-2.09,0l-7.24,4.44a2.33,2.33,0,0,1-2.09,0l-9.57-5.44A.64.64,0,0,1,343.67,414.84Z" style="fill:#263238"></path><g id="freepik--book--inject-4"><polygon points="365.08 358.05 341.05 372.1 346.4 415.04 370.43 401 365.08 358.05"></polygon><path d="M342,372.78l23.27-13.52a12,12,0,0,0,6,2.51l-23.07,13.45S346.55,375,342,372.78Z" style="fill:#f5f5f5"></path><path d="M350.56,375.05a5.9,5.9,0,0,1-4.77.19l-4.44-1.94c-1.4-.62-1.54-1.7-.3-2.41L364,357.57l1.1.48-22.54,13.17c-.75.43-.66,1.08.18,1.45l4.12,1.79a3.61,3.61,0,0,0,2.87-.12l22.54-13.15,1.25.54Z" style="fill:#263238"></path><path d="M373.49,361.73l5.35,42.95L355.91,418a5.94,5.94,0,0,1-4.77.19l-4.45-1.95c-.69-.31-1.08-.73-1.13-1.16l-5.35-42.95c.05.44.44.86,1.14,1.16l4.44,1.95a5.94,5.94,0,0,0,4.77-.18Z" style="fill:#37474f"></path><path d="M348.24,375.65a5.72,5.72,0,0,1-2.45-.41l-4.44-1.95c-.7-.3-1.09-.72-1.14-1.16l5.35,42.95c.05.43.44.85,1.13,1.16l4.45,1.95a5.72,5.72,0,0,0,2.45.4Z" style="fill:#455a64"></path></g><g id="freepik--book--inject-4"><polygon points="384.36 360.92 362.07 373.95 367.03 413.77 389.31 400.74 384.36 360.92" style="fill:#00AEBC"></polygon><polygon points="384.36 360.92 362.07 373.95 367.03 413.77 389.31 400.74 384.36 360.92" style="opacity:0.35000000000000003"></polygon><path d="M362.92,374.58l21.58-12.53a11.15,11.15,0,0,0,5.58,2.33l-21.39,12.47A27.19,27.19,0,0,1,362.92,374.58Z" style="fill:#fff"></path><path d="M370.89,376.69a5.47,5.47,0,0,1-4.42.18l-4.12-1.81c-1.3-.57-1.42-1.57-.28-2.23l21.26-12.35,1,.44-20.91,12.22c-.68.4-.61,1,.17,1.34l3.83,1.66a3.29,3.29,0,0,0,2.65-.11L391,363.84l1.16.5Z" style="fill:#00AEBC"></path><path d="M370.89,376.69a5.47,5.47,0,0,1-4.42.18l-4.12-1.81c-1.3-.57-1.42-1.57-.28-2.23l21.26-12.35,1,.44-20.91,12.22c-.68.4-.61,1,.17,1.34l3.83,1.66a3.29,3.29,0,0,0,2.65-.11L391,363.84l1.16.5Z" style="opacity:0.2"></path><path d="M392.15,364.34l5,39.82-21.26,12.35a5.51,5.51,0,0,1-4.42.17l-4.12-1.8c-.65-.29-1-.68-1.05-1.08l-5-39.82c.05.41.4.8,1.05,1.08l4.12,1.81a5.49,5.49,0,0,0,4.43-.18Z" style="fill:#00AEBC"></path><path d="M392.15,364.34l5,39.82-21.26,12.35a5.51,5.51,0,0,1-4.42.17l-4.12-1.8c-.65-.29-1-.68-1.05-1.08l-5-39.82c.05.41.4.8,1.05,1.08l4.12,1.81a5.49,5.49,0,0,0,4.43-.18Z" style="fill:#fff;opacity:0.30000000000000004"></path><path d="M368.74,377.24a5.25,5.25,0,0,1-2.27-.37l-4.12-1.81c-.65-.28-1-.67-1.05-1.08l5,39.82c.05.4.4.79,1.05,1.08l4.12,1.8a5.25,5.25,0,0,0,2.27.38Z" style="fill:#00AEBC"></path><path d="M368.74,377.24a5.25,5.25,0,0,1-2.27-.37l-4.12-1.81c-.65-.28-1-.67-1.05-1.08l5,39.82c.05.4.4.79,1.05,1.08l4.12,1.8a5.25,5.25,0,0,0,2.27.38Z" style="opacity:0.1"></path></g></g><polygon points="250.6 285.49 250.6 290.04 385.57 367.96 444.63 333.87 444.63 329.32 309.66 251.4 250.6 285.49" style="fill:#263238"></polygon><polygon points="250.6 285.49 385.57 363.42 444.63 329.32 309.66 251.4 250.6 285.49" style="fill:#455a64"></polygon><g id="freepik--Side--inject-4"><path d="M385.82,323.54l54.61-31.48a3,3,0,0,1,3-.29l3.94,2.27a3,3,0,0,1,1.24,2.72V404.94a9.27,9.27,0,0,1-4.2,7.27l-54.6,31.48a3,3,0,0,1-3,.3l-3.95-2.29a2.93,2.93,0,0,1-1.22-2.71V330.81A9.3,9.3,0,0,1,385.82,323.54Z" style="fill:#263238"></path><polygon points="385.57 346.47 381.63 344.2 381.63 330.55 385.58 332.83 385.57 346.47" style="opacity:0.2"></polygon><polygon points="246.38 266.17 242.71 264 242.71 250.36 246.39 252.53 246.38 266.17" style="opacity:0.2"></polygon><path d="M436.76,407.52l3.93,2.27v12.43a2.3,2.3,0,0,1-1.05,1.81l-1.84,1.07a2.33,2.33,0,0,1-2.09,0L433.87,424a3.71,3.71,0,0,1-1.45-1.75l-3.54-10.22Z" style="fill:#263238"></path><path d="M440.69,422.22a2.3,2.3,0,0,1-1.05,1.81l-1.84,1.07a1,1,0,0,1-1.44-.54l-3.54-10.22,7.87-4.55Z" style="fill:#37474f"></path><path d="M397.38,430.2l3.94,2.27V444.9a2.33,2.33,0,0,1-1.05,1.82l-1.84,1.06a2.35,2.35,0,0,1-2.1,0l-1.84-1.06a3.85,3.85,0,0,1-1.44-1.75l-3.54-10.22Z" style="fill:#263238"></path><path d="M401.32,444.9a2.33,2.33,0,0,1-1.05,1.82l-1.84,1.06a1,1,0,0,1-1.44-.54L393.44,437l7.88-4.55Z" style="fill:#37474f"></path><path d="M444.37,294.34l-54.6,31.48a9.27,9.27,0,0,0-4.2,7.27V446.16s3-1.8,4.2-2.47l54.6-31.48a9.27,9.27,0,0,0,4.2-7.27V296.76a2.56,2.56,0,0,0-4.2-2.42Z" style="fill:#37474f"></path><path d="M389.77,325.82l54.6-31.48a2.56,2.56,0,0,1,4.2,2.42V310.1l-63,36.37V333.09A9.27,9.27,0,0,1,389.77,325.82Z" style="opacity:0.2"></path></g><g id="freepik--top--inject-4"><path d="M233.39,243.54a2.91,2.91,0,0,1,1.72-2.42l58.54-33.8a9.28,9.28,0,0,1,8.4,0L452.24,294a2.9,2.9,0,0,1,1.73,2.42c0,.82,0,3.74,0,4.55a2.91,2.91,0,0,1-1.73,2.42l-58.53,33.8a9.28,9.28,0,0,1-8.4,0l-150.2-86.72a2.9,2.9,0,0,1-1.72-2.42Z" style="fill:#37474f"></path><path d="M393.71,332.68l58.53-33.79c2.32-1.34,2.32-3.51,0-4.85L302.05,207.32a9.28,9.28,0,0,0-8.4,0l-58.54,33.8c-2.32,1.34-2.32,3.51,0,4.85l150.2,86.71A9.28,9.28,0,0,0,393.71,332.68Z" style="fill:#455a64"></path></g><g id="freepik--shadows--inject-4"><polygon points="246.66 257.18 257.5 281.55 381.63 353.29 381.63 335.1 246.66 257.18" style="opacity:0.1"></polygon></g><polygon points="250.6 290.04 319.01 329.53 319.01 398.65 250.6 359.15 250.6 290.04" style="fill:#00AEBC"></polygon><polygon points="250.6 290.04 319.01 329.53 319.01 398.65 250.6 359.15 250.6 290.04" style="opacity:0.15"></polygon><polygon points="284 309.32 285.61 310.25 285.61 379.37 284 378.44 284 309.32" style="opacity:0.30000000000000004"></polygon><path d="M291,343v9.88l.86.5a1,1,0,0,0,1.47-.84V345.4a1.85,1.85,0,0,0-.94-1.61Z" style="fill:#263238"></path><path d="M278.58,335.8v9.88l-.87-.5a4,4,0,0,1-1.46-2.53v-7.12c0-.67.36-.87.93-.54Z" style="fill:#263238"></path></g><g id="freepik--hair-comb--inject-4"><path d="M289.43,217.46a6,6,0,0,1,5.42,0L318.36,231s26.89,15.47,26.89,15.47l-.53.35c-.29.18-2.51-.69-5-2L323,236.23a6.4,6.4,0,0,0-6.15.14l-4.63,2.7c-1.5.86-3,1.38-3.42,1.15s.5-1.1,2-2l4.17-2.41c1.5-.87,2.39-1.75,2-2s-1.93.28-3.43,1.15l-4.17,2.4c-1.5.86-3,1.38-3.43,1.15s.5-1.1,2-2l4.17-2.41c1.5-.86,2.39-1.75,2-2s-1.94.29-3.44,1.15l-4.17,2.41c-1.5.87-3,1.38-3.42,1.15s.5-1.11,2-2l4.18-2.41c1.5-.86,2.39-1.75,2-2s-1.93.29-3.43,1.15l-4.18,2.41c-1.49.87-3,1.38-3.42,1.16s.5-1.11,2-2l4.18-2.42c1.49-.86,2.38-1.75,2-2s-1.94.29-3.44,1.15l-4.17,2.41c-1.5.87-3,1.39-3.43,1.16s.51-1.11,2-2l4.19-2.43c1.5-.86,2.39-1.75,2-2s-1.94.29-3.44,1.15l-4.19,2.43c-1.5.86-3,1.38-3.42,1.15s.5-1.12,2-2l4.19-2.42c1.5-.86,2.39-1.75,2-2s-1.93.28-3.43,1.14l-4.19,2.43c-1.5.86-3,1.38-3.43,1.15s.51-1.12,2-2l4.19-2.42c1.5-.86,2.39-1.74,2-2s-1.93.28-3.43,1.15l-4.19,2.41c-1.49.86-3,1.38-3.42,1.15s.5-1.12,2-2l4.19-2.41c1.49-.87,2.39-1.75,2-2s-1.94.28-3.43,1.15l-4.19,2.41c-1.5.86-3,1.38-3.44,1.16s.5-1.11,2-2l4.2-2.42c1.5-.87,2.39-1.75,2-2s-1.93.28-3.43,1.15l-4.2,2.42c-1.5.87-3,1.38-3.43,1.15s.5-1.11,2-2l4.21-2.42c1.49-.87,2.39-1.75,2-2s-1.94.28-3.43,1.15l-4.21,2.42c-1.5.87-3,1.38-3.44,1.15s.49-1.13,2-2Z" style="fill:#263238"></path><path d="M289.43,215.78a6,6,0,0,1,5.42,0l23.51,13.57,26.89,15.48-.53.34c-.29.19-2.51-.68-5-1.95L323,234.55a6.4,6.4,0,0,0-6.15.15l-4.63,2.69c-1.5.87-3,1.39-3.42,1.16s.5-1.11,2-2l4.17-2.41c1.5-.87,2.39-1.76,2-2s-1.93.28-3.43,1.14l-4.17,2.4c-1.5.87-3,1.39-3.43,1.16s.5-1.11,2-2l4.17-2.41c1.5-.87,2.39-1.76,2-2s-1.94.28-3.44,1.15l-4.17,2.41c-1.5.86-3,1.38-3.42,1.15s.5-1.12,2-2l4.18-2.41c1.5-.87,2.39-1.75,2-2s-1.93.28-3.43,1.15l-4.18,2.41c-1.49.86-3,1.38-3.42,1.16s.5-1.11,2-2l4.18-2.42c1.49-.87,2.38-1.75,2-2s-1.94.28-3.44,1.15l-4.17,2.41c-1.5.86-3,1.38-3.43,1.16s.51-1.11,2-2l4.19-2.42c1.5-.87,2.39-1.75,2-2s-1.94.28-3.44,1.15l-4.19,2.42c-1.5.87-3,1.38-3.42,1.15s.5-1.11,2-2l4.19-2.42c1.5-.86,2.39-1.75,2-2s-1.93.28-3.43,1.15l-4.19,2.42c-1.5.87-3,1.38-3.43,1.16s.51-1.12,2-2l4.19-2.42c1.5-.86,2.39-1.75,2-2s-1.93.29-3.43,1.15l-4.19,2.42c-1.49.86-3,1.37-3.42,1.15s.5-1.12,2-2l4.19-2.42c1.49-.86,2.39-1.75,2-2s-1.94.29-3.43,1.15l-4.19,2.42c-1.5.86-3,1.38-3.44,1.15s.5-1.1,2-2l4.2-2.43c1.5-.86,2.39-1.75,2-2s-1.93.29-3.43,1.15l-4.2,2.43c-1.5.87-3,1.38-3.43,1.15s.5-1.11,2-2l4.21-2.43c1.49-.86,2.39-1.75,2-2s-1.94.29-3.43,1.15l-4.21,2.43c-1.5.87-3,1.38-3.44,1.14s.49-1.12,2-2Z" style="fill:#00AEBC"></path></g><g id="freepik--Blush--inject-4"><path d="M408.17,275.47c2.86,1.65,4.28,3.81,4.28,6s-1.42,4.32-4.28,6c-5.71,3.29-15,3.29-20.67,0-2.85-1.65-4.28-3.81-4.28-6s1.43-4.32,4.28-6C393.21,272.17,402.46,272.17,408.17,275.47Z" style="opacity:0.2"></path><path d="M388.36,269.53c5.23-3,13.72-3,18.95,0,2.62,1.51,3.93,3.49,3.93,5.47v4.82c0,2-1.31,4-3.93,5.47-5.23,3-13.72,3-18.95,0-2.61-1.51-3.92-3.49-3.92-5.47V275C384.44,273,385.75,271,388.36,269.53Z" style="fill:#263238"></path><path d="M407.31,269.53c2.62,1.51,3.93,3.49,3.93,5.47s-1.31,4-3.93,5.47c-5.23,3-13.72,3-18.95,0-2.61-1.51-3.92-3.49-3.92-5.47s1.31-4,3.92-5.47C393.59,266.51,402.08,266.51,407.31,269.53Z" style="fill:#455a64"></path><path d="M398.32,253.77c0,6,4.24,13.39,9.47,16.41,2.62,1.51,5,1.66,6.7.67s2-1.09,2-1.09c1.72-1,2.78-3.11,2.78-6.13,0-6.05-4.24-13.39-9.48-16.42-2.61-1.51-5-1.65-6.7-.66,0,0-.24.1-2,1.09S398.32,250.75,398.32,253.77Z" style="fill:#37474f"></path><path d="M407.79,270.18c2.62,1.51,5,1.66,6.7.67s2.78-3.12,2.78-6.14c0-6-4.24-13.39-9.48-16.41-2.61-1.51-5-1.65-6.7-.66s-2.77,3.11-2.77,6.13C398.32,259.81,402.56,267.16,407.79,270.18Z" style="fill:#263238"></path><path d="M407.79,268.31c2.17,1.25,4.14,1.37,5.56.55s2.3-2.58,2.3-5.08a17.36,17.36,0,0,0-7.86-13.61c-2.17-1.25-4.13-1.37-5.55-.55s-2.3,2.58-2.3,5.09A17.35,17.35,0,0,0,407.79,268.31Z" style="fill:#fafafa"></path><path d="M404.42,271.2c1.82,1.05,2.73,2.43,2.73,3.8s-.91,2.75-2.73,3.8a14.55,14.55,0,0,1-13.17,0c-1.82-1.05-2.72-2.42-2.72-3.8s.9-2.75,2.72-3.8A14.55,14.55,0,0,1,404.42,271.2Z" style="fill:#263238"></path><path d="M391.25,272.39a14.55,14.55,0,0,1,13.17,0,3.27,3.27,0,0,1,0,6.41,14.55,14.55,0,0,1-13.17,0,3.27,3.27,0,0,1,0-6.41Z" style="fill:#00AEBC"></path><path d="M391.25,272.39a14.55,14.55,0,0,1,13.17,0,3.27,3.27,0,0,1,0,6.41,14.55,14.55,0,0,1-13.17,0,3.27,3.27,0,0,1,0-6.41Z" style="fill:#fff;opacity:0.30000000000000004"></path><path d="M414,257.27a17.37,17.37,0,0,1,1.23,3.35l-9,6.56a16.25,16.25,0,0,1-2.39-2.5Z" style="fill:#00AEBC;opacity:0.1"></path><path d="M415.55,262.54c0,.42.1.83.1,1.24,0,.14,0,.25,0,.39l-6.54,4.75a9.23,9.23,0,0,1-1.28-.61l-.09-.07Z" style="fill:#00AEBC;opacity:0.1"></path><path d="M407.87,250.22a13.87,13.87,0,0,1,2.76,2.22l-9.73,7.08a14.56,14.56,0,0,1-.86-3.61Z" style="fill:#00AEBC;opacity:0.1"></path><path d="M412.12,254.18c.27.36.51.75.75,1.13l-10.37,7.53c-.24-.38-.45-.78-.66-1.19Z" style="fill:#00AEBC;opacity:0.1"></path><path d="M404.46,249.11a6.21,6.21,0,0,1,1.81.35L400,254a7.5,7.5,0,0,1,.38-2Z" style="fill:#00AEBC;opacity:0.1"></path></g><g id="freepik--eye-shadow--inject-4"><path d="M362.57,267.82q-7-2.11-10.63-6.14h0q3.68-4,10.63-6.14h0q7,2.13,10.63,6.14h0q-3.66,4-10.63,6.14Z" style="opacity:0.2"></path><path d="M371.64,258a19.78,19.78,0,0,0-9.07-5.23A19.78,19.78,0,0,0,353.5,258v3.67a19.78,19.78,0,0,0,9.07,5.23,19.78,19.78,0,0,0,9.07-5.23Z" style="fill:#37474f"></path><path d="M362.57,263.19A19.79,19.79,0,0,1,353.5,258h0a19.78,19.78,0,0,1,9.07-5.23h0a19.78,19.78,0,0,1,9.07,5.23h0a19.79,19.79,0,0,1-9.07,5.24Z" style="fill:#455a64"></path><path d="M362.57,263.19v3.66a19.83,19.83,0,0,1-9.07-5.23V258A19.84,19.84,0,0,0,362.57,263.19Z" style="fill:#263238"></path><path d="M371.64,260.39v-1.21a21.89,21.89,0,0,0-9.07-5h0a22,22,0,0,0-9.07,5v1.21a21.89,21.89,0,0,0,9.07,5h0A21.89,21.89,0,0,0,371.64,260.39Z" style="opacity:0.25"></path><path d="M372.24,256.81a21,21,0,0,0-9.67-5.58,21,21,0,0,0-9.66,5.58V259a21,21,0,0,0,9.66,5.58,21,21,0,0,0,9.67-5.58Z" style="fill:#37474f"></path><path d="M362.57,262.39a21.12,21.12,0,0,1-9.66-5.58h0a21,21,0,0,1,9.66-5.58h0a21,21,0,0,1,9.67,5.58h0a21.12,21.12,0,0,1-9.67,5.58Z" style="fill:#455a64"></path><path d="M362.57,260.2a17.33,17.33,0,0,1-6.33-3.39,17.33,17.33,0,0,1,6.33-3.39,17.38,17.38,0,0,1,6.34,3.39A17.38,17.38,0,0,1,362.57,260.2Z" style="fill:#263238"></path><path d="M356.72,257.21a18,18,0,0,0,5.85,3,18,18,0,0,0,5.85-3,17.84,17.84,0,0,0-5.85-3A17.94,17.94,0,0,0,356.72,257.21Z" style="fill:#00AEBC"></path><path d="M362.57,262.39v2.23a21,21,0,0,1-9.66-5.58v-2.23A21,21,0,0,0,362.57,262.39Z" style="fill:#263238"></path></g><g id="freepik--eye-shadow--inject-4"><path d="M376.3,275.27q-7-2.11-10.63-6.14h0q3.68-4,10.63-6.14h0q7,2.13,10.63,6.14h0q-3.66,4-10.63,6.14Z" style="opacity:0.2"></path><path d="M385.37,265.4a19.88,19.88,0,0,0-9.07-5.24,19.84,19.84,0,0,0-9.07,5.24v3.67a19.87,19.87,0,0,0,9.07,5.23,19.78,19.78,0,0,0,9.07-5.23Z" style="fill:#37474f"></path><path d="M376.3,270.64a19.88,19.88,0,0,1-9.07-5.24h0a19.84,19.84,0,0,1,9.07-5.24h0a19.88,19.88,0,0,1,9.07,5.24h0a19.79,19.79,0,0,1-9.07,5.24Z" style="fill:#455a64"></path><path d="M376.3,270.64v3.66a19.76,19.76,0,0,1-9.07-5.24V265.4A19.84,19.84,0,0,0,376.3,270.64Z" style="fill:#263238"></path><path d="M385.37,267.83v-1.2a21.89,21.89,0,0,0-9.07-5h0a22,22,0,0,0-9.07,5v1.2a21.84,21.84,0,0,0,9.07,5h0A21.78,21.78,0,0,0,385.37,267.83Z" style="opacity:0.25"></path><path d="M386,264.26a21,21,0,0,0-9.67-5.58,21,21,0,0,0-9.66,5.58v2.23a21.12,21.12,0,0,0,9.66,5.58,21.21,21.21,0,0,0,9.67-5.58Z" style="fill:#37474f"></path><path d="M376.3,269.84a21.12,21.12,0,0,1-9.66-5.58h0a21,21,0,0,1,9.66-5.58h0a21,21,0,0,1,9.67,5.58h0a21.21,21.21,0,0,1-9.67,5.58Z" style="fill:#455a64"></path><path d="M376.3,267.65a17.33,17.33,0,0,1-6.33-3.39,17.18,17.18,0,0,1,6.33-3.39,17.23,17.23,0,0,1,6.34,3.39A17.38,17.38,0,0,1,376.3,267.65Z" style="fill:#263238"></path><path d="M370.45,264.66a18,18,0,0,0,5.85,3,18,18,0,0,0,5.86-3,18,18,0,0,0-5.86-3A18,18,0,0,0,370.45,264.66Z" style="fill:#00AEBC"></path><path d="M370.45,264.66a18,18,0,0,0,5.85,3,18,18,0,0,0,5.86-3,18,18,0,0,0-5.86-3A18,18,0,0,0,370.45,264.66Z" style="opacity:0.25"></path><path d="M376.3,269.84v2.23a21,21,0,0,1-9.66-5.58v-2.23A21.18,21.18,0,0,0,376.3,269.84Z" style="fill:#263238"></path></g><g id="freepik--Primer--inject-4"><path d="M436.93,300.27a14.74,14.74,0,0,1-13.35,0c-3.69-2.13-3.69-5.58,0-7.71a14.74,14.74,0,0,1,13.35,0C440.61,294.69,440.61,298.14,436.93,300.27Z" style="opacity:0.2"></path><path d="M438.1,263.18v32.14a3.87,3.87,0,0,1-2.3,3.2,12.27,12.27,0,0,1-11.1,0,3.89,3.89,0,0,1-2.3-3.2V263.18Z" style="fill:#00AEBC"></path><path d="M438.1,263.18v32.14a3.87,3.87,0,0,1-2.3,3.2,12.27,12.27,0,0,1-11.1,0,3.89,3.89,0,0,1-2.3-3.2V263.18Z" style="opacity:0.30000000000000004"></path><path d="M432.14,299.7a10.11,10.11,0,0,0,3.66-1.18,3.87,3.87,0,0,0,2.3-3.2V263.18h-6Z" style="opacity:0.1"></path><path d="M435.8,266.38a12.27,12.27,0,0,1-11.1,0c-3.07-1.77-3.07-4.64,0-6.41a12.27,12.27,0,0,1,11.1,0C438.87,261.74,438.87,264.61,435.8,266.38Z" style="fill:#00AEBC"></path><path d="M435.8,266.38a12.27,12.27,0,0,1-11.1,0c-3.07-1.77-3.07-4.64,0-6.41a12.27,12.27,0,0,1,11.1,0C438.87,261.74,438.87,264.61,435.8,266.38Z" style="opacity:0.1"></path><path d="M436,256.94v5.6a2.84,2.84,0,0,1-1.67,2.33,8.94,8.94,0,0,1-8.06,0,2.83,2.83,0,0,1-1.66-2.33v-5.6Z" style="fill:#37474f"></path><path d="M431.62,265.72a7.43,7.43,0,0,0,2.66-.85,2.84,2.84,0,0,0,1.67-2.33v-5.6h-4.33Z" style="fill:#263238"></path><path d="M434.28,259.27a8.94,8.94,0,0,1-8.06,0c-2.22-1.29-2.22-3.37,0-4.65a8.88,8.88,0,0,1,8.06,0C436.5,255.9,436.5,258,434.28,259.27Z" style="fill:#455a64"></path><path d="M434.61,253.91v2.45a2.17,2.17,0,0,1-1.28,1.78,6.82,6.82,0,0,1-6.16,0,2.19,2.19,0,0,1-1.28-1.78v-2.45Z" style="fill:#ebebeb"></path><path d="M431.3,258.79a5.84,5.84,0,0,0,2-.65,2.17,2.17,0,0,0,1.28-1.78v-2.45H431.3Z" style="fill:#e0e0e0"></path><path d="M433.33,255.69a6.82,6.82,0,0,1-6.16,0c-1.7-1-1.7-2.58,0-3.56a6.82,6.82,0,0,1,6.16,0C435,253.11,435,254.71,433.33,255.69Z" style="fill:#fafafa"></path><path d="M433.19,248v5.7a1.44,1.44,0,0,1-.86,1.2,4.56,4.56,0,0,1-4.16,0,1.46,1.46,0,0,1-.86-1.2V248Z" style="fill:#ebebeb"></path><path d="M431.62,255.18a3.22,3.22,0,0,0,.71-.3,1.44,1.44,0,0,0,.86-1.2V248h-1.57Z" style="fill:#e0e0e0"></path><path d="M432.33,249.18a4.62,4.62,0,0,1-4.16,0,1.27,1.27,0,0,1,0-2.4,4.62,4.62,0,0,1,4.16,0A1.27,1.27,0,0,1,432.33,249.18Z" style="fill:#fafafa"></path><path d="M428.81,251.32a1.41,1.41,0,0,0-.64-1.1c-.35-.2-.64,0-.64.37a1.4,1.4,0,0,0,.64,1.1C428.52,251.9,428.81,251.73,428.81,251.32Z" style="fill:#455a64"></path><path d="M436,247.35a2.83,2.83,0,0,0-1.67-2.32,8.88,8.88,0,0,0-8.06,0,2.8,2.8,0,0,0-1.66,2.32v9.59a2.82,2.82,0,0,0,1.66,2.33,8.94,8.94,0,0,0,8.06,0,2.83,2.83,0,0,0,1.67-2.33h0v-9.59Z" style="fill:#00AEBC;opacity:0.30000000000000004"></path><path d="M434.28,249.68a8.94,8.94,0,0,1-8.06,0c-2.22-1.29-2.22-3.37,0-4.65a8.88,8.88,0,0,1,8.06,0C436.5,246.31,436.5,248.39,434.28,249.68Z" style="fill:#fff;opacity:0.30000000000000004"></path></g><g id="freepik--moisturizing-mask--inject-4"><path id="freepik--shadow--inject-4" d="M314.65,268.26c-5.1,2.94-5.1,7.71,0,10.66s13.36,2.94,18.46,0,5.09-7.72,0-10.66S319.74,265.31,314.65,268.26Z" style="opacity:0.2"></path><path id="freepik--shadow--inject-4" d="M337.29,283.14c-5.1,2.94-5.1,7.71,0,10.66s13.36,2.94,18.46,0,5.1-7.72,0-10.66S342.39,280.2,337.29,283.14Z" style="opacity:0.2"></path><g id="freepik--Jar--inject-4"><path d="M334,266.26a10,10,0,0,1-1.52,1.07c-3.52,2-8.64,2.57-13,1.62a13.77,13.77,0,0,1-1.76-.49,13.37,13.37,0,0,1-1.46-.56,10.7,10.7,0,0,1-1.12-.57,9.35,9.35,0,0,1-2-1.46,5,5,0,0,1-1.64-3.55V272a4.86,4.86,0,0,0,1.41,3.29h0l.14.15.31.3.25.22a2.75,2.75,0,0,0,.26.22l.15.1.06.06.07.05,0,0,.07.05c.25.18.53.35.82.52a5.86,5.86,0,0,0,.55.3l.57.28a14.2,14.2,0,0,0,1.46.56,16.23,16.23,0,0,0,1.76.48,20.78,20.78,0,0,0,8.35.06h0c.41-.08.81-.17,1.21-.28s.82-.24,1.21-.38l.56-.21,0,0,.55-.23.54-.26c.18-.09.35-.19.52-.29,2.39-1.38,3.59-3.19,3.59-5v-9.64A5.26,5.26,0,0,1,334,266.26Z" style="fill:#00AEBC"></path><path d="M334,266.26a10,10,0,0,1-1.52,1.07c-3.52,2-8.64,2.57-13,1.62a13.77,13.77,0,0,1-1.76-.49,13.37,13.37,0,0,1-1.46-.56,10.7,10.7,0,0,1-1.12-.57,9.35,9.35,0,0,1-2-1.46,5,5,0,0,1-1.64-3.55V272a4.86,4.86,0,0,0,1.41,3.29h0l.14.15.31.3.25.22a2.75,2.75,0,0,0,.26.22l.15.1.06.06.07.05,0,0,.07.05c.25.18.53.35.82.52a5.86,5.86,0,0,0,.55.3l.57.28a14.2,14.2,0,0,0,1.46.56,16.23,16.23,0,0,0,1.76.48,20.78,20.78,0,0,0,8.35.06h0c.41-.08.81-.17,1.21-.28s.82-.24,1.21-.38l.56-.21,0,0,.55-.23.54-.26c.18-.09.35-.19.52-.29,2.39-1.38,3.59-3.19,3.59-5v-9.64A5.26,5.26,0,0,1,334,266.26Z" style="opacity:0.2"></path><path d="M315.1,267.33a10.7,10.7,0,0,0,1.12.57v9.64l-.57-.28a5.86,5.86,0,0,1-.55-.3c-.29-.17-.57-.34-.82-.52l-.07-.05-.18-.14a7.41,7.41,0,0,1-.88-.76v-9.62A9.35,9.35,0,0,0,315.1,267.33Z" style="fill:#fff;opacity:0.15"></path><path d="M319.44,269v9.63c-.61-.13-1.19-.3-1.76-.48v-9.64A13.77,13.77,0,0,0,319.44,269Z" style="fill:#fff;opacity:0.15"></path><path d="M336.05,262.32V272c0,1.81-1.2,3.62-3.59,5-.17.1-.34.2-.52.29l-.54.26-.55.23,0,0-.56.21c-.39.14-.8.27-1.21.38s-.8.2-1.21.28h0a20.78,20.78,0,0,1-8.35-.06,16.23,16.23,0,0,1-1.76-.48,14.2,14.2,0,0,1-1.46-.56l-.57-.28a5.86,5.86,0,0,1-.55-.3c-.29-.17-.57-.34-.82-.52l-.07-.05,0,0-.07-.05-.21-.16a2.75,2.75,0,0,1-.26-.22l-.25-.22-.31-.3-.14-.15.23.2a10.15,10.15,0,0,0,3.07,1.6c.47.15.95.29,1.46.41s1.16.25,1.76.33a17.56,17.56,0,0,0,5.66-.07c4.22-.83,6.78-3.53,6.78-5.44v-3.66a21,21,0,0,1-12.44,1.2,16.76,16.76,0,0,1-1.76-.44c-.5-.15-1-.33-1.46-.52a14.85,14.85,0,0,1-1.65-.81,11.36,11.36,0,0,1-1.42-1,7.39,7.39,0,0,1-1.64-1.86v-2.91a5,5,0,0,0,1.64,3.55,9.35,9.35,0,0,0,2,1.46,10.7,10.7,0,0,0,1.12.57,13.37,13.37,0,0,0,1.46.56,13.77,13.77,0,0,0,1.76.49c4.38.95,9.5.41,13-1.62a10,10,0,0,0,1.52-1.07A5.26,5.26,0,0,0,336.05,262.32Z" style="opacity:0.1"></path><path d="M336.05,262.32V272c0,1.81-1.2,3.62-3.59,5-.17.1-.34.2-.52.29l-.54.26-.55.23,0,0-.56.21c-.39.14-.8.27-1.21.38s-.8.2-1.21.28c4.58-1.25,6.14-4.39,6.14-5.8v-6.57A5.26,5.26,0,0,0,336.05,262.32Z" style="opacity:0.15"></path><path d="M331.75,276.41a20,20,0,0,1-15.94,0c-4.41-2.22-4.41-5.8,0-8a19.91,19.91,0,0,1,15.94,0C336.15,270.61,336.15,274.19,331.75,276.41Z" style="fill:#00AEBC;opacity:0.30000000000000004"></path><path d="M329.65,271c-4.66,1.46-10.61,1.06-14.55-1.21-2.4-1.39-3.59-3.2-3.59-5v4.58c0,1.81,1.2,3.62,3.6,5,3.94,2.27,9.88,2.67,14.54,1.2Z" style="fill:#fafafa"></path><path d="M332.46,267.33c-4.8,2.77-12.57,2.77-17.36,0s-4.79-7.25,0-10,12.56-2.77,17.36,0S337.25,264.56,332.46,267.33Z" style="fill:#00AEBC"></path><path d="M332.59,262.12a8.94,8.94,0,0,1-1.31.93A16.64,16.64,0,0,1,320,264.44a12.61,12.61,0,0,1-1.52-.42,10,10,0,0,1-1.26-.48c-.33-.15-.66-.32-1-.49a7.86,7.86,0,0,1-1.68-1.27,4.31,4.31,0,0,1-1.42-3.06v2.86a4.22,4.22,0,0,0,1.22,2.85h0l.12.13.27.25.21.19.23.2a.57.57,0,0,0,.13.08s0,0,.06,0,0,0,.05.05l0,0,.06,0c.22.16.46.31.71.46l.48.26.49.23a12.66,12.66,0,0,0,1.26.49,14.76,14.76,0,0,0,1.52.42,18.1,18.1,0,0,0,7.22.05h0q.54-.11,1.05-.24t1.05-.33l.48-.19h0l.47-.2.47-.23.45-.24c2.06-1.19,3.1-2.76,3.1-4.33v-2.86A4.53,4.53,0,0,1,332.59,262.12Z" style="fill:#00AEBC"></path><path d="M332.59,262.12a8.94,8.94,0,0,1-1.31.93A16.64,16.64,0,0,1,320,264.44a12.61,12.61,0,0,1-1.52-.42,10,10,0,0,1-1.26-.48c-.33-.15-.66-.32-1-.49a7.86,7.86,0,0,1-1.68-1.27,4.31,4.31,0,0,1-1.42-3.06v2.86a4.22,4.22,0,0,0,1.22,2.85h0l.12.13.27.25.21.19.23.2a.57.57,0,0,0,.13.08s0,0,.06,0,0,0,.05.05l0,0,.06,0c.22.16.46.31.71.46l.48.26.49.23a12.66,12.66,0,0,0,1.26.49,14.76,14.76,0,0,0,1.52.42,18.1,18.1,0,0,0,7.22.05h0q.54-.11,1.05-.24t1.05-.33l.48-.19h0l.47-.2.47-.23.45-.24c2.06-1.19,3.1-2.76,3.1-4.33v-2.86A4.53,4.53,0,0,1,332.59,262.12Z" style="opacity:0.2"></path><path d="M316.28,263.05c.31.17.64.34,1,.49v2.86l-.49-.23-.48-.26c-.25-.15-.49-.3-.71-.46l-.06,0-.15-.12a7.06,7.06,0,0,1-.76-.66v-2.85A7.86,7.86,0,0,0,316.28,263.05Z" style="fill:#fff;opacity:0.15"></path><path d="M320,264.44v2.87c-.52-.12-1-.26-1.52-.42V264A12.61,12.61,0,0,0,320,264.44Z" style="fill:#fff;opacity:0.15"></path><path d="M334.38,258.72v2.86c0,1.57-1,3.14-3.1,4.33l-.45.24-.47.23-.47.2h0l-.48.19q-.51.18-1.05.33t-1.05.24h0a18.1,18.1,0,0,1-7.22-.05,14.76,14.76,0,0,1-1.52-.42,12.66,12.66,0,0,1-1.26-.49l-.49-.23-.48-.26c-.25-.15-.49-.3-.71-.46l-.06,0,0,0s0,0-.05-.05l-.19-.13L315,265l-.21-.19-.27-.25-.12-.13.2.17a8.67,8.67,0,0,0,2.65,1.38c.4.13.82.25,1.26.35a14.59,14.59,0,0,0,1.52.29,21.31,21.31,0,0,0,5.57.11c4-.69,5.18-1.79,5.18-2.56v-.25A18.14,18.14,0,0,1,320,265.21a14.7,14.7,0,0,1-1.52-.39q-.64-.19-1.26-.45a11.64,11.64,0,0,1-1.42-.69,10.14,10.14,0,0,1-1.23-.84,6.37,6.37,0,0,1-1.42-1.61v-2.51a4.31,4.31,0,0,0,1.42,3.06,7.86,7.86,0,0,0,1.68,1.27c.31.17.64.34,1,.49a10,10,0,0,0,1.26.48,12.61,12.61,0,0,0,1.52.42,16.64,16.64,0,0,0,11.25-1.39,8.94,8.94,0,0,0,1.31-.93A4.53,4.53,0,0,0,334.38,258.72Z" style="opacity:0.1"></path><path d="M334.38,258.72v2.86c0,1.57-1,3.14-3.1,4.33l-.45.24-.47.23-.47.2h0l-.48.19q-.51.18-1.05.33t-1.05.24c4-1.09,5.31-2.74,5.31-4v-1.28A4.53,4.53,0,0,0,334.38,258.72Z" style="opacity:0.15"></path><path d="M331.28,263.05a16.59,16.59,0,0,1-15,0c-4.13-2.39-4.13-6.27,0-8.66a16.59,16.59,0,0,1,15,0C335.42,256.78,335.42,260.66,331.28,263.05Z" style="fill:#00AEBC"></path><path d="M331.69,259.88a4.92,4.92,0,0,1-2.14,2.17,12.75,12.75,0,0,1-11.54,0,4.92,4.92,0,0,1-2.14-2.17c-.68-1.56,0-3.28,2.14-4.49a12.69,12.69,0,0,1,11.54,0C331.66,256.6,332.37,258.32,331.69,259.88Z" style="fill:#00AEBC"></path><path d="M331.69,259.88a4.92,4.92,0,0,1-2.14,2.17,12.75,12.75,0,0,1-11.54,0,4.92,4.92,0,0,1-2.14-2.17c-.68-1.56,0-3.28,2.14-4.49a12.69,12.69,0,0,1,11.54,0C331.66,256.6,332.37,258.32,331.69,259.88Z" style="opacity:0.15"></path><path d="M331.69,259.88a4.92,4.92,0,0,1-2.14,2.17,12.75,12.75,0,0,1-11.54,0,4.92,4.92,0,0,1-2.14-2.17A4.84,4.84,0,0,1,318,257.7a12.75,12.75,0,0,1,11.54,0A4.84,4.84,0,0,1,331.69,259.88Z" style="fill:#00AEBC"></path><path d="M331.69,259.88a4.92,4.92,0,0,1-2.14,2.17,12.75,12.75,0,0,1-11.54,0,4.92,4.92,0,0,1-2.14-2.17s0,0,0-.05c1.43-1.64,3.22-1.77,5.24-2.68a6.68,6.68,0,0,0,1.32-.77,2.32,2.32,0,0,0,1-2.11,2.85,2.85,0,0,1,1.71,2.12,3.75,3.75,0,0,1,.09,1.1s4.38.21,6.39,2.24A1,1,0,0,1,331.69,259.88Z" style="fill:#fafafa"></path><path d="M327,257.74a15.37,15.37,0,0,0-1.72-.22c-.3,1.75-2.05,1.75-2.25,2.71s2.18,1.2,2.64.67c0,0-1.57.27-1.73-.56S326.26,259.39,327,257.74Z" style="fill:#e0e0e0"></path></g><path d="M334.25,283.07c0-1.81,1.19-3.62,3.59-5,4.79-2.76,12.57-2.76,17.36,0,2.39,1.39,3.59,3.2,3.59,5h0v4.41h0c0,1.81-1.2,3.62-3.59,5-4.8,2.76-12.57,2.76-17.36,0-2.4-1.39-3.59-3.2-3.59-5h0v-4.41Z" style="fill:#e0e0e0"></path><g style="opacity:0.1"><path d="M353,293.5l.59-.22v-6H353Z"></path><path d="M357.66,290.44V284.6h-.59v6.49C357.28,290.87,357.48,290.66,357.66,290.44Z"></path><path d="M350.44,294.18l.59-.11V288h-.59Z"></path><path d="M347.74,294.53l.59,0v-6.1h-.59Z"></path><path d="M355.84,292.08v-5.92h-.59v6.29C355.46,292.33,355.65,292.21,355.84,292.08Z"></path><path d="M358.5,289a4.31,4.31,0,0,0,.29-1.52h0v-4.41h0a3.83,3.83,0,0,0-.14-1h-.15Z"></path><path d="M342.26,294.12l.59.12v-6.18h-.59Z"></path><path d="M339.69,293.36c.19.08.39.14.59.21V287.4h-.59Z"></path><path d="M345,294.5l.59,0v-6.15H345Z"></path><path d="M337.94,292.54v-6.11h-.59v5.75l.49.31Z"></path><path d="M335.9,291v-6.15h-.59v5.48A6,6,0,0,0,335.9,291Z"></path><path d="M334.54,282.57h-.25a4.38,4.38,0,0,0,0,.5v4.41a4.31,4.31,0,0,0,.29,1.52Z"></path></g><path d="M343.58,294.35c6.08,0,9.28-3.32,10.25-4.93.74-1.22.87-1.06.87-3.3,0,0,.69-5.11.55-5.12s1.46-.34,2.64-.6a4.65,4.65,0,0,1,.9,2.67h0v4.41h0c0,1.81-1.2,3.62-3.59,5A18.92,18.92,0,0,1,343.58,294.35Z" style="opacity:0.1"></path><path d="M355.2,288.08c-4.8,2.77-12.57,2.77-17.36,0s-4.79-7.25,0-10,12.57-2.76,17.36,0S360,285.32,355.2,288.08Z" style="fill:#ebebeb"></path><path d="M337.18,287.66c-4.11-2.78-3.9-7,.66-9.6a17.69,17.69,0,0,1,8.44-2.07,13.71,13.71,0,0,1,4.48,1.53c4.15,2.37,4.15,7.1,0,9.47C347.06,289.1,341.32,289.32,337.18,287.66Z" style="fill:#f5f5f5"></path><path d="M357.85,285.79s-4,4-11.7,3.81-10.8-4.42-11.2-5.72a4.82,4.82,0,0,1,1-4.45,5.09,5.09,0,0,0-1.74,3.64v4.41c0,.46-.24,2,2.25,4.09a6,6,0,0,1-1.46-3.26v-2.72s2.73,4.57,11.11,4.57S357.43,286.48,357.85,285.79Z" style="fill:#fff"></path></g></g></g><g id="freepik--character--inject-4"><g id="freepik--character--inject-4"><g id="freepik--Chair--inject-4"><path d="M274.83,407.88l-15.44-89.05-9.76-.49,20.29,89.53h0a1.28,1.28,0,0,0,.65.87,3.88,3.88,0,0,0,3.48.18,1.17,1.17,0,0,0,.76-1Z" style="fill:#263238"></path><path d="M129.62,304.21h-9.78l-23,92.49h0a1.17,1.17,0,0,0,.71,1.07,3.84,3.84,0,0,0,3.49,0,1.27,1.27,0,0,0,.69-.84h0Z" style="fill:#37474f"></path><path d="M197.25,450.31l-.43-99.73-9.77-.49,5.28,100.21h0a1.32,1.32,0,0,0,.65.87,3.84,3.84,0,0,0,3.49.18,1.19,1.19,0,0,0,.76-1Z" style="fill:#37474f"></path><path d="M183,273.18h-9.78l-15.66,98.27h0a1.14,1.14,0,0,0,.71,1.07,3.81,3.81,0,0,0,3.48,0,1.32,1.32,0,0,0,.7-.84h0Z" style="fill:#263238"></path><g id="freepik--chair--inject-4"><path d="M101.47,196.19a55.33,55.33,0,0,0-3.91,17.17c-1.12,13.16,3.34,55.78,6,74.84l0,0c3.88,31.85,8.62,31.9,15.52,37.23,11.87,9.17,46,27.14,57.27,31.58,20.43,8,37.13-4.36,49.58-10.51a290,290,0,0,0,33-19.53c3.11-2.27,4.73-4.56,4.69-7,0-1,0-4.86,0-5.87,0-3.08-2.71-6.37-8.42-10.08-10.55-6.84-48.69-29.08-63.47-37.27a.14.14,0,0,0-.12-.12c-11.37-6.9-18.21-53.82-26.09-78.78-.16-.54-.33-1.05-.5-1.55l-.41-1.16c-.5-1.36-1-2.6-1.55-3.74" style="fill:#00AEBC"></path><path d="M263.61,314.11c0-3.08-2.71-6.37-8.42-10.08-10.55-6.84-48.69-29.08-63.47-37.27a.14.14,0,0,0-.12-.12c-11.37-6.9-18.21-53.82-26.09-78.78a44.12,44.12,0,0,0-1.64-4.6l-.15-.33c-.14-.33-.29-.67-.45-1l-.22-.51h0a24,24,0,0,0-5.26-7.59,11.2,11.2,0,0,0-2.57-1.81c-1.28-.72-4-2.22-4.64-2.61-7.72-4.62-17.85.93-30.48,7.84-7.85,4.3-14.55,9.42-18.62,18.95h0a55.33,55.33,0,0,0-3.91,17.17c-1.12,13.16,3.34,55.78,6,74.84l0,0c3.88,31.85,8.62,31.9,15.52,37.23,11.87,9.17,46,27.14,57.27,31.58,20.43,8,37.13-4.36,49.58-10.51a290,290,0,0,0,33-19.53c3.11-2.27,4.73-4.56,4.69-7C263.59,319,263.61,315.12,263.61,314.11Z" style="fill:#00AEBC"></path><path d="M263.61,314.11c0-3.08-2.71-6.37-8.42-10.08-10.55-6.84-48.69-29.08-63.47-37.27a.14.14,0,0,0-.12-.12c-11.37-6.9-18.21-53.82-26.09-78.78a44.12,44.12,0,0,0-1.64-4.6l-.15-.33c-.14-.33-.29-.67-.45-1l-.22-.51h0a24,24,0,0,0-5.26-7.59,11.2,11.2,0,0,0-2.57-1.81c-1.28-.72-4-2.22-4.64-2.61-7.72-4.62-17.85.93-30.48,7.84-7.85,4.3-14.55,9.42-18.62,18.95h0a55.33,55.33,0,0,0-3.91,17.17c-1.12,13.16,3.34,55.78,6,74.84l0,0c3.88,31.85,8.62,31.9,15.52,37.23,11.87,9.17,46,27.14,57.27,31.58,20.43,8,37.13-4.36,49.58-10.51a290,290,0,0,0,33-19.53c3.11-2.27,4.73-4.56,4.69-7C263.59,319,263.61,315.12,263.61,314.11Z" style="opacity:0.30000000000000004"></path><path d="M225.93,340.56a288.3,288.3,0,0,0,33-19.54c7.08-5.14,6.43-10.4-3.72-17-14.1-9.15-71.58-41.77-71.58-41.77s-72.66,42.89-69.53,50.8,48.1,32.42,62.27,38C196.78,359.1,213.48,346.71,225.93,340.56Z" style="fill:#00AEBC"></path><g style="opacity:0.2"><path d="M225.93,340.56a288.3,288.3,0,0,0,33-19.54c7.08-5.14,6.43-10.4-3.72-17-14.1-9.15-71.58-41.77-71.58-41.77s-72.66,42.89-69.53,50.8,48.1,32.42,62.27,38C196.78,359.1,213.48,346.71,225.93,340.56Z" style="fill:#fff"></path></g><path d="M155.21,172c-7.65-4-17.59,1.44-29.89,8.18-7.87,4.32-14.58,9.43-18.66,19l-5.19-3c4.07-9.54,10.77-14.66,18.62-19,12.63-6.91,22.76-12.46,30.48-7.84C151.24,169.79,153.93,171.29,155.21,172Z" style="fill:#00AEBC"></path><path d="M155.21,172c-7.65-4-17.59,1.44-29.89,8.18-7.87,4.32-14.58,9.43-18.66,19l-5.19-3c4.07-9.54,10.77-14.66,18.62-19,12.63-6.91,22.76-12.46,30.48-7.84C151.24,169.79,153.93,171.29,155.21,172Z" style="fill:#fff;opacity:0.5"></path><path d="M165.51,187.86c-.16-.54-2.79-9.69-7.73-14a12.44,12.44,0,0,0-8.36-3.18c-6.68,0-14.7,4.41-24.1,9.55-.78.43-1.56.88-2.32,1.33-.3.16-.59.34-.87.52s-.7.43-1,.65-.51.32-.77.5a43.57,43.57,0,0,0-4.73,3.59c-.24.21-.48.42-.71.66a33.75,33.75,0,0,0-2.69,2.78l-.45.53-.53.67c-.18.22-.34.45-.52.68s-.33.46-.5.7c-.66.95-1.29,1.95-1.88,3-.08.13-.15.26-.22.4s-.3.56-.44.85-.41.84-.61,1.26a54.1,54.1,0,0,0-4.26,18c-1.82,21.63,5.58,93.08,13,99.24,0,0-1.14-7,13.81-16.41,10.16-6.39,17.3-11.76,28.15-17.08,26.43-13,33.84-15.42,33.84-15.42C180.23,259.74,173.39,212.82,165.51,187.86Z" style="fill:#00AEBC"></path></g></g><g id="freepik--bottom--inject-4"><path d="M217.32,362.34c-6.77-.85-12.52,4.62-13.06,6.35-.73,2.35-.43,7.09,2.38,12.91,2.43,5,3.59,13,3.14,18.37s-2.87,18.71,2.58,25.37,17.49,12.4,21.67,3.18c1.36-3-1.53-13.4-2.85-21-2.62-15.11-4.67-30.12-4.67-30.12Z" style="fill:#263238"></path><path d="M215.31,374.44a146.66,146.66,0,0,1,1.9,22.18c-.06,8.12,1.71,13.45,4.54,17,3.13,4,10.88,6.14,9.89-2.21-.69-5.82-5.13-34-5.13-34Z" style="fill:#ffa8a7"></path><path d="M206.49,366c-.27,5,2.54,18.26,9.4,29.32,6.72,10.84,16.56,23.58,18.47,31.34.16-3.57-1.4-10.11-2.57-15.92,0-.13,0-.26-.08-.38-.06-.34-.13-.68-.19-1l-.09-.46c-.08-.43-.16-.86-.23-1.27l0-.09c-.82-4.72-1.58-9.43-2.24-13.68-.53-3.4-1-6.5-1.38-9.07-.19-1.29-.35-2.44-.5-3.43-.07-.49-.13-1-.19-1.36-.24-1.64-.36-2.58-.36-2.58l-9.19-15.07c-.46,0-.88-.07-1.31-.08A14.91,14.91,0,0,0,206.49,366Z" style="opacity:0.15"></path><path d="M245.18,283.15c-21.69-15.79-46.28-33.65-46.28-33.65L131.67,254l66.86,50.53L228.06,324s5.6-.5,2.27,8.27c-1.06,2.79-2.64,8.36-4.3,14.67l14,37.3s8.44-12.6,17.54-36.93c9.21-24.63,9.71-32.73,8.67-37.58C264.92,303.41,262.9,296.06,245.18,283.15Z" style="fill:#00AEBC"></path><path d="M245.18,283.15c-21.69-15.79-46.28-33.65-46.28-33.65L131.67,254l66.86,50.53L228.06,324s5.6-.5,2.27,8.27c-1.06,2.79-2.64,8.36-4.3,14.67l14,37.3s8.44-12.6,17.54-36.93c9.21-24.63,9.71-32.73,8.67-37.58C264.92,303.41,262.9,296.06,245.18,283.15Z" style="fill:#fff;opacity:0.6000000000000001"></path><path d="M232.53,284.06a178.66,178.66,0,0,1,16,13.49,66.6,66.6,0,0,1,7,7.63,12.57,12.57,0,0,1,2.23,4.21,34.73,34.73,0,0,1,.71,5,44.91,44.91,0,0,1-.66,10.19c-.54,3.41-1.34,6.79-2.18,10.17-1.77,6.77-3.41,13.58-5,20.4,2.48-6.56,4.7-13.22,6.75-19.92a88.87,88.87,0,0,0,2.6-10.28,41.7,41.7,0,0,0,.74-10.72,36.8,36.8,0,0,0-.81-5.34,14.12,14.12,0,0,0-2.73-5,58.45,58.45,0,0,0-7.47-7.61A116.25,116.25,0,0,0,232.53,284.06Z" style="fill:#00AEBC;opacity:0.4"></path><path d="M191.55,290.14c.87.57,4.72,3.2,5.74,3.9,13.64,9.41,36.72,27.69,39.38,35.79,1.65,5,7.84,19.59,11.36,38.57,0,0-.57-12.6-1.18-24.94-.86-17.26-4-22.08-9.72-28.4-5.49-6.07-34.49-23.31-36.51-24.46,4.93-4,7.28-12.13,7.22-16.22C207.84,274.38,200.69,286.86,191.55,290.14Z" style="fill:#00AEBC;opacity:0.4"></path><path d="M232.73,419.68c-1.76-.09-1.84,2.92-2.86,6.75-.67,2.48-1.94,6.62-.44,11.44s9.13,5.71,12.95,12.08,9.32,17.81,22.85,21.51,24.22-.23,27-4.16.72-7.93-7.75-13.44C275.5,448,273,446.3,273,446.3Z" style="fill:#263238"></path><path d="M250.76,396.76s3.56,15.1,7.1,23.73,9.43,17,16.05,24.8c1.44,1.7,4.73,4.88,5.91,6.26,1.05,1.22,1.21,2.63-.32,4.06-3,2.82-15.67,3.36-22.7-2s-13.36-16.79-17.54-21.11c-1.57-1.63-3-3.29-4.45-5.05a8.77,8.77,0,0,1-2.11-5.68,25.34,25.34,0,0,0-.44-8.16c-.92-4.46-1.87-6.2-3.22-10.55Z" style="fill:#ffa8a7"></path><path d="M131.67,254c-7.29,23.15-6,35.88-1.72,45.73,3.57,8.2,10.19,16.68,29.08,25.51,17.89,8.37,34.69,17.27,39.12,19.29s5.94,6.91,8.1,15.63c2,8.28,4.1,12,13.34,29.51,9.77,18.5,12.42,24,12.42,24s13,3.87,22.21-5c0,0-8.8-61.48-11-73-1.5-7.72-3.62-12-9.88-17.47-14.54-12.76-41.32-28-41.32-28s16.32-11.16,7.18-40.72Z" style="fill:#00AEBC"></path><path d="M131.67,254c-7.29,23.15-6,35.88-1.72,45.73,3.57,8.2,10.19,16.68,29.08,25.51,17.89,8.37,34.69,17.27,39.12,19.29s5.94,6.91,8.1,15.63c2,8.28,4.1,12,13.34,29.51,9.77,18.5,12.42,24,12.42,24s13,3.87,22.21-5c0,0-8.8-61.48-11-73-1.5-7.72-3.62-12-9.88-17.47-14.54-12.76-41.32-28-41.32-28s16.32-11.16,7.18-40.72Z" style="fill:#fff;opacity:0.6000000000000001"></path><path d="M246.5,394.27c-1.06-10.35-1.78-11-3.28-21.32s-3.1-20.59-5.28-30.83c-.28-1.28-.61-2.55-.93-3.84l-.59-1.93-.73-1.89a30,30,0,0,0-4.11-6.93,57.3,57.3,0,0,0-11.65-10.7c-4.24-3.09-8.69-5.83-13.11-8.56s-8.86-5.47-13.34-8.12c4.22,3.06,8.51,6,12.76,9s8.57,5.89,12.65,9.06a59.59,59.59,0,0,1,11,10.61,30.1,30.1,0,0,1,3.77,6.49l.66,1.75.53,1.8c.31,1.24.62,2.49.89,3.75,1.12,5,2.05,10.16,3,15.27l2.75,15.34C243.27,383.47,244.57,384,246.5,394.27Z" style="fill:#00AEBC;opacity:0.4"></path></g><g id="freepik--top--inject-4"><path d="M225.79,115.59c-9.38-5.59-17.47-10-19.73-12.26a32.71,32.71,0,0,1-4.44-6.12,30.55,30.55,0,0,0-6.89-8.58,31.51,31.51,0,0,0-9-5.39,2.31,2.31,0,0,0-2.86.54,7.28,7.28,0,0,0-3.48-1,11.56,11.56,0,0,0-2.85.76c-1.51.43-2.67-.19-4-.9a4.6,4.6,0,0,0-2-.79c-1.15,0-1.42.82-1.36,1.74a6.67,6.67,0,0,0,1.57,3.69c1.37,1.72,3.25,2.91,4.85,4.39,2.44,2.27,6.41,5.9,7.34,9.16.2.66.39,2.1-.72,1.48a29.18,29.18,0,0,0-4.41-2.27,5.94,5.94,0,0,0-4.82.15,2,2,0,0,0-1,1.06c-.22.68.16,1,.62,1.28a14.54,14.54,0,0,1,1.35,1.14l2.74,2.44c5.38,4.68,7.15,6.76,14.29,8.2,1,.21,5.35.63,8.07,2.77s22.37,21.45,22.37,21.45l26.27-7.39C244,126,236.42,121.91,225.79,115.59Z" style="fill:#ffbda7"></path><path d="M186.5,102.59a12.86,12.86,0,0,1,11.18,3.92s-1.43-3.4-4.41-4.43A8,8,0,0,0,186.5,102.59Z" style="fill:#f0997a"></path><path d="M147.21,175.22c1.16-.62,2.07-1.76,3.24-2.3,1.71-.81,3.86,1.56,5.54,2.2a22.19,22.19,0,0,0,8.11,1.43,19.41,19.41,0,0,0,6.27-1c1.72-.62,2.92-1.49,4.76-1.22a21.24,21.24,0,0,1,5.71,1.47c1.63.72,3.15,1.69,4.81,2.32,2.88,1.07,5.78,1.93,9.73.9a7.44,7.44,0,0,0,4.19-3.35,8.21,8.21,0,0,0,.42-6.14c1.85,2.14,6.36,2,7.49-1.27a2.25,2.25,0,0,1-3.94-1.36c-.09-1.55,1.36-2.72,2-4.16a4,4,0,0,0-.32-3.61,11.8,11.8,0,0,1-1.71-2.5,2.81,2.81,0,0,1,.57-2.53c.45-.57,1.07-1,1.51-1.56,1.18-1.55.67-3.89-.62-5.34a12.26,12.26,0,0,0-5-2.9,6.29,6.29,0,0,0,2.84-7.24,4.15,4.15,0,0,1-3.93,2.18,3.32,3.32,0,0,1-2.9-2.94c0-1.51,1.4-2.74,2.19-3.91a11.29,11.29,0,0,0,1.81-7.29c-.4-2.3-1.6-4.32-3.34-5a6.24,6.24,0,0,1,5.36,3.25,8.73,8.73,0,0,0-2.89-7.2c-1.57-1.38-3.59-2.14-5.43-3.14a8.77,8.77,0,0,1-3.79-3.44c-.81-1.62-.93-3.69-1.33-5.46-.69-3-2.83-4.5-5.61-5.55a11.94,11.94,0,0,0-3.8-.7,4.81,4.81,0,0,0,1.89-.91c1.41-1.15,1.86-3.54.52-4.77-.45,2-3.2,2.41-5,1.54-2-1-3.49-2.83-5.56-3.82a7.59,7.59,0,0,0-6.61,0c-1.49.76-2.7,2-4.25,2.62-2.38.92-5,.18-7.57,0a16.82,16.82,0,0,0-5.38.49,11.41,11.41,0,0,0-5.06,2.58,10,10,0,0,0-2.2,2.82,7.3,7.3,0,0,0-.73,3A13.81,13.81,0,0,0,126,106.27a24.45,24.45,0,0,1-2.1,2.63,3.66,3.66,0,0,1-3,1.12,1.93,1.93,0,0,1-1.65-2.46,3.83,3.83,0,0,0-1.38,2.22,4.39,4.39,0,0,0,.23,2.58c.85,1.77,3.46,2.43,5.22,1.94a22.09,22.09,0,0,0-3.75,2,17.1,17.1,0,0,0-3.36,1.9,7.74,7.74,0,0,0-2.69,7.39c.44,2,1.67,3.91,1,5.81s-2.67,2.68-4.28,3.76-3.1,2.87-3,4.87,1.38,3.43,2.7,4.75,1.27,3.06.43,4.75-2.31,2.6-3.27,4.05a7.18,7.18,0,0,0-.79,5.77c.52,2,2.23,3.95,1.6,6.09-.46,1.56-2.1,2.48-2.91,3.9a4.25,4.25,0,0,0,1,5.25,4,4,0,0,1,1.21-3.11,11.71,11.71,0,0,1,2.81-2,8.91,8.91,0,0,0-1.67,4.25,4,4,0,0,0,2,3.86c1.41.68,3.38.31,4.34,1.55.6.77.52,1.84.69,2.8a6.38,6.38,0,0,0,4.45,4.7,10.54,10.54,0,0,0,6.67-.39c1.56-.56,3.05-1.18,4.66-1.61,1.28-.34,2.76-.35,3.87-1.15s1.73-2.53,2.75-3.67C140.4,176.9,144,176.93,147.21,175.22Z" style="fill:#263238"></path><path d="M208.09,128.82a2.6,2.6,0,0,0-3.28.3,3,3,0,0,0-.28,3.47c.21.42.77.7.12.94a3.36,3.36,0,0,1-1.69.15,4.34,4.34,0,0,1-2.19-1.51,5,5,0,0,1-1.16-2.76,18.39,18.39,0,0,1,.21-4,.33.33,0,0,0,0-.22c-.09-.11-.26,0-.37.06a3.81,3.81,0,0,0-1,2,8.4,8.4,0,0,0-.33,3.75,5.37,5.37,0,0,0,2,3.26,6,6,0,0,0,5.33.73,4.24,4.24,0,0,0,.83-.41c1.59,1.14,3.7,1.59,4.7-.38.05-.1-.12-.29-.21-.18-1,1.35-2.74,1.14-4,.25C208.48,132.86,210.11,130.32,208.09,128.82Zm-2.45,4.28a3.15,3.15,0,0,1-.65-1.91,2,2,0,0,1,.79-1.6c.77-.5,1.46.07,1.53.87A3.29,3.29,0,0,1,205.64,133.1Z" style="fill:#263238"></path><path d="M102.62,126.53c-1.7-1-2.86-2.78-1.9-4.69.08-.16-.23-.24-.31-.14-1.69,2.2,0,4.34,2.1,5.52a5.66,5.66,0,0,0,0,1.16,7.46,7.46,0,0,0,3.71,5.63,6.75,6.75,0,0,0,4.79.54,10.61,10.61,0,0,0,4.07-2.4,4.8,4.8,0,0,0,1.66-2.21c0-.17,0-.4-.13-.45a.41.41,0,0,0-.27.08,23.62,23.62,0,0,1-4.47,2.43,6.29,6.29,0,0,1-3.74.18,5.41,5.41,0,0,1-2.89-1.66,4.09,4.09,0,0,1-.74-2c-.09-.86.53-.39,1.13-.37a3.77,3.77,0,0,0,3.76-2.2,3.26,3.26,0,0,0-1.44-3.86C105.16,120.61,103.16,123.84,102.62,126.53Zm3.9-2.67c.93-.35,2,.13,1.8,1.25a2.55,2.55,0,0,1-1.38,1.77,4,4,0,0,1-2.5.3C104.62,125.88,105.29,124.33,106.52,123.86Z" style="fill:#263238"></path><path d="M203.9,177a1.77,1.77,0,0,1-1.74-.34l.19,0a1.61,1.61,0,0,0,1.13-1.09,1.35,1.35,0,0,0-.6-1.38,1.15,1.15,0,0,0-1.31.12,1.48,1.48,0,0,0-.39,1.42c0,.09.06.19.09.28a2.46,2.46,0,0,1-1.61-.66,2.3,2.3,0,0,1-.72-1.18,3.91,3.91,0,0,1-.07-1.56c0-.08-.1-.29-.18-.17a2.31,2.31,0,0,0-.36.74,2.36,2.36,0,0,0,0,.88,3.06,3.06,0,0,0,.76,1.74,3.32,3.32,0,0,0,2.67,1,2.53,2.53,0,0,0,.55.48,1.75,1.75,0,0,0,1.73.05C204.1,177.19,204,176.93,203.9,177Zm-2.12-2.07c.14-.23.58-.53.85-.33s.07.69-.09.89a1.42,1.42,0,0,1-.84.45A1.19,1.19,0,0,1,201.78,174.9Z" style="fill:#263238"></path><path d="M153.26,93.53c-3.79-1.24-8.19-1.52-11.73.62a7.48,7.48,0,0,0-3.36,4,3.85,3.85,0,0,0,0,2.23c-2.25-1.68-5.69-1.31-7.94.3A10.45,10.45,0,0,0,127,105a18.62,18.62,0,0,1-1.43,2.86,6.88,6.88,0,0,1-2.35,2.07c-.17.1,0,.44.17.42,1.61-.26,2.68-1.81,3.38-3.16.87-1.68,1.47-3.45,2.78-4.86a7.66,7.66,0,0,1,4.39-2.41,6.61,6.61,0,0,1,4.54,1.06,4.41,4.41,0,0,0,1.43,1.71c.2.14.19-.2.11-.3s-.41-.49-.6-.75a0,0,0,0,0,0,0l-.22-.29a4.34,4.34,0,0,1-.5-1.07,3.42,3.42,0,0,1,.48-2.76,8.78,8.78,0,0,1,3.57-3.21c3.31-1.67,7-1.21,10.54-.56C153.36,93.77,153.35,93.56,153.26,93.53Z" style="fill:#263238"></path><path d="M123,115.29a14,14,0,0,1-4.81,1.3,10.35,10.35,0,0,0-4.26,1.56,6.55,6.55,0,0,0-2.71,7.59,20.47,20.47,0,0,0,2.26,3.57,4.75,4.75,0,0,1,.71,4.45,4.66,4.66,0,0,1-3.13,2.84c-.3.09-1,.05-1,.53.13,1.1,3.24-.89,3.59-1.27a5.16,5.16,0,0,0,1.36-3.5,7,7,0,0,0-1.58-3.9c-.9-1.28-1.87-2.52-2-4.14a6.17,6.17,0,0,1,1.69-4.56,8.79,8.79,0,0,1,4.81-2.49c1.77-.37,3.73-.5,5.08-1.82C123.11,115.41,123.09,115.25,123,115.29Z" style="fill:#263238"></path><path d="M198.16,115.94a8.9,8.9,0,0,1-4.59-2.89c-1.31-1.62-1.58-3.55-1.85-5.56-.49-3.61-2.23-7-5.62-8.73a7.78,7.78,0,0,0-6.07-.49c-.07,0,0,.2,0,.19a9.12,9.12,0,0,1,9.78,4.88c1,2,1.05,4.09,1.47,6.22a8.53,8.53,0,0,0,2.26,4.42,7.35,7.35,0,0,0,4.65,2.36C198.45,116.36,198.3,116,198.16,115.94Z" style="fill:#263238"></path><path d="M172.75,118a1.19,1.19,0,0,0-1.1-1.2,2,2,0,0,0-1.69.8,1.89,1.89,0,0,0-.39,1.1,2.59,2.59,0,0,1-1.18-2.58,3.21,3.21,0,0,1,.82-1.73,5.81,5.81,0,0,1,.67-.64,4.77,4.77,0,0,0,.83-.72c.15-.21-.2-.51-.4-.45a4.76,4.76,0,0,0-1.94,1.47,3.83,3.83,0,0,0-.91,2,3.29,3.29,0,0,0,1.95,3.45,2.44,2.44,0,0,0,.31.06,2,2,0,0,0,1.18,1.18c.09,0,.08-.15,0-.18a1.7,1.7,0,0,1-.84-1C171.22,119.69,172.73,119.26,172.75,118Zm-2.74.8a1.62,1.62,0,0,1,1-1.31c.24-.12.72-.26,1-.08s.1.58,0,.77a2.3,2.3,0,0,1-1.83.63Z" style="fill:#263238"></path><path d="M141.05,102.68c-3.74-.41-7.8.34-10.59,3a8.41,8.41,0,0,0-2.39,4.11c-.43,1.88,0,3.91-.77,5.71-1.48,3.31-5.58,4.08-8.29,6a7.07,7.07,0,0,0-2.86,4.06,10.49,10.49,0,0,0,.5,5.57c.59,1.94,1.2,4.23-.39,5.87a4.48,4.48,0,0,1-4.61,1c-.2-.06-.14.27,0,.34a4,4,0,0,0,3.92,0,4.24,4.24,0,0,0,2.32-3.37c.21-2-.69-3.79-1.06-5.67a7.12,7.12,0,0,1,1.09-5.66c2.13-2.85,6.06-3.46,8.56-5.9a6.67,6.67,0,0,0,1.91-4.6,11,11,0,0,1,1.19-5.21c2.41-4,7.2-5,11.53-5C141.22,103,141.17,102.69,141.05,102.68Z" style="fill:#455a64"></path><path d="M144.8,104.33a7.17,7.17,0,0,0-9.41,2.92c-1,1.89-.92,3.93-1,6a8.92,8.92,0,0,1-2.09,5.49,8.33,8.33,0,0,1-2.18,1.83,23.88,23.88,0,0,1-3,1.31,8.65,8.65,0,0,0-4.07,3.26,8.69,8.69,0,0,0,.09,9.81c1.15,1.87,2.73,3.75,2.77,6.07,0,2.15-1.6,3.62-3.12,4.89a14.18,14.18,0,0,0-4,4.45,5.93,5.93,0,0,0-.07,5.51,4.54,4.54,0,0,0,2.82,2.06,6,6,0,0,0,2.13,4.8,4.15,4.15,0,0,0,3.27,1,4.15,4.15,0,0,0,1.31.77,4.82,4.82,0,0,0,3,.1c.22-.07.07-.47-.14-.43a5.35,5.35,0,0,1-3-.27,3.23,3.23,0,0,1-.64-.38,2,2,0,0,0,.4-.26,1.25,1.25,0,0,0,.31-1.78,1.13,1.13,0,0,0-1.46-.15,1.25,1.25,0,0,0-.39,1.66,1.1,1.1,0,0,0,.09.14,3,3,0,0,1-1.86-.47,5.21,5.21,0,0,1-2.39-4.32c0-.09,0-.19,0-.29a4.28,4.28,0,0,0,4.07-1.49c1-1.3-.47-2.41-1.76-2.3-1.52.13-2.58,1.63-2.9,3.05a4.17,4.17,0,0,1-1.32-.56,4.26,4.26,0,0,1-1.42-4.38A8.66,8.66,0,0,1,121.5,148c2.07-2,5.27-3.73,5.07-7.07-.21-3.53-3.45-5.82-4.17-9.17a8.41,8.41,0,0,1,2.64-7.87c1.31-1.15,3-1.6,4.53-2.29a9.12,9.12,0,0,0,5.31-6.66c.33-1.84,0-3.74.46-5.57a7,7,0,0,1,6.93-5.26,7.51,7.51,0,0,1,2.52.52C145,104.73,144.93,104.39,144.8,104.33ZM127.07,162a.74.74,0,0,1,.5-.2c.33,0,.22.47.09.68a1.53,1.53,0,0,1-.7.58A.71.71,0,0,1,127.07,162Zm-2.23-7.08c.85,0,1.45.53.81,1.3a3.52,3.52,0,0,1-1.63,1.08,4.24,4.24,0,0,1-1.7.18C122.64,156.21,123.53,154.93,124.84,154.89Z" style="fill:#455a64"></path><path d="M166.58,112.47a14.21,14.21,0,0,0-10.45-3.56c-3.52.23-7.45,1.86-9.33,5a5.83,5.83,0,0,0-.79,2.3,7.71,7.71,0,0,0,.38,2.7,2.92,2.92,0,0,1-.35,2.69,3,3,0,0,1-1,.81,3.09,3.09,0,0,0-.65-1.24,2.32,2.32,0,0,0-1.76-.82,1.3,1.3,0,0,0-1.37,1.34c0,1.54,1.76,2,3.09,1.79a4.65,4.65,0,0,1-2,2.64c-1.54,1.11-3.53,1.8-4.58,3.49a3,3,0,0,0,.78,4.21c.22.14.22-.25.09-.36a2.47,2.47,0,0,1-.52-2.65,4.46,4.46,0,0,1,1.78-2.24c1.49-1.07,3.28-1.73,4.44-3.21a3.62,3.62,0,0,0,.78-2.1,3.35,3.35,0,0,0,2.27-3.68,13.09,13.09,0,0,1-.5-3.22,5.44,5.44,0,0,1,1.1-2.62,10.55,10.55,0,0,1,5.14-3.47,13.62,13.62,0,0,1,7.08-.43,18.91,18.91,0,0,1,6.29,2.79C166.63,112.71,166.63,112.52,166.58,112.47Zm-22.65,10.32c-.74.08-2.31-.32-1.73-1.38s1.67,0,2,.61a2.17,2.17,0,0,1,.21.67A3.34,3.34,0,0,1,143.93,122.79Z" style="fill:#455a64"></path><path d="M191.46,133.1a8,8,0,0,0,2-2.25,3.83,3.83,0,0,0-.08-3.11,8.23,8.23,0,0,0-1.82-2.83,22.91,22.91,0,0,0-2.44-2,4.7,4.7,0,0,1-1.93-2.56,13.28,13.28,0,0,1,.1-3.67,7.45,7.45,0,0,0-2.54-5.79,12.67,12.67,0,0,0-5.36-3.17c-4.37-1.26-10,.09-12.47,4.13,0,0,0,.18.07.12a15,15,0,0,1,7-3.86,11.43,11.43,0,0,1,7.4,1.07c2.2,1.14,4.72,3.34,5.09,5.93a26.79,26.79,0,0,1-.18,4,4.58,4.58,0,0,0,1.13,3.15,16.86,16.86,0,0,0,2.56,2.12,7.71,7.71,0,0,1,2.53,3.15,4.11,4.11,0,0,1,.42,2.15,3.39,3.39,0,0,1-1.11,1.86c-.79.81-1.7,1.49-2.53,2.26-1.62,1.5-2.77,3.56-1.78,5.76a4.52,4.52,0,0,0,3.33,2.48,2.65,2.65,0,0,0,3.39,1.85c.29-.1,0-.55-.24-.5a2.15,2.15,0,0,1-2.55-1.3,3.54,3.54,0,0,0,1.83-.49,1.46,1.46,0,0,0,.33-2.38c-.85-.75-2.05,0-2.53.81a2.44,2.44,0,0,0-.34,1.26,3.67,3.67,0,0,1-1.2-.44,3.43,3.43,0,0,1-1.54-3.13C188.16,135.71,190,134.35,191.46,133.1Zm.71,6.66c.34-.24,1.22-.56,1.29.24a1.11,1.11,0,0,1-.47.9,2.53,2.53,0,0,1-1.63.5A2.2,2.2,0,0,1,192.17,139.76Z" style="fill:#455a64"></path><path d="M177.64,95.85c-2.53.15-4.3-1.76-6.52-2.62a8.31,8.31,0,0,0-6.76.4,30,30,0,0,0-3,2.27,5.94,5.94,0,0,1-4.2.84,35.91,35.91,0,0,0-3.88-.4,8.41,8.41,0,0,0-3.72.85,6,6,0,0,0-3.38,6.16c0,.09.1.05.09,0a5.85,5.85,0,0,1,3.93-5.82,8.77,8.77,0,0,1,3.83-.57c1.31.09,2.59.39,3.89.47a6.18,6.18,0,0,0,3.31-.6,36.42,36.42,0,0,0,2.92-2.19,7.64,7.64,0,0,1,7.25-.68c1.94.84,4.06,3,6.34,2.22C177.82,96.12,177.76,95.84,177.64,95.85Z" style="fill:#455a64"></path><path d="M194,115.56a6.31,6.31,0,0,1,2.86,1.73,5.26,5.26,0,0,0-2.43-1.9c-1.09-.47-2.51-.7-3.46-1.45a6,6,0,0,1-1.83-2.39,32.25,32.25,0,0,0-1.85-4.6,10.7,10.7,0,0,0-1.53-2,11.08,11.08,0,0,0-4.14-2.66,9.58,9.58,0,0,0-4.34-.52,34.48,34.48,0,0,0-5.55,1.5,11.09,11.09,0,0,1-5.8.22,49.36,49.36,0,0,1-5.52-2,8.27,8.27,0,0,0-5.8,0,16.82,16.82,0,0,0-5.34,3.32s0,.17,0,.14a40,40,0,0,1,4.88-2.69,8.2,8.2,0,0,1,5.79-.3c1.81.59,3.47,1.51,5.3,2a11.47,11.47,0,0,0,5.3.32c1.89-.36,3.66-1.15,5.53-1.59a9.49,9.49,0,0,1,5,0,10.68,10.68,0,0,1,6.78,6.31,32.32,32.32,0,0,0,1.14,3.21,5.92,5.92,0,0,0,1.51,1.93,7.83,7.83,0,0,0,2.51,1Z" style="fill:#455a64"></path><path d="M196.78,151.3a11,11,0,0,0-4.47-2.87,24,24,0,0,1-2.74-1.09,3.93,3.93,0,0,1-2.43-3.23c0-.1-.11-.17-.12,0-.14,2.72,2.56,3.88,4.7,4.71,2.63,1,5.75,2.68,5.82,5.92,0,1.61-.91,2.63-2.08,3.61a4.77,4.77,0,0,0-2.06,3c-.1,1.32.88,2.29,1.66,3.22a6.71,6.71,0,0,1,1.73,3.83,3.35,3.35,0,0,1-1.73,3.15,2.25,2.25,0,0,0-.8-.72,1.73,1.73,0,0,0-1.68-.07.82.82,0,0,0-.19,1.3,2.33,2.33,0,0,0,2.49.33,7,7,0,0,1,0,2.54c0,.16.22.35.29.14a4.88,4.88,0,0,0,.19-2.89,4,4,0,0,0,.65-.39,3.9,3.9,0,0,0,1.38-3.83,8.58,8.58,0,0,0-2.17-4.08,3.18,3.18,0,0,1-1.12-2.48,4.21,4.21,0,0,1,1.62-2.31c1.19-1,2.31-2,2.46-3.67A5.64,5.64,0,0,0,196.78,151.3Zm-2.69,20.56c-.27,0-1.51.18-1.23-.43.19-.41.92-.27,1.21-.12a1.47,1.47,0,0,1,.49.43A2.49,2.49,0,0,1,194.09,171.86Z" style="fill:#455a64"></path><path d="M188.77,154.31c-1.1-1.65-2.37-3.12-2.41-5.21,0-.07-.11-.13-.12,0-.65,3.77,4.48,6.36,3.08,10.15-.56,1.5-1.82,2.63-2.43,4.12a3.6,3.6,0,0,0,.68,4.14c.17.17.25-.1.17-.24-.9-1.41-.41-3.22.37-4.55s1.83-2.33,2.09-3.79C190.51,157.22,189.66,155.65,188.77,154.31Z" style="fill:#455a64"></path><path d="M133.42,167.37a6.18,6.18,0,0,0,1.56-5.25c-.44-1.81-1.72-3.26-2.52-4.91a5.78,5.78,0,0,1-.5-3.79c.25-1.16.85-2.17,1.19-3.29,0-.06-.06-.23-.13-.14a8,8,0,0,0-1.44,3.16,5.81,5.81,0,0,0,0,2.9c.51,1.92,1.91,3.41,2.62,5.24a4.43,4.43,0,0,1,.06,3.28,9.66,9.66,0,0,1-1.88,2.82c-1.49,1.68-2.92,3.33-3.44,5.57a6.91,6.91,0,0,0,1.7,6.45c.17.17.23-.11.14-.24a7.52,7.52,0,0,1-1-6.16C130.36,170.7,132,169.17,133.42,167.37Z" style="fill:#455a64"></path><g id="freepik--arm--inject-4"><path d="M247.77,131.15l-26.35,4.93s-10.5,10.71-23.34,22.16c-1.89,1.68-4.32,2.94-8.45,5a55.52,55.52,0,0,0-8,5.11l21,23.75s24.24-24.12,38-40.07C249.17,142.18,251.9,137.44,247.77,131.15Z" style="fill:#ffbda7"></path><path d="M220.22,137.29c3.31,3.15,7.53,7.3,15.64,7.05-5.54,1.81-11.58.81-17.51-5.18Z" style="fill:#f0997a"></path><path d="M205.25,189.35a54.71,54.71,0,0,0-12.86-11.83l2,5.3,8.24,9.32Z" style="fill:#f0997a"></path></g><g id="freepik--top--inject-4"><path d="M130,242.8c-1.89-8.84-6.87-20.94-9.38-30.67,0,0,7.5-5.55,10.26-12.09,2.27-5.41,4.83-14,.72-24.65l6.92-1.09c5.49-.84,12.87-1.75,16.72-2.14,6.55-.65,12.79-3.23,20.56-3.13,0,0,4.25,0,5.86-.64,5.13,2.86,20,15,24.55,29,1.85,5.7,5.63,15.9-5.65,28.06-.12,1.16.06,7.06.14,10.88.09,4.56,4.75,9.94,5.83,18.68.54,20.33-57.11,36.71-79.77,21.47-3.48-2.63-1.8-8,0-14.23S132,252.51,130,242.8Z" style="fill:#455a64"></path><path d="M175.22,228.89s-6.44,7.55-19.72,4.91S139.91,221,139.91,221s-1.2,12.93,14.68,16C170.22,240.09,175.22,228.89,175.22,228.89Z" style="fill:#37474f"></path></g><g id="freepik--head--inject-4"><path d="M145.15,165.15c0-3.51-.52-15.77-.52-15.77-.74,3.48-6.47,3.49-9.91-.37-4.24-4.73-3.36-10.14-.73-12.59s6.91-2.32,9.86,2.15c1.5,1.64,3.58.21,3.26-1.78a9.69,9.69,0,0,1-.15-3.26c.49-2.63,2.79-4.21,4-6.41,1.5-2.64-.83-4.1.88-9.2.67-2,2.95-3.6,5-4.11a11.41,11.41,0,0,1,7.18.66c.73.27,1.4.68,2.14.91a2.71,2.71,0,0,0,2.25-.12,5.47,5.47,0,0,0,1-1,5.8,5.8,0,0,1,5.08-1.63c3,.48,5.69,2.93,7.16,7.06,1.18,3.35,0,4.75,1,9.67a42.67,42.67,0,0,1,1.65,9c.91,11.75-1.23,17.7-5.34,20.27a20,20,0,0,1-11.29,3l.21,2.7c.25,2.09.26,4.16,2.41,4.33l5.49.43s6,8.33-8.4,11.87c-18.73,4.6-28.88-6.6-28.88-6.6s1.84-.35,4.12-.85C145.26,172.86,145.13,169,145.15,165.15Z" style="fill:#ffbda7"></path><path d="M167.66,161.57c-5.62-.14-8.3-.2-12.3-1.66A15.34,15.34,0,0,1,149,155s2,4.92,5.84,6.79c5.34,2.62,13.06,2.59,13.06,2.59Z" style="fill:#f0997a"></path><path d="M179.72,123.75l-5.61-1a2.73,2.73,0,0,1,3.18-2.37A3,3,0,0,1,179.72,123.75Z" style="fill:#263238"></path><path d="M155.84,127.85l5.14-2.6a2.76,2.76,0,0,0-3.78-1.34A3,3,0,0,0,155.84,127.85Z" style="fill:#263238"></path><path d="M175.24,129.94a2.43,2.43,0,0,0,2.38,2.41,2.28,2.28,0,0,0,2.37-2.28,2.44,2.44,0,0,0-2.37-2.41A2.28,2.28,0,0,0,175.24,129.94Z" style="fill:#263238"></path><path d="M158,132.46a2.45,2.45,0,0,0,2.38,2.41,2.29,2.29,0,0,0,2.38-2.28,2.43,2.43,0,0,0-2.38-2.41A2.29,2.29,0,0,0,158,132.46Z" style="fill:#263238"></path><path d="M178.64,138.11,171,142.24l-3.13-14.17C170.46,128.86,174.59,133,178.64,138.11Z" style="fill:#f0997a"></path><path d="M171.28,146.79l-7-1.3a3.41,3.41,0,0,0,2.72,4.15A3.75,3.75,0,0,0,171.28,146.79Z" style="fill:#b16668"></path><path d="M169.15,149.37a3.72,3.72,0,0,0-4.29-2.43,3.33,3.33,0,0,0-.56.18,3.38,3.38,0,0,0,2.69,2.52A3.61,3.61,0,0,0,169.15,149.37Z" style="fill:#f28f8f"></path></g><path d="M131.57,175.39c-10.5,1.45-16.5,4.45-25.28,9.5C97.21,190.1,71,206.12,71,206.12s-8.73-.13-9.34,8.13,3,19.83,11.41,17.18,34.29-12.24,47.89-18.1c9.32-4.4,17.54-22.08,11.2-36.75C131.94,176.18,131.76,175.78,131.57,175.39Z" style="fill:#ffbda7"></path><path d="M83.33,219.94c6.69-7.35,9.21-19.81,10.19-27.49l-9.93,6C81.26,209.46,78.52,225.23,83.33,219.94Z" style="fill:#f0997a"></path><path d="M104.77,137.55c-1-.66-2.41-.5-4.16-.41l1.13-1.21a8.25,8.25,0,0,1,1.31-1.14,2.87,2.87,0,0,1,1.24-.3,11.81,11.81,0,0,0,3.14-.76,6.13,6.13,0,0,0,2.06-1.25,3.11,3.11,0,0,0,1-2.16.68.68,0,0,0-.26-.6.72.72,0,0,0-.39-.06l-4.08,0a18.23,18.23,0,0,0-3.77.19,11.55,11.55,0,0,0-2.19.66,11.13,11.13,0,0,0-1.93,1.21c-2.7,2-5.37,4-8,6a9.43,9.43,0,0,0-3.25,3.54c-1,2.44-1.22,5.39-1.64,8-1,6.11-1.1,12.71-3.38,18.52s-12.11,23.13-16.71,33.08c-4.39,9.49-3.82,16.21-1.3,22.74,2.3,5.93,9.07,5.57,14.36,3,4.73-2.32,9.26-14.74,10.71-21.69,3.37-16.09,4.77-24.94,6-28.27a16.67,16.67,0,0,1,3.62-6.11c1.22-1.43,1.67-3.46,1.75-6.74s0-4.41.24-5,3.56-1.83,4.66-2.15,1.29.18,2.8,1.51,2.58.13,2.48-.18a31.28,31.28,0,0,0-.74-3.1c-.45-1.35-1.3-1.55-1.3-1.55s1.08-.91,1-1.81a12.4,12.4,0,0,0-1.06-3.75,6,6,0,0,0-2.54-1.37,10.17,10.17,0,0,0-3.51-1,7.41,7.41,0,0,0-1.61.26c-1.13.26-2.29.61-3.44.78a13.64,13.64,0,0,1,1.24-1.4c.25-.28.49-.56.74-.83,1.32-1.46,3.75-1.67,5.58-2.12l.38,2.42a16.25,16.25,0,0,0,1.32-3.26C106.22,140.54,105.82,138.28,104.77,137.55ZM103.38,152c-.82.09-5.75,2-5.45,1.71a37.19,37.19,0,0,1,5.4-2.84,5.17,5.17,0,0,1,2.65.61l.13.89A11.74,11.74,0,0,0,103.38,152Z" style="fill:#ffbda7"></path><path d="M100.61,137.14c-2,.54-4.36,1-6.14,2.14-.72.78-1.36,1.72-2,2.59s-1.33,1.78-2,2.66c.53-1,1.11-1.93,1.72-2.87a23.24,23.24,0,0,1,2-2.71,14,14,0,0,1,6.48-1.81Z" style="fill:#f0997a"></path><path d="M107.26,139.26a3.61,3.61,0,0,1-2.75,2.8,27.47,27.47,0,0,0-3.14.73,5.27,5.27,0,0,0,4.21,2.7c3.13.34,6.27-2.64,6.27-2.64Z" style="fill:#263238"></path><circle cx="140.53" cy="147.6" r="2.23" style="fill:#fff"></circle></g></g></g><g id="freepik--speech-bubble--inject-4"><g id="freepik--speech-bubble--inject-4"><g id="freepik--Bubble--inject-4"><path d="M92.75,42.39c-5-2.85-11.94-2.42-19.58,2C57.81,53.26,45.35,74.83,45.35,92.57c0,8.87,3.11,15.09,8.14,18L63,116c5,2.9,12,2.48,19.65-2C98,105.21,110.47,83.64,110.47,65.9c0-8.85-3.1-15.07-8.11-18C100.26,46.7,94.88,43.6,92.75,42.39Z" style="fill:#00AEBC"></path><path d="M46.37,83.35a44.88,44.88,0,0,0-1,9.22c0,8.87,3.11,15.09,8.14,18L63,116c5,2.9,12,2.48,19.65-2a45,45,0,0,0,7.46-5.49Z" style="opacity:0.15"></path><path d="M102.33,93.3c5-8.72,8.14-18.54,8.14-27.4C110.47,48.15,98,41,82.64,49.83S54.82,80.28,54.82,98,67.28,123,82.64,114.09a48,48,0,0,0,10.87-8.82l11.35,2.08a1.87,1.87,0,0,0,2.07-2.54Z" style="fill:#00AEBC"></path><path d="M102.33,93.3c5-8.72,8.14-18.54,8.14-27.4C110.47,48.15,98,41,82.64,49.83S54.82,80.28,54.82,98,67.28,123,82.64,114.09a48,48,0,0,0,10.87-8.82l11.35,2.08a1.87,1.87,0,0,0,2.07-2.54Z" style="fill:#fff;opacity:0.35000000000000003"></path></g><path id="freepik--Heart--inject-4" d="M98,69.48c0-2.56-.73-4.46-1.92-5.55h0l0,0c-1.39-1.25-3.41-1.38-5.64-.08-3.84,2.23-7,9.67-7.46,14.89-.5-4.66-3.69-8.41-7.52-6.17a15.47,15.47,0,0,0-5.63,6.63l0,.06h0A18.45,18.45,0,0,0,67.87,87c0,7.94,7.3,11,9.57,12.22a28.37,28.37,0,0,0,5.54,2s3.4-4.56,5.83-8.61S98,77.42,98,69.48Z" style="fill:#fff"></path></g></g></svg>
