<?xml version="1.0" encoding="utf-8"?>
<!-- Generator: Adobe Illustrator 26.0.3, SVG Export Plug-In . SVG Version: 6.00 Build 0)  -->
<svg version="1.1" id="Layer_1" xmlns="http://www.w3.org/2000/svg" xmlns:xlink="http://www.w3.org/1999/xlink" x="0px" y="0px"
	 width="500px" height="500px" viewBox="0 0 500 500" style="enable-background:new 0 0 500 500;" xml:space="preserve">
<style type="text/css">
	.st0{opacity:0.7;fill:#FFFFFF;enable-background:new    ;}
	.st1{fill:#00AEBC;}
	.st2{clip-path:url(#SVGID_00000049918040432814199810000000662509107201157002_);}
	.st3{opacity:0.5;fill:#FFFFFF;enable-background:new    ;}
	.st4{opacity:0.2;}
	.st5{fill:none;stroke:#263238;stroke-width:1.1445;stroke-linecap:round;stroke-linejoin:round;}
	.st6{fill:#FFFFFF;}
	.st7{clip-path:url(#SVGID_00000033344235353701309700000013913530550025503678_);}
	.st8{fill-rule:evenodd;clip-rule:evenodd;fill:#00AEBC;}
	.st9{fill:#FFFFFF;stroke:#263238;stroke-width:1.1445;stroke-linecap:round;stroke-linejoin:round;}
	.st10{fill:#263238;}
	.st11{opacity:0.2;enable-background:new    ;}
	.st12{clip-path:url(#SVGID_00000016066755252603466700000017455635634236976044_);}
	.st13{fill:#00AEBC;stroke:#263238;stroke-width:1.1445;stroke-linecap:round;stroke-linejoin:round;}
	.st14{opacity:0.6;}
	
		.st15{fill-rule:evenodd;clip-rule:evenodd;fill:#00AEBC;stroke:#263238;stroke-width:1.1445;stroke-linecap:round;stroke-linejoin:round;}
	.st16{fill:#BFBFBF;}
	.st17{fill:none;stroke:#FFFFFF;stroke-width:1.1445;stroke-linecap:round;stroke-linejoin:round;}
	.st18{opacity:0.4;fill:#00AEBC;}
</style>
<g id="freepik--background-simple--inject-86">
	<path class="st0" d="M67.9,167.1c0,0-27.9,72,11.3,144.5s119.9,110.8,184.5,143.6s131.7,16.8,163.5-36.8s-11.8-91.9-11.9-168.4
		s11.5-96.7-30-161.4s-143.1-78.9-219.9-31S67.9,167.1,67.9,167.1z"/>
	<path class="st1" d="M248.1,26.1C25.6,38.6-22.1,333.7,52.4,423.9c57.8,70,160.9,58.5,215.4-10.1c44.8-56.5,117.4-14.8,177.2-75.8
		C522.8,258.5,497.8,12.2,248.1,26.1z"/>
	<path class="st0" d="M248.1,26.1C25.6,38.6-22.1,333.7,52.4,423.9c57.8,70,160.9,58.5,215.4-10.1c44.8-56.5,117.4-14.8,177.2-75.8
		C522.8,258.5,497.8,12.2,248.1,26.1z"/>
</g>
<g id="freepik--Interface--inject-86">
	<path class="st1" d="M462.3,43.9v308.3c0,1.7-1.4,3.1-3.1,3.1H274.2c-1.7,0-3.1-1.4-3.1-3.1V43.9c0-1.7,1.4-3.1,3.1-3.1h51.1
		l1.7,5.7h79.7l1.7-5.7h51C461,40.8,462.3,42.2,462.3,43.9z"/>
	<g>
		<defs>
			<path id="SVGID_1_" d="M462.3,43.9v308.3c0,1.7-1.4,3.1-3.1,3.1H274.2c-1.7,0-3.1-1.4-3.1-3.1V43.9c0-1.7,1.4-3.1,3.1-3.1h51.1
				l1.7,5.7h79.7l1.7-5.7h51C461,40.8,462.3,42.2,462.3,43.9z"/>
		</defs>
		<clipPath id="SVGID_00000103957552247209669030000001038114350004771722_">
			<use xlink:href="#SVGID_1_"  style="overflow:visible;"/>
		</clipPath>
		<g style="clip-path:url(#SVGID_00000103957552247209669030000001038114350004771722_);">
			<path class="st3" d="M462.3,70.6v281.6c0,1.7-1.4,3.1-3.1,3.1H274.2c-1.7,0-3.1-1.4-3.1-3.1V70.6H462.3z"/>
			<g class="st4">
				<path d="M429.9,99.2H270.8v69.2h159.1c2.1,0,3.7-1.7,3.7-3.7v-61.8C433.6,100.9,431.9,99.2,429.9,99.2z"/>
				<path d="M413.4,173H270.8v72.7h142.6c2.2,0,3.9-1.7,3.9-3.9l0,0v-64.9C417.3,174.7,415.6,173,413.4,173
					C413.4,173,413.4,173,413.4,173z"/>
				<path d="M429.9,244.3H270.8v69.2h159.1c2,0,3.7-1.7,3.7-3.7V248C433.6,245.9,431.9,244.3,429.9,244.3z"/>
				<path d="M433.6,320.5v34.8H274.2c-1.7,0-3.1-1.4-3.1-3.1v-35.4h158.8C431.9,316.8,433.6,318.5,433.6,320.5z"/>
				<path d="M448.5,103.4v17.8c0,1.5-0.8,2.9-2.1,3.6v230.4h-4.2V124.8c-1.3-0.8-2.1-2.1-2.1-3.6v-17.7c0.1-2.3,2.1-4.1,4.4-4
					C446.7,99.6,448.4,101.3,448.5,103.4L448.5,103.4z"/>
			</g>
		</g>
	</g>
	<path class="st5" d="M462.3,43.9v308.3c0,1.7-1.4,3.1-3.1,3.1H274.2c-1.7,0-3.1-1.4-3.1-3.1V43.9c0-1.7,1.4-3.1,3.1-3.1h51.1
		l1.7,5.7h79.7l1.7-5.7h51C461,40.8,462.3,42.2,462.3,43.9z"/>
	<line class="st5" x1="271.1" y1="70.8" x2="462.3" y2="70.8"/>
	<path class="st6" d="M252.9,90.4h157c2.1,0,3.7,1.7,3.7,3.7v58.4c0,2.1-1.7,3.7-3.7,3.7h-157c-2.1,0-3.7-1.7-3.7-3.7V94.2
		C249.2,92.1,250.8,90.4,252.9,90.4z"/>
	<g>
		<defs>
			<path id="SVGID_00000101786669745786761360000007177325365274931090_" d="M252.9,90.4h157c2.1,0,3.7,1.7,3.7,3.7v58.4
				c0,2.1-1.7,3.7-3.7,3.7h-157c-2.1,0-3.7-1.7-3.7-3.7V94.2C249.2,92.1,250.8,90.4,252.9,90.4z"/>
		</defs>
		<clipPath id="SVGID_00000109021268769166883590000014078141874559947925_">
			<use xlink:href="#SVGID_00000101786669745786761360000007177325365274931090_"  style="overflow:visible;"/>
		</clipPath>
		<g style="clip-path:url(#SVGID_00000109021268769166883590000014078141874559947925_);">
			<g>
				<g>
					<path class="st1" d="M366.7,133.1c-0.2,0-0.2,0-0.2,0c0,0-0.1,0-0.1,0.1c-0.1,0-0.2,0.1-0.3,0.1c-0.2,0.1-0.4,0.3-0.7,0.4
						c-0.2,0.1-0.5,0.3-0.6,0.4c-0.1,0.1-0.2,0.1-0.2,0.1c0,0,0,0-0.1,0c0,0,0.1,0,0,0c-0.1,0,0,0,0,0c0,0,0,0-0.1,0
						c-0.1,0-0.2,0-0.3,0.1c-0.2,0-0.5,0.1-0.7,0.2c-0.3,0.1-0.5,0.1-0.7,0.2c-0.1,0-0.2,0.1-0.3,0.1c0,0-0.1,0-0.1,0
						s-0.1,0-0.2,0.1c-0.1,0.1-0.1,0.2-0.1,0.2c0,0,0,0.1,0,0.1c0,0.1-0.1,0.2-0.1,0.3c-0.1,0.2-0.1,0.5-0.2,0.7
						c-0.1,0.3-0.1,0.5-0.2,0.7c0,0.1,0,0.2-0.1,0.3c0,0,0,0,0,0.1c0,0,0-0.1,0,0c0,0.1,0,0,0,0c0,0,0,0,0,0.1
						c0,0.1-0.1,0.1-0.1,0.2c-0.1,0.2-0.3,0.4-0.4,0.6c-0.1,0.2-0.3,0.5-0.4,0.7c-0.1,0.1-0.1,0.2-0.1,0.3c0,0,0,0.1-0.1,0.1
						c0,0,0,0.1,0,0.2s0,0.2,0,0.2c0,0,0,0.1,0.1,0.1c0,0.1,0.1,0.2,0.1,0.3c0.1,0.2,0.3,0.4,0.4,0.7c0.1,0.2,0.3,0.5,0.4,0.6
						c0.1,0.1,0.1,0.2,0.1,0.2c0,0,0,0,0,0.1c0,0,0-0.1,0,0c0,0.1,0,0,0,0c0,0,0,0,0,0.1c0,0.1,0,0.2,0.1,0.3c0,0.2,0.1,0.5,0.2,0.7
						c0.1,0.3,0.1,0.5,0.2,0.7c0,0.1,0.1,0.2,0.1,0.3c0,0,0,0.1,0,0.1s0,0.1,0.1,0.2c0.1,0.1,0.2,0.1,0.2,0.1c0,0,0.1,0,0.1,0
						c0.1,0,0.2,0.1,0.3,0.1c0.2,0.1,0.5,0.1,0.7,0.2s0.5,0.1,0.7,0.2c0.1,0,0.2,0,0.3,0.1c0,0,0,0,0.1,0c0,0-0.1,0,0,0
						c0.1,0,0,0,0,0c0,0,0,0,0.1,0c0.1,0,0.1,0.1,0.2,0.1c0.2,0.1,0.4,0.3,0.6,0.4c0.2,0.1,0.5,0.3,0.7,0.4c0.1,0.1,0.2,0.1,0.3,0.1
						c0,0,0.1,0,0.1,0.1c0,0,0.1,0,0.2,0c0.2,0,0.2,0,0.2,0c0,0,0.1,0,0.1-0.1c0.1,0,0.2-0.1,0.3-0.1c0.2-0.1,0.4-0.3,0.7-0.4
						c0.2-0.1,0.5-0.3,0.6-0.4c0.1-0.1,0.2-0.1,0.2-0.1c0,0,0,0,0.1,0c0,0-0.1,0,0,0c0.1,0,0,0,0,0c0,0,0,0,0.1,0
						c0.1,0,0.2,0,0.3-0.1c0.2,0,0.5-0.1,0.7-0.2c0.3-0.1,0.5-0.1,0.7-0.2c0.1,0,0.2-0.1,0.3-0.1c0,0,0.1,0,0.1,0c0,0,0.1,0,0.2-0.1
						c0.1-0.1,0.1-0.2,0.1-0.2c0,0,0-0.1,0-0.1c0-0.1,0.1-0.2,0.1-0.3c0.1-0.2,0.1-0.5,0.2-0.7c0.1-0.3,0.1-0.5,0.2-0.7
						c0-0.1,0-0.2,0.1-0.3c0,0,0,0,0-0.1c0,0,0,0.1,0,0c0-0.1,0,0,0,0c0,0,0,0,0-0.1c0-0.1,0.1-0.1,0.1-0.2c0.1-0.2,0.3-0.4,0.4-0.6
						s0.3-0.5,0.4-0.7c0.1-0.1,0.1-0.2,0.1-0.3c0,0,0-0.1,0.1-0.1c0,0,0-0.1,0-0.2c0-0.2,0-0.2,0-0.2c0,0,0-0.1-0.1-0.1
						c0-0.1-0.1-0.2-0.1-0.3c-0.1-0.2-0.3-0.4-0.4-0.7s-0.3-0.5-0.4-0.6c-0.1-0.1-0.1-0.2-0.1-0.2c0,0,0,0,0-0.1c0,0,0,0.1,0,0
						c0-0.1,0,0,0,0c0,0,0,0,0-0.1c0-0.1,0-0.2-0.1-0.3c0-0.2-0.1-0.5-0.2-0.7c-0.1-0.3-0.1-0.5-0.2-0.7c0-0.1-0.1-0.2-0.1-0.3
						c0,0,0-0.1,0-0.1s0-0.1-0.1-0.2c-0.1-0.1-0.2-0.1-0.2-0.1s-0.1,0-0.1,0c-0.1,0-0.2-0.1-0.3-0.1c-0.2-0.1-0.5-0.1-0.7-0.2
						c-0.3-0.1-0.5-0.1-0.7-0.2c-0.1,0-0.2,0-0.3-0.1c0,0,0,0-0.1,0c0,0,0.1,0,0,0c-0.1,0,0,0,0,0c0,0,0,0-0.1,0
						c-0.1,0-0.1-0.1-0.2-0.1c-0.2-0.1-0.4-0.3-0.6-0.4c-0.2-0.1-0.5-0.3-0.7-0.4c-0.1-0.1-0.2-0.1-0.3-0.1c0,0-0.1,0-0.1-0.1
						C366.9,133.2,366.8,133.1,366.7,133.1L366.7,133.1z M366.7,134.3C366.7,134.3,366.7,134.3,366.7,134.3c0.3,0.1,0.5,0.3,0.7,0.4
						c0.2,0.1,0.5,0.3,0.6,0.4c0.1,0.1,0.2,0.1,0.2,0.1s0.1,0.1,0.2,0.1c0.1,0,0.1,0,0.2,0.1c0.1,0,0.2,0,0.3,0.1
						c0.2,0,0.5,0.1,0.7,0.2c0.3,0.1,0.5,0.1,0.7,0.2c0,0,0.1,0,0.1,0c0,0,0,0.1,0,0.1c0.1,0.2,0.1,0.5,0.2,0.7
						c0.1,0.3,0.1,0.5,0.2,0.7c0,0.1,0,0.2,0.1,0.3c0,0.1,0,0.1,0.1,0.2c0,0.1,0.1,0.1,0.1,0.2c0,0.1,0.1,0.1,0.1,0.2
						c0.1,0.2,0.3,0.4,0.4,0.6c0.1,0.2,0.3,0.5,0.4,0.6c0,0,0,0.1,0,0.1c0,0,0,0,0,0.1c-0.1,0.2-0.2,0.4-0.4,0.6
						c-0.1,0.2-0.3,0.5-0.4,0.6c-0.1,0.1-0.1,0.2-0.1,0.2c0,0.1-0.1,0.1-0.1,0.2c0,0.1,0,0.1-0.1,0.2c0,0.1,0,0.2-0.1,0.3
						c0,0.2-0.1,0.5-0.2,0.7c-0.1,0.3-0.1,0.5-0.2,0.7c0,0,0,0.1,0,0.1c0,0-0.1,0-0.1,0c-0.2,0.1-0.5,0.1-0.7,0.2
						c-0.3,0.1-0.5,0.1-0.7,0.2c-0.1,0-0.2,0-0.3,0.1c-0.1,0-0.1,0-0.2,0.1c-0.1,0-0.1,0.1-0.2,0.1c-0.1,0-0.1,0.1-0.2,0.1
						c-0.2,0.1-0.4,0.3-0.6,0.4c-0.2,0.1-0.5,0.3-0.6,0.4c0,0-0.1,0-0.1,0c0,0,0,0-0.1,0c-0.2-0.1-0.4-0.2-0.6-0.4
						c-0.2-0.1-0.5-0.3-0.6-0.4c-0.1-0.1-0.2-0.1-0.2-0.1c-0.1,0-0.1-0.1-0.2-0.1c-0.1,0-0.1,0-0.2-0.1c-0.1,0-0.2,0-0.3-0.1
						c-0.2,0-0.5-0.1-0.7-0.2c-0.3-0.1-0.5-0.1-0.7-0.2c0,0-0.1,0-0.1,0c0,0,0-0.1,0-0.1c-0.1-0.2-0.1-0.5-0.2-0.7
						c-0.1-0.3-0.1-0.5-0.2-0.7c0-0.1,0-0.2-0.1-0.3c0-0.1,0-0.1-0.1-0.2c0-0.1-0.1-0.1-0.1-0.2c0-0.1-0.1-0.1-0.1-0.2
						c-0.1-0.2-0.3-0.4-0.4-0.6c-0.1-0.2-0.3-0.5-0.4-0.6c0,0,0-0.1,0-0.1c0,0,0,0,0-0.1c0.1-0.2,0.2-0.4,0.4-0.6s0.3-0.5,0.4-0.6
						c0.1-0.1,0.1-0.2,0.1-0.2c0-0.1,0.1-0.1,0.1-0.2c0-0.1,0-0.1,0.1-0.2c0-0.1,0-0.2,0.1-0.3c0-0.2,0.1-0.5,0.2-0.7
						c0.1-0.3,0.1-0.5,0.2-0.7c0,0,0-0.1,0-0.1c0,0,0.1,0,0.1,0c0.2-0.1,0.5-0.1,0.7-0.2c0.3-0.1,0.5-0.1,0.7-0.2
						c0.1,0,0.2,0,0.3-0.1c0.1,0,0.1,0,0.2-0.1c0.1,0,0.1-0.1,0.2-0.1c0.1,0,0.1-0.1,0.2-0.1c0.2-0.1,0.4-0.3,0.6-0.4
						S366.4,134.4,366.7,134.3C366.6,134.3,366.6,134.3,366.7,134.3L366.7,134.3z M369,137.3c-0.1,0-0.3,0.1-0.4,0.2l-2.7,3l-1.1-1
						l0,0c-0.2-0.2-0.6-0.2-0.8,0.1c-0.1,0.1-0.1,0.3-0.1,0.4c0,0.1,0.1,0.3,0.2,0.4l1.6,1.3c0.2,0.2,0.6,0.2,0.8-0.1l3-3.4
						c0.2-0.2,0.2-0.6,0-0.8C369.3,137.4,369.2,137.3,369,137.3L369,137.3z"/>
				</g>
				<g>
					<g>
						<path class="st8" d="M400.2,133.5c3.4,0,6.2,2.8,6.2,6.2s-2.8,6.2-6.2,6.2s-6.2-2.8-6.2-6.2S396.8,133.5,400.2,133.5z
							 M399.8,136v3.6c0,0.1,0,0.2,0.1,0.3l2.2,2.2c0.1,0.1,0.4,0.1,0.5,0s0.1-0.4,0-0.5l-2.1-2.1V136c0-0.2-0.2-0.4-0.4-0.4
							S399.8,135.8,399.8,136L399.8,136z"/>
					</g>
				</g>
				<g>
					<path class="st1" d="M383.4,133.5c-0.2,0-0.4,0.2-0.4,0.4s0.2,0.4,0.4,0.4c2.9,0,5.3,2.4,5.3,5.3s-2.4,5.3-5.3,5.3
						c-2.9,0-5.3-2.4-5.3-5.3c0-2.6,1.8-4.7,4.2-5.2c0.1,0,0.2-0.1,0.3-0.2c0.1-0.1,0.1-0.2,0.1-0.3c0-0.1-0.1-0.2-0.2-0.3
						c-0.1-0.1-0.2-0.1-0.3,0c-2.8,0.6-4.8,3.1-4.8,6c0,3.4,2.8,6.2,6.2,6.2s6.2-2.8,6.2-6.2S386.8,133.5,383.4,133.5
						C383.4,133.5,383.4,133.5,383.4,133.5L383.4,133.5z M383.5,136.5c-0.5,0-1,0.1-1.4,0.5c-0.4,0.3-0.6,0.8-0.6,1.3v0
						c0,0.4,0.1,0.7,0.2,1h-0.2c0,0,0,0,0,0c-0.1,0-0.2,0.1-0.3,0.1c-0.1,0.1-0.1,0.2-0.1,0.3c0,0.1,0.1,0.2,0.1,0.3
						c0.1,0.1,0.2,0.1,0.3,0.1h0.6c0,0.1,0,0.2,0,0.4c0,0.3-0.1,0.5-0.2,0.7c-0.1,0.2-0.3,0.3-0.6,0.5c-0.2,0.1-0.2,0.4-0.1,0.5
						l0.1,0.3c0.1,0.1,0.1,0.2,0.3,0.2c0.1,0,0.2,0,0.3,0c0.3-0.2,0.4-0.2,0.6-0.2c0.2,0,0.5,0.1,0.8,0.2c0.3,0.1,0.6,0.2,1,0.2
						c0.4,0,0.8-0.1,1.1-0.3c0.2-0.1,0.3-0.4,0.2-0.6c-0.1-0.2-0.4-0.3-0.6-0.2c-0.3,0.2-0.6,0.2-0.8,0.2c-0.2,0-0.5-0.1-0.7-0.2
						c-0.3-0.1-0.6-0.2-1-0.2c0.2-0.3,0.3-0.6,0.3-1.1c0-0.2,0-0.3,0-0.4h1c0.1,0,0.2,0,0.3-0.1c0.1-0.1,0.1-0.2,0.1-0.3
						c0-0.1,0-0.2-0.1-0.3c-0.1-0.1-0.2-0.1-0.3-0.1h-1.3c0-0.1-0.1-0.1-0.1-0.1c-0.2-0.3-0.3-0.4-0.3-0.8c0-0.3,0.1-0.6,0.3-0.7
						c0.2-0.2,0.5-0.3,0.8-0.3c0.4,0,1,0.3,1.1,0.8c0,0.1,0.1,0.2,0.2,0.3c0.1,0.1,0.2,0.1,0.3,0.1s0.2-0.1,0.3-0.2
						c0.1-0.1,0.1-0.2,0-0.3C385.1,137,384.2,136.5,383.5,136.5L383.5,136.5z"/>
				</g>
			</g>
			<rect x="257.2" y="98.1" class="st9" width="53.5" height="50.5"/>
			<path class="st10" d="M370.1,102.5h-47.8c-1.2,0-2.2-1-2.2-2.2l0,0c0-1.2,1-2.2,2.2-2.2h47.8c1.2,0,2.2,1,2.2,2.2l0,0
				C372.2,101.6,371.3,102.5,370.1,102.5z"/>
			<path class="st10" d="M341.9,112.3h-19.7c-1.2,0-2.2-1-2.2-2.2l0,0c0-1.2,1-2.2,2.2-2.2h19.7c1.2,0,2.2,1,2.2,2.2l0,0
				C344.1,111.4,343.1,112.3,341.9,112.3z"/>
			<path class="st11" d="M405.4,144.6H249.2v8c0,2.1,1.7,3.7,3.7,3.7h156.1v-8.1C408.9,146.2,407.3,144.6,405.4,144.6z"/>
		</g>
	</g>
	<path class="st5" d="M252.9,90.4h157c2.1,0,3.7,1.7,3.7,3.7v58.4c0,2.1-1.7,3.7-3.7,3.7h-157c-2.1,0-3.7-1.7-3.7-3.7V94.2
		C249.2,92.1,250.8,90.4,252.9,90.4z"/>
	<path class="st6" d="M413.6,232.2v58.4c0,2-1.7,3.7-3.7,3.7h0h-157c-2,0-3.7-1.6-3.7-3.7v0v-58.4c0-2,1.7-3.7,3.7-3.7h157
		C411.9,228.5,413.5,230.1,413.6,232.2z"/>
	<g>
		<defs>
			<path id="SVGID_00000070089063760727362380000009695227880401588647_" d="M413.6,232.2v58.4c0,2-1.7,3.7-3.7,3.7h0h-157
				c-2,0-3.7-1.6-3.7-3.7v0v-58.4c0-2,1.7-3.7,3.7-3.7h157C411.9,228.5,413.5,230.1,413.6,232.2z"/>
		</defs>
		<clipPath id="SVGID_00000119823187225062605150000014285615340346365370_">
			<use xlink:href="#SVGID_00000070089063760727362380000009695227880401588647_"  style="overflow:visible;"/>
		</clipPath>
		<g style="clip-path:url(#SVGID_00000119823187225062605150000014285615340346365370_);">
			<rect x="257.2" y="236.1" class="st9" width="53.5" height="50.5"/>
			<path class="st10" d="M370.1,240.6h-47.8c-1.2,0-2.2-1-2.2-2.2l0,0c0-1.2,1-2.2,2.2-2.2h47.8c1.2,0,2.2,1,2.2,2.2l0,0
				C372.2,239.6,371.3,240.6,370.1,240.6z"/>
			<path class="st10" d="M321.9,245.9h20.3c1.1,0,1.9,0.9,1.9,1.9v0.6c0,1.1-0.9,1.9-1.9,1.9h-20.3c-1.1,0-1.9-0.9-1.9-1.9v-0.6
				C320,246.8,320.9,245.9,321.9,245.9z"/>
			<g>
				<path class="st13" d="M301.8,253.9c-2.5,1.6-5.3,0.9-5.3,0.9c6,0.8,10.3-10.6,4.9-7.4c-5.3,3.2-10.9-0.8-20.1-1.2
					c-3.1-0.1-5.4,0.6-7,1.7c3.2-0.4,7.9-0.7,11.2,0.2c5.5,1.4,11.5,3,14.6,1.6c0,0-2.7,2.7-10.7,0.6c-8.1-2.1-8.8-1.8-11.1-1.5
					c-5.3,0.6-6.7,2.1-6.7,2.1c5.3,0.1,8.4,4.6,8.4,4.6c-0.7-0.9-2.9-1.8-4-2.2c-1.4-0.6-3-0.9-4.6-0.8c-3.5,0.4-5.8,3.6-6.1,6.9
					c-0.9,9.7,4.4,15.9,4.4,15.9s4.8-2.9,5.5-14.6c-0.1,1.4,1.5,3.4,2.4,4.3c2.6,2.6,9.1,4.5,12,1.2c0.8-1,1.1-2.3,1.1-3.5
					c0-0.3,0.1-1.7-0.2-2c0,0,4.2,3.1,4.3,9c0.1,6,2.7,5.6,2.7,5.6c3.4-14.3-2.3-15.5-2.7-15.6C302.5,261.3,304.3,252.3,301.8,253.9
					L301.8,253.9z"/>
			</g>
			<path class="st11" d="M408.9,228.5H252.9c-2,0-3.7,1.7-3.7,3.7v22.2h156.2c2,0,3.6-1.6,3.6-3.6V228.5z"/>
			<g>
				<g>
					<path class="st1" d="M366.7,273.4c-0.2,0-0.2,0-0.2,0c0,0-0.1,0-0.1,0.1c-0.1,0-0.2,0.1-0.3,0.1c-0.2,0.1-0.4,0.3-0.7,0.4
						c-0.2,0.1-0.5,0.3-0.6,0.4c-0.1,0.1-0.2,0.1-0.2,0.1c0,0,0,0-0.1,0c0,0,0.1,0,0,0c-0.1,0,0,0,0,0c0,0,0,0-0.1,0
						c-0.1,0-0.2,0-0.3,0.1c-0.2,0-0.5,0.1-0.7,0.2c-0.3,0.1-0.5,0.1-0.7,0.2c-0.1,0-0.2,0.1-0.3,0.1c0,0-0.1,0-0.1,0
						s-0.1,0-0.2,0.1c-0.1,0.1-0.1,0.2-0.1,0.2c0,0,0,0.1,0,0.1c0,0.1-0.1,0.2-0.1,0.3c-0.1,0.2-0.1,0.5-0.2,0.7
						c-0.1,0.3-0.1,0.5-0.2,0.7c0,0.1,0,0.2-0.1,0.3c0,0,0,0,0,0.1c0,0,0-0.1,0,0c0,0.1,0,0,0,0c0,0,0,0,0,0.1
						c0,0.1-0.1,0.1-0.1,0.2c-0.1,0.2-0.3,0.4-0.4,0.6c-0.1,0.2-0.3,0.5-0.4,0.7c-0.1,0.1-0.1,0.2-0.1,0.3c0,0,0,0.1-0.1,0.1
						c0,0,0,0.1,0,0.2s0,0.2,0,0.2c0,0,0,0.1,0.1,0.1c0,0.1,0.1,0.2,0.1,0.3c0.1,0.2,0.3,0.4,0.4,0.7c0.1,0.2,0.3,0.5,0.4,0.6
						c0.1,0.1,0.1,0.2,0.1,0.2c0,0,0,0,0,0.1c0,0,0-0.1,0,0c0,0.1,0,0,0,0c0,0,0,0,0,0.1c0,0.1,0,0.2,0.1,0.3c0,0.2,0.1,0.5,0.2,0.7
						c0.1,0.3,0.1,0.5,0.2,0.7c0,0.1,0.1,0.2,0.1,0.3c0,0,0,0.1,0,0.1s0,0.1,0.1,0.2c0.1,0.1,0.2,0.1,0.2,0.1c0,0,0.1,0,0.1,0
						c0.1,0,0.2,0.1,0.3,0.1c0.2,0.1,0.5,0.1,0.7,0.2c0.3,0.1,0.5,0.1,0.7,0.2c0.1,0,0.2,0,0.3,0.1c0,0,0,0,0.1,0c0,0-0.1,0,0,0
						c0.1,0,0,0,0,0c0,0,0,0,0.1,0c0.1,0,0.1,0.1,0.2,0.1c0.2,0.1,0.4,0.3,0.6,0.4c0.2,0.1,0.5,0.3,0.7,0.4c0.1,0.1,0.2,0.1,0.3,0.1
						c0,0,0.1,0,0.1,0.1c0,0,0.1,0,0.2,0c0.2,0,0.2,0,0.2,0c0,0,0.1,0,0.1-0.1c0.1,0,0.2-0.1,0.3-0.1c0.2-0.1,0.4-0.3,0.7-0.4
						c0.2-0.1,0.5-0.3,0.6-0.4c0.1-0.1,0.2-0.1,0.2-0.1c0,0,0,0,0.1,0c0,0-0.1,0,0,0c0.1,0,0,0,0,0c0,0,0,0,0.1,0
						c0.1,0,0.2,0,0.3-0.1c0.2,0,0.5-0.1,0.7-0.2c0.3-0.1,0.5-0.1,0.7-0.2c0.1,0,0.2-0.1,0.3-0.1c0,0,0.1,0,0.1,0s0.1,0,0.2-0.1
						c0.1-0.1,0.1-0.2,0.1-0.2s0-0.1,0-0.1c0-0.1,0.1-0.2,0.1-0.3c0.1-0.2,0.1-0.5,0.2-0.7c0.1-0.3,0.1-0.5,0.2-0.7
						c0-0.1,0-0.2,0.1-0.3c0,0,0,0,0-0.1c0,0,0,0.1,0,0c0-0.1,0,0,0,0c0,0,0,0,0-0.1c0-0.1,0.1-0.1,0.1-0.2c0.1-0.2,0.3-0.4,0.4-0.6
						c0.1-0.2,0.3-0.5,0.4-0.7c0.1-0.1,0.1-0.2,0.1-0.3c0,0,0-0.1,0.1-0.1c0,0,0-0.1,0-0.2c0-0.2,0-0.2,0-0.2c0,0,0-0.1-0.1-0.1
						c0-0.1-0.1-0.2-0.1-0.3c-0.1-0.2-0.3-0.4-0.4-0.7s-0.3-0.5-0.4-0.6c-0.1-0.1-0.1-0.2-0.1-0.2c0,0,0,0,0-0.1c0,0,0,0.1,0,0
						c0-0.1,0,0,0,0c0,0,0,0,0-0.1c0-0.1,0-0.2-0.1-0.3c0-0.2-0.1-0.5-0.2-0.7c-0.1-0.3-0.1-0.5-0.2-0.7c0-0.1-0.1-0.2-0.1-0.3
						c0,0,0-0.1,0-0.1s0-0.1-0.1-0.2c-0.1-0.1-0.2-0.1-0.2-0.1c0,0-0.1,0-0.1,0c-0.1,0-0.2-0.1-0.3-0.1c-0.2-0.1-0.5-0.1-0.7-0.2
						c-0.3-0.1-0.5-0.1-0.7-0.2c-0.1,0-0.2,0-0.3-0.1c0,0,0,0-0.1,0c0,0,0.1,0,0,0c-0.1,0,0,0,0,0c0,0,0,0-0.1,0
						c-0.1,0-0.1-0.1-0.2-0.1c-0.2-0.1-0.4-0.3-0.6-0.4c-0.2-0.1-0.5-0.3-0.7-0.4c-0.1-0.1-0.2-0.1-0.3-0.1c0,0-0.1,0-0.1-0.1
						C366.9,273.4,366.8,273.4,366.7,273.4L366.7,273.4z M366.7,274.5C366.7,274.5,366.7,274.5,366.7,274.5c0.3,0.1,0.5,0.3,0.7,0.4
						c0.2,0.1,0.5,0.3,0.6,0.4c0.1,0.1,0.2,0.1,0.2,0.1c0.1,0,0.1,0.1,0.2,0.1c0.1,0,0.1,0,0.2,0.1s0.2,0,0.3,0.1
						c0.2,0,0.5,0.1,0.7,0.2c0.3,0.1,0.5,0.1,0.7,0.2c0,0,0.1,0,0.1,0c0,0,0,0.1,0,0.1c0.1,0.2,0.1,0.5,0.2,0.7
						c0.1,0.3,0.1,0.5,0.2,0.7c0,0.1,0,0.2,0.1,0.3c0,0.1,0,0.1,0.1,0.2c0,0.1,0.1,0.1,0.1,0.2c0,0.1,0.1,0.1,0.1,0.2
						c0.1,0.2,0.3,0.4,0.4,0.6c0.1,0.2,0.3,0.5,0.4,0.6c0,0,0,0.1,0,0.1c0,0,0,0,0,0.1c-0.1,0.2-0.2,0.4-0.4,0.6
						c-0.1,0.2-0.3,0.5-0.4,0.6c-0.1,0.1-0.1,0.2-0.1,0.2c0,0.1-0.1,0.1-0.1,0.2c0,0.1,0,0.1-0.1,0.2s0,0.2-0.1,0.3
						c0,0.2-0.1,0.5-0.2,0.7c-0.1,0.3-0.1,0.5-0.2,0.7c0,0,0,0.1,0,0.1c0,0-0.1,0-0.1,0c-0.2,0.1-0.5,0.1-0.7,0.2
						c-0.3,0.1-0.5,0.1-0.7,0.2c-0.1,0-0.2,0-0.3,0.1c-0.1,0-0.1,0-0.2,0.1c-0.1,0-0.1,0.1-0.2,0.1c-0.1,0-0.1,0.1-0.2,0.1
						c-0.2,0.1-0.4,0.3-0.6,0.4c-0.2,0.1-0.5,0.3-0.6,0.4c0,0-0.1,0-0.1,0c0,0,0,0-0.1,0c-0.2-0.1-0.4-0.2-0.6-0.4
						c-0.2-0.1-0.5-0.3-0.6-0.4c-0.1-0.1-0.2-0.1-0.2-0.1c-0.1,0-0.1-0.1-0.2-0.1c-0.1,0-0.1,0-0.2-0.1s-0.2,0-0.3-0.1
						c-0.2,0-0.5-0.1-0.7-0.2c-0.3-0.1-0.5-0.1-0.7-0.2c0,0-0.1,0-0.1,0c0,0,0-0.1,0-0.1c-0.1-0.2-0.1-0.5-0.2-0.7
						c-0.1-0.3-0.1-0.5-0.2-0.7c0-0.1,0-0.2-0.1-0.3c0-0.1,0-0.1-0.1-0.2c0-0.1-0.1-0.1-0.1-0.2s-0.1-0.1-0.1-0.2
						c-0.1-0.2-0.3-0.4-0.4-0.6s-0.3-0.5-0.4-0.6c0,0,0-0.1,0-0.1c0,0,0,0,0-0.1c0.1-0.2,0.2-0.4,0.4-0.6c0.1-0.2,0.3-0.5,0.4-0.6
						c0.1-0.1,0.1-0.2,0.1-0.2c0-0.1,0.1-0.1,0.1-0.2c0-0.1,0-0.1,0.1-0.2s0-0.2,0.1-0.3c0-0.2,0.1-0.5,0.2-0.7
						c0.1-0.3,0.1-0.5,0.2-0.7c0,0,0-0.1,0-0.1c0,0,0.1,0,0.1,0c0.2-0.1,0.5-0.1,0.7-0.2c0.3-0.1,0.5-0.1,0.7-0.2
						c0.1,0,0.2,0,0.3-0.1c0.1,0,0.1,0,0.2-0.1c0.1,0,0.1-0.1,0.2-0.1c0.1,0,0.1-0.1,0.2-0.1c0.2-0.1,0.4-0.3,0.6-0.4
						S366.4,274.7,366.7,274.5C366.6,274.5,366.6,274.5,366.7,274.5L366.7,274.5z M369,277.6c-0.1,0-0.3,0.1-0.4,0.2l-2.7,3l-1.1-1
						l0,0c-0.2-0.2-0.6-0.2-0.8,0.1c-0.1,0.1-0.1,0.3-0.1,0.4c0,0.1,0.1,0.3,0.2,0.4l1.6,1.3c0.2,0.2,0.6,0.2,0.8-0.1l3-3.4
						c0.2-0.2,0.2-0.6,0-0.8C369.3,277.6,369.2,277.6,369,277.6L369,277.6z"/>
				</g>
				<g>
					<g>
						<path class="st8" d="M400.2,273.8c3.4,0,6.2,2.8,6.2,6.2s-2.8,6.2-6.2,6.2s-6.2-2.8-6.2-6.2S396.8,273.8,400.2,273.8z
							 M399.8,276.3v3.6c0,0.1,0,0.2,0.1,0.3l2.2,2.2c0.1,0.1,0.4,0.1,0.5,0s0.1-0.4,0-0.5l-2.1-2.1v-3.5c0-0.2-0.2-0.4-0.4-0.4
							S399.8,276.1,399.8,276.3L399.8,276.3z"/>
					</g>
				</g>
				<g>
					<path class="st1" d="M383.4,273.8c-0.2,0-0.4,0.2-0.4,0.4s0.2,0.4,0.4,0.4c2.9,0,5.3,2.4,5.3,5.3c0,2.9-2.4,5.3-5.3,5.3
						c-2.9,0-5.3-2.4-5.3-5.3c0-2.6,1.8-4.7,4.2-5.2c0.1,0,0.2-0.1,0.3-0.2c0.1-0.1,0.1-0.2,0.1-0.3c0-0.1-0.1-0.2-0.2-0.3
						c-0.1-0.1-0.2-0.1-0.3,0c-2.8,0.6-4.8,3.1-4.8,6c0,3.4,2.8,6.2,6.2,6.2s6.2-2.8,6.2-6.2C389.6,276.5,386.8,273.8,383.4,273.8
						C383.4,273.8,383.4,273.8,383.4,273.8L383.4,273.8z M383.5,276.8c-0.5,0-1,0.1-1.4,0.5s-0.6,0.8-0.6,1.3v0c0,0.4,0.1,0.7,0.2,1
						h-0.2c0,0,0,0,0,0c-0.1,0-0.2,0.1-0.3,0.1c-0.1,0.1-0.1,0.2-0.1,0.3c0,0.1,0.1,0.2,0.1,0.3c0.1,0.1,0.2,0.1,0.3,0.1h0.6
						c0,0.1,0,0.2,0,0.4c0,0.3-0.1,0.5-0.2,0.7c-0.1,0.2-0.3,0.3-0.6,0.5c-0.2,0.1-0.2,0.4-0.1,0.5l0.1,0.3c0.1,0.1,0.1,0.2,0.3,0.2
						c0.1,0,0.2,0,0.3,0c0.3-0.2,0.4-0.2,0.6-0.2c0.2,0,0.5,0.1,0.8,0.2s0.6,0.2,1,0.2c0.4,0,0.8-0.1,1.1-0.3
						c0.2-0.1,0.3-0.4,0.2-0.6c-0.1-0.2-0.4-0.3-0.6-0.2c-0.3,0.2-0.6,0.2-0.8,0.2c-0.2,0-0.5-0.1-0.7-0.2c-0.3-0.1-0.6-0.2-1-0.2
						c0.2-0.3,0.3-0.6,0.3-1.1c0-0.2,0-0.3,0-0.4h1c0.1,0,0.2,0,0.3-0.1c0.1-0.1,0.1-0.2,0.1-0.3s0-0.2-0.1-0.3
						c-0.1-0.1-0.2-0.1-0.3-0.1h-1.3c0-0.1-0.1-0.1-0.1-0.1c-0.2-0.3-0.3-0.4-0.3-0.8c0-0.3,0.1-0.6,0.3-0.7
						c0.2-0.2,0.5-0.3,0.8-0.3c0.4,0,1,0.3,1.1,0.8c0,0.1,0.1,0.2,0.2,0.3c0.1,0.1,0.2,0.1,0.3,0.1c0.1,0,0.2-0.1,0.3-0.2
						c0.1-0.1,0.1-0.2,0-0.3C385.1,277.3,384.2,276.8,383.5,276.8L383.5,276.8z"/>
				</g>
			</g>
		</g>
	</g>
	<path class="st5" d="M413.6,232.2v58.4c0,2-1.7,3.7-3.7,3.7h0h-157c-2,0-3.7-1.6-3.7-3.7v0v-58.4c0-2,1.7-3.7,3.7-3.7h157
		C411.9,228.5,413.5,230.1,413.6,232.2z"/>
	<path class="st9" d="M252.4,297.5h157.9c1.8,0,3.2,1.5,3.2,3.2v59.3c0,1.8-1.5,3.2-3.2,3.2H252.4c-1.8,0-3.2-1.5-3.2-3.2v-59.3
		C249.2,298.9,250.6,297.5,252.4,297.5z"/>
	<rect x="257.2" y="305.1" class="st9" width="53.5" height="50.5"/>
	<path class="st10" d="M370.1,309.6h-47.8c-1.2,0-2.2-1-2.2-2.2l0,0c0-1.2,1-2.2,2.2-2.2h47.8c1.2,0,2.2,1,2.2,2.2l0,0
		C372.2,308.6,371.3,309.6,370.1,309.6z"/>
	<path class="st10" d="M341.9,319.4h-19.7c-1.2,0-2.2-1-2.2-2.2l0,0c0-1.2,1-2.2,2.2-2.2h19.7c1.2,0,2.2,1,2.2,2.2l0,0
		C344.1,318.4,343.1,319.4,341.9,319.4z"/>
	<path class="st9" d="M197.5,147.6h202.8c1.8,0,3.2,1.5,3.2,3.2v77.3c0,1.8-1.5,3.2-3.2,3.2H197.5c-1.8,0-3.2-1.5-3.2-3.2v-77.3
		C194.2,149,195.7,147.6,197.5,147.6z"/>
	<rect x="204.4" y="157.4" class="st9" width="68.1" height="64.3"/>
	<path class="st10" d="M286.4,157.4h62.5c1.1,0,2,0.9,2,2v1.6c0,1.1-0.9,2-2,2h-62.5c-1.1,0-2-0.9-2-2v-1.6
		C284.4,158.3,285.3,157.4,286.4,157.4z"/>
	<path class="st10" d="M286.4,169.8h26.7c1.1,0,2,0.9,2,2v1.6c0,1.1-0.9,2-2,2h-26.6c-1.1,0-2-0.9-2-2v-1.6
		C284.4,170.7,285.3,169.8,286.4,169.8C286.4,169.8,286.4,169.8,286.4,169.8z"/>
	<path class="st10" d="M424.3,364.5L424.3,364.5c-1.2,0-2.1-0.9-2.1-2.1v0V97.9c0-1.2,0.9-2.1,2.1-2.1l0,0l0,0
		c1.2,0,2.1,0.9,2.1,2.1c0,0,0,0,0,0v264.5C426.4,363.5,425.4,364.5,424.3,364.5z"/>
	<path class="st9" d="M424.3,116.6L424.3,116.6c-2.3,0-4.2-1.9-4.2-4.2c0,0,0,0,0,0V94.7c0-2.3,1.9-4.2,4.2-4.2l0,0l0,0
		c2.3,0,4.2,1.9,4.2,4.2c0,0,0,0,0,0v17.8C428.5,114.8,426.6,116.6,424.3,116.6z"/>
	<g class="st14">
		<g>
			<path d="M338.9,63.5L338.9,63.5l-0.2,0l-0.1,0l-0.1,0l-0.1,0l-0.2-0.1l-0.1-0.1l-0.1-0.1l-0.2-0.1l-0.1-0.2l-0.1-0.2l-0.1-0.2
				l-0.1-0.2l0-0.1l-0.1-0.2l0-0.1l0-0.2l0-0.1l0-0.2v-0.4l0-0.2l0-0.1l0-0.2l0-0.1l0-0.1l0-0.2l0.2-0.1l0.3,0l0.2,0h0.7l0.2,0
				l0.1,0.2v0.5l0,0.1v0.3l0,0.3l0,0.1l0.1,0.2l0.1,0.1l0.2,0h0.1l0.1,0l0.1,0l0.1-0.1l0.1-0.1l0.1-0.1l0.1-0.2l0-0.2l0-0.1V61
				l0-0.2v-0.2l-0.1-0.2v-0.1l0-0.2l-0.1-0.2l-0.1-0.2l-0.1-0.2l-0.1-0.1l0-0.1l0-0.1l-0.1-0.1l-0.1-0.1L339,59l-0.1-0.1l-0.1-0.1
				l-0.1-0.2l-0.2-0.2l-0.1-0.2l-0.1-0.1l-0.1-0.1l-0.1-0.1l-0.1-0.1l-0.1-0.2l-0.1-0.1l-0.1-0.1l0-0.1l0-0.1l-0.1-0.2l0-0.2l0-0.1
				l0-0.1v-0.4l0-0.3l0-0.1l0-0.2l0.1-0.1l0-0.1l0-0.1l0.1-0.2l0.1-0.1l0-0.1l0-0.1l0.1-0.1l0-0.1l0.1-0.1l0.1-0.1l0.2-0.1l0.2-0.2
				l0.2-0.1l0.1-0.1l0.2-0.1l0.2-0.1h0.4l0.3,0h0.1l0.1,0l0.2,0l0.2,0.1l0.1,0l0.1,0l0.2,0.1l0.1,0.1l0.1,0l0.1,0.1l0,0.1l0.1,0.1
				l0,0.1L342,55l0.1,0.1l0,0.1l0,0.1l0.1,0.3v0.3l0,0.3l0,0.2l-0.1,0.4l-0.1,0.3l-0.2,0.1l-0.2,0H341l-0.2,0h-0.2l-0.1-0.1l0-0.2
				l0-0.1l0-0.4V56l0-0.2l0-0.1l-0.1-0.1l-0.1-0.1l-0.2,0l-0.2,0.1l-0.1,0.1l-0.1,0.1l0,0.1l-0.1,0.1l0,0.1l0,0.1l0,0.2v0.2l0,0.1
				l0.1,0.2l0.1,0.2l0.1,0.1l0.1,0.2l0.1,0.2l0.2,0.2l0.1,0.1l0.1,0.1l0.1,0.1l0.1,0.1l0.1,0.1l0.1,0.1l0,0.1l0.1,0l0,0.1l0.1,0.1
				l0.1,0.1l0.2,0.2l0.1,0.2l0.1,0.1l0,0.1l0.1,0.3l0.1,0.2l0.1,0.3l0,0.1l0,0.1l0,0.1l0.1,0.2l0,0.1l0,0.2l0,0.1l0,0.1l0,0.1v0.4
				l0,0.2l0,0.1v0.2l-0.1,0.2l0,0.1l0,0.1l-0.1,0.2l-0.1,0.2l-0.1,0.1l-0.1,0.1l-0.1,0.1L341,63L341,63l-0.1,0.1l-0.1,0.1l-0.1,0.1
				l-0.2,0l-0.1,0.1l-0.2,0.1l-0.1,0l-0.2,0.1l-0.1,0l-0.1,0l-0.1,0h-0.1l-0.1,0l-0.1,0L338.9,63.5z"/>
			<path d="M343.3,63.4L343.3,63.4l-0.2-0.1l0-0.2l0-0.3l0.1-0.3l0-0.1l0-0.2l0-0.1l0-0.2v-0.1l0.1-0.2l0-0.1l0-0.1l0.1-0.3v-0.1
				l0-0.2l0-0.2l0-0.1l0-0.1l0-0.2l0-0.1l0-0.2l0.1-0.1l0-0.1l0-0.1l0-0.1l0.1-0.2l0.1-0.2l0-0.1l0-0.1l0.1-0.2l0-0.1v-0.2l0-0.1
				v-0.1l0-0.1l0.1-0.1v-0.1l0-0.1l0-0.2l0-0.1l0.1-0.1v-0.1l0-0.1v-0.1l0-0.1l0-0.1l0.1-0.2l0-0.1v-0.1l0-0.1v-0.1l0-0.2l0-0.1
				l0-0.2l0-0.2h-0.7l-0.2,0l-0.1,0h-0.1l-0.1,0H343l-0.1,0l0-0.1l0-0.2l0-0.1v-0.1l0-0.1l0.1-0.2l0-0.1l0-0.2l0.1-0.2l0-0.1v-0.2
				l0-0.1l0.1-0.1l0.1-0.1l0.1,0h0.3l0.1,0h0.1l0.1,0h1l0.1,0h0.3l0.8,0l0.2,0l0.3,0l0.1,0h0.8l0.2,0l0.1,0l0,0.1v0.1l0,0.1l0,0.1
				v0.1l0,0.1l0,0.1V55l0,0.2l0,0.1l0,0.1l0,0.2l-0.1,0.2l0,0.1l0,0.2l-0.1,0.1l-0.1,0l-0.1,0h-0.2l-0.1,0h-0.1l-0.6,0l-0.1,0l0,0.1
				l0,0.1l0,0.1v0.1l0,0.1l0,0.2l0,0.1l-0.1,0.2L346,57l0,0.1l-0.1,0.2l-0.1,0.2v0.1l0,0.2l0,0.1v0.1l-0.1,0.2l0,0.2l0,0.1l0,0.2
				l0,0.1v0.1l0,0.2l0,0.2l-0.1,0.1l0,0.2l0,0.1v0.1l0,0.2l0,0.2l0,0.1v0.1l0,0.1l0,0.1l0,0.1l-0.1,0.2l0,0.1l0,0.1l0,0.1l0,0.2
				l0,0.2l-0.1,0.2l0,0.1l0,0.2l-0.1,0.3l0,0.1l0,0.2l0,0.1l-0.1,0.3l-0.1,0.4l0,0.2l0,0.2l0,0.1l-0.2,0.1h-1.1l-0.2,0L343.3,63.4z"
				/>
			<path d="M349.6,63.6l-0.2,0l-0.1,0l-0.1,0l-0.3-0.1l-0.1,0l-0.2-0.1l-0.1-0.1l-0.2-0.1l-0.2-0.2l-0.2-0.2l0-0.1l-0.1-0.1l0-0.1
				l-0.1-0.1l-0.1-0.2v-0.1l0-0.1l0-0.1l0-0.1l0-0.1l0-0.1l0-0.1l0-0.2l0-0.1l0-0.3l0-0.1v-0.2l0-0.1l0-0.1v-0.1l0-0.3l0.1-0.2V60
				l0-0.2v-0.1l0.1-0.2l0-0.1l0-0.2l0-0.1l0-0.2l0-0.2v-0.2l0-0.2v-0.1l0-0.1l0-0.1v-0.1l0-0.1l0-0.1l0.1-0.1l0-0.1v-0.2l0-0.2
				l0-0.1l0-0.1l0-0.2l0.1-0.3l0.1-0.1l0-0.2l0.1-0.2l0-0.1l0.1-0.2l0.1-0.2l0.1-0.2l0.1-0.1l0.1-0.2l0-0.1l0.1-0.1l0.1-0.2l0.1-0.2
				l0.1-0.1l0.1-0.1l0.2-0.2l0.2-0.1l0.1,0l0.1-0.1l0.2-0.1l0.2-0.1l0.2-0.1l0.1,0l0.2-0.1l0.1,0l0.2,0l0.2,0l0.2,0l0.2,0l0.1,0
				l0.1,0l0.2,0l0.1,0l0.1,0l0.1,0l0.2,0.1l0.2,0.2l0.1,0.1l0.1,0.1l0.1,0.1l0.1,0.1l0.1,0.1l0,0.1l0.1,0.2l0,0.1l0,0.1l0,0.1l0,0.2
				l0,0.2l0,0.1V56l0,0.2l0,0.1l0,0.2v0.1l0,0.2l0,0.1l0,0.1l0,0.1v0.1l0,0.1l0,0.2l0,0.2l0,0.2l0,0.1l0,0.2l0,0.1l-0.1,0.1l0,0.2
				l-0.1,0.2l0,0.2l0,0.2l0,0.2l0,0.2l0,0.1l0,0.2v0.1l0,0.1l0,0.2l0,0.1l-0.1,0.5l0,0.1l-0.1,0.2l0,0.1l0,0.1l-0.1,0.1l0,0.2v0.1
				l0,0.1l-0.1,0.1l0,0.1l-0.1,0.2l-0.1,0.2l-0.1,0.1l-0.1,0.2l-0.1,0.1l-0.1,0.1l0,0.1l-0.2,0.2l-0.1,0.1l-0.1,0.1l-0.2,0.1
				l-0.2,0.1l-0.1,0l-0.3,0.1l-0.1,0l-0.1,0l-0.2,0l-0.1,0l-0.1,0l-0.3,0L349.6,63.6z M350,61.8l0.2-0.1l0.1-0.1l0.2-0.1l0.1-0.2
				l0.1-0.2l0-0.1V61l0-0.2l0-0.1l0-0.2l0-0.1l0-0.2l0-0.1l0-0.2l0-0.1l0-0.1v-0.1l0,0l0-0.1l0-0.2l0-0.3l0-0.1l0-0.1l0-0.2l0-0.1
				l0-0.2l0.1-0.2l0-0.2l0-0.1l0-0.1l0-0.1l0-0.2l0-0.1l0-0.2l0-0.1v-0.2l0-0.2l0-0.2l0-0.2l-0.1-0.3l-0.1-0.1l-0.1-0.1l-0.2-0.1
				l-0.2,0l-0.1,0l-0.2,0.1l-0.1,0.1l-0.1,0.1l-0.1,0.2l-0.1,0.1l-0.1,0.2l0,0.1l0,0.1l-0.1,0.3v0l0,0.1l0,0.2l0,0.1l-0.1,0.2l0,0.2
				l0,0.2l0,0.1l0,0.1l0,0.2l0,0.1l-0.1,0.2l0,0.1l0,0.2V59l0,0.1l0,0.1l0,0.1l-0.1,0.2l0,0.1l0,0.1l0,0.1l0,0.1V60l0,0.1v0.1l0,0.2
				v0.1l0,0.1l0,0.1l0,0.2l-0.1,0.1l0,0.1v0.4l0,0.1l0,0.1l0.1,0.1l0.1,0.1l0.1,0l0.1,0l0.1,0H350z"/>
			<path d="M354.4,63.4h-0.2l-0.4,0l-0.1,0l0-0.1v-0.1l0-0.1l0-0.1l0-0.1v-0.1l0-0.1v-0.1l0-0.1v-0.1l0-0.1l0-0.2v-0.1l0-0.1l0-0.1
				l0-0.1l0-0.2l0-0.1l0-0.1l0-0.1l0.1-0.1v-0.2l0.1-0.2v-0.1l0-0.1l0-0.2v-0.1l0.1-0.2l0-0.1l0-0.1v-0.1l0.1-0.1l0-0.1l0-0.1l0-0.2
				l0-0.1l0-0.1v-0.1l0-0.1l0-0.1l0-0.1l0-0.2l0-0.2v-0.1l0.1-0.3v-0.1l0-0.1l0-0.1l0-0.2l0-0.1v-0.1l0-0.1l0.1-0.2l0-0.2l0-0.1
				l0-0.2l0-0.2l0-0.2l0-0.1V56l0-0.2v-0.1l0-0.1l0-0.2l0-0.2L355,55l0-0.1l0-0.1v-0.1l0.1-0.1l0-0.1l0.1-0.1l0.1-0.1l0.1,0h0.2
				l0.8,0h0.6l0.1,0l0.1,0l0.1,0l0.2,0h0.1l0.2,0l0.2,0l0.1,0h0.2l0.1,0l0.1,0.1l0.1,0.1l0.1,0l0.1,0.1l0.1,0l0.1,0l0.2,0.1l0.1,0.1
				l0.1,0.1l0.1,0.1l0.1,0.2l0.1,0.2l0,0.2l0,0.2v0.1l0,0.2v0.1l0,0.2l0,0.1l0,0.2v0.1l0,0.2l0,0.2l0,0.1l-0.1,0.2l0,0.1l0,0.1
				l0,0.1l-0.1,0.2l-0.1,0.2l0,0.1l-0.1,0.1l-0.1,0.2l0,0.1l-0.1,0.2l-0.1,0.1l-0.2,0.2l-0.3,0.2l-0.2,0.1l-0.1,0v0.1l0,0.1l0.1,0.2
				v0.1l0,0.2l0.1,0.1l0,0.1l0,0.2l0,0.1l0,0.2l0,0.1l0,0.2l0,0.1l0,0.1l0.1,0.2v0.1l0.1,0.2l0,0.2l0.1,0.5l0,0.2l0.1,0.2l0,0.2
				l0,0.1l0,0.1l0.1,0.2l0,0.2l-0.1,0l-0.1,0h-0.2l-0.3,0l-0.3,0h-0.2l-0.1,0h-0.1l-0.1,0l-0.1,0l-0.1-0.1l0-0.1l0-0.2l0-0.1l0-0.1
				l-0.1-0.2v-0.1l0-0.1l0,0l0-0.2l0-0.1V62l0-0.1l0-0.1l0-0.1l-0.1-0.1v-0.2l-0.1-0.2l0-0.1l-0.1-0.2l0-0.1l0-0.2l-0.1-0.2l0-0.2
				l0-0.1l0-0.2l0-0.1l-0.1-0.1l0-0.1l-0.1-0.1l-0.1-0.1l-0.1,0l0,0.1l0,0.1l0,0.2l0,0.1l0,0.3v0.2l-0.1,0.2l0,0.2v0.1l0,0.2
				l-0.1,0.1v0.3l0,0.1l-0.1,0.3l0,0.1l0,0.1v0.1l0,0.2l0,0.1l0,0.1v0.1l0,0.2l0,0.1v0.1l0,0.1l0,0.2l0,0.1l0,0.1l-0.1,0l-0.1,0
				l-0.2,0l-0.1,0L354.4,63.4z M356.8,58l0.2,0l0.1-0.1l0.1-0.1l0.1-0.1l0.1-0.1l0.1-0.1l0.1-0.1l0.1-0.2l0-0.1l0-0.1l0.1-0.2v-0.1
				l0-0.1l0-0.2l0-0.3l0-0.3l-0.1-0.1l-0.1-0.1l-0.1-0.1l-0.3,0l-0.3,0l-0.1,0l0,0.1l0,0.1l0,0.2l0,0.2l0,0.2l0,0.1l0,0.2v0.1l0,0.2
				l0,0.1l0,0.1l0,0.1l0,0.2l0,0.1l0,0.1l0,0.1l0.2,0H356.8z"/>
			<path d="M361,63.4h-0.3l-0.1,0h-0.7l-0.1,0l0-0.1l0-0.1l0-0.1l0-0.2l0-0.2l0.1-0.2l0-0.2l0-0.1V62l0-0.1v-0.1l0-0.1l0-0.1l0-0.2
				l0-0.2l0.1-0.1l0-0.2v-0.1l0-0.1l0-0.2v-0.1l0.1-0.2l0-0.1l0-0.2l0-0.1l0-0.1l0-0.2l0-0.1l0.1-0.3v-0.2l0.1-0.2l0-0.2l0-0.1
				l0-0.1l0-0.1v-0.1l0.1-0.1l0.1-0.4l0-0.1l0-0.1l0-0.1l0-0.2l0.1-0.2l0-0.4l0-0.1l0-0.3l0.1-0.1l0-0.1l0-0.1l0-0.1l0-0.1l0.1-0.2
				l0-0.2l0-0.1v-0.1l0-0.1l0-0.1l0-0.1l0-0.2l0-0.1l0-0.1l0-0.2l0-0.1l0-0.1l0-0.2l0-0.1l0-0.1l0.1-0.1h0.2l0.1,0l0.1,0l0.2,0h0.1
				l0.1,0h0.1l0.3,0l1,0l0.3,0l0.1,0l0.4,0h0.3l0.1,0l0.1,0l0.1,0l0.1,0.1l0,0.1v0.1l0,0.3v0.1l0,0.1l0,0.1l0,0.1l0,0.2v0.1
				l-0.1,0.2l0,0.1l0,0.2l-0.1,0h-0.6l-0.2,0h-0.9l-0.3,0l0,0.2l0,0.1v0.2l0,0.1v0.1l0,0.2l0,0.2l0,0.2l0,0.1l0,0.1l0,0.1l0,0.2h0.2
				l0.5,0l0.2,0h0.3l0.1,0l0.1,0.1l0,0.2v0.1l0,0.1l0,0.2l0,0.1l0,0.2v0.1l0,0.1l0,0.2l0,0.2l0,0.2l0,0h-0.1l-0.2,0h-0.1l-0.3,0
				l-0.2,0h-0.1l-0.2,0h-0.1l-0.1,0.1l0,0.2l-0.1,0.4l0,0.1l0,0.1l0,0.1l0,0.1l0,0.2l-0.1,0.3v0.1l0.1,0.1l0.2,0h0.8l0.2,0l0.3,0
				l0.4,0l0.1,0l0,0.1l0,0.1l0,0.1l0,0.1l-0.1,0.3v0.2l0,0.1l0,0.1l0,0.1l0,0.2l0,0.2l0,0.1l0,0.1h-1.2l-0.2,0l-0.2,0l-0.1,0h-0.3
				l-0.2,0l-0.1,0L361,63.4z"/>
			<path d="M364.9,63.4l-0.2,0l-0.1-0.1v-0.1l0.1-0.1l0-0.2l0-0.1l0-0.1l0-0.1l0.1-0.1l0-0.1l0-0.1l0-0.2l0-0.1l0.1-0.2l0.1-0.1
				v-0.1l0-0.1l0-0.2l0-0.1V61l0-0.1v-0.1l0.1-0.2v-0.2l0-0.2l0.1-0.2l0-0.2l0-0.1l0-0.2l0-0.1v-0.2l0.1-0.4l0.1-0.2v-0.1l0-0.2
				l0-0.2l0.1-0.2l0.1-0.2l0-0.1l0-0.2v-0.2l0-0.2l0-0.1l0-0.2l0-0.1l0-0.2l0-0.1l0-0.1v-0.1l0-0.1l0.1-0.2v-0.1l0-0.1l0-0.2l0-0.2
				l0-0.1l0-0.1l0-0.2l0-0.1l0.1-0.1v-0.1l0.1-0.2l0-0.2l0-0.1l0-0.2l0-0.1l0-0.2l0.2-0.1l0.6,0l0.5,0l0.3,0h1.5l0.2,0h0.2l0.2,0.1
				l0,0.1l0,0.1v0.1l0,0.2v0.1l0,0.2l0,0.2l0,0.1v0.1l-0.1,0.2l0,0.3l-0.1,0.1l-0.1,0l-0.2,0l-0.2,0l-0.2,0l-0.3,0l-0.5,0h-0.1
				l0,0.1l0,0.1l0,0.1l0,0.2l0,0.2v0.1l-0.1,0.3l-0.1,0.1v0.1l0,0.1l0,0.1v0.1l0,0.2l0,0.1l0.1,0l0.6,0l0.2,0l0.2,0h0.1l0.2,0l0,0.1
				l0,0.1l0,0.1v0.1l-0.1,0.2v0.1l0,0.2l0,0.1l0,0.1l0,0.2v0.2l-0.1,0.2l0,0.2l-0.1,0.2h-0.1l-0.1,0h-0.5l-0.3,0l-0.3,0l0,0.2l0,0.1
				l0,0.2l0,0.2l0,0.1l-0.1,0.1l0,0.1l0,0.2l0,0.2l0,0.2l-0.1,0.2l0,0.1l0,0.1l0,0.2v0.1l0,0.2l0,0.2l0,0.1l-0.1,0.2l0,0.1v0.1
				l0,0.1l0,0.1l0,0.2l0,0.2l-0.1,0.2l-0.1,0.1l-0.1,0l-0.1,0l-0.3,0l-0.3,0l-0.1,0H365L364.9,63.4z"/>
			<path d="M370.3,63.4h-0.2l-0.4,0l-0.1,0l0-0.1v-0.1l0-0.1l0-0.1l0-0.1v-0.1l0-0.1v-0.1l0-0.1v-0.1l0-0.1l0-0.2v-0.1l0-0.1l0-0.1
				l0-0.1l0-0.2l0-0.1l0-0.1l0-0.1l0.1-0.1v-0.2l0.1-0.2v-0.1l0-0.1l0-0.2v-0.1l0.1-0.2l0-0.1l0-0.1v-0.1l0.1-0.1l0-0.1l0-0.1l0-0.2
				l0-0.1l0-0.1v-0.1l0-0.1l0-0.1l0-0.1l0-0.2l0-0.2v-0.1l0.1-0.3v-0.1l0-0.1l0-0.1l0-0.2l0-0.1v-0.1l0-0.1l0.1-0.2l0-0.2l0-0.1
				l0-0.2l0-0.2l0-0.2l0-0.1V56l0-0.2v-0.1l0-0.1l0-0.2l0-0.2l0.1-0.4l0-0.1l0-0.1v-0.1l0.1-0.1l0-0.1l0.1-0.1l0.1-0.1l0.1,0h0.2
				l0.8,0h0.6l0.1,0l0.1,0l0.1,0l0.2,0h0.1l0.2,0l0.2,0l0.1,0h0.2l0.1,0l0.1,0.1l0.1,0.1l0.1,0l0.1,0.1l0.1,0l0.1,0l0.2,0.1l0.1,0.1
				l0.1,0.1l0.1,0.1l0.1,0.2l0.1,0.2l0,0.2l0,0.2v0.1l0,0.2v0.1l0,0.2l0,0.1l0,0.2v0.1l0,0.2l0,0.2l0,0.1l-0.1,0.2l0,0.1l0,0.1
				l0,0.1l-0.1,0.2L375,58l0,0.1l-0.1,0.1l-0.1,0.2l0,0.1l-0.1,0.2l-0.1,0.1l-0.2,0.2l-0.3,0.2l-0.2,0.1l-0.1,0v0.1l0,0.1l0.1,0.2
				v0.1l0,0.2L374,60l0,0.1l0,0.2l0,0.1l0,0.2l0,0.1l0,0.2l0,0.1l0,0.1l0.1,0.2v0.1l0.1,0.2l0,0.2l0.1,0.5l0,0.2l0.1,0.2l0,0.2
				l0,0.1l0,0.1l0.1,0.2l0,0.2l-0.1,0l-0.1,0h-0.2l-0.3,0l-0.3,0h-0.2l-0.1,0h-0.1l-0.1,0l-0.1,0l-0.1-0.1l0-0.1l0-0.2l0-0.1l0-0.1
				l-0.1-0.2v-0.1l0-0.1l0,0l0-0.2l0-0.1V62l0-0.1l0-0.1l0-0.1l-0.1-0.1v-0.2l-0.1-0.2l0-0.1l-0.1-0.2l0-0.1l0-0.2l-0.1-0.2l0-0.2
				l0-0.1l0-0.2l0-0.1l-0.1-0.1l0-0.1l-0.1-0.1l-0.1-0.1l-0.1,0l0,0.1l0,0.1l0,0.2l0,0.1l0,0.3v0.2l-0.1,0.2l0,0.2v0.1l0,0.2
				l-0.1,0.1v0.3l0,0.1l-0.1,0.3l0,0.1l0,0.1v0.1l0,0.2l0,0.1l0,0.1v0.1l0,0.2l0,0.1v0.1l0,0.1l0,0.2l0,0.1l0,0.1l-0.1,0l-0.1,0
				l-0.2,0l-0.1,0L370.3,63.4z M372.7,58l0.2,0l0.1-0.1l0.1-0.1l0.1-0.1l0.1-0.1l0.1-0.1l0.1-0.1l0.1-0.2l0-0.1l0-0.1l0.1-0.2v-0.1
				l0-0.1l0-0.2l0-0.3l0-0.3l-0.1-0.1l-0.1-0.1l-0.1-0.1l-0.3,0l-0.3,0l-0.1,0l0,0.1l0,0.1l0,0.2l0,0.2l0,0.2l0,0.1l0,0.2v0.1l0,0.2
				l0,0.1l0,0.1l0,0.1l0,0.2l0,0.1l0,0.1l0,0.1l0.2,0H372.7z"/>
			<path d="M377.9,63.6l-0.2,0l-0.1,0l-0.1,0l-0.3-0.1l-0.1,0l-0.2-0.1l-0.1-0.1l-0.2-0.1l-0.2-0.2l-0.2-0.2l0-0.1l-0.1-0.1l0-0.1
				l-0.1-0.1l-0.1-0.2v-0.1l0-0.1l0-0.1l0-0.1l0-0.1l0-0.1l0-0.1l0-0.2l0-0.1l0-0.3l0-0.1v-0.2l0-0.1l0-0.1v-0.1l0-0.3l0.1-0.2V60
				l0-0.2v-0.1l0.1-0.2l0-0.1l0-0.2l0-0.1l0-0.2l0-0.2v-0.2l0-0.2v-0.1l0-0.1l0-0.1v-0.1l0-0.1l0-0.1l0.1-0.1l0-0.1v-0.2l0-0.2
				l0-0.1l0-0.1l0-0.2l0.1-0.3l0.1-0.1l0-0.2l0.1-0.2l0-0.1l0.1-0.2l0.1-0.2l0.1-0.2l0.1-0.1l0.1-0.2l0-0.1l0.1-0.1l0.1-0.2l0.1-0.2
				l0.1-0.1l0.1-0.1l0.2-0.2l0.2-0.1l0.1,0l0.1-0.1l0.2-0.1l0.2-0.1l0.2-0.1l0.1,0l0.2-0.1l0.1,0l0.2,0l0.2,0l0.2,0l0.2,0l0.1,0
				l0.1,0l0.2,0l0.1,0l0.1,0l0.1,0l0.2,0.1l0.2,0.2l0.1,0.1l0.1,0.1l0.1,0.1l0.1,0.1l0.1,0.1l0,0.1l0.1,0.2l0,0.1l0,0.1l0,0.1l0,0.2
				l0,0.2l0,0.1V56l0,0.2l0,0.1l0,0.2v0.1l0,0.2l0,0.1l0,0.1l0,0.1v0.1l0,0.1l0,0.2l0,0.2l0,0.2l0,0.1l0,0.2l0,0.1l-0.1,0.1l0,0.2
				l-0.1,0.2l0,0.2l0,0.2l0,0.2l0,0.2l0,0.1l0,0.2v0.1l0,0.1l0,0.2l0,0.1l-0.1,0.5l0,0.1l-0.1,0.2l0,0.1l0,0.1l-0.1,0.1l0,0.2v0.1
				l0,0.1l-0.1,0.1l0,0.1l-0.1,0.2l-0.1,0.2l-0.1,0.1l-0.1,0.2l-0.1,0.1l-0.1,0.1l0,0.1l-0.2,0.2l-0.1,0.1l-0.1,0.1l-0.2,0.1
				l-0.2,0.1l-0.1,0l-0.3,0.1l-0.1,0l-0.1,0l-0.2,0l-0.1,0l-0.1,0l-0.3,0L377.9,63.6z M378.3,61.8l0.2-0.1l0.1-0.1l0.2-0.1l0.1-0.2
				l0.1-0.2l0-0.1V61l0-0.2l0-0.1l0-0.2l0-0.1l0-0.2l0-0.1l0-0.2l0-0.1l0-0.1v-0.1l0,0l0-0.1l0-0.2l0-0.3l0-0.1l0-0.1l0-0.2l0-0.1
				l0-0.2l0.1-0.2l0-0.2l0-0.1l0-0.1l0-0.1l0-0.2l0-0.1l0-0.2l0-0.1v-0.2l0-0.2l0-0.2l0-0.2l-0.1-0.3l-0.1-0.1l-0.1-0.1l-0.2-0.1
				l-0.2,0l-0.1,0l-0.2,0.1l-0.1,0.1l-0.1,0.1l-0.1,0.2l-0.1,0.1l-0.1,0.2l0,0.1l0,0.1l-0.1,0.3v0l0,0.1l0,0.2l0,0.1l-0.1,0.2l0,0.2
				l0,0.2l0,0.1l0,0.1l0,0.2l0,0.1l-0.1,0.2l0,0.1l0,0.2V59l0,0.1l0,0.1l0,0.1l-0.1,0.2l0,0.1l0,0.1l0,0.1l0,0.1V60l0,0.1v0.1l0,0.2
				v0.1l0,0.1l0,0.1l0,0.2l-0.1,0.1l0,0.1v0.4l0,0.1l0,0.1l0.1,0.1l0.1,0.1l0.1,0l0.1,0l0.1,0H378.3z"/>
			<path d="M381.9,63.4l-0.1-0.2l0-0.1v-0.2l0-0.2l0.1-0.2l0-0.1l0-0.2l0-0.1l0-0.2l0-0.1l0-0.2v-0.1l0-0.1v-0.2l0.1-0.1l0-0.2
				l0-0.1l0-0.2l0-0.1l0-0.1l0-0.2l0.1-0.2l0-0.2l0-0.1l0-0.1l0-0.2l0-0.1l0-0.1l0-0.2l0-0.1v-0.1l0.1-0.2l0-0.1l0-0.1l0-0.2l0-0.1
				l0.1-0.2l0-0.1l0-0.1V58l0-0.1l0-0.1v-0.1l0-0.1v-0.1l0-0.1l0-0.2l0-0.1l0-0.1v-0.2l0-0.1l0-0.1l0.1-0.4v-0.1l0.1-0.1l0-0.1
				l0-0.2l0-0.1l0-0.1l0-0.1l0-0.1l0-0.1l0-0.2l0-0.2l0-0.2v-0.1l0-0.2l0-0.1l0-0.1l0.1-0.1l0.1,0l0.2,0l0.2,0h0.1l0.2,0l0.2,0
				l0.2,0l0.2,0h0.2l0.1,0l0.1,0.1l0,0.1l0.1,0.1l0,0.2l0,0.1l0.1,0.2l0.1,0.3l0,0.2l0,0.2l0,0.2l0.1,0.3l0,0.1l0,0.1l0,0.2l0,0.2
				v0.1l0,0.1v0.1l0,0.1l0,0.2l0,0.2l0,0.2l0,0.2l0,0.2l0,0.1l0,0.4l0.1,0.3l0,0.3v0.1l0,0.1l0,0.2l0,0.4l0,0.3h0l0-0.3l0-0.3v-0.2
				l0-0.6l0-0.3v-0.4l0-0.2l0-0.1l0-0.1l0-0.1l0-0.2l0-0.1l0-0.2v-0.1l0.1-0.2v-0.2l0-0.2v-0.1l0.1-0.2l0-0.1l0-0.2v-0.1l0-0.2
				l0-0.1l0-0.1l0-0.2l0-0.1l0-0.2l0-0.1l0-0.1V55l0-0.1l0-0.2l0.1-0.3l0.1-0.2l0.1,0l0.2-0.1l0.3,0l0.1,0h0.1l0.3,0h0.1l0.2,0
				l0.2,0l0.1,0l0,0.1v0.1l0,0.2l0,0.1l0,0.3l0,0.2l-0.1,0.3l0,0.1l0,0.2l0,0.1l0,0.3l-0.1,0.2l0,0.2l0,0.1l0,0.1l0,0.1v0.2l0,0.1
				l-0.1,0.4l0,0.1l0,0.1l0,0.1l0,0.1l0,0.2l0,0.1l0,0.2l0,0.2l0,0.1l0,0.1l0,0.1l0,0.1l0,0.1l0,0.1l0,0.1v0.2l0,0.1l0,0.2l0,0.1
				l0,0.1l0,0.1l0,0.1l0,0.1v0.1l-0.1,0.2l0,0.2l0,0.1l-0.1,0.1l-0.1,0.2l0,0.1l0,0.2l0,0.2l0,0.1l-0.1,0.2v0.2l-0.1,0.2v0.1l0,0.1
				l0,0.2l-0.1,0.4l-0.1,0.2l-0.1,0.1l-0.2,0l-0.1,0h-0.1l-0.2,0l-0.1,0l-0.1,0l-0.1,0h-0.3l-0.2,0h-0.2l-0.1-0.1l-0.1-0.2l-0.1-0.2
				l0-0.1l0-0.2l0-0.1l0-0.3l0-0.1l-0.1-0.3l0-0.1l0-0.2l0-0.2l0-0.1l0-0.2v-0.1l0-0.2l0-0.1l0-0.2l0-0.1v-0.2l-0.1-0.3l0-0.2
				l-0.1-0.4l-0.1-0.4l0-0.4l-0.1-0.5l-0.1-0.5h0l0,0.4l0,0.3l0,0.1l0,0.2l0,0.3l-0.1,0.6l-0.1,0.5l0,0.1l0,0.2l0,0.1l0,0.2l0,0.1
				l0,0.1l0,0.1l0,0.2l-0.1,0.2l-0.1,0.3l0,0.2l0,0.1l0,0.1l-0.1,0.4l0,0.2l0,0.1v0.2l0,0.1l0,0.2l-0.1,0.2l0,0.1l-0.1,0.1h-1.4
				L381.9,63.4z"/>
			<path d="M390,63.4L390,63.4l-0.2-0.1l0-0.2l0-0.3l0.1-0.3l0-0.1l0-0.2l0-0.1l0-0.2v-0.1l0.1-0.2l0-0.1l0-0.1l0.1-0.3v-0.1l0-0.2
				l0-0.2l0-0.1l0-0.1l0-0.2l0-0.1l0-0.2l0.1-0.1l0-0.1l0-0.1l0-0.1l0.1-0.2l0.1-0.2l0-0.1l0-0.1l0.1-0.2l0-0.1v-0.2l0-0.1v-0.1
				l0-0.1l0.1-0.1v-0.1l0-0.1l0-0.2l0-0.1l0.1-0.1v-0.1l0-0.1v-0.1l0-0.1l0-0.1L391,57l0-0.1v-0.1l0-0.1v-0.1l0-0.2l0-0.1l0-0.2
				l0-0.2h-0.7l-0.2,0l-0.1,0H390l-0.1,0h-0.1l-0.1,0l0-0.1l0-0.2l0-0.1v-0.1l0-0.1l0.1-0.2l0-0.1l0-0.2l0.1-0.2l0-0.1v-0.2l0-0.1
				l0.1-0.1l0.1-0.1l0.1,0h0.3l0.1,0h0.1l0.1,0h1l0.1,0h0.3l0.8,0l0.2,0l0.3,0l0.1,0h0.8l0.2,0l0.1,0l0,0.1v0.1l0,0.1l0,0.1v0.1
				l0,0.1l0,0.1V55l0,0.2l0,0.1l0,0.1l0,0.2l-0.1,0.2l0,0.1l0,0.2l-0.1,0.1l-0.1,0l-0.1,0H394l-0.1,0h-0.1l-0.6,0l-0.1,0l0,0.1
				l0,0.1l0,0.1v0.1l0,0.1l0,0.2l0,0.1l-0.1,0.2l-0.1,0.1l0,0.1l-0.1,0.2l-0.1,0.2v0.1l0,0.2l0,0.1v0.1l-0.1,0.2l0,0.2l0,0.1l0,0.2
				l0,0.1v0.1l0,0.2l0,0.2l-0.1,0.1l0,0.2l0,0.1v0.1l0,0.2l0,0.2l0,0.1v0.1l0,0.1l0,0.1l0,0.1l-0.1,0.2l0,0.1l0,0.1l0,0.1l0,0.2
				l0,0.2l-0.1,0.2l0,0.1l0,0.2l-0.1,0.3l0,0.1l0,0.2l0,0.1l-0.1,0.3l-0.1,0.4l0,0.2l0,0.2l0,0.1l-0.2,0.1h-1.1l-0.2,0L390,63.4z"/>
		</g>
	</g>
	<g>
		<path class="st13" d="M298.8,122.6c-0.3-4.2-1.7-8.2-4.6-11.2c-1.2-1.3-2.8-2.3-4.4-2.9c-5.7-2.1-13.2-0.4-17.4,4
			c-0.6,0.6-1.1,1.3-1.6,2c-1.1,1.6-1.8,3.5-2.3,5.4c-0.9,3.1-1.1,6.4-1.2,9.6c-0.1,11.7,10.3,10.1,10.3,10.1
			c-4.2-4.4-4.1-13-4.1-13s0.9,2.6,2.7,4.4c-1.5-5.8,0.8-9.9,0.8-9.9c-0.8,5.5,1,8.4,1,8.4c-0.2-0.4-0.1-1.6-0.1-2
			c0-0.7,0.1-1.5,0.2-2.2c0.2-1.5,0.7-2.9,1.4-4.2c1.7-2.9,5.6-5.3,9-3.8c2.5,1.1,5.4,5.5,3.3,11.8c-2.1,6.3-0.4,8.4-0.4,8.4
			s0.2-2,1.3-3.9c-0.1,3.7,1.7,6.2,1.7,6.2c2-2,2.9-4.9,3.6-7.6C298.7,129,299.1,125.7,298.8,122.6L298.8,122.6z"/>
	</g>
	<g>
		<path class="st15" d="M287.8,312.9c-10-2.9-17.7,4.7-19.6,16.5c-6.4,8.5-3.4,17.5,10.1,19.1c-4.5-8.6-5.8-15.3,4.8-19.9
			c-1.4,2.5-3.1,4.6-5.4,5.5c5.2-0.1,10.3-2.4,14.4-7c0.8,7.2,7,7-0.1,21.1c4.8-0.9,9.1-2.1,10.8-6.3c0.5-8.9-5.1-26.6-9.2-27.6
			C292.2,313.4,290.4,314.4,287.8,312.9L287.8,312.9z"/>
	</g>
	<g>
		<path class="st15" d="M221.3,190.1c11.8,1.7,23.7,2.8,33.5-0.7c1.8,6.6,2.6,13.1,4.2,19.9c1.8-12,8.8-26.3-2.8-35.3
			c0.7-0.9,0.7-2,2.4-2.4c-2.6-0.6-3.1,0.9-4.6,1.8c-7.7-10.5-21.7-3.1-34.6-4c2.2,0.9,4.4,3.1,6.1,4.6c-2.6,0.2-6.6,0.4-9.2,0.4
			c2.6,1.1,3.7,1.8,5.5,3.1c-2.9,2.6-6.1,6.1-7.9,10.1c1.3-1.3,2.8-1.7,4.2-1.7c-7,3.7,2,15.8-0.2,25.6
			C221.3,203.9,220.2,197.2,221.3,190.1L221.3,190.1z"/>
	</g>
	<g>
		<g>
			<path class="st1" d="M366.7,343.3c-0.2,0-0.2,0-0.2,0c0,0-0.1,0-0.1,0.1c-0.1,0-0.2,0.1-0.3,0.1c-0.2,0.1-0.4,0.3-0.7,0.4
				c-0.2,0.1-0.5,0.3-0.6,0.4c-0.1,0.1-0.2,0.1-0.2,0.1c0,0,0,0-0.1,0c0,0,0.1,0,0,0c-0.1,0,0,0,0,0c0,0,0,0-0.1,0
				c-0.1,0-0.2,0-0.3,0.1c-0.2,0-0.5,0.1-0.7,0.2c-0.3,0.1-0.5,0.1-0.7,0.2c-0.1,0-0.2,0.1-0.3,0.1c0,0-0.1,0-0.1,0
				c0,0-0.1,0-0.2,0.1c-0.1,0.1-0.1,0.2-0.1,0.2c0,0,0,0.1,0,0.1c0,0.1-0.1,0.2-0.1,0.3c-0.1,0.2-0.1,0.5-0.2,0.7
				c-0.1,0.3-0.1,0.5-0.2,0.7c0,0.1,0,0.2-0.1,0.3c0,0,0,0,0,0.1c0,0,0-0.1,0,0c0,0.1,0,0,0,0c0,0,0,0,0,0.1c0,0.1-0.1,0.1-0.1,0.2
				c-0.1,0.2-0.3,0.4-0.4,0.6c-0.1,0.2-0.3,0.5-0.4,0.7c-0.1,0.1-0.1,0.2-0.1,0.3c0,0,0,0.1-0.1,0.1c0,0,0,0.1,0,0.2
				c0,0.2,0,0.2,0,0.2c0,0,0,0.1,0.1,0.1c0,0.1,0.1,0.2,0.1,0.3c0.1,0.2,0.3,0.4,0.4,0.7c0.1,0.2,0.3,0.5,0.4,0.6
				c0.1,0.1,0.1,0.2,0.1,0.2c0,0,0,0,0,0.1c0,0,0-0.1,0,0c0,0.1,0,0,0,0c0,0,0,0,0,0.1c0,0.1,0,0.2,0.1,0.3c0,0.2,0.1,0.5,0.2,0.7
				c0.1,0.3,0.1,0.5,0.2,0.7c0,0.1,0.1,0.2,0.1,0.3c0,0,0,0.1,0,0.1s0,0.1,0.1,0.2c0.1,0.1,0.2,0.1,0.2,0.1s0.1,0,0.1,0
				c0.1,0,0.2,0.1,0.3,0.1c0.2,0.1,0.5,0.1,0.7,0.2s0.5,0.1,0.7,0.2c0.1,0,0.2,0,0.3,0.1c0,0,0,0,0.1,0c0,0-0.1,0,0,0c0.1,0,0,0,0,0
				c0,0,0,0,0.1,0c0.1,0,0.1,0.1,0.2,0.1c0.2,0.1,0.4,0.3,0.6,0.4c0.2,0.1,0.5,0.3,0.7,0.4c0.1,0.1,0.2,0.1,0.3,0.1
				c0,0,0.1,0,0.1,0.1c0,0,0.1,0,0.2,0s0.2,0,0.2,0c0,0,0.1,0,0.1-0.1c0.1,0,0.2-0.1,0.3-0.1c0.2-0.1,0.4-0.3,0.7-0.4
				c0.2-0.1,0.5-0.3,0.6-0.4c0.1-0.1,0.2-0.1,0.2-0.1c0,0,0,0,0.1,0c0,0-0.1,0,0,0c0.1,0,0,0,0,0c0,0,0,0,0.1,0c0.1,0,0.2,0,0.3-0.1
				c0.2,0,0.5-0.1,0.7-0.2c0.3-0.1,0.5-0.1,0.7-0.2c0.1,0,0.2-0.1,0.3-0.1c0,0,0.1,0,0.1,0s0.1,0,0.2-0.1c0.1-0.1,0.1-0.2,0.1-0.2
				s0-0.1,0-0.1c0-0.1,0.1-0.2,0.1-0.3c0.1-0.2,0.1-0.5,0.2-0.7c0.1-0.3,0.1-0.5,0.2-0.7c0-0.1,0-0.2,0.1-0.3c0,0,0,0,0-0.1
				c0,0,0,0.1,0,0c0-0.1,0,0,0,0c0,0,0,0,0-0.1c0-0.1,0.1-0.1,0.1-0.2c0.1-0.2,0.3-0.4,0.4-0.6s0.3-0.5,0.4-0.7
				c0.1-0.1,0.1-0.2,0.1-0.3c0,0,0-0.1,0.1-0.1c0,0,0-0.1,0-0.2c0-0.2,0-0.2,0-0.2c0,0,0-0.1-0.1-0.1c0-0.1-0.1-0.2-0.1-0.3
				c-0.1-0.2-0.3-0.4-0.4-0.7c-0.1-0.2-0.3-0.5-0.4-0.6c-0.1-0.1-0.1-0.2-0.1-0.2c0,0,0,0,0-0.1c0,0,0,0.1,0,0c0-0.1,0,0,0,0
				c0,0,0,0,0-0.1c0-0.1,0-0.2-0.1-0.3c0-0.2-0.1-0.5-0.2-0.7c-0.1-0.3-0.1-0.5-0.2-0.7c0-0.1-0.1-0.2-0.1-0.3c0,0,0-0.1,0-0.1
				s0-0.1-0.1-0.2c-0.1-0.1-0.2-0.1-0.2-0.1s-0.1,0-0.1,0c-0.1,0-0.2-0.1-0.3-0.1c-0.2-0.1-0.5-0.1-0.7-0.2
				c-0.3-0.1-0.5-0.1-0.7-0.2c-0.1,0-0.2,0-0.3-0.1c0,0,0,0-0.1,0c0,0,0.1,0,0,0c-0.1,0,0,0,0,0c0,0,0,0-0.1,0
				c-0.1,0-0.1-0.1-0.2-0.1c-0.2-0.1-0.4-0.3-0.6-0.4c-0.2-0.1-0.5-0.3-0.7-0.4c-0.1-0.1-0.2-0.1-0.3-0.1c0,0-0.1,0-0.1-0.1
				C366.9,343.3,366.8,343.3,366.7,343.3L366.7,343.3z M366.7,344.5C366.7,344.5,366.7,344.5,366.7,344.5c0.3,0.1,0.5,0.3,0.7,0.4
				c0.2,0.1,0.5,0.3,0.6,0.4c0.1,0.1,0.2,0.1,0.2,0.1c0.1,0,0.1,0.1,0.2,0.1c0.1,0,0.1,0,0.2,0.1c0.1,0,0.2,0,0.3,0.1
				c0.2,0,0.5,0.1,0.7,0.2c0.3,0.1,0.5,0.1,0.7,0.2c0,0,0.1,0,0.1,0c0,0,0,0.1,0,0.1c0.1,0.2,0.1,0.5,0.2,0.7
				c0.1,0.3,0.1,0.5,0.2,0.7c0,0.1,0,0.2,0.1,0.3c0,0.1,0,0.1,0.1,0.2c0,0.1,0.1,0.1,0.1,0.2c0,0.1,0.1,0.1,0.1,0.2
				c0.1,0.2,0.3,0.4,0.4,0.6c0.1,0.2,0.3,0.5,0.4,0.6c0,0,0,0.1,0,0.1c0,0,0,0,0,0.1c-0.1,0.2-0.2,0.4-0.4,0.6
				c-0.1,0.2-0.3,0.5-0.4,0.6c-0.1,0.1-0.1,0.2-0.1,0.2c0,0.1-0.1,0.1-0.1,0.2c0,0.1,0,0.1-0.1,0.2s0,0.2-0.1,0.3
				c0,0.2-0.1,0.5-0.2,0.7c-0.1,0.3-0.1,0.5-0.2,0.7c0,0,0,0.1,0,0.1c0,0-0.1,0-0.1,0c-0.2,0.1-0.5,0.1-0.7,0.2
				c-0.3,0.1-0.5,0.1-0.7,0.2c-0.1,0-0.2,0-0.3,0.1c-0.1,0-0.1,0-0.2,0.1c-0.1,0-0.1,0.1-0.2,0.1s-0.1,0.1-0.2,0.1
				c-0.2,0.1-0.4,0.3-0.6,0.4c-0.2,0.1-0.5,0.3-0.6,0.4c0,0-0.1,0-0.1,0c0,0,0,0-0.1,0c-0.2-0.1-0.4-0.2-0.6-0.4s-0.5-0.3-0.6-0.4
				c-0.1-0.1-0.2-0.1-0.2-0.1c-0.1,0-0.1-0.1-0.2-0.1c-0.1,0-0.1,0-0.2-0.1s-0.2,0-0.3-0.1c-0.2,0-0.5-0.1-0.7-0.2
				c-0.3-0.1-0.5-0.1-0.7-0.2c0,0-0.1,0-0.1,0c0,0,0-0.1,0-0.1c-0.1-0.2-0.1-0.5-0.2-0.7c-0.1-0.3-0.1-0.5-0.2-0.7
				c0-0.1,0-0.2-0.1-0.3c0-0.1,0-0.1-0.1-0.2c0-0.1-0.1-0.1-0.1-0.2c0-0.1-0.1-0.1-0.1-0.2c-0.1-0.2-0.3-0.4-0.4-0.6
				c-0.1-0.2-0.3-0.5-0.4-0.6c0,0,0-0.1,0-0.1c0,0,0,0,0-0.1c0.1-0.2,0.2-0.4,0.4-0.6c0.1-0.2,0.3-0.5,0.4-0.6
				c0.1-0.1,0.1-0.2,0.1-0.2c0-0.1,0.1-0.1,0.1-0.2c0-0.1,0-0.1,0.1-0.2c0-0.1,0-0.2,0.1-0.3c0-0.2,0.1-0.5,0.2-0.7
				c0.1-0.3,0.1-0.5,0.2-0.7c0,0,0-0.1,0-0.1c0,0,0.1,0,0.1,0c0.2-0.1,0.5-0.1,0.7-0.2c0.3-0.1,0.5-0.1,0.7-0.2c0.1,0,0.2,0,0.3-0.1
				c0.1,0,0.1,0,0.2-0.1c0.1,0,0.1-0.1,0.2-0.1c0.1,0,0.1-0.1,0.2-0.1c0.2-0.1,0.4-0.3,0.6-0.4C366.2,344.7,366.4,344.6,366.7,344.5
				C366.6,344.5,366.6,344.5,366.7,344.5L366.7,344.5z M369,347.5c-0.1,0-0.3,0.1-0.4,0.2l-2.7,3l-1.1-1l0,0
				c-0.2-0.2-0.6-0.2-0.8,0.1c-0.1,0.1-0.1,0.3-0.1,0.4c0,0.1,0.1,0.3,0.2,0.4l1.6,1.3c0.2,0.2,0.6,0.2,0.8-0.1l3-3.4
				c0.2-0.2,0.2-0.6,0-0.8C369.3,347.5,369.2,347.5,369,347.5L369,347.5z"/>
		</g>
		<g>
			<g>
				<path class="st8" d="M400.2,343.7c3.4,0,6.2,2.8,6.2,6.2s-2.8,6.2-6.2,6.2s-6.2-2.8-6.2-6.2S396.8,343.7,400.2,343.7z
					 M399.8,346.2v3.6c0,0.1,0,0.2,0.1,0.3l2.2,2.2c0.1,0.1,0.4,0.1,0.5,0s0.1-0.4,0-0.5l-2.1-2.1v-3.5c0-0.2-0.2-0.4-0.4-0.4
					S399.8,346,399.8,346.2L399.8,346.2z"/>
			</g>
		</g>
		<g>
			<path class="st1" d="M383.4,343.7c-0.2,0-0.4,0.2-0.4,0.4c0,0.2,0.2,0.4,0.4,0.4c2.9,0,5.3,2.4,5.3,5.3c0,2.9-2.4,5.3-5.3,5.3
				c-2.9,0-5.3-2.4-5.3-5.3c0-2.6,1.8-4.7,4.2-5.2c0.1,0,0.2-0.1,0.3-0.2c0.1-0.1,0.1-0.2,0.1-0.3c0-0.1-0.1-0.2-0.2-0.3
				c-0.1-0.1-0.2-0.1-0.3,0c-2.8,0.6-4.8,3.1-4.8,6c0,3.4,2.8,6.2,6.2,6.2s6.2-2.8,6.2-6.2C389.6,346.4,386.8,343.7,383.4,343.7
				C383.4,343.7,383.4,343.7,383.4,343.7L383.4,343.7z M383.5,346.7c-0.5,0-1,0.1-1.4,0.5s-0.6,0.8-0.6,1.3v0c0,0.4,0.1,0.7,0.2,1
				h-0.2c0,0,0,0,0,0c-0.1,0-0.2,0.1-0.3,0.1c-0.1,0.1-0.1,0.2-0.1,0.3c0,0.1,0.1,0.2,0.1,0.3c0.1,0.1,0.2,0.1,0.3,0.1h0.6
				c0,0.1,0,0.2,0,0.4c0,0.3-0.1,0.5-0.2,0.7c-0.1,0.2-0.3,0.3-0.6,0.5c-0.2,0.1-0.2,0.4-0.1,0.5l0.1,0.3c0.1,0.1,0.1,0.2,0.3,0.2
				c0.1,0,0.2,0,0.3,0c0.3-0.2,0.4-0.2,0.6-0.2c0.2,0,0.5,0.1,0.8,0.2s0.6,0.2,1,0.2c0.4,0,0.8-0.1,1.1-0.3c0.2-0.1,0.3-0.4,0.2-0.6
				c-0.1-0.2-0.4-0.3-0.6-0.2c-0.3,0.2-0.6,0.2-0.8,0.2c-0.2,0-0.5-0.1-0.7-0.2c-0.3-0.1-0.6-0.2-1-0.2c0.2-0.3,0.3-0.6,0.3-1.1
				c0-0.2,0-0.3,0-0.4h1c0.1,0,0.2,0,0.3-0.1c0.1-0.1,0.1-0.2,0.1-0.3s0-0.2-0.1-0.3c-0.1-0.1-0.2-0.1-0.3-0.1h-1.3
				c0-0.1-0.1-0.1-0.1-0.1c-0.2-0.3-0.3-0.4-0.3-0.8c0-0.3,0.1-0.6,0.3-0.7c0.2-0.2,0.5-0.3,0.8-0.3c0.4,0,1,0.3,1.1,0.8
				c0,0.1,0.1,0.2,0.2,0.3c0.1,0.1,0.2,0.1,0.3,0.1c0.1,0,0.2-0.1,0.3-0.2c0.1-0.1,0.1-0.2,0-0.3
				C385.1,347.2,384.2,346.7,383.5,346.7L383.5,346.7z"/>
		</g>
	</g>
</g>
<g id="freepik--Character--inject-86">
	<path class="st9" d="M86,294.5c0,0-29.4,28.6-38.6,48.1s-4,18.6,5,24.8c18,12.4,56.5,28.3,56.5,28.3s0.8,12.6,7.2,16.8
		s24.8-19.8,22.1-23.8s-21-2.8-21-2.8s-9.2-3.7-22.2-14.3c-9.3-7.4-19-14.3-29-20.6c0,0,16-22.3,24.5-28.4s22.1-14.8,22.1-14.8"/>
	<path class="st16" d="M211,459.8c-17.4,5.8-34.1,10.1-48.6,11.2c-1.1,0.1-2.1,0.1-3.2,0.2c-0.2-3.5-0.5-10-0.9-12
		c-0.3-2-1.3-3.8-2.8-5.2l-6.1,3.2l-1.7,13.9c-26.7-0.4-43.6-8-43.6-8l2.4-14.5c-1.2-4.4-1.8-8.9-1.6-13.5
		c0.7-27.1,21.4-58.3,21.4-58.3s47.5-33.5,63.2-6.3S211,459.8,211,459.8z"/>
	<path class="st11" d="M187.6,457.6c-0.3,2.7-18,6.4-25.2,0.1c0.7,0.6,6.7,6.4,5.1,8.4s-5.2,0-5.2,0c0.5,1.6,0.5,3.3,0,4.9
		c-1.1,0.1-2.1,0.1-3.2,0.2c-0.2-3.5-0.5-10-0.9-12c-0.3-2-1.3-3.8-2.8-5.2l-6.1,3.2l-1.7,13.9c-26.7-0.4-43.6-8-43.6-8l2.4-14.5
		c-1.2-4.4-1.8-8.9-1.6-13.5c2.9,5,8,11.6,15,12.6c11.7,1.8,20.9-6.5,20.9-6.5s-2.7-7.5,0-14.9c0,0-1.3,18.9,21.5,21.5
		c22.2,2.5,27-2.4,27.2-2.6c-0.4,0.5-6,8.7-9.4,9.6C180.2,454.9,187.9,454.9,187.6,457.6z"/>
	<path class="st5" d="M211,459.8c0,0-5.7-62-21.4-89.2s-63.2,6.3-63.2,6.3s-28.4,42.8-19.8,71.8l-2.4,14.5"/>
	<path class="st5" d="M109.7,448.3c11.5,3.9,24.8,2.4,33.5-3"/>
	<path class="st5" d="M144.6,398.2c0,0-8.6,33,0,43s33.7,10.7,40.5,9.3s9.1-6.1,9.1-6.1"/>
	<path class="st5" d="M157.5,403c0,0-2.4,16.9,0.2,25l12.4,4.5l10-6.6c0,0-1.1-15.7-0.9-22.9C179.2,403,166.8,400.9,157.5,403z"/>
	<path class="st5" d="M156.6,420.8c0,0,7.4-2.8,11.8,3.6c0,0,0.7-6.6,10.9-5.4"/>
	<path class="st5" d="M159.1,405.9c0,0,15.1-1,20.1,1"/>
	<path class="st5" d="M115.9,405.9c0,0-5.9,15.1-5.7,22.9l10,4.4l10.8-7.1c0,0,1.8-15.1,3.1-21.5
		C134.1,404.6,123.9,403.6,115.9,405.9z"/>
	<path class="st5" d="M111,421.8c0,0,7-2.9,9.4,3.1c0,0,2.1-6.5,10.9-5.7"/>
	<path class="st5" d="M116.6,408.3c0,0,12.8-1.7,16.8-0.3"/>
	<path class="st5" d="M117.9,395.7c0,0,13.8-2.5,25.8,6.3c15.1-8.2,32.4-11.3,49.3-8.9"/>
	<path class="st5" d="M196.6,392.3c6.1,22.2,9.7,45.1,10.7,68.1"/>
	<path class="st5" d="M127.9,456.1c0,0,15.4-5.7,20.2-9.7c0,0,11.2,10.2,26.8,9.7"/>
	<path class="st5" d="M159.1,471.2c0,0,0.2-11.9-1.6-13.5s-2.3-6.5-2.3-6.5"/>
	<path class="st5" d="M155.5,452.9c-1.7,1.8-3.8,3.3-6.1,4.4l-1.7,13.9"/>
	<path class="st9" d="M189.5,278.6c3.2,8.2,34.3,48.9,36.8,60.6s2.3,21.9-12,18.3s-20.3-47.1-36.1-70.2"/>
	<path class="st9" d="M188.1,283.4c1.4-1.6,1.8-3.8,1.2-5.9c-0.7-4.1-2.1-8.1-4.2-11.8c-3.1-5-0.8-9.8-2.9-9.7s-2.5,4.6-2.5,4.6
		s-4-4.5-6.5-5.8c-1.1-0.6-8.2-3.5-8.2-3.5l-7.2,0.4c0,0-0.1,3.4,6.6,3l4.4,3.5c0,0-4.2,1.2-4.4,3.1s-2.5,2-2.3,4.5
		s-0.9,2.9,1.2,6.1c2.5,3.9,5.1,2.6,5.1,2.6s2.1,11,4.4,13.2c1.2,1.1,3.6,1.3,6.3,0.7"/>
	<path class="st5" d="M164.4,261.3c0,0,2.6,5.9,4.1,7.4s4.2-0.1,5.3-0.2c1.3-0.2,2.3,0,2.1-0.5c-1.1-3-4.4-2.2-4.4-2.2
		s-1-3.2-2.9-4.5"/>
	<path class="st5" d="M179.7,260.6c-0.1,1.5,0.1,3,0.4,4.5c0,0-2.2,5.1-1.8,7.5"/>
	<path class="st5" d="M162.1,266.3c1,2.2,3.1,5.1,5,5.5s8.1-1.3,7.6-3.4"/>
	<path class="st5" d="M169.8,262.4c0,0,1.3,0,1.3-2.1"/>
	<path class="st5" d="M168.8,258.2c0,0,2.6,0.9,3.8-1.1"/>
	<path class="st9" d="M103.7,199c6.1-21.1,43.8-20.6,52.4-3.7s5.1,13.1,5.6,19.1s5.1,10.3,4.1,20.6s-0.5,14.2-3.1,16.8
		s-21.2-0.3-25.1-2.7C137.6,249.1,93,235.7,103.7,199z"/>
	<path class="st9" d="M116.6,237.9c2.8,5.9,3.7,30.6-2.1,36.5c0,0,15.3,6.6,37.2-1.3c0,0-6.6-8.4-6.6-15.7s8.4-8.3,8.4-8.3"/>
	<path class="st13" d="M161.4,209.1c0.9,0.6-1.3,4.9-4.2,6.6h2.1c0,0-1.1,4-2.1,4.4s-3.6-9.7-10.1-4.4
		C147.1,215.7,149.3,201.6,161.4,209.1z"/>
	<path class="st13" d="M142.1,179.2c0,0,16.8,2.7,21,13.4s-3.4,21.7-9.5,23.1c-9.6,2.2-8.8,12.8-5.4,22.1s9,16,7.5,25.6
		c0,0-5.9-7-10.1-2.6s-8.9,4.9-18,2.8s-8.8,1.1-13,3.8s-13.1-5.7-13.9,0.8s-3.2,7-3.2,7s-11.8-7.3-8.4-17.9s6.9-13.1,5.3-22
		S90.5,211,94,195.3S125.7,172,142.1,179.2z"/>
	<path class="st9" d="M154.9,220.3c0,0-1.4-7.5-2.9-7.5s-2.2,5-2.2,5s-1.8,2-1.9,6.5s2.9,6.1,2.9,6.1s1.4,4.3,4.1,3.4
		s-2.6-4.3-2.4-15"/>
	<path class="st9" d="M155.1,238.9c0,0,0.6,7.1,5,11.6"/>
	<path class="st5" d="M159.5,198.2c-1.9,3.9-5,6.3-8.3,8.9c-9.4,7.4-23.4,14.6-23.7,28.4c0,2.8,0.6,5.6,1.7,8.2"/>
	<path class="st5" d="M143.8,247.5c0.3,1.8,0.6,3.6,0.9,5.4"/>
	<path class="st5" d="M147.9,219.1c-7.2,5.4-6,16.6-4.8,24.4"/>
	<path class="st5" d="M115,209.9c1.9,15.2,4.2,31.2-2.8,45.9"/>
	<path class="st5" d="M140,180.1c-4.7-0.4-9.5,0.5-13.8,2.5c-8.6,4.2-10.5,14.2-11,22.9"/>
	<path class="st5" d="M98.8,255.7c-0.5,1.8-0.7,3.8-0.5,5.7"/>
	<path class="st5" d="M98.7,199.5c-0.8,9,0,18.1,1.2,27.1c0.6,4.5,1.3,9,1.9,13.5s-0.6,8.2-2,12.4"/>
	<path class="st5" d="M102,186.9c-1.8,2.6-2.4,6-2.8,9.1"/>
	<path class="st5" d="M145,256.4c2.3-1.2,5-0.8,6.9,0.9"/>
	<path class="st5" d="M120.8,257.3c3.8-0.6,7.1,1.8,10.5,3c3.9,1.3,6.9,0.4,10.3-1.8"/>
	<path class="st5" d="M94.6,269c2.1,0.7,2.6-2.3,3.3-3.7c1.2-2.6,2.1-3.1,4.9-2.5c6.6,1.5,10.8,3,15-3.3"/>
	<path class="st10" d="M91.7,282.8c0,0,13.7-10.9,38.6-13s41.2-0.5,47.3,5.6s16.6,27.5,16.7,37.8c0.1,6.5-7.7,24.8-7.7,24.8
		l11.6,53.2c0,0-33.7-2.6-64.1,0.1c-15.4,1.4-19.5,4.4-19.5,4.4s6.5-23.1,7.7-28.7S86,302.8,91.7,282.8z"/>
	<path class="st9" d="M226.9,353.4c-2.4,12.3-6.7,9.7-14.8,5.9s-21.9-17.6-37.3-37.4l17.6-22.1c0,0,13.8,19.5,19.6,25.9
		s9.2,16,9.2,16"/>
	<path class="st10" d="M153.5,269.4c0,0,14.9-1.5,22.3,4.6s16,21.8,20.7,29c0,0-9.9,18.4-21.5,21.4c0,0-5-8.1-9.2-10.7
		s-8.1-8.7-8.1-8.7"/>
	<path class="st10" d="M102.2,276.9c-12.4,3.9-24.7,23.4-31.9,29.9c0,0,5.1,14.2,20.3,19.5c0,0,7.7-6.5,11.6-4.9
		S102.2,276.9,102.2,276.9z"/>
	<path class="st5" d="M160,189.4c0.1,1.7,0.2,3.4,0.1,5.2"/>
	<path class="st5" d="M66.1,351c0,0-4.1,5.7-10.5,5.5"/>
	<path class="st17" d="M174.8,321.9c0,0-5.9-10.9-8.9-10.7s-8.4-19.2,2.9-32.7"/>
	<path class="st17" d="M112.3,275.2c0,0,7,5.7,32.8-2.6"/>
	<path class="st17" d="M112.3,286.8c0,0,19.2-0.4,28.5-8.2"/>
	<path class="st17" d="M90.6,290.7c0,0-1.9,21.9,11.4,27.7"/>
	<path class="st17" d="M87.2,311.2c0,0,3,7.7,13.1,7.2"/>
	<path class="st17" d="M155.5,303.1c0,0,1.3,9.1,13.7,10.5"/>
	<path class="st17" d="M126.3,362.5c0,0,30.3-5.6,35.2-15.3"/>
	<path class="st17" d="M133.4,370.4c0,0,10.8,14.5,28.5,11.2"/>
</g>
<g>
	<g>
		<path class="st1" d="M324.2,224.1c-0.2,0-0.2,0-0.3,0.1c-0.1,0-0.1,0-0.1,0.1c-0.1,0-0.2,0.1-0.3,0.2c-0.2,0.1-0.5,0.3-0.8,0.5
			c-0.3,0.2-0.5,0.3-0.7,0.5c-0.1,0.1-0.2,0.1-0.3,0.2c0,0,0,0-0.1,0c0,0,0.1,0,0,0c-0.1,0,0,0,0,0c0,0,0,0-0.1,0
			c-0.1,0-0.2,0-0.3,0.1c-0.2,0.1-0.5,0.1-0.9,0.2c-0.3,0.1-0.6,0.1-0.9,0.2c-0.1,0-0.2,0.1-0.3,0.1c0,0-0.1,0-0.1,0.1
			c-0.1,0-0.1,0-0.2,0.2c-0.1,0.1-0.1,0.2-0.2,0.2s0,0.1-0.1,0.1c0,0.1-0.1,0.2-0.1,0.3c-0.1,0.3-0.1,0.6-0.2,0.9
			c-0.1,0.3-0.1,0.6-0.2,0.9c0,0.1-0.1,0.2-0.1,0.3c0,0,0,0,0,0.1c0,0,0-0.1,0,0c0,0.1,0,0,0,0c0,0,0,0,0,0.1c0,0.1-0.1,0.2-0.2,0.3
			c-0.1,0.2-0.3,0.5-0.5,0.7c-0.2,0.3-0.3,0.5-0.5,0.8c-0.1,0.1-0.1,0.2-0.2,0.3c0,0,0,0.1-0.1,0.1c0,0.1-0.1,0.1-0.1,0.3
			c0,0.2,0,0.2,0.1,0.3c0,0.1,0,0.1,0.1,0.1c0,0.1,0.1,0.2,0.2,0.3c0.1,0.2,0.3,0.5,0.5,0.8c0.2,0.3,0.3,0.5,0.5,0.7
			c0.1,0.1,0.1,0.2,0.2,0.3c0,0,0,0,0,0.1c0,0,0-0.1,0,0c0,0.1,0,0,0,0c0,0,0,0,0,0.1c0,0.1,0,0.2,0.1,0.3c0.1,0.2,0.1,0.5,0.2,0.9
			c0.1,0.3,0.1,0.6,0.2,0.9c0,0.1,0.1,0.2,0.1,0.3c0,0,0,0.1,0.1,0.1s0,0.1,0.2,0.2c0.1,0.1,0.2,0.1,0.2,0.2c0.1,0,0.1,0,0.1,0.1
			c0.1,0,0.2,0.1,0.3,0.1c0.3,0.1,0.6,0.1,0.9,0.2c0.3,0.1,0.6,0.1,0.9,0.2c0.1,0,0.2,0.1,0.3,0.1c0,0,0,0,0.1,0c0,0-0.1,0,0,0
			c0.1,0,0,0,0,0c0,0,0,0,0.1,0c0.1,0,0.2,0.1,0.3,0.2c0.2,0.1,0.5,0.3,0.7,0.5s0.5,0.3,0.8,0.5c0.1,0.1,0.2,0.1,0.3,0.2
			c0,0,0.1,0,0.1,0.1c0.1,0,0.1,0.1,0.3,0.1s0.2,0,0.3-0.1c0.1,0,0.1,0,0.1-0.1c0.1,0,0.2-0.1,0.3-0.2c0.2-0.1,0.5-0.3,0.8-0.5
			c0.3-0.2,0.5-0.3,0.7-0.5c0.1-0.1,0.2-0.1,0.3-0.2c0,0,0,0,0.1,0c0,0-0.1,0,0,0c0.1,0,0,0,0,0c0,0,0,0,0.1,0c0.1,0,0.2,0,0.3-0.1
			c0.2-0.1,0.5-0.1,0.9-0.2c0.3-0.1,0.6-0.1,0.9-0.2c0.1,0,0.2-0.1,0.3-0.1c0,0,0.1,0,0.1-0.1c0.1,0,0.1,0,0.2-0.2
			c0.1-0.1,0.1-0.2,0.2-0.2s0-0.1,0.1-0.1c0-0.1,0.1-0.2,0.1-0.3c0.1-0.3,0.1-0.6,0.2-0.9c0.1-0.3,0.1-0.6,0.2-0.9
			c0-0.1,0.1-0.2,0.1-0.3c0,0,0,0,0-0.1c0,0,0,0.1,0,0c0-0.1,0,0,0,0c0,0,0,0,0-0.1c0-0.1,0.1-0.2,0.2-0.3c0.1-0.2,0.3-0.5,0.5-0.7
			c0.2-0.3,0.3-0.5,0.5-0.8c0.1-0.1,0.1-0.2,0.2-0.3c0,0,0-0.1,0.1-0.1c0-0.1,0.1-0.1,0.1-0.3c0-0.2,0-0.2-0.1-0.3
			c0-0.1,0-0.1-0.1-0.1c0-0.1-0.1-0.2-0.2-0.3c-0.1-0.2-0.3-0.5-0.5-0.8c-0.2-0.3-0.3-0.5-0.5-0.7c-0.1-0.1-0.1-0.2-0.2-0.3
			c0,0,0,0,0-0.1c0,0,0,0.1,0,0c0-0.1,0,0,0,0c0,0,0,0,0-0.1c0-0.1,0-0.2-0.1-0.3c-0.1-0.2-0.1-0.5-0.2-0.9
			c-0.1-0.3-0.1-0.6-0.2-0.9c0-0.1-0.1-0.2-0.1-0.3c0,0,0-0.1-0.1-0.1c0-0.1,0-0.1-0.2-0.2c-0.1-0.1-0.2-0.1-0.2-0.2
			c-0.1,0-0.1,0-0.1-0.1c-0.1,0-0.2-0.1-0.3-0.1c-0.3-0.1-0.6-0.1-0.9-0.2c-0.3-0.1-0.6-0.1-0.9-0.2c-0.1,0-0.2-0.1-0.3-0.1
			c0,0,0,0-0.1,0c0,0,0.1,0,0,0c-0.1,0,0,0,0,0c0,0,0,0-0.1,0c-0.1,0-0.2-0.1-0.3-0.2c-0.2-0.1-0.5-0.3-0.7-0.5
			c-0.3-0.2-0.5-0.3-0.8-0.5c-0.1-0.1-0.2-0.1-0.3-0.2c0,0-0.1,0-0.1-0.1C324.5,224.1,324.4,224.1,324.2,224.1L324.2,224.1z
			 M324.2,225.4c0,0,0.1,0,0.1,0.1c0.2,0.1,0.5,0.3,0.7,0.4s0.5,0.3,0.7,0.5c0.1,0.1,0.2,0.1,0.3,0.2c0.1,0,0.1,0.1,0.2,0.1
			c0.1,0.1,0.2,0.1,0.2,0.1c0.1,0,0.2,0,0.3,0.1c0.2,0.1,0.6,0.1,0.9,0.2c0.3,0.1,0.6,0.1,0.8,0.2c0,0,0.1,0,0.1,0c0,0,0,0.1,0,0.1
			c0.1,0.2,0.1,0.5,0.2,0.8c0.1,0.3,0.1,0.6,0.2,0.9c0,0.1,0.1,0.2,0.1,0.3c0,0.1,0,0.1,0.1,0.2c0.1,0.1,0.1,0.1,0.1,0.2
			c0,0.1,0.1,0.2,0.2,0.3c0.1,0.2,0.3,0.5,0.5,0.7c0.2,0.3,0.3,0.5,0.4,0.7c0,0,0,0.1,0.1,0.1c0,0,0,0.1-0.1,0.1
			c-0.1,0.2-0.3,0.5-0.4,0.7c-0.2,0.3-0.3,0.5-0.5,0.7c-0.1,0.1-0.1,0.2-0.2,0.3c0,0.1-0.1,0.1-0.1,0.2c-0.1,0.1-0.1,0.2-0.1,0.2
			s0,0.2-0.1,0.3c-0.1,0.2-0.1,0.6-0.2,0.9c-0.1,0.3-0.1,0.6-0.2,0.8c0,0,0,0.1,0,0.1c0,0-0.1,0-0.1,0c-0.2,0.1-0.5,0.1-0.8,0.2
			s-0.6,0.1-0.9,0.2c-0.1,0-0.2,0.1-0.3,0.1c-0.1,0-0.1,0-0.2,0.1s-0.1,0.1-0.2,0.1c-0.1,0-0.2,0.1-0.3,0.2
			c-0.2,0.1-0.5,0.3-0.7,0.5c-0.3,0.2-0.5,0.3-0.7,0.4c0,0-0.1,0-0.1,0.1c0,0-0.1,0-0.1-0.1c-0.2-0.1-0.5-0.3-0.7-0.4
			s-0.5-0.3-0.7-0.5c-0.1-0.1-0.2-0.1-0.3-0.2c-0.1,0-0.1-0.1-0.2-0.1c-0.1-0.1-0.2-0.1-0.2-0.1c-0.1,0-0.2,0-0.3-0.1
			c-0.2-0.1-0.6-0.1-0.9-0.2s-0.6-0.1-0.8-0.2c0,0-0.1,0-0.1,0c0,0,0-0.1,0-0.1c-0.1-0.2-0.1-0.5-0.2-0.8c-0.1-0.3-0.1-0.6-0.2-0.9
			c0-0.1-0.1-0.2-0.1-0.3c0-0.1,0-0.1-0.1-0.2c-0.1-0.1-0.1-0.1-0.1-0.2c0-0.1-0.1-0.2-0.2-0.3c-0.1-0.2-0.3-0.5-0.5-0.7
			c-0.2-0.3-0.3-0.5-0.4-0.7c0,0,0-0.1-0.1-0.1c0,0,0-0.1,0.1-0.1c0.1-0.2,0.3-0.5,0.4-0.7c0.2-0.3,0.3-0.5,0.5-0.7
			c0.1-0.1,0.1-0.2,0.2-0.3c0-0.1,0.1-0.1,0.1-0.2c0.1-0.1,0.1-0.2,0.1-0.2c0-0.1,0-0.2,0.1-0.3c0.1-0.2,0.1-0.6,0.2-0.9
			c0.1-0.3,0.1-0.6,0.2-0.8c0,0,0-0.1,0-0.1c0,0,0.1,0,0.1,0c0.2-0.1,0.5-0.1,0.8-0.2s0.6-0.1,0.9-0.2c0.1,0,0.2-0.1,0.3-0.1
			c0.1,0,0.1,0,0.2-0.1s0.1-0.1,0.2-0.1c0.1,0,0.2-0.1,0.3-0.2c0.2-0.1,0.5-0.3,0.7-0.5c0.3-0.2,0.5-0.3,0.7-0.4
			C324.2,225.4,324.2,225.4,324.2,225.4L324.2,225.4z M326.9,229c-0.2,0-0.3,0.1-0.4,0.2l-3.1,3.5l-1.3-1.1l0,0
			c-0.3-0.2-0.7-0.2-0.9,0.1c-0.1,0.1-0.2,0.3-0.1,0.5c0,0.2,0.1,0.3,0.2,0.4l1.8,1.5c0.3,0.2,0.7,0.2,0.9-0.1l3.5-3.9
			c0.2-0.3,0.2-0.7-0.1-0.9C327.3,229,327.1,228.9,326.9,229L326.9,229z"/>
	</g>
	<g>
		<g>
			<path class="st8" d="M363.1,224.5c3.9,0,7.2,3.2,7.2,7.2s-3.2,7.2-7.2,7.2c-3.9,0-7.2-3.2-7.2-7.2S359.2,224.5,363.1,224.5z
				 M362.7,227.5v4.2c0,0.1,0,0.2,0.1,0.3l2.5,2.5c0.2,0.2,0.4,0.2,0.6,0c0.2-0.2,0.2-0.4,0-0.6l-2.4-2.4v-4c0-0.2-0.2-0.4-0.4-0.4
				C362.9,227,362.7,227.2,362.7,227.5L362.7,227.5z"/>
		</g>
	</g>
	<g>
		<path class="st1" d="M343.6,224.5c-0.3,0-0.5,0.2-0.5,0.5c0,0.3,0.2,0.5,0.5,0.5c3.4,0,6.2,2.8,6.2,6.2s-2.8,6.2-6.2,6.2
			s-6.2-2.8-6.2-6.2c0-3,2.1-5.4,4.9-6.1c0.1,0,0.2-0.1,0.3-0.2c0.1-0.1,0.1-0.2,0.1-0.4c0-0.1-0.1-0.2-0.2-0.3
			c-0.1-0.1-0.3-0.1-0.4,0c-3.2,0.7-5.6,3.6-5.6,7c0,3.9,3.2,7.2,7.2,7.2s7.2-3.2,7.2-7.2C350.8,227.7,347.6,224.5,343.6,224.5
			C343.7,224.5,343.6,224.5,343.6,224.5L343.6,224.5z M343.7,228c-0.6,0-1.2,0.2-1.6,0.5c-0.4,0.4-0.7,0.9-0.7,1.5v0
			c0,0.5,0.1,0.8,0.3,1.1h-0.3c0,0,0,0,0,0c-0.1,0-0.2,0.1-0.3,0.2c-0.1,0.1-0.1,0.2-0.1,0.3c0,0.1,0.1,0.2,0.2,0.3
			c0.1,0.1,0.2,0.1,0.3,0.1h0.8c0,0.1,0,0.3,0,0.5c0,0.4-0.1,0.6-0.3,0.8c-0.2,0.2-0.4,0.4-0.7,0.6c-0.2,0.1-0.3,0.4-0.1,0.6
			l0.2,0.3c0.1,0.1,0.2,0.2,0.3,0.2c0.1,0,0.3,0,0.4-0.1c0.3-0.2,0.4-0.2,0.7-0.2c0.3,0,0.6,0.1,0.9,0.2c0.3,0.1,0.7,0.3,1.2,0.3
			c0.5,0,0.9-0.2,1.3-0.4c0.2-0.1,0.3-0.4,0.2-0.6c-0.1-0.2-0.4-0.3-0.6-0.2c-0.3,0.2-0.7,0.3-0.9,0.3c-0.3,0-0.5-0.1-0.9-0.2
			c-0.3-0.1-0.7-0.2-1.1-0.3c0.2-0.3,0.4-0.8,0.4-1.3c0-0.2,0-0.3,0-0.5h1.1c0.1,0,0.3,0,0.3-0.1c0.1-0.1,0.1-0.2,0.1-0.3
			s-0.1-0.3-0.1-0.3c-0.1-0.1-0.2-0.1-0.3-0.1h-1.5c0-0.1-0.1-0.1-0.1-0.2c-0.2-0.3-0.3-0.4-0.3-0.9c0-0.4,0.2-0.7,0.4-0.8
			c0.2-0.2,0.5-0.3,1-0.3c0.5,0,1.1,0.4,1.2,0.9c0,0.1,0.1,0.2,0.2,0.3c0.1,0.1,0.2,0.1,0.4,0.1c0.1,0,0.2-0.1,0.3-0.2
			c0.1-0.1,0.1-0.2,0.1-0.4C345.7,228.6,344.6,228,343.7,228L343.7,228z"/>
	</g>
</g>
<circle class="st18" cx="97.6" cy="89" r="23.6"/>
<circle class="st18" cx="175.8" cy="99.2" r="13.4"/>
<circle class="st18" cx="133" cy="144.8" r="8.7"/>
</svg>
