<?xml version="1.0" encoding="utf-8"?>
<!-- Generator: Adobe Illustrator 26.0.3, SVG Export Plug-In . SVG Version: 6.00 Build 0)  -->
<svg version="1.1" id="Layer_1" xmlns="http://www.w3.org/2000/svg" xmlns:xlink="http://www.w3.org/1999/xlink" x="0px" y="0px"
	 width="500px" height="500px" viewBox="0 0 500 500" enable-background="new 0 0 500 500" xml:space="preserve">
<path d="M451.49,11.06H48.9c-20.44,0-37.17,16.73-37.17,37.17v402.59c0,20.44,16.73,37.17,37.17,37.17h221.04V306.83h-45.72
	c-3.72,0-6.73-3.01-6.73-6.73v-68.41c0-3.72,3.01-6.73,6.73-6.73h48v-50.8c-0.96-5.5-4.96-37.23,23.84-63.72
	c25.99-23.91,58.89-25.77,68.36-25.77c1.26,0,2.11,0.03,2.5,0.05h54.56c3.72,0,6.73,3.01,6.73,6.73v63.61
	c0,3.72-3.01,6.73-6.73,6.73c0,0-37.6,0-39.59,0c-13.91,0-20.96,6.64-20.96,19.74v43.44h60.54c1.92,0,3.74,0.82,5.02,2.25
	c1.28,1.43,1.88,3.34,1.66,5.25l-7.98,69.3c-0.39,3.39-3.27,5.96-6.68,5.96h-52.56v180.27h90.56c20.44,0,37.17-16.73,37.17-37.17
	V48.23C488.66,27.79,471.93,11.06,451.49,11.06z"/>
</svg>
