<?xml version="1.0" encoding="utf-8"?>
<!-- Generator: Adobe Illustrator 26.0.3, SVG Export Plug-In . SVG Version: 6.00 Build 0)  -->
<svg version="1.1" id="Layer_1" xmlns="http://www.w3.org/2000/svg" xmlns:xlink="http://www.w3.org/1999/xlink" x="0px" y="0px"
	 width="500px" height="500px" viewBox="0 0 500 500" enable-background="new 0 0 500 500" xml:space="preserve">
<path d="M453.48,11C453.47,11,453.47,11,453.48,11L46.92,11c-19.25-0.22-35.03,15.2-35.25,34.45c0,0,0,0,0,0V453.6
	c0.22,19.25,16,34.67,35.24,34.45c0,0,0,0,0,0h406.55c19.25,0.22,35.03-15.2,35.25-34.45c0,0,0,0,0,0V45.46
	C488.5,26.21,472.72,10.78,453.48,11z M153.19,417.56H82.43V189.9h70.76V417.56z M117.95,159.42c-22.69,0-41.08-18.39-41.08-41.08
	s18.39-41.08,41.08-41.08s41.08,18.39,41.08,41.08S140.63,159.42,117.95,159.42z M418.22,417.56h-70.76V306.77
	c0-26.5,0-60.43-36.84-60.43c-36.84,0-42.4,28.76-42.4,58.44v112.64h-70.5V189.9h67.85v31.14h0.93
	c13.84-23.63,39.55-37.73,66.92-36.71c71.69,0,84.81,47.18,84.81,108.4V417.56z"/>
</svg>
