<?xml version="1.0" encoding="utf-8"?>
<!-- Generator: Adobe Illustrator 26.0.3, SVG Export Plug-In . SVG Version: 6.00 Build 0)  -->
<svg version="1.1" id="Layer_1" xmlns="http://www.w3.org/2000/svg" xmlns:xlink="http://www.w3.org/1999/xlink" x="0px" y="0px"
	 width="500px" height="500px" viewBox="0 0 500 500" enable-background="new 0 0 500 500" xml:space="preserve">
<g>
	<path d="M439.76,411.17c3.68,3.65,5.76,8.62,5.76,13.8s-2.08,10.15-5.76,13.8c-3.65,3.68-8.62,5.76-13.8,5.76
		s-10.15-2.08-13.8-5.76L278.41,305.01l27.61-27.61L439.76,411.17z M201.04,327.77c13.09,22.2,14.49,49.39,3.75,72.83
		c-10.75,23.42-32.28,40.12-57.65,44.67c-25.37,4.56-51.38-3.59-69.61-21.82c-18.22-18.23-26.37-44.23-21.82-69.61
		c4.56-25.37,21.25-46.9,44.67-57.65c23.44-10.74,50.63-9.33,72.83,3.75L223.58,250l-50.36-49.96
		c-22.2,13.09-49.39,14.49-72.83,3.75c-23.42-10.75-40.12-32.28-44.67-57.65c-4.56-25.37,3.59-51.38,21.82-69.61
		s44.23-26.37,69.61-21.82c25.37,4.56,46.9,21.25,57.65,44.67c10.74,23.44,9.33,50.63-3.75,72.83l49.96,50.36L412.17,61.23
		c7.62-7.64,19.98-7.64,27.59,0c7.64,7.62,7.64,19.98,0,27.59L201.04,327.77z M173.22,133.35c0-15.73-9.46-29.91-24-35.92
		c-14.53-6.01-31.24-2.7-42.36,8.44c-11.14,11.12-14.45,27.83-8.44,42.36c6.01,14.54,20.19,24,35.92,24
		c10.32,0,20.19-4.08,27.48-11.39C169.14,153.55,173.22,143.67,173.22,133.35z M173.22,366.65c0-15.73-9.46-29.91-24-35.92
		c-14.53-6.01-31.24-2.7-42.36,8.44c-11.14,11.12-14.45,27.83-8.44,42.36c6.01,14.54,20.19,24,35.92,24
		c10.32,0,20.19-4.08,27.48-11.39C169.14,386.84,173.22,376.96,173.22,366.65z"/>
</g>
</svg>
