<?xml version="1.0" encoding="utf-8"?>
<!-- Generator: Adobe Illustrator 26.0.3, SVG Export Plug-In . SVG Version: 6.00 Build 0)  -->
<svg version="1.1" id="Layer_1" xmlns="http://www.w3.org/2000/svg" xmlns:xlink="http://www.w3.org/1999/xlink" x="0px" y="0px"
	 width="500px" height="500px" viewBox="0 0 500 500" enable-background="new 0 0 500 500" xml:space="preserve">
<g>
	<path d="M469.01,198.95c-2.29-7.18-8.4-12.32-15.83-13.39l-128.23-18.62L267.6,50.72c-3.32-6.74-10.06-10.9-17.61-10.9
		c-7.52,0-14.28,4.16-17.61,10.9l-57.33,116.22L46.82,185.57c-7.43,1.07-13.54,6.21-15.83,13.39c-2.35,7.14-0.44,14.86,4.98,20.09
		l92.79,90.44L106.8,437.25c-0.97,5.73,0.59,11.5,4.3,15.89c5.86,6.95,16.08,9.05,24.2,4.79l114.7-60.33l114.7,60.33
		c2.88,1.51,5.96,2.25,9.15,2.25c5.77,0,11.29-2.54,15.05-7.05c3.72-4.39,5.27-10.16,4.3-15.89l-21.94-127.74l92.79-90.44
		C469.45,213.83,471.36,206.1,469.01,198.95L469.01,198.95z"/>
</g>
</svg>
