<?xml version="1.0" encoding="utf-8"?>
<!-- Generator: Adobe Illustrator 26.0.3, SVG Export Plug-In . SVG Version: 6.00 Build 0)  -->
<svg version="1.1" id="Layer_1" xmlns="http://www.w3.org/2000/svg" xmlns:xlink="http://www.w3.org/1999/xlink" x="0px" y="0px"
	 width="200px" height="60px" viewBox="0 0 200 60" enable-background="new 0 0 200 60" xml:space="preserve">
<g>
	<g>
		<path fill="#2C324A" d="M12.8,54.06l-0.5-0.07H11.6l-0.78-0.14l-0.71-0.14l-0.5-0.14l-1.13-0.5L7.7,52.78l-0.71-0.5l-0.85-0.57
			L5.43,50.8l-0.71-0.85l-0.64-0.99l-0.5-1.2l-0.14-0.57l-0.5-1.28l-0.07-0.43l-0.21-0.99L2.6,44.07l-0.14-1.13v-2.13l0.07-1.2
			l-0.07-0.5l0.14-1.06l0.07-0.57l0.14-0.5l0.21-1.13l0.99-0.5l1.7-0.14l0.85,0.07h3.97l0.92,0.07l0.57,0.99v2.62l-0.07,0.5v1.49
			l0.14,1.56l0.21,0.71l0.5,1.06l0.71,0.71l0.92,0.21h0.64l0.57-0.14l0.78-0.21l0.35-0.35l0.35-0.64l0.28-0.5l0.28-0.85l0.14-0.85
			l0.07-0.71v-0.5l-0.07-0.99v-1.13l-0.28-1.28v-0.43l-0.21-1.06l-0.57-0.99l-0.57-0.85l-0.5-0.99l-0.28-0.43l-0.14-0.35l-0.21-0.35
			l-0.5-0.5l-0.35-0.57l-0.78-0.92l-0.35-0.35l-0.28-0.43l-0.78-0.92l-0.85-0.92l-0.64-0.92l-0.71-0.78l-0.71-0.57l-0.35-0.5
			l-0.43-0.71l-0.43-1.06l-0.28-0.64l-0.35-0.5l-0.21-0.5l-0.14-0.57l-0.28-0.92l-0.07-0.92L6.5,17.85l0.07-0.5V15.3l0.14-1.42
			l0.21-0.5l0.07-0.99l0.28-0.5l0.21-0.71l0.07-0.71l0.43-0.92l0.28-0.57l0.21-0.5l0.21-0.35L9.26,7.5l0.21-0.28L9.9,6.51l0.43-0.43
			l0.85-0.71l1.28-0.92l1.13-0.43l0.78-0.43l1.35-0.28l1.2-0.35h2.2l1.77,0.07h0.5l0.64,0.14l1.06,0.07l1.2,0.35l0.5,0.07l0.28,0.21
			l0.85,0.43l0.5,0.43l0.57,0.21l0.78,0.71l0.21,0.28l0.71,0.78l0.21,0.35l0.5,0.78l0.28,0.43l0.14,0.78l0.21,0.5l0.43,1.7v1.56
			l0.07,1.42l-0.07,1.2l-0.28,1.98l-0.28,1.56l-0.85,0.43l-1.28,0.07h-3.97l-0.99-0.07H21.8l-0.57-0.5l-0.07-0.92l0.14-0.57
			l0.21-2.2v-1.63l-0.14-0.85l-0.21-0.43l-0.64-0.64l-0.71-0.57l-0.92-0.14l-0.85,0.28l-0.78,0.35l-0.35,0.5l-0.21,0.5l-0.28,0.71
			l-0.07,0.5l-0.21,0.71l-0.07,0.99v0.92l0.07,0.5l0.5,1.35l0.57,0.99l0.28,0.57l0.5,0.92l0.78,0.99l0.92,1.13l0.28,0.43l0.35,0.35
			l0.28,0.57l0.28,0.35l0.43,0.28l0.71,0.57l0.21,0.43l0.35,0.21l0.21,0.35l0.64,0.71l0.35,0.64l0.85,0.85l0.5,1.2l0.64,0.78
			l0.07,0.35l0.57,1.42l0.43,0.92l0.43,1.49l0.07,0.5l0.07,0.57l0.07,0.5l0.35,1.2l0.14,0.43l-0.07,0.99l-0.07,0.43l0.07,0.5
			l-0.07,0.5v1.98l-0.21,0.99l-0.07,0.43v1.06l-0.28,0.92l-0.14,0.57l-0.14,0.64l-0.35,0.99l-0.64,1.2l-0.43,0.28l-0.35,0.71
			l-0.35,0.28l-0.57,0.64l-0.35,0.28l-0.57,0.5l-0.71,0.43l-0.64,0.5L21.17,53l-0.43,0.28l-1.06,0.35l-0.57,0.07l-0.92,0.28
			l-0.5,0.07l-0.64-0.07l-0.5,0.07h-0.78l-0.5,0.07L14.5,54.2L12.8,54.06z"/>
		<path fill="#2C324A" d="M33,53.28l-0.35-0.85l0.14-0.57v-1.13l0.14-1.13l0.28-0.99l0.07-0.5l0.21-0.99l0.14-0.35l0.21-0.99
			l0.14-0.64L34.2,44v-0.5l0.14-0.57v-0.92l0.28-0.5l0.07-0.85l0.07-0.5l0.21-0.85l0.07-0.43l-0.07-0.5l0.14-0.92l0.28-1.13
			l0.14-0.85l0.14-0.64l0.21-0.78l0.14-0.85l0.07-0.5l0.14-0.43l0.07-0.92l0.07-0.43v-0.43l0.35-0.85l0.07-0.43l0.07-0.5l0.07-0.99
			l0.07-0.71l0.35-0.85l0.14-0.57l0.14-0.71v-0.99l0.07-0.57l0.21-0.57v-0.57l0.21-0.5v-0.5l0.14-0.5l0.14-0.92l0.21-0.78l0.21-0.64
			v-0.85l0.07-0.5l0.14-0.43l0.35-1.98v-0.5l0.28-0.64l0.14-0.64l0.07-0.92l0.07-0.5l0.07-0.43l0.07-0.5l0.14-0.43l0.07-0.5
			l0.14-0.92l0.14-0.85l0.21-0.92V6.37l0.21-0.92l0.14-0.43l0.21-0.35l0.43-0.78l0.71-0.14l0.99-0.07l1.2,0.07h0.64l0.92-0.07
			l1.35,0.07l0.85-0.07l1.06,0.07h0.99l0.78,0.21l0.43,0.64l0.07,0.5l0.28,0.71l0.14,0.85l0.07,0.78l0.28,0.99l0.28,1.7l0.21,1.13
			l0.21,1.2l0.21,0.99l0.28,1.42l0.14,0.57l0.07,0.5L54.19,17l0.21,0.92v0.43l0.21,0.78v0.5l0.07,0.78l0.21,1.06l0.14,1.2l0.21,1.2
			L55.32,25L55.46,26l0.14,0.57l0.21,1.91l0.28,1.63l0.14,1.56v0.5l0.14,0.5l0.14,0.85l0.21,1.91l0.21,1.56h0.21l0.07-1.42l0.14-1.7
			v-0.99l0.21-3.4l0.21-1.49v-2.41l0.21-0.99l0.07-0.43l0.07-0.5l0.07-0.57l0.07-0.99l0.14-0.43l0.14-0.99v-0.43l0.28-0.92v-0.85
			l0.07-0.85v-0.5l0.43-0.85l-0.07-0.5l0.21-1.28v-0.43l0.21-0.92l0.07-0.5l0.14-0.43l0.14-0.99l0.07-0.57l0.21-0.99l0.14-0.5
			l0.21-0.57V8l0.07-0.43l0.21-1.13l0.28-1.49l0.57-0.99l0.28-0.21l1.35-0.28l1.49,0.14l0.5-0.07h0.71l1.63,0.07h0.71l0.99-0.07
			l0.99,0.21l0.43,0.21l0.07,0.57v0.57l-0.21,0.99l0.07,0.57l-0.21,1.56L70.49,9.2l-0.43,1.7l-0.21,0.78l-0.21,1.28l-0.14,0.57
			l-0.21,1.49L69,16.15l-0.14,1.13l-0.21,0.64l-0.14,0.57l-0.14,0.5v0.92l-0.14,0.5l-0.28,2.13l-0.21,0.64l-0.07,0.78l-0.07,0.5
			L67.44,25l-0.21,0.92l-0.14,0.5l-0.21,0.92l-0.14,0.99l-0.14,0.57l0.07,0.64l-0.14,0.43l-0.07,0.5l-0.14,0.43l-0.07,0.5
			l-0.07,0.43v0.92l-0.21,0.42l-0.21,0.99l-0.14,0.64l-0.07,0.64l-0.07,0.43l-0.07,0.5l-0.07,0.43v0.43l-0.28,0.99l-0.14,0.99
			l-0.14,0.71l-0.28,0.64l-0.28,0.85l-0.07,0.78l-0.07,0.92L63.9,44l-0.21,0.57l-0.28,0.99v1.13l-0.35,0.92v0.43l-0.14,0.5
			l-0.21,0.92l-0.35,2.27l-0.64,0.85l-0.71,0.5L60,53.14l-0.78,0.14h-0.28l-1.35-0.07l-0.5,0.07l-0.71-0.07l-0.43,0.07h-1.42
			l-0.92-0.07h-1.2l-0.57-0.5l-0.57-1.13l-0.35-0.99l-0.07-0.35l-0.07-0.85l-0.07-0.43l-0.14-1.49l-0.07-0.43l-0.28-1.49l-0.07-0.43
			l-0.14-0.99l-0.07-1.06l-0.21-0.78l-0.21-1.06v-0.43l-0.21-0.99l-0.07-0.43l-0.21-0.99l-0.07-0.43v-1.06l-0.28-1.42l-0.14-1.35
			l-0.28-1.98l-0.35-2.27l-0.21-1.98l-0.43-2.55l-0.43-2.69h-0.21l-0.07,1.98l-0.07,1.42l-0.07,0.78l-0.14,1.2l-0.07,1.77l-0.5,3.4
			l-0.28,2.76l-0.14,0.43l-0.21,0.92l0.14,0.5l-0.21,0.85l-0.14,0.5l0.07,0.5l-0.07,0.43l-0.14,0.99l-0.28,1.06l-0.28,1.42
			l-0.14,0.99l-0.07,0.43l-0.14,0.5l-0.28,2.06l-0.21,0.92l-0.07,0.5v0.92l-0.14,0.43l-0.21,1.28l-0.28,0.85l-0.21,0.71l-0.78,0.28
			h-7.51L33,53.28z"/>
		<path fill="#2C324A" d="M79.7,53.35h-2.06l-0.99-0.14h-0.57l-0.5,0.07l-0.78-0.07l-0.5-0.07l-0.57,0.07l-0.57-0.14l-0.57-0.5
			l-0.07-1.06l0.35-0.99l0.07-1.06l0.14-0.5l0.14-0.99l0.07-0.57l0.21-1.06l0.07-0.5l0.14-0.57l0.07-0.5l0.28-0.92l-0.07-0.43
			l0.21-1.28l0.21-0.78l0.14-0.64l0.21-0.64l0.14-0.64l0.14-0.85v-0.5l0.14-0.5l0.07-0.43l0.14-0.5l-0.07-0.5l0.5-1.56l0.14-1.06
			v-0.43l0.14-0.5l0.07-0.5l0.07-0.43l0.14-0.99v-0.99l0.28-0.99v-0.5l0.14-0.99l0.28-0.57v-0.92l0.14-0.85l0.21-0.92l0.35-0.99
			l0.21-1.49v-0.99l0.21-0.5l0.14-0.99l0.07-0.43l-0.07-0.5l0.28-0.85l0.07-0.43l0.21-0.92l0.07-0.5l0.28-0.92l-0.07-0.5l0.07-0.57
			l0.07-0.92l0.14-0.35l0.14-0.99l0.21-0.92l0.07-0.43l0.14-0.43l0.07-0.85l0.14-0.78L80.62,7l0.14-1.06l0.14-0.43l0.07-0.5
			l0.5-0.71l0.5-0.21l0.43-0.28l0.5-0.07l1.06-0.07l0.64,0.07h0.99l0.5-0.07h3.76l0.5-0.07l0.78,0.21l0.28,0.71l-0.07,0.43v0.92
			l-0.14,0.21l-0.07,0.78l0.07,0.43l-0.21,0.28v0.64l-0.21,0.35l-0.14,0.99l-0.28,0.64v0.57l-0.07,0.43v0.5l-0.07,0.43l-0.35,1.84
			l-0.14,0.78l-0.14,0.43L89.41,16l-0.07,0.5l-0.07,0.85l-0.07,0.5l-0.14,0.92l-0.21,0.85l-0.21,0.92l-0.07,0.35l-0.21,0.99
			l-0.21,0.64v0.64l-0.07,0.5l-0.07,0.57v0.5l-0.14,0.92l-0.21,0.71l-0.35,2.13L87,29.47l-0.21,0.5v0.57l-0.21,0.92l-0.14,0.92
			l-0.14,0.85L86,34.22v0.57l-0.28,0.99v0.57l-0.14,0.99l-0.07,0.35v0.99l-0.35,0.71l0.07,0.78l-0.21,1.06l-0.07,0.57l-0.28,0.92
			v0.57l-0.21,0.99l-0.14,0.99l-0.14,0.92v0.5l-0.21,0.78l-0.28,1.7l-0.21,0.92l-0.14,0.99L83.1,52l-0.07,0.57l-0.21,0.64
			l-0.78,0.21h-1.84L79.7,53.35z"/>
		<path fill="#2C324A" d="M95.22,53.28l-0.5-0.07l-1.28,0.07l-0.43-0.35v-1.35l0.21-0.43l-0.07-0.5l0.21-0.99v-0.43l0.21-0.99
			l0.21-1.06l0.21-0.92l0.07-0.5l0.21-0.85l0.07-0.5L94.44,44l0.28-1.63l0.21-0.43L95,41.02l0.07-0.5l0.14-0.43l0.28-0.92l0.07-0.43
			l0.07-0.85v-0.35L96,36.84v-0.78l0.14-0.43v-0.5l0.21-0.43l0.07-1.06l0.21-1.49l0.21-0.5l0.07-0.57l0.07-0.99l0.14-0.5l0.07-0.43
			l0.14-0.5l0.07-0.43l0.21-0.99l0.07-0.57l0.14-1.06l0.21-1.13l0.21-0.92v-0.85l0.07-0.92l0.14-0.5l0.21-0.5l0.07-0.92l0.07-0.43
			l0.28-1.13l0.07-0.78l-0.07-0.28l0.21-0.92l0.07-0.43l0.07-1.28l0.14-0.57l0.21-0.99l0.21-0.64l0.07-0.85l0.14-0.5v-0.57l0.14-0.5
			l0.07-0.5V9.13l0.14-0.5l0.28-1.13l0.07-0.5l0.07-0.57l0.21-0.99l0.07-0.57l0.28-0.92l0.57-0.28h3.69l0.92-0.07l0.92,0.07
			l0.43-0.07h4.75l0.5,0.07l1.06-0.07h0.99l1.06,0.14h0.57l0.92,0.14l1.49,0.21l1.13,0.21l0.5,0.14l0.5,0.35l0.5,0.21l0.92,0.5
			l0.64,0.57l0.28,0.35L124.34,7l0.43,0.5l0.21,0.57l0.43,0.92l0.14,0.5l0.28,0.78l0.07,0.78l0.07,0.5l0.21,0.78l-0.07,0.71
			l0.07,1.06v0.5l0.07,0.78l-0.07,0.78l-0.14,0.78l-0.07,0.5l-0.14,1.56l-0.14,0.99l-0.21,0.5l-0.07,0.57l-0.21,0.5l-0.07,0.43
			l-0.14,0.43l-0.21,0.99l-0.21,0.57l-0.35,0.99l-0.57,1.35l-0.35,0.78l-0.5,0.85l-0.64,1.06l-0.43,0.43l-0.5,0.85l-0.64,0.57
			l-0.5,0.71l-0.35,0.5l-0.92,0.71l-0.35,0.42l-0.99,0.5l-0.71,0.21l-0.92,0.43l-1.13,0.35l-0.85,0.14l-0.92,0.07L111.94,35
			l-1.98,0.14l-1.35-0.07h-1.56L105.99,35v0.14l-0.07,0.5l-0.21,0.57l-0.07,0.92l-0.14,0.35l-0.07,0.92l-0.07,0.43l-0.07,0.5
			l-0.14,0.42l-0.07,0.5v0.43l-0.21,0.99l-0.21,0.64l-0.14,0.85l-0.14,0.5l-0.21,0.85l-0.07,0.5l-0.21,0.5v0.71l-0.21,1.06v0.99
			l-0.28,0.43v0.57l-0.07,0.5l-0.14,0.43l-0.07,0.5l-0.21,0.57l-0.07,0.64l-0.07,0.57l-0.21,0.85l-0.5,0.07h-5.67L95.22,53.28z
			 M109.32,26.07l0.78-0.14l1.35-0.14l0.5-0.21l1.13-0.85l0.78-0.71l0.5-0.78l0.28-0.43l0.35-0.99l0.14-0.64l0.28-0.64l0.28-1.2
			l0.28-1.98l0.14-1.84v-1.2l-0.28-0.85l-0.43-0.64l-0.78-0.57l-0.64-0.14l-1.91-0.07l-1.63,0.07l-0.5,0.14l-0.35,0.85l-0.14,0.35
			l-0.07,0.71l-0.14,1.2l-0.14,0.5l-0.21,0.85l-0.21,1.42l-0.14,0.71l-0.21,1.13l-0.07,0.85v0.57l-0.14,0.64l-0.35,1.77v0.64
			l-0.21,0.99l-0.07,0.64H109.32z"/>
		<path fill="#2C324A" d="M129.44,53.28l-0.5-0.07l-1.28,0.07l-0.43-0.35v-1.35l0.21-0.43l-0.07-0.5l0.21-0.99v-0.43l0.21-0.99
			l0.21-1.06l0.21-0.92l0.07-0.5l0.21-0.85l0.07-0.5l0.07-0.42l0.28-1.63l0.21-0.43l0.07-0.92l0.07-0.5l0.14-0.43l0.28-0.92
			l0.07-0.43l0.07-0.85v-0.35l0.35-0.71v-0.78l0.14-0.43v-0.5l0.21-0.43l0.07-1.06l0.21-1.49l0.21-0.5l0.07-0.57l0.07-0.99l0.14-0.5
			l0.07-0.43l0.14-0.5l0.07-0.43l0.21-0.99l0.07-0.57l0.14-1.06l0.21-1.13l0.21-0.92v-0.85l0.07-0.92l0.14-0.5l0.21-0.5l0.07-0.92
			l0.07-0.43l0.28-1.13l0.07-0.78l-0.07-0.28l0.21-0.92l0.07-0.43l0.07-1.28l0.14-0.57l0.21-0.99l0.21-0.64l0.07-0.85l0.14-0.5
			v-0.57l0.14-0.5l0.07-0.5V9.13l0.14-0.5l0.28-1.13l0.07-0.5l0.07-0.57l0.21-0.99l0.07-0.57l0.28-0.92l0.57-0.28h3.68l0.92-0.07
			l0.92,0.07l0.43-0.07h4.75l0.5,0.07l1.06-0.07h0.99l1.06,0.14h0.57l0.92,0.14l1.49,0.21l1.13,0.21l0.5,0.14l0.5,0.35l0.5,0.21
			l0.92,0.5l0.64,0.57l0.28,0.35L158.57,7l0.43,0.5l0.21,0.57l0.43,0.92l0.14,0.5l0.28,0.78l0.07,0.78l0.07,0.5l0.21,0.78
			l-0.07,0.71l0.07,1.06v0.5l0.07,0.78l-0.07,0.78l-0.14,0.78l-0.07,0.5l-0.14,1.56l-0.14,0.99l-0.21,0.5l-0.07,0.57l-0.21,0.5
			l-0.07,0.43l-0.14,0.43l-0.21,0.99l-0.21,0.57l-0.35,0.99l-0.57,1.35l-0.35,0.78l-0.5,0.85l-0.64,1.06l-0.43,0.43l-0.5,0.85
			l-0.64,0.57l-0.5,0.71l-0.35,0.5l-0.92,0.71l-0.35,0.42l-0.99,0.5l-0.71,0.21l-0.92,0.43l-1.13,0.35l-0.85,0.14l-0.92,0.07
			L146.17,35l-1.98,0.14l-1.35-0.07h-1.56L140.21,35v0.14l-0.07,0.5l-0.21,0.57l-0.07,0.92l-0.14,0.35l-0.07,0.92l-0.07,0.43
			l-0.07,0.5l-0.14,0.42l-0.07,0.5v0.43l-0.21,0.99l-0.21,0.64l-0.14,0.85l-0.14,0.5l-0.21,0.85l-0.07,0.5l-0.21,0.5v0.71
			l-0.21,1.06v0.99l-0.28,0.43v0.57l-0.07,0.5l-0.14,0.43l-0.07,0.5l-0.21,0.57l-0.07,0.64l-0.07,0.57l-0.21,0.85l-0.5,0.07h-5.67
			L129.44,53.28z M143.54,26.07l0.78-0.14l1.35-0.14l0.5-0.21l1.13-0.85l0.78-0.71l0.5-0.78l0.28-0.43l0.35-0.99l0.14-0.64
			l0.28-0.64l0.28-1.2l0.28-1.98l0.14-1.84v-1.2l-0.28-0.85l-0.43-0.64l-0.78-0.57l-0.64-0.14l-1.91-0.07l-1.63,0.07l-0.5,0.14
			l-0.35,0.85l-0.14,0.35l-0.07,0.71l-0.14,1.2l-0.14,0.5l-0.21,0.85l-0.21,1.42l-0.14,0.71l-0.21,1.13l-0.07,0.85v0.57l-0.14,0.64
			l-0.35,1.77v0.64l-0.21,0.99l-0.07,0.64H143.54z"/>
		<path fill="#2C324A" d="M166.08,53.35h-0.92l-2.2-0.14l-0.64-0.14l-0.14-0.43V52l0.21-0.71l0.07-0.71l0.07-0.78v-0.5l0.14-0.43
			v-0.5l0.21-0.5v-0.43l0.07-0.5l0.21-0.99v-0.5l0.21-0.57l-0.07-0.5l0.21-0.57l0.07-0.99l0.14-0.57l0.07-0.5l-0.07-0.57l0.28-0.57
			V39.6l0.35-1.28v-0.64l0.14-0.71l0.07-1.06v-0.57l0.28-0.99l0.07-0.5l0.07-0.57v-0.64l0.35-0.5l0.14-0.43l-0.07-0.43l0.07-0.85
			l0.14-0.5l0.21-0.43v-0.43l0.14-0.5l0.14-0.78l0.07-0.43l0.14-0.92l0.14-0.99v-0.57l0.35-1.49v-0.5l0.07-0.43l0.07-0.5l0.14-0.92
			l0.07-0.43v-0.5l0.07-0.43l0.28-0.85l0.07-0.99l0.07-0.43l0.21-0.99l0.21-1.13l0.21-0.99l0.07-0.43v-0.43l0.07-0.92v-0.43
			l0.14-0.5l0.21-0.85l0.21-1.13l0.28-1.98l0.07-0.57l0.07-0.5V6.08l0.28-0.57l-0.07-0.78l0.28-0.35l0.5-0.57l0.71-0.14h0.99
			l4.25,0.07h3.05l0.5-0.07l0.71-0.07l0.57,0.14l1.06,0.14h0.64l0.92,0.14l1.06,0.07l0.78,0.14h1.13l0.57,0.14l0.78,0.35l0.64,0.28
			l0.5,0.14l0.64,0.43l0.43,0.21l0.35,0.21l0.85,0.5l0.28,0.28l0.35,0.43l0.28,0.35l0.5,0.85l0.5,0.99l0.21,1.13l0.14,1.35v0.5
			l0.21,1.35v0.57l-0.21,0.99l-0.07,0.5l0.07,1.06v0.5l-0.21,1.13l-0.14,1.13l-0.21,0.71l-0.28,0.85l-0.14,0.5l-0.14,0.43l-0.21,0.5
			l-0.35,0.85l-0.64,0.92l-0.21,0.5l-0.28,0.64l-0.57,0.92l-0.21,0.43l-0.78,0.92l-0.35,0.35l-0.99,1.06l-1.42,0.92l-0.99,0.5
			l-0.5,0.07v0.64l0.21,0.57l0.35,1.06v0.64l0.14,0.92l0.28,0.43l0.07,0.57l0.14,0.92l0.21,0.43l0.21,0.92l0.14,0.43l0.14,0.99
			l0.21,0.5l0.14,0.57l0.28,0.92v0.43l0.35,1.06l0.14,0.92l0.78,2.55l0.14,0.99l0.5,1.2l0.07,0.85l0.07,0.5l0.14,0.64l0.5,1.35
			l-0.21,0.92l-0.35,0.07l-0.78,0.14h-0.92L186.7,53l-1.84,0.21h-0.92l-0.78,0.07h-0.57l-0.64,0.07l-0.43-0.07l-0.64-0.64
			l-0.14-0.35l-0.21-0.85l-0.14-0.35l-0.21-0.78l-0.43-1.06v-0.57l-0.21-0.57l-0.14-0.21l-0.14-0.92l-0.21-0.5v-0.5l-0.21-0.43
			l-0.07-0.5l-0.21-0.78l-0.28-0.71v-0.85l-0.43-1.28l-0.07-0.5l-0.28-0.85l-0.14-0.5l-0.14-0.92l-0.28-0.92l-0.07-0.99l-0.14-0.35
			l-0.21-0.99l-0.14-0.71l-0.28-0.57l-0.14-0.57l-0.28-0.57l-0.28-0.28l-0.5-0.07l-0.07,0.28l-0.14,0.43l-0.21,0.99l-0.07,0.57
			l-0.21,1.49v1.2l-0.35,0.92l-0.14,0.99v0.43l-0.14,0.99l-0.28,0.57V43l-0.14,0.57l-0.28,1.49l-0.07,0.57l-0.14,0.43v0.57
			l-0.21,0.99l0.07,0.43l-0.14,0.5v0.42l-0.07,0.92l-0.07,0.5v0.43l-0.07,0.5l-0.07,0.85l-0.21,0.5l-0.21,0.64l-0.71-0.07
			l-0.64,0.07l-1.06,0.07l-0.57,0.07L166.08,53.35z M178.98,24.22l0.85-0.21l0.43-0.28l0.71-0.43l0.5-0.28l0.5-0.57l0.28-0.43
			l0.5-0.43l0.35-0.92l0.14-0.57l0.07-0.43l0.5-0.99v-0.57l0.21-0.57l0.07-1.13l-0.07-1.56l-0.21-1.49l-0.35-0.64l-0.5-0.5
			l-0.64-0.35l-1.56-0.21l-1.7-0.07l-0.64,0.21l-0.21,0.78l-0.21,0.5l-0.14,1.13l-0.07,1.06l-0.07,0.92l-0.14,0.57l-0.21,1.13v0.5
			l-0.14,1.06l-0.21,0.64l0.07,0.64l-0.14,0.64l-0.21,1.13l-0.07,0.5l0.07,0.5l-0.07,0.57l1.2,0.14H178.98z"/>
	</g>
	<g>
		<path fill="#E42320" d="M15.92,56.96h-1.2l-0.78-0.07l-0.71-0.14l-1.7-0.5l-0.78-0.28l-0.99-0.5l0.07-0.5l1.13,0.35l0.5,0.14
			l0.71,0.14h0.78l0.71,0.07l0.5,0.07H15l0.85,0.07l0.78-0.07l0.5-0.07h0.78l0.5-0.07l0.64-0.21l0.5-0.07l0.92-0.28l0.57-0.07
			l1.06-0.35l0.43-0.28l0.85-0.21l0.64-0.5l0.71-0.42l0.57-0.5l0.35-0.28l0.57-0.64l0.35-0.28l0.35-0.71l0.43-0.28l0.64-1.2
			l0.35-0.99l0.14-0.64l0.14-0.57l0.28-0.92l0.14-1.06v-0.5l0.21-0.92l0.14-1.06v-0.92l0.07-0.5l-0.07-0.5l0.07-0.43l0.07-0.99
			l-0.14-0.43v-1.21l-0.07-0.5l-0.07-0.57l-0.07-0.5l-0.35-1.63l-0.43-1.28l0.57-0.35l0.28,0.35l0.21,0.35l0.28,0.71l0.35,0.85
			l0.43,0.92l0.43,1.49v0.5l0.07,0.57l0.07,0.5l0.14,0.78v1.84l-0.07,0.43l0.07,0.5l-0.07,0.5l-0.14,0.92v1.06l-0.21,0.99
			l-0.07,0.43l-0.21,0.99l-0.43,1.56l-0.21,0.64l-0.35,0.78l-0.64,1.06l-0.43,0.5l-0.35,0.64L27.76,53l-0.57,0.64l-0.35,0.28
			l-0.57,0.5l-0.64,0.43l-1.42,0.85l-0.5,0.14l-0.99,0.35l-0.5,0.28l-0.92,0.21l-0.5,0.07l-0.64,0.07l-0.5,0.07l-0.78,0.07
			l-0.5,0.07l-0.78-0.07l-0.85,0.07L15.92,56.96z M13.8,43.5l-0.5-1.06l-0.07-0.71v-0.85l0.07-0.5v-2.06l0.57-0.14h0.64l0.43,0.35
			v1.56l-0.07,1.49v1.56l0.21,0.71L14.43,44L13.8,43.5z M19.61,20.89l-0.28-0.57l-0.57-0.85l-0.64-1.2l-0.28-0.64l-0.28-0.85
			l-0.14-0.99l0.07-0.71v-0.5l0.28-0.71l0.07-0.5l0.28-0.57l0.5-0.43l0.5-0.07l0.5,0.28l0.35,0.43l-0.28,0.57l-0.28,0.71l-0.28,0.99
			L18.97,16v1.2l0.28,0.99l0.28,0.92l0.21,0.5l0.5,1.35l0.14,0.21l-0.35,0.21L19.61,20.89z M25.84,22.17h-0.99l-0.57-0.5l-0.07-0.71
			l0.28-0.21h4.54l1.28-0.07l0.57-0.71l0.57-1.2l0.28-1.98l0.07-1.2l-0.07-1.42l0.07-1.06v-0.5l-0.07-1.13l-0.07-0.57l-0.14-0.5
			L31.3,9.63l-0.07-0.57l-0.28-0.64L30.8,8.14L31.23,8l0.43,0.57l0.43,0.78l0.21,0.35l0.35,0.92l0.21,0.5L33,11.75l0.21,0.64
			l0.14,0.57l0.14,1.06v1.56L33.57,17l-0.07,1.2l-0.35,1.77l-0.5,1.28l-0.71,0.92l-1.13,0.07h-3.97L25.84,22.17z"/>
		<path fill="#E42320" d="M36.12,56.04l-0.35-0.85l0.14-0.43h7.02l0.78-0.28l0.21-0.71l0.28-0.85l0.21-1.28l0.14-0.43V50.3l0.07-0.5
			l0.21-0.92l0.28-2.06l0.14-0.5l0.07-0.43l0.14-0.99l0.28-1.42l0.28-1.06l0.14-0.99l0.07-0.43l-0.07-0.5l0.14-0.5l0.21-0.85
			l-0.14-0.5l0.21-0.92l0.14-0.43l0.35-2.91h0.28l0.14,1.63l0.21,1.84l0.14,1.91l-0.07,0.85v0.85l-0.14,0.5v0.5l-0.07,0.43
			l-0.14,0.99l-0.14,0.92l-0.28,1.42l-0.14,0.99l-0.07,0.43l-0.07,0.57l-0.28,2.06l-0.21,0.92l-0.07,0.5l-0.14,0.92l-0.14,0.43
			l-0.21,1.28l-0.21,0.85l-0.21,0.71l-0.57,0.28h-7.51L36.12,56.04z M56.53,21.81l-0.21-0.78L56.1,20.4l-0.14-1.28l-0.43-1.7v-0.64
			L55.32,16l-0.21-1.13l-0.28-1.13V12.6l-0.35-1.28l-0.14-1.42l-0.14-1.06L53.9,8l-0.14-0.85l0.57-0.57L55.11,7l0.07,0.57l0.28,0.64
			l0.21,0.78l0.07,0.78l0.28,0.92l0.21,1.35l0.14,1.42l0.14,1.13l0.28,1.13l0.14,0.85l0.21,0.5l0.07,0.78l0.07,0.35l-0.14,1.13
			l-0.07,1.06l-0.21,1.49L56.53,21.81z M55.11,55.9l-0.5-0.99l0.28-0.35l1.35,0.07l2.27-0.07L60,54.63l0.71-0.07l0.64-0.07
			l0.85-0.21l0.78-0.43l0.64-1.13l0.43-1.56l0.21-1.2l-0.07-0.57l0.21-0.57l0.21-0.85l0.14-1.06l0.14-0.92l0.28-0.71v-0.85
			l0.14-0.92l0.43-1.56l0.21-0.71l0.35-0.78l0.07-0.92l0.28-0.85l-0.14-0.57l0.14-0.43l0.07-0.5v-0.5l0.21-0.57l0.07-0.71l0.28-0.78
			l0.07-0.71l0.07-0.64l0.21-0.57l-0.07-0.5l0.07-0.43l0.07-0.5l0.14-0.5l0.07-0.57l0.21-0.71l0.28-1.7l0.07-0.71l0.21-0.71
			l0.14-0.64l0.21-0.57v-0.71l0.14-0.99l0.28-1.35l0.14-1.06V20.4l0.21-0.57v-0.57l0.28-0.78l0.14-0.99l0.28-0.99l0.14-0.64v-0.5
			l0.21-0.5V14.3l0.07-0.57l0.14-0.71l0.14-0.78l0.21-0.85l0.14-0.92l0.28-1.06l0.21-1.56v-1.2l0.14-0.35h0.07l0.78,0.07l0.64,0.21
			L74.03,7l0.14,0.57l-0.14,0.78l-0.21,0.78l-0.07,1.06v1.28l-0.35,1.35l-0.35,1.2l-0.28,1.06L72.61,16L72.54,17l-0.21,1.35
			l-0.28,1.13l-0.28,0.85l-0.07,0.64l-0.07,0.5l-0.21,0.71l-0.07,0.71l-0.14,1.35l-0.35,1.35v0.71l-0.07,0.64l-0.07,0.57l-0.21,0.71
			L70.2,28.9l-0.14,0.71l-0.07,0.99l-0.14,0.78l-0.14,0.57v0.57l-0.14,0.43l-0.14,0.5l-0.07,0.43V35l-0.43,1.42l-0.21,0.78
			l-0.07,0.64L68.5,38.4l0.07,0.43l-0.14,0.5l-0.07,0.42l-0.07,0.71l-0.28,0.99l-0.14,0.85l-0.21,0.64l-0.14,0.78l-0.35,0.78v0.85
			l-0.14,0.92l-0.28,1.56l-0.21,1.06l-0.28,0.99v0.71l-0.07,0.42l-0.35,0.71l-0.21,1.63l-0.57,1.56l-0.5,0.71l-0.92,0.28l-0.92,0.14
			l-0.43,0.07H56.1L55.11,55.9z"/>
		<path fill="#E42320" d="M82.82,56.18h-2.06l-0.99-0.14H79.2l-0.5,0.07l-0.78-0.07l-0.5-0.07l-0.57,0.07L76.3,55.9l-0.57-0.5
			l-0.07-0.92l0.57,0.07h1.7l0.43,0.07l1.2,0.07l1.98,0.07l1.56-0.07l0.85-0.28l0.35-0.5l0.28-0.64v-0.85l0.07-0.99l0.28-0.78v-0.71
			l0.07-0.64l0.21-0.57l0.07-0.64l0.14-0.71l0.14-0.78l0.28-0.99V44.7L86.08,44v-0.78l0.35-0.78l0.07-0.85v-0.85l0.28-0.78
			l0.07-0.78v-0.64l0.07-0.78l0.28-1.56l0.28-0.78l0.07-0.85l0.28-0.85l0.07-0.92l0.07-0.85l0.21-0.64v-0.5l0.28-0.5l0.14-0.57
			v-0.71l0.14-0.64l0.21-0.71l0.14-0.78l0.21-0.78V25l0.14-1.13l0.21-0.71l0.14-0.78v-0.64l0.21-0.78l0.21-0.85l0.14-0.85l0.28-0.64
			v-1.35l0.14-0.71L91.11,16l0.14-0.99l0.28-1.2l0.07-0.78l-0.07-0.5l0.14-0.5l-0.07-0.5l0.14-0.71l0.28-0.78l0.14-0.57l0.14-0.5
			l0.07-0.43V8.14l0.07-0.57V6.44h0.5l0.5-0.07l0.78,0.21l0.28,0.71l-0.07,0.43v0.92L94.3,8.85l-0.07,0.78l0.07,0.43l-0.21,0.28
			v0.64l-0.21,0.35l-0.14,0.99l-0.28,0.64v0.57l-0.07,0.43v0.5l-0.07,0.43l-0.35,1.84l-0.14,0.78l-0.14,0.43l-0.14,0.85l-0.07,0.5
			l-0.07,0.85l-0.07,0.5l-0.14,0.92l-0.21,0.85l-0.21,0.92l-0.07,0.35l-0.21,0.99l-0.21,0.64v0.64l-0.07,0.5l-0.07,0.57v0.5
			l-0.14,0.92l-0.21,0.71l-0.35,2.13l-0.28,0.99l-0.21,0.5v0.57l-0.21,0.92l-0.14,0.92l-0.14,0.85l-0.28,0.99v0.57l-0.28,0.99v0.57
			L88.7,40.1l-0.07,0.35v0.99l-0.35,0.71l0.07,0.78L88.13,44l-0.07,0.57l-0.28,0.92v0.57l-0.21,0.99l-0.14,0.99l-0.14,0.92v0.5
			l-0.21,0.78l-0.28,1.7l-0.21,0.92l-0.14,0.99l-0.21,0.92l-0.07,0.57l-0.21,0.64l-0.78,0.21l-1.84,0.07L82.82,56.18z"/>
		<path fill="#E42320" d="M97.98,56.04H97.2l-0.78-0.14l-0.35-0.85l0.07-0.35l0.21-0.14l0.78,0.14h5.1l1.2-0.14l0.43-0.35l0.14-0.71
			l0.21-0.64l0.14-0.57l0.07-0.57l0.07-0.43l0.21-0.5v-0.5l0.07-0.5L105,49.1l0.14-1.06v-0.85l0.14-0.64l0.14-0.5l0.14-0.64
			l0.21-0.71l0.21-0.64l0.14-0.78l0.07-0.78l0.28-0.71l-0.07-0.5l0.07-0.43l0.21-0.5l-0.07-0.43l0.21-0.71l0.14-1.06l0.14-0.71
			l0.07-0.57l0.57-0.28h4.46l2.48-0.43l1.28-0.28l2.55-0.99l0.71-0.35l1.2-0.92l0.71-0.57l0.43-0.57l0.57-0.57l0.5-0.71l0.64-0.64
			l0.43-0.85l0.64-0.99l0.43-0.85l0.5-0.92l0.43-1.06l0.35-0.92l0.21-0.78l0.14-0.71v-0.43l0.28-0.5l0.07-0.5l0.14-0.57l0.14-0.71
			l0.14-1.28l0.21-1.06l0.21-0.64v-0.78l0.07-0.78v-1.7l-0.14-1.2v-1.42l-0.14-0.78l-0.07-0.64l-0.21-0.92l-0.28-0.71l-0.28-0.85
			l0.5-0.07l0.5,0.78l0.28,0.5l0.35,0.5l0.28,0.71l0.35,0.78l0.14,0.71l0.07,0.64l0.14,0.78v0.64l0.14,0.64l0.07,0.78v0.85
			l0.07,0.78l-0.07,0.64l-0.07,0.78v0.78l-0.07,0.64l-0.21,1.06l-0.21,1.28l-0.21,0.71v0.57l-0.14,0.5l-0.28,0.5v0.43l-0.28,0.71
			l-0.57,1.56l-0.57,1.06l-0.43,1.06l-0.43,0.85l-0.57,0.92l-0.57,0.78l-0.57,0.64l-0.57,0.71l-0.5,0.57l-0.35,0.43l-0.64,0.43
			l-0.64,0.71l-0.57,0.35l-0.78,0.5l-0.78,0.28l-1.06,0.57l-0.99,0.28l-0.92,0.43l-1.06,0.07l-1.28,0.28l-1.84,0.21l-2.69,0.07
			l-0.64,0.21l-0.07,0.57l-0.14,0.5v0.35l-0.07,0.64l-0.14,0.71l-0.07,0.43l-0.07,0.5l-0.07,0.43l-0.07,0.5l-0.21,0.71l-0.07,0.78
			l-0.28,0.78l-0.07,0.64l-0.21,0.71l-0.07,0.64l-0.28,0.5l-0.07,0.64v0.85l-0.14,1.06l-0.07,0.71l-0.28,0.99v0.5l-0.14,0.43
			l-0.28,0.57l-0.14,0.57l0.07,0.64l-0.28,0.71l-0.21,0.5h-6.59L97.98,56.04z M109.18,24.01l0.14-0.78l0.14-0.85l0.14-0.71
			l0.14-0.99l0.14-0.92l0.07-1.06l0.35-1.13l0.07-0.71l0.14-0.85l0.07-0.92l0.28-0.85l0.07-0.78l0.42-0.21l1.06,0.07h0.5l0.85,0.14
			l0.71,0.35l0.28,0.57l0.07,0.35h-0.78l-0.78,0.14l-0.57,0.5l-0.28,1.13v0.92l-0.21,0.85l-0.28,0.71l-0.21,1.13v1.06l-0.21,0.92
			l-0.35,1.7l-0.14,0.35l-0.64,0.21h-0.85L109.18,24.01z"/>
		<path fill="#E42320" d="M132.21,56.04h-0.78l-0.78-0.14l-0.35-0.85l0.07-0.35l0.21-0.14l0.78,0.14h5.1l1.2-0.14l0.43-0.35
			l0.14-0.71l0.21-0.64l0.14-0.57l0.07-0.57l0.07-0.43l0.21-0.5v-0.5l0.07-0.5l0.21-0.71l0.14-1.06v-0.85l0.14-0.64l0.14-0.5
			l0.14-0.64L140,44.7l0.21-0.64l0.14-0.78l0.07-0.78l0.28-0.71l-0.07-0.5l0.07-0.43l0.21-0.5l-0.07-0.43l0.21-0.71l0.14-1.06
			l0.14-0.71l0.07-0.57l0.57-0.28h4.46l2.48-0.43l1.28-0.28l2.55-0.99l0.71-0.35l1.2-0.92l0.71-0.57l0.43-0.57l0.57-0.57l0.5-0.71
			l0.64-0.64l0.43-0.85l0.64-0.99l0.43-0.85l0.5-0.92l0.43-1.06l0.35-0.92l0.21-0.78l0.14-0.71v-0.43l0.28-0.5l0.07-0.5l0.14-0.57
			l0.14-0.71l0.14-1.28l0.21-1.06l0.21-0.64v-0.78l0.07-0.78v-1.7l-0.14-1.2v-1.42l-0.14-0.78l-0.07-0.64l-0.21-0.92l-0.28-0.71
			l-0.28-0.85l0.5-0.07l0.5,0.78l0.28,0.5l0.35,0.5l0.28,0.71l0.35,0.78l0.14,0.71l0.07,0.64l0.14,0.78v0.64l0.14,0.64l0.07,0.78
			v0.85l0.07,0.78l-0.07,0.64l-0.07,0.78v0.78l-0.07,0.64l-0.21,1.06l-0.21,1.28l-0.21,0.71v0.57l-0.14,0.5l-0.28,0.5v0.43
			l-0.28,0.71l-0.57,1.56l-0.57,1.06l-0.43,1.06l-0.43,0.85l-0.57,0.92l-0.57,0.78l-0.57,0.64l-0.57,0.71l-0.5,0.57l-0.35,0.43
			l-0.64,0.43l-0.64,0.71l-0.57,0.35l-0.78,0.5l-0.78,0.28l-1.06,0.57l-0.99,0.28l-0.92,0.43l-1.06,0.07l-1.28,0.28l-1.84,0.21
			l-2.69,0.07l-0.64,0.21l-0.07,0.57l-0.14,0.5v0.35l-0.07,0.64l-0.14,0.71l-0.07,0.43l-0.07,0.5l-0.07,0.43l-0.07,0.5l-0.21,0.71
			l-0.07,0.78l-0.28,0.78l-0.07,0.64l-0.21,0.71l-0.07,0.64l-0.28,0.5l-0.07,0.64v0.85l-0.14,1.06l-0.07,0.71l-0.28,0.99v0.5
			l-0.14,0.43l-0.28,0.57l-0.14,0.57l0.07,0.64l-0.28,0.71l-0.21,0.5h-6.59L132.21,56.04z M143.4,24.01l0.14-0.78l0.14-0.85
			l0.14-0.71l0.14-0.99l0.14-0.92l0.07-1.06l0.35-1.13l0.07-0.71l0.14-0.85l0.07-0.92l0.28-0.85l0.07-0.78l0.42-0.21l1.06,0.07h0.5
			l0.85,0.14l0.71,0.35l0.28,0.57l0.07,0.35h-0.78l-0.78,0.14l-0.57,0.5l-0.28,1.13v0.92l-0.21,0.85l-0.28,0.71l-0.21,1.13v1.06
			l-0.21,0.92l-0.35,1.7l-0.14,0.35l-0.64,0.21h-0.85L143.4,24.01z"/>
		<path fill="#E42320" d="M169.2,56.11h-0.92l-2.2-0.14l-0.64-0.14l-0.14-0.42v-0.64l0.07-0.14l1.13,0.07h0.92l2.55,0.07l0.57-0.07
			l1.06-0.07l0.64-0.07l0.92-0.57l0.21-0.5l0.07-0.85l0.07-0.5v-0.43l0.07-0.5l0.07-0.92v-0.43l0.14-0.5l-0.07-0.43l0.21-0.99V47.4
			l0.14-0.43l0.07-0.57l0.14-1.06l0.07-0.71l0.14-0.99l0.14-1.56l0.07-0.5l0.07-0.57l0.21-0.99l0.14-0.42l0.07-0.28h0.35l0.21,0.5
			l0.21,0.71l0.14,0.57l0.28,1.28V43l-0.07,0.57v0.57l-0.14,0.92l-0.14,0.78v0.64l-0.14,1.35l-0.07,0.57l-0.14,0.42v0.57l-0.21,0.99
			l0.07,0.43l-0.14,0.5v0.43l-0.07,0.92l-0.07,0.5v0.43l-0.07,0.5l-0.07,0.85l-0.21,0.5l-0.92,0.57l-0.64,0.07l-1.06,0.07
			l-0.57,0.07L169.2,56.11z M178.41,22.52V21.6l0.14-0.57l0.14-1.28v-0.5l0.21-1.13l0.14-0.57l0.07-0.92l0.07-1.06l0.14-1.13
			l0.21-0.5l0.21-0.78l0.64-0.21h0.57l0.71,0.14l0.71,0.43l0.21,0.57l-0.28,0.35l-0.92,0.14l-0.21,0.78l-0.21,0.5L180.82,17
			l-0.07,1.06l-0.07,0.92l-0.14,0.57l-0.21,1.35v0.5l-0.21,0.5l-0.14,0.28l-0.21,0.21l-0.43,0.21l-0.5,0.07L178.41,22.52z
			 M184.72,56.04l-0.64-0.64l-0.14-0.35l-0.07-0.43h0.71l0.78-0.07h0.92l1.84-0.21l1.49-0.21h0.92l0.78-0.14l0.5-0.21l0.5-1.13
			l-0.28-0.99l-0.14-0.64l-0.07-0.5l-0.07-0.85l-0.5-1.2l-0.14-0.99l-0.78-2.55L190.17,44l-0.35-1.06v-0.43l-0.28-0.92l-0.14-0.57
			l-0.21-0.5l-0.14-0.99l-0.14-0.43l-0.21-0.92l-0.28-0.43l-0.07-0.92l-0.07-0.57l-0.28-0.43l-0.14-0.92v-0.64l-0.35-1.06
			l-0.21-0.57l-0.07-0.64l0.5-0.35l1.13-0.57l0.71-0.64l0.92-1.06l0.35-0.35l0.71-0.85l0.28-0.43l0.57-0.92l0.35-0.64l0.28-0.57
			l0.5-0.92l0.43-0.78l0.21-0.5l0.14-0.43l0.14-0.5l0.28-0.85l0.21-0.71l0.14-1.13l0.43-1.13v-0.5l0.07-1.06l0.07-0.5l0.21-0.99
			v-0.57l-0.14-1.35v-0.5l-0.07-1.13l-0.21-1.35l-0.21-1.13l-0.57-1.49l0.43-0.07l0.28,0.28l0.35,0.5l0.28,0.35l0.5,0.85l0.5,0.99
			l0.21,0.92l0.07,1.35l0.14,1.35v0.5l0.14,1.35v0.57l-0.21,0.99l-0.07,0.5l-0.21,1.06l-0.07,0.5l-0.21,1.13l-0.14,0.92l-0.35,0.92
			l-0.28,0.85l-0.14,0.5l-0.14,0.43l-0.21,0.5L195.06,26l-0.85,1.42l-0.28,0.64l-0.71,0.92l-0.21,0.43l-1.56,1.84l-0.78,0.64
			l-0.43,0.35l-0.28,0.21l-0.35,0.35v0.57l0.07,0.64l0.14,0.57l0.5,2.34l0.21,0.71l0.07,0.57l0.21,0.99l0.21,0.43l0.21,0.92
			l0.14,0.43l0.14,0.99l0.21,0.5l0.14,0.57l0.35,0.99v0.42l0.35,1.06l0.14,0.92l0.71,2.48l0.21,0.99l0.28,1.2l0.28,0.85l0.07,0.5
			v0.64l0.14,0.92l-0.64,0.92l-0.71,0.28l-0.78,0.35h-0.92l-1.49,0.21l-1.84,0.21h-0.92l-0.78,0.07h-0.57l-0.64,0.07L184.72,56.04z"
			/>
	</g>
</g>
</svg>
