<?xml version="1.0" encoding="utf-8"?>
<!-- Generator: Adobe Illustrator 26.0.3, SVG Export Plug-In . SVG Version: 6.00 Build 0)  -->
<svg version="1.1" id="Layer_1" xmlns="http://www.w3.org/2000/svg" xmlns:xlink="http://www.w3.org/1999/xlink" x="0px" y="0px"
	 width="290px" height="60px" viewBox="0 0 290 60" style="enable-background:new 0 0 290 60;" xml:space="preserve">
<style type="text/css">
	.st0{fill:#E6E5E5;}
	.st1{fill:#D30000;}
	.st2{fill:#00AEBC;}
</style>
<g id="Logo_-_Biz_-_Dark_00000060002747127188402970000000073675802445744786_">
	<g>
		<path class="st0" d="M15.6,54l-0.5-0.1h-0.7l-0.8-0.1l-0.7-0.1l-0.5-0.1L11.3,53l-0.8-0.3l-0.7-0.5l-0.8-0.6l-0.7-0.9l-0.7-0.8
			l-0.6-1l-0.5-1.2l-0.1-0.6l-0.5-1.3l-0.1-0.4l-0.2-1L5.4,44l-0.1-1.1v-2.1l0.1-1.2l-0.1-0.5L5.4,38l0.1-0.6L5.6,37l0.2-1.1l1-0.5
			l1.7-0.1l0.8,0.1h4l0.9,0.1l0.6,1v2.6l-0.1,0.5v1.5l0.1,1.6l0.2,0.7l0.5,1.1l0.7,0.7l0.9,0.2h0.6l0.6-0.1l0.8-0.2l0.4-0.4l0.4-0.6
			l0.3-0.5l0.3-0.8l0.1-0.8l0.1-0.7v-0.5l-0.1-1v-1.1L20.3,37v-0.4l-0.2-1.1l-0.6-1L19,33.7l-0.5-1l-0.3-0.4L18,31.9l-0.2-0.4
			l-0.5-0.5L17,30.5l-0.8-0.9l-0.4-0.4l-0.3-0.4l-0.8-0.9L13.9,27l-0.6-0.9l-0.7-0.8l-0.7-0.6l-0.4-0.5l-0.4-0.7l-0.4-1.1l-0.3-0.6
			l-0.4-0.5l-0.2-0.5l-0.1-0.6l-0.3-0.9l-0.1-0.9l-0.1-0.6l0.1-0.5v-2l0.1-1.4l0.2-0.5l0.1-1l0.3-0.5l0.2-0.7l0.1-0.7l0.4-0.9L11,9
			l0.2-0.5l0.2-0.4L12,7.6l0.2-0.3l0.4-0.7l0.4-0.4l0.8-0.7l1.3-0.9l1.1-0.4l0.8-0.4l1.3-0.3L19.7,3h2.2l1.8,0.1h0.5l0.6,0.1
			l1.1,0.1L27,3.7l0.5,0.1L27.8,4l0.8,0.4l0.5,0.4L29.7,5l0.8,0.7L30.7,6l0.7,0.8l0.2,0.4l0.5,0.8l0.3,0.4l0.1,0.8l0.2,0.5l0.4,1.7
			v1.6l0.1,1.4l-0.1,1.2l-0.3,2L32.6,19l-0.8,0.4l-1.3,0.1h-4l-1-0.1h-1L24,18.9L23.9,18l0.1-0.6l0.2-2.2v-1.6l-0.1-0.8l-0.2-0.4
			l-0.6-0.6l-0.7-0.6L21.7,11l-0.8,0.3L20,11.7l-0.4,0.5l-0.2,0.5l-0.3,0.7l-0.1,0.5l-0.2,0.7l-0.1,1v0.9l0.1,0.5l0.5,1.3l0.6,1
			l0.3,0.6l0.5,0.9l0.8,1l0.9,1.1l0.3,0.4l0.4,0.4l0.3,0.6l0.3,0.4l0.4,0.3l0.7,0.6l0.2,0.4l0.4,0.2l0.2,0.4l0.6,0.7l0.4,0.6
			l0.8,0.8l0.5,1.2l0.6,0.8l0.1,0.4l0.6,1.4l0.4,0.9l0.4,1.5l0.1,0.5l0.1,0.6l0.1,0.5l0.4,1.2l0.1,0.4l-0.1,1l-0.1,0.4l0.1,0.5
			l-0.1,0.5v2l-0.2,1l-0.1,0.4v1.1L30,45.7l-0.1,0.6l-0.1,0.6l-0.4,1l-0.6,1.2l-0.4,0.3l-0.4,0.7l-0.4,0.3L27,51l-0.4,0.3l-0.6,0.5
			l-0.7,0.4l-0.6,0.5l-0.8,0.2l-0.4,0.3l-1.1,0.4l-0.6,0.1l-0.9,0.3L20.4,54l-0.6-0.1L19.3,54h-0.8L18,54.1l-0.8,0.1L15.6,54z"/>
		<path class="st0" d="M35.7,53.2l-0.4-0.8l0.1-0.6v-1.1l0.1-1.1l0.3-1l0.1-0.5l0.2-1l0.1-0.4l0.2-1l0.1-0.6l0.2-1.1v-0.5l0.1-0.6
			V42l0.3-0.5l0.1-0.8l0.1-0.5l0.2-0.8l0.1-0.4l-0.1-0.5l0.1-0.9l0.3-1.1l0.1-0.8l0.1-0.6l0.2-0.8l0.1-0.8l0.1-0.5l0.1-0.4l0.1-0.9
			l0.1-0.4v-0.4l0.4-0.8l0.1-0.4l0.1-0.5l0.1-1l0.1-0.7l0.4-0.8l0.1-0.6l0.1-0.7v-1l0.1-0.6l0.2-0.6v-0.6l0.2-0.5v-0.5l0.1-0.5
			l0.1-0.9l0.2-0.8l0.2-0.6v-0.8l0.1-0.5l0.1-0.4l0.4-2v-0.5l0.3-0.6l0.1-0.6l0.1-0.9l0.1-0.5l0.1-0.4l0.1-0.5l0.1-0.4l0.1-0.5
			l0.1-0.9l0.1-0.8L43.6,7V6.4l0.2-0.9l0.1-0.4l0.2-0.4L44.6,4l0.7-0.1l1-0.1l1.2,0.1h0.6L49,3.7l1.3,0.1l0.8-0.1l1.1,0.1h1L54,4
			l0.4,0.6l0.1,0.5l0.3,0.7l0.1,0.8L55,7.5l0.3,1l0.3,1.7l0.2,1.1l0.2,1.2l0.2,1l0.3,1.4l0.1,0.6l0.1,0.5l0.1,1.1l0.2,0.9v0.4
			l0.2,0.8v0.5l0.1,0.8l0.2,1.1l0.1,1.2l0.2,1.2L58,25l0.1,1l0.1,0.6l0.2,1.9l0.3,1.6l0.1,1.6v0.5l0.1,0.5l0.1,0.8l0.2,1.9l0.2,1.6
			h0.2l0.1-1.4l0.1-1.7v-1l0.2-3.4l0.2-1.5v-2.4l0.2-1l0.1-0.4l0.1-0.5l0.1-0.6l0.1-1l0.1-0.4l0.1-1v-0.4l0.3-0.9v-0.8l0.1-0.8v-0.5
			l0.4-0.8l-0.1-0.5l0.2-1.3v-0.4l0.2-0.9l0.1-0.5l0.1-0.4l0.1-1l0.1-0.6l0.2-1l0.1-0.5l0.2-0.6V8.1l0.1-0.4l0.2-1.1L63.9,5l0.6-1
			l0.3-0.2l1.3-0.3l1.5,0.1l0.5-0.1h0.7l1.6,0.1h0.7l1-0.1l1,0.2L73.5,4l0.1,0.6v0.6l-0.2,1l0.1,0.6l-0.2,1.6l-0.1,1L72.7,11
			l-0.2,0.8L72.3,13l-0.1,0.6l-0.2,1.5l-0.3,1.1l-0.1,1.1l-0.2,0.6l-0.1,0.6L71,19v0.9l-0.1,0.5l-0.3,2.1l-0.2,0.6L70.3,24l-0.1,0.5
			L70.1,25l-0.2,0.9l-0.1,0.5l-0.2,0.9l-0.1,1l-0.1,0.6l0.1,0.6L69.2,30l-0.1,0.5l-0.1,0.4l-0.1,0.5l-0.1,0.4v0.9l-0.2,0.4l-0.2,1
			l-0.1,0.6l-0.1,0.6l-0.1,0.4L68,36.3l-0.1,0.4v0.4l-0.3,1l-0.1,1l-0.1,0.7l-0.3,0.6l-0.3,0.8l-0.1,0.8L66.7,43L66.5,44l-0.2,0.6
			l-0.3,1v1.1l-0.4,0.9V48l-0.1,0.5l-0.2,0.9L65,51.7l-0.6,0.8L63.6,53l-1,0.1l-0.8,0.1h-0.3l-1.3-0.1l-0.5,0.1L59,53.1l-0.4,0.1
			h-1.4l-0.9-0.1h-1.2l-0.6-0.5L54,51.5l-0.4-1l-0.1-0.4l-0.1-0.8l-0.1-0.4l-0.1-1.5L53.2,47l-0.3-1.5l-0.1-0.4l-0.1-1L52.6,43
			l-0.2-0.8l-0.2-1.1v-0.4l-0.2-1l-0.1-0.4l-0.2-1L51.6,38v-1.1l-0.3-1.4l-0.1-1.3l-0.3-2l-0.4-2.3l-0.2-2l-0.4-2.5l-0.4-2.7h-0.2
			l-0.1,2l-0.1,1.4l-0.1,0.8l-0.1,1.2l-0.1,1.8l-0.5,3.4L48.1,36l-0.1,0.4l-0.2,0.9l0.1,0.5l-0.2,0.8l-0.1,0.5l0.1,0.5l-0.1,0.4
			l-0.1,1l-0.3,1.1l-0.3,1.4l-0.1,1l-0.1,0.4l-0.1,0.5l-0.3,2L46,48.4l-0.1,0.5v0.9l-0.1,0.4l-0.2,1.3l-0.3,0.8L45,53.1l-0.8,0.3
			h-7.5L35.7,53.2z"/>
		<path class="st0" d="M82.3,53.3h-2l-1-0.1h-0.6l-0.5,0.1l-0.8-0.1l-0.5-0.1l-0.6,0.1L75.8,53l-0.6-0.5l-0.1-1.1l0.4-1l0.1-1.1
			l0.1-0.5l0.1-1l0.1-0.6l0.2-1.1l0.1-0.5l0.1-0.6l0.1-0.5l0.3-0.9l-0.1-0.4l0.2-1.3l0.2-0.8l0.1-0.6l0.2-0.6l0.1-0.6l0.1-0.8v-0.5
			l0.1-0.5l0.1-0.4l0.1-0.5L78,36.2l0.5-1.6l0.1-1.1v-0.4l0.1-0.5l0.1-0.5l0.1-0.4l0.1-1v-1l0.3-1v-0.5l0.1-1l0.3-0.6v-0.9l0.1-0.8
			l0.2-0.9l0.4-1l0.2-1.5v-1l0.2-0.5l0.1-1l0.1-0.4L81,18.2l0.3-0.8l0.1-0.4l0.2-0.9l0.1-0.5l0.3-0.9l-0.1-0.5l0.1-0.6l0.1-0.9
			l0.1-0.4l0.1-1l0.2-0.9l0.1-0.4l0.1-0.4l0.1-0.8l0.1-0.8l0.3-0.8L83.4,6l0.1-0.4l0.1-0.5l0.5-0.7l0.5-0.2L85,3.9l0.5-0.1l1.1-0.1
			l0.6,0.1h1l0.5-0.1h3.7l0.5-0.1l0.8,0.2L94,4.6L93.9,5v0.9l-0.1,0.2l-0.1,0.8l0.1,0.4l-0.2,0.3v0.6l-0.2,0.4l-0.1,1l-0.3,0.6v0.6
			l-0.1,0.4v0.5l-0.1,0.4L92.4,14l-0.1,0.8l-0.1,0.4L92,16l-0.1,0.5l-0.1,0.8l-0.1,0.5l-0.1,0.9l-0.2,0.8l-0.2,0.9l-0.1,0.4l-0.2,1
			l-0.2,0.6v0.6l-0.1,0.5l-0.1,0.6v0.5l-0.1,0.9l-0.2,0.7l-0.4,2.1l-0.3,1L89.4,30v0.6l-0.2,0.9L89,32.4l-0.1,0.8l-0.3,1v0.6l-0.3,1
			v0.6l-0.1,1l-0.1,0.4v1l-0.4,0.7l0.1,0.8l-0.2,1.1l-0.1,0.6l-0.3,0.9v0.6l-0.2,1l-0.1,1l-0.1,0.9v0.5l-0.2,0.8l-0.3,1.7L86,50
			l-0.1,1l-0.2,0.9l-0.1,0.6l-0.2,0.6l-0.8,0.2h-1.8L82.3,53.3z"/>
		<path class="st0" d="M97.8,53.2l-0.5-0.1L96,53.2l-0.4-0.4v-1.3l0.2-0.4l-0.1-0.5l0.2-1v-0.4l0.2-1l0.2-1.1l0.2-0.9l0.1-0.5
			l0.2-0.8l0.1-0.5L97,44l0.3-1.6l0.2-0.4l0.1-0.9l0.1-0.5l0.1-0.4l0.3-0.9l0.1-0.4l0.1-0.8v-0.4l0.4-0.7V36l0.1-0.4v-0.5l0.2-0.4
			l0.1-1.1l0.2-1.5l0.2-0.5l0.1-0.6l0.1-1l0.1-0.5l0.1-0.4l0.1-0.5l0.1-0.4l0.2-1l0.1-0.6l0.1-1.1l0.2-1.1l0.2-0.9v-0.8l0.1-0.9
			l0.1-0.5l0.2-0.5l0.1-0.9l0.1-0.4l0.3-1.1l0.1-0.8l-0.1-0.3l0.2-0.9l0.1-0.4l0.1-1.3l0.1-0.6l0.2-1l0.2-0.6l0.1-0.8l0.1-0.5v-0.6
			l0.1-0.5l0.1-0.5V9.2l0.1-0.5l0.3-1.1l0.1-0.5l0.1-0.6l0.2-1l0.1-0.6l0.3-0.9l0.6-0.3h3.7l0.9-0.1l0.9,0.1l0.4-0.1h4.7l0.5,0.1
			l1.1-0.1h1l1.1,0.1h0.6l0.9,0.1l1.5,0.2l1.1,0.2l0.5,0.1l0.5,0.4l0.5,0.2l0.9,0.5l0.6,0.6l0.3,0.4l0.4,0.6l0.4,0.5l0.2,0.6
			l0.4,0.9l0.1,0.5l0.3,0.8l0.1,0.8l0.1,0.5l0.2,0.8l-0.1,0.7l0.1,1.1v0.5l0.1,0.8l-0.1,0.8l-0.1,0.8l-0.1,0.5l-0.1,1.6l-0.1,1
			l-0.2,0.5l-0.1,0.6l-0.2,0.5l-0.1,0.4l-0.1,0.4l-0.2,1L127,24l-0.4,1l-0.6,1.3l-0.4,0.8l-0.5,0.8l-0.6,1.1l-0.4,0.4l-0.5,0.8
			l-0.6,0.6l-0.5,0.7l-0.4,0.5l-0.9,0.7l-0.4,0.4l-1,0.5l-0.7,0.2l-0.9,0.4l-1.1,0.4l-0.8,0.1l-0.9,0.1l-1,0.1l-2,0.1l-1.3-0.1h-1.6
			l-1.1-0.1v0.1l-0.1,0.5l-0.2,0.6l-0.1,0.9l-0.1,0.4l-0.1,0.9l-0.1,0.4l-0.1,0.5l-0.1,0.4l-0.1,0.5v0.4l-0.2,1l-0.2,0.6l-0.1,0.8
			l-0.1,0.5l-0.2,0.8l-0.1,0.5l-0.2,0.5v0.7l-0.2,1.1v1l-0.3,0.4v0.6l-0.1,0.5l-0.1,0.4l-0.1,0.5l-0.2,0.6l-0.1,0.6l-0.1,0.6
			l-0.2,0.8l-0.5,0.1h-5.7L97.8,53.2z M111.8,26.1l0.8-0.1l1.3-0.1l0.5-0.2l1.1-0.8l0.8-0.7l0.5-0.8l0.3-0.4l0.4-1l0.1-0.6l0.3-0.6
			l0.3-1.2l0.3-2l0.1-1.8v-1.2l-0.3-0.8l-0.4-0.6l-0.8-0.6l-0.6-0.1l-1.9-0.1l-1.6,0.1l-0.5,0.1l-0.4,0.8l-0.1,0.4l-0.1,0.7
			l-0.1,1.2l-0.1,0.5l-0.2,0.8l-0.2,1.4l-0.1,0.7l-0.2,1.1l-0.1,0.8v0.6l-0.1,0.6l-0.4,1.8v0.6l-0.2,1l-0.1,0.6H111.8z"/>
		<path class="st0" d="M131.9,53.2l-0.5-0.1l-1.3,0.1l-0.4-0.4v-1.3l0.2-0.4l-0.1-0.5l0.2-1v-0.4l0.2-1l0.2-1.1l0.2-0.9l0.1-0.5
			l0.2-0.8l0.1-0.5l0.1-0.4l0.3-1.6l0.2-0.4l0.1-0.9l0.1-0.5l0.1-0.4l0.3-0.9l0.1-0.4l0.1-0.8v-0.4l0.4-0.7V36l0.1-0.4v-0.5l0.2-0.4
			l0.1-1.1l0.2-1.5l0.2-0.5l0.1-0.6l0.1-1l0.1-0.5l0.1-0.4l0.1-0.5l0.1-0.4l0.2-1l0.1-0.6l0.1-1.1l0.2-1.1l0.2-0.9v-0.8l0.1-0.9
			l0.1-0.5l0.2-0.5l0.1-0.9l0.1-0.4l0.3-1.1l0.1-0.8l-0.1-0.3l0.2-0.9l0.1-0.4l0.1-1.3l0.1-0.6l0.2-1l0.2-0.6l0.1-0.8l0.1-0.5v-0.6
			l0.1-0.5l0.1-0.5V9.2l0.1-0.5l0.3-1.1l0.1-0.5l0.1-0.6l0.2-1l0.1-0.6l0.3-0.9l0.6-0.3h3.7l0.9-0.1l0.9,0.1l0.4-0.1h4.7l0.5,0.1
			l1.1-0.1h1l1.1,0.1h0.6l0.9,0.1l1.5,0.2l1.1,0.2l0.5,0.1l0.5,0.4l0.5,0.2l0.9,0.5l0.6,0.6l0.3,0.4l0.4,0.6l0.4,0.5l0.2,0.6L162,9
			l0.1,0.5l0.3,0.8l0.1,0.8l0.1,0.5l0.2,0.8l-0.1,0.7l0.1,1.1v0.5l0.1,0.8l-0.1,0.8l-0.1,0.8l-0.1,0.5l-0.1,1.6l-0.1,1l-0.2,0.5
			l-0.1,0.6l-0.2,0.5l-0.1,0.4l-0.1,0.4l-0.2,1l-0.2,0.6l-0.4,1l-0.6,1.3l-0.4,0.8l-0.5,0.8l-0.6,1.1l-0.4,0.4l-0.5,0.8l-0.6,0.6
			l-0.5,0.7l-0.4,0.5l-0.9,0.7l-0.4,0.4l-1,0.5l-0.7,0.2l-0.9,0.4l-1.1,0.4l-0.8,0.1l-0.9,0.1l-1,0.1l-2,0.1l-1.3-0.1h-1.6l-1.1-0.1
			v0.1l-0.1,0.5l-0.2,0.6l-0.1,0.9l-0.1,0.4l-0.1,0.9l-0.1,0.4l-0.1,0.5l-0.1,0.4l-0.1,0.5v0.4l-0.2,1l-0.2,0.6l-0.1,0.8l-0.1,0.5
			l-0.2,0.8l-0.1,0.5l-0.2,0.5v0.7l-0.2,1.1v1l-0.3,0.4v0.6l-0.1,0.5l-0.1,0.4l-0.1,0.5l-0.2,0.6l-0.1,0.6l-0.1,0.6l-0.2,0.8
			l-0.5,0.1H133L131.9,53.2z M146,26.1l0.8-0.1l1.3-0.1l0.5-0.2l1.1-0.8l0.8-0.7l0.5-0.8l0.3-0.4l0.4-1l0.1-0.6l0.3-0.6l0.3-1.2
			l0.3-2l0.1-1.8v-1.2l-0.3-0.8l-0.4-0.6l-0.8-0.6l-0.6-0.1l-1.9-0.1l-1.6,0.1l-0.5,0.1l-0.4,0.8l-0.1,0.4l-0.1,0.7l-0.1,1.2
			l-0.1,0.5l-0.2,0.8l-0.2,1.4l-0.1,0.7L145,20l-0.1,0.8v0.6l-0.1,0.6l-0.4,1.8v0.6l-0.2,1l-0.1,0.6H146z"/>
		<path class="st0" d="M168.5,53.3h-0.9l-2.2-0.1l-0.6-0.1l-0.1-0.4v-0.6l0.2-0.7l0.1-0.7l0.1-0.8v-0.5l0.1-0.4v-0.5l0.2-0.5v-0.4
			l0.1-0.5l0.2-1v-0.5l0.2-0.6l-0.1-0.5l0.2-0.6l0.1-1l0.1-0.6l0.1-0.5l-0.1-0.6l0.3-0.6v-1.1l0.4-1.3v-0.6l0.1-0.7l0.1-1.1v-0.6
			l0.3-1l0.1-0.5l0.1-0.6v-0.6l0.4-0.5l0.1-0.4l-0.1-0.4l0.1-0.8L168,30l0.2-0.4v-0.4l0.1-0.5l0.1-0.8l0.1-0.4l0.1-0.9l0.1-1v-0.6
			l0.4-1.5V23l0.1-0.4l0.1-0.5l0.1-0.9l0.1-0.4v-0.5l0.1-0.4l0.3-0.8l0.1-1l0.1-0.4l0.2-1l0.2-1.1l0.2-1l0.1-0.4v-0.4l0.1-0.9v-0.4
			l0.1-0.5l0.2-0.8l0.2-1.1l0.3-2l0.1-0.6l0.1-0.5V6.1l0.3-0.6l-0.1-0.8l0.3-0.4l0.5-0.6l0.7-0.1h1l4.2,0.1h3l0.5-0.1l0.7-0.1
			l0.6,0.1l1.1,0.1h0.6l0.9,0.1l1.1,0.1l0.8,0.1h1.1l0.6,0.1l0.8,0.4l0.6,0.3l0.5,0.1l0.6,0.4l0.4,0.2l0.4,0.2l0.8,0.5l0.3,0.3
			l0.4,0.4l0.3,0.4l0.5,0.8l0.5,1l0.2,1.1l0.1,1.3v0.5l0.2,1.3v0.6l-0.2,1l-0.1,0.5l0.1,1.1v0.5l-0.2,1.1l-0.1,1.1l-0.2,0.7
			l-0.3,0.8l-0.1,0.5l-0.1,0.4l-0.2,0.5l-0.4,0.8l-0.6,0.9l-0.2,0.5l-0.3,0.6l-0.6,0.9l-0.2,0.4l-0.8,0.9l-0.4,0.4l-1,1.1l-1.4,0.9
			l-1,0.5l-0.5,0.1v0.6l0.2,0.6l0.4,1.1v0.6l0.1,0.9l0.3,0.4l0.1,0.6l0.1,0.9l0.2,0.4l0.2,0.9l0.1,0.4l0.1,1l0.2,0.5l0.1,0.6
			l0.3,0.9v0.4l0.4,1.1l0.1,0.9l0.8,2.5l0.1,1l0.5,1.2l0.1,0.8l0.1,0.5l0.1,0.6l0.5,1.3l-0.2,0.9l-0.4,0.1l-0.8,0.1h-0.9l-1.5,0.2
			l-1.8,0.2h-0.9l-0.8,0.1h-0.6l-0.6,0.1l-0.4-0.1l-0.6-0.6l-0.1-0.4l-0.2-0.8l-0.1-0.4l-0.2-0.8l-0.4-1.1v-0.6l-0.2-0.6l-0.1-0.2
			l-0.1-0.9l-0.2-0.5v-0.5l-0.2-0.4l-0.1-0.5l-0.2-0.8l-0.3-0.7v-0.8l-0.4-1.3l-0.1-0.5l-0.3-0.8l-0.1-0.5l-0.1-0.9l-0.3-0.9l-0.1-1
			l-0.1-0.4l-0.2-1l-0.1-0.7l-0.3-0.6l-0.1-0.6L178,33l-0.3-0.3l-0.5-0.1l-0.1,0.3l-0.1,0.4l-0.2,1l-0.1,0.6l-0.2,1.5v1.2l-0.4,0.9
			l-0.1,1v0.4l-0.1,1l-0.3,0.6V43l-0.1,0.6l-0.3,1.5l-0.1,0.6L175,46v0.6l-0.2,1l0.1,0.4l-0.1,0.5v0.4l-0.1,0.9l-0.1,0.5v0.4
			l-0.1,0.5l-0.1,0.8l-0.2,0.5l-0.2,0.6l-0.7-0.1l-0.6,0.1l-1.1,0.1l-0.6,0.1L168.5,53.3z M181.3,24.2l0.8-0.2l0.4-0.3l0.7-0.4
			l0.5-0.3l0.5-0.6l0.3-0.4l0.5-0.4l0.4-0.9l0.1-0.6l0.1-0.4l0.5-1v-0.6l0.2-0.6l0.1-1.1l-0.1-1.6l-0.2-1.5l-0.4-0.6l-0.5-0.5
			l-0.6-0.4l-1.6-0.2l-1.7-0.1l-0.6,0.2l-0.2,0.8l-0.2,0.5l-0.1,1.1l-0.1,1.1l-0.1,0.9l-0.1,0.6l-0.2,1.1v0.5l-0.1,1.1l-0.2,0.6
			l0.1,0.6l-0.1,0.6l-0.2,1.1L179,23l0.1,0.5l-0.1,0.6l1.2,0.1H181.3z"/>
		<path class="st1" d="M18.7,56.9h-1.2l-0.8-0.1L16,56.7l-1.7-0.5l-0.8-0.3l-1-0.5l0.1-0.5l1.1,0.4l0.5,0.1l0.7,0.1h0.8l0.7,0.1
			l0.5,0.1h0.8l0.8,0.1l0.8-0.1l0.5-0.1h0.8l0.5-0.1l0.6-0.2l0.5-0.1l0.9-0.3l0.6-0.1l1.1-0.4l0.4-0.3l0.8-0.2l0.6-0.5l0.7-0.4
			l0.6-0.5l0.4-0.3l0.6-0.6l0.4-0.3l0.4-0.7l0.4-0.3l0.6-1.2l0.4-1l0.1-0.6l0.1-0.6l0.3-0.9l0.1-1.1v-0.5l0.2-0.9l0.1-1.1v-0.9
			l0.1-0.5l-0.1-0.5l0.1-0.4l0.1-1l-0.1-0.4v-1.2L32,37.2L32,36.6l-0.1-0.5l-0.4-1.6l-0.4-1.3l0.6-0.4l0.3,0.4l0.2,0.4l0.3,0.7
			l0.4,0.8l0.4,0.9l0.4,1.5V38l0.1,0.6l0.1,0.5l0.1,0.8v1.8l-0.1,0.4l0.1,0.5l-0.1,0.5L33.7,44v1.1l-0.2,1l-0.1,0.4l-0.2,1L32.8,49
			l-0.2,0.6l-0.4,0.8l-0.6,1.1L31.2,52l-0.4,0.6l-0.4,0.3l-0.6,0.6l-0.4,0.3L29,54.4l-0.6,0.4L27,55.6l-0.5,0.1l-1,0.4L25,56.4
			l-0.9,0.2l-0.5,0.1l-0.6,0.1l-0.5,0.1l-0.8,0.1L21.2,57l-0.8-0.1L19.5,57L18.7,56.9z M16.6,43.5l-0.5-1.1L16,41.7v-0.8l0.1-0.5v-2
			l0.6-0.1h0.6l0.4,0.4v1.6l-0.1,1.5v1.6l0.2,0.7L17.2,44L16.6,43.5z M22.4,20.9l-0.3-0.6l-0.6-0.8l-0.6-1.2l-0.3-0.6l-0.3-0.8
			l-0.1-1l0.1-0.7v-0.5l0.3-0.7l0.1-0.5l0.3-0.6l0.5-0.4l0.5-0.1l0.5,0.3l0.4,0.4l-0.3,0.6l-0.3,0.7l-0.3,1L21.7,16v1.2l0.3,1
			l0.3,0.9l0.2,0.5L23,21l0.1,0.2l-0.4,0.2L22.4,20.9z M28.6,22.2h-1L27,21.7L27,21l0.3-0.2h4.5l1.3-0.1l0.6-0.7l0.6-1.2l0.3-2
			l0.1-1.2l-0.1-1.4l0.1-1.1v-0.5l-0.1-1.1L34.4,11l-0.1-0.5L34,9.7L34,9.1l-0.3-0.6l-0.1-0.3L34,8.1l0.4,0.6l0.4,0.8L35,9.7
			l0.4,0.9l0.2,0.5l0.1,0.6l0.2,0.6l0.1,0.6l0.1,1.1v1.6l0.1,1.4l-0.1,1.2L35.9,20l-0.5,1.3l-0.7,0.9l-1.1,0.1h-4L28.6,22.2z"/>
		<path class="st1" d="M38.8,56l-0.4-0.8l0.1-0.4h7l0.8-0.3l0.2-0.7l0.3-0.8l0.2-1.3l0.1-0.4v-0.9l0.1-0.5l0.2-0.9l0.3-2l0.1-0.5
			l0.1-0.4l0.1-1l0.3-1.4l0.3-1.1l0.1-1l0.1-0.4l-0.1-0.5L49,40l0.2-0.8l-0.1-0.5l0.2-0.9l0.1-0.4l0.4-2.9h0.3l0.1,1.6l0.2,1.8
			l0.1,1.9l-0.1,0.8v0.8L50.3,42v0.5l-0.1,0.4l-0.1,1L50,44.8l-0.3,1.4l-0.1,1l-0.1,0.4l-0.1,0.6l-0.3,2l-0.2,0.9l-0.1,0.5l-0.1,0.9
			L48.6,53l-0.2,1.3l-0.2,0.8l-0.2,0.7l-0.6,0.3h-7.5L38.8,56z M59.2,21.8L59,21.1l-0.2-0.6l-0.1-1.3l-0.4-1.7v-0.6L58,16l-0.2-1.1
			l-0.3-1.1v-1.1l-0.4-1.3L57,10l-0.1-1.1l-0.3-0.8l-0.1-0.8L57,6.6l0.8,0.4l0.1,0.6l0.3,0.6L58.3,9l0.1,0.8l0.3,0.9l0.2,1.3
			l0.1,1.4l0.1,1.1l0.3,1.1l0.1,0.8l0.2,0.5l0.1,0.8l0.1,0.4l-0.1,1.1l-0.1,1.1l-0.2,1.5L59.2,21.8z M57.8,55.8l-0.5-1l0.3-0.4
			l1.3,0.1l2.3-0.1l1.5,0.1l0.7-0.1l0.6-0.1l0.8-0.2l0.8-0.4l0.6-1.1l0.4-1.6l0.2-1.2l-0.1-0.6l0.2-0.6l0.2-0.8l0.1-1.1l0.1-0.9
			l0.3-0.7v-0.8l0.1-0.9l0.4-1.6l0.2-0.7l0.4-0.8l0.1-0.9l0.3-0.8l-0.1-0.6l0.1-0.4l0.1-0.5v-0.5l0.2-0.6l0.1-0.7l0.3-0.8l0.1-0.7
			l0.1-0.6l0.2-0.6l-0.1-0.5l0.1-0.4l0.1-0.5l0.1-0.5l0.1-0.6l0.2-0.7l0.3-1.7l0.1-0.7l0.2-0.7l0.1-0.6l0.2-0.6v-0.7l0.1-1l0.3-1.3
			l0.1-1.1v-0.7l0.2-0.6v-0.6l0.3-0.8l0.1-1l0.3-1l0.1-0.6v-0.5l0.2-0.5v-0.6l0.1-0.6l0.1-0.7l0.1-0.8l0.2-0.8l0.1-0.9l0.3-1.1
			l0.2-1.6V6.7l0.1-0.4h0.1l0.8,0.1l0.6,0.2l0.3,0.4l0.1,0.6l-0.1,0.8l-0.2,0.8l-0.1,1.1v1.3L76,12.9l-0.4,1.2l-0.3,1.1L75.2,16
			l-0.1,1l-0.2,1.3l-0.3,1.1l-0.3,0.8L74.3,21l-0.1,0.5L74,22.2L74,22.9l-0.1,1.3l-0.4,1.3v0.7l-0.1,0.6l-0.1,0.6l-0.2,0.7l-0.3,0.7
			l-0.1,0.7l-0.1,1l-0.1,0.8l-0.1,0.6v0.6l-0.1,0.4L72,33.4L72,33.9V35l-0.4,1.4l-0.2,0.8l-0.1,0.6l-0.1,0.6l0.1,0.4l-0.1,0.5
			L71,39.7l-0.1,0.7l-0.3,1l-0.1,0.8l-0.2,0.6l-0.1,0.8l-0.4,0.8v0.8l-0.1,0.9l-0.3,1.6l-0.2,1.1l-0.3,1v0.7L68.8,51l-0.4,0.7
			l-0.2,1.6l-0.6,1.6l-0.5,0.7l-0.9,0.3L65.3,56L64.9,56h-6.1L57.8,55.8z"/>
		<path class="st1" d="M85.4,56.1h-2.1l-1-0.1h-0.6L81.3,56L80.5,56L80,55.9L79.5,56l-0.6-0.1l-0.6-0.5l-0.1-0.9l0.6,0.1h1.7
			l0.4,0.1l1.2,0.1l2,0.1l1.6-0.1l0.8-0.3l0.4-0.5l0.3-0.6v-0.8l0.1-1l0.3-0.8v-0.7l0.1-0.6l0.2-0.6l0.1-0.6l0.1-0.7l0.1-0.8l0.3-1
			v-0.9l0.2-0.7v-0.8l0.4-0.8l0.1-0.8v-0.8l0.3-0.8l0.1-0.8v-0.6l0.1-0.8l0.3-1.6l0.3-0.8l0.1-0.8l0.3-0.8l0.1-0.9l0.1-0.8l0.2-0.6
			v-0.5l0.3-0.5l0.1-0.6V29l0.1-0.6l0.2-0.7l0.1-0.8l0.2-0.8V25l0.1-1.1l0.2-0.7l0.1-0.8v-0.6l0.2-0.8l0.2-0.8l0.1-0.8l0.3-0.6v-1.3
			l0.1-0.7l0.3-0.6l0.1-1l0.3-1.2l0.1-0.8l-0.1-0.5l0.1-0.5l-0.1-0.5l0.1-0.7l0.3-0.8l0.1-0.6L94.9,9l0.1-0.4V8.2L95,7.6V6.5h0.5
			L96,6.4l0.8,0.2l0.3,0.7L97,7.8v0.9l-0.1,0.2l-0.1,0.8l0.1,0.4l-0.2,0.3V11l-0.2,0.4l-0.1,1L96,13v0.6L95.9,14v0.5l-0.1,0.4
			l-0.4,1.8l-0.1,0.8l-0.1,0.4l-0.1,0.8L95,19.3l-0.1,0.8l-0.1,0.5l-0.1,0.9l-0.2,0.8l-0.2,0.9l-0.1,0.4l-0.2,1l-0.2,0.6v0.6
			l-0.1,0.5L93.7,27v0.5l-0.1,0.9l-0.2,0.7L93,31.2l-0.3,1l-0.2,0.5v0.6l-0.2,0.9l-0.1,0.9L92,36l-0.3,1v0.6l-0.3,1v0.6l-0.1,1
			l-0.1,0.4v1l-0.4,0.7l0.1,0.8L90.7,44l-0.1,0.6l-0.3,0.9V46l-0.2,1L90,48l-0.1,0.9v0.5l-0.2,0.8l-0.3,1.7l-0.2,0.9l-0.1,1
			l-0.2,0.9l-0.1,0.6l-0.2,0.6l-0.8,0.2l-1.8,0.1L85.4,56.1z"/>
		<path class="st1" d="M100.5,56h-0.8L99,55.8L98.6,55l0.1-0.4l0.2-0.1l0.8,0.1h5.1l1.2-0.1l0.4-0.4l0.1-0.7l0.2-0.6l0.1-0.6
			l0.1-0.6l0.1-0.4l0.2-0.5v-0.5l0.1-0.5l0.2-0.7l0.1-1.1v-0.8l0.1-0.6L108,46l0.1-0.6l0.2-0.7l0.2-0.6l0.1-0.8l0.1-0.8l0.3-0.7
			l-0.1-0.5l0.1-0.4l0.2-0.5l-0.1-0.4l0.2-0.7l0.1-1.1l0.1-0.7l0.1-0.6l0.6-0.3h4.5l2.5-0.4l1.3-0.3l2.5-1l0.7-0.4l1.2-0.9l0.7-0.6
			l0.4-0.6l0.6-0.6l0.5-0.7l0.6-0.6l0.4-0.8l0.6-1l0.4-0.8l0.5-0.9l0.4-1.1l0.4-0.9l0.2-0.8l0.1-0.7v-0.4l0.3-0.5l0.1-0.5l0.1-0.6
			l0.1-0.7l0.1-1.3l0.2-1.1l0.2-0.6v-0.8l0.1-0.8v-1.7l-0.1-1.2V12l-0.1-0.8l-0.1-0.6l-0.2-0.9L129.3,9L129,8.1l0.5-0.1l0.5,0.8
			l0.3,0.5l0.4,0.5l0.3,0.7l0.4,0.8l0.1,0.7l0.1,0.6l0.1,0.8v0.6l0.1,0.6l0.1,0.8v0.8l0.1,0.8l-0.1,0.6l-0.1,0.8v0.8l-0.1,0.6
			l-0.2,1.1l-0.2,1.3l-0.2,0.7v0.6l-0.1,0.5l-0.3,0.5v0.4l-0.3,0.7l-0.6,1.6l-0.6,1.1l-0.4,1.1l-0.4,0.8l-0.6,0.9l-0.6,0.8l-0.6,0.6
			l-0.6,0.7l-0.5,0.6l-0.4,0.4l-0.6,0.4l-0.6,0.7l-0.6,0.4l-0.8,0.5l-0.8,0.3l-1.1,0.6l-1,0.3l-0.9,0.4l-1.1,0.1l-1.3,0.3l-1.8,0.2
			l-2.7,0.1l-0.6,0.2l-0.1,0.6l-0.1,0.5V40l-0.1,0.6l-0.1,0.7l-0.1,0.4l-0.1,0.5l-0.1,0.4l-0.1,0.5l-0.2,0.7l-0.1,0.8l-0.3,0.8
			l-0.1,0.6l-0.2,0.7l-0.1,0.6l-0.3,0.5l-0.1,0.6v0.8l-0.1,1.1l-0.1,0.7l-0.3,1v0.5l-0.1,0.4l-0.3,0.6l-0.1,0.6l0.1,0.6l-0.3,0.7
			L108,56h-6.6L100.5,56z M111.7,24l0.1-0.8l0.1-0.8l0.1-0.7l0.1-1l0.1-0.9l0.1-1.1l0.4-1.1l0.1-0.7L113,16l0.1-0.9l0.3-0.8l0.1-0.8
			l0.4-0.2l1.1,0.1h0.5l0.8,0.1l0.7,0.4l0.3,0.6l0.1,0.4h-0.8l-0.8,0.1l-0.6,0.5l-0.3,1.1v0.9l-0.2,0.8l-0.3,0.7l-0.2,1.1v1.1
			l-0.2,0.9l-0.4,1.7l-0.1,0.4l-0.6,0.2h-0.8L111.7,24z"/>
		<path class="st1" d="M134.7,56h-0.8l-0.8-0.1l-0.4-0.8l0.1-0.4l0.2-0.1l0.8,0.1h5.1l1.2-0.1l0.4-0.4l0.1-0.7l0.2-0.6l0.1-0.6
			l0.1-0.6l0.1-0.4l0.2-0.5v-0.5l0.1-0.5l0.2-0.7l0.1-1.1v-0.8l0.1-0.6l0.1-0.5l0.1-0.6l0.2-0.7l0.2-0.6l0.1-0.8l0.1-0.8l0.3-0.7
			l-0.1-0.5l0.1-0.4l0.2-0.5l-0.1-0.4l0.2-0.7l0.1-1.1l0.1-0.7l0.1-0.6l0.6-0.3h4.5l2.5-0.4l1.3-0.3l2.5-1l0.7-0.4l1.2-0.9l0.7-0.6
			l0.4-0.6l0.6-0.6l0.5-0.7l0.6-0.6l0.4-0.8l0.6-1l0.4-0.8l0.5-0.9l0.4-1.1l0.4-0.9l0.2-0.8l0.1-0.7v-0.4l0.3-0.5l0.1-0.5l0.1-0.6
			l0.1-0.7l0.1-1.3l0.2-1.1l0.2-0.6v-0.8l0.1-0.8v-1.7l-0.1-1.2V12l-0.1-0.8l-0.1-0.6l-0.2-0.9L163.4,9l-0.3-0.8l0.5-0.1l0.5,0.8
			l0.3,0.5l0.4,0.5l0.3,0.7l0.4,0.8l0.1,0.7l0.1,0.6l0.1,0.8v0.6l0.1,0.6l0.1,0.8v0.8l0.1,0.8l-0.1,0.6l-0.1,0.8v0.8l-0.1,0.6
			l-0.2,1.1l-0.2,1.3l-0.2,0.7v0.6l-0.1,0.5l-0.3,0.5v0.4l-0.3,0.7l-0.6,1.6l-0.6,1.1l-0.4,1.1l-0.4,0.8l-0.6,0.9l-0.6,0.8l-0.6,0.6
			l-0.6,0.7l-0.5,0.6l-0.4,0.4l-0.6,0.4l-0.6,0.7l-0.6,0.4l-0.8,0.5l-0.8,0.3L155,37l-1,0.3l-0.9,0.4l-1.1,0.1l-1.3,0.3l-1.8,0.2
			l-2.7,0.1l-0.6,0.2l-0.1,0.6l-0.1,0.5V40l-0.1,0.6l-0.1,0.7l-0.1,0.4l-0.1,0.5l-0.1,0.4l-0.1,0.5l-0.2,0.7l-0.1,0.8l-0.3,0.8
			l-0.1,0.6l-0.2,0.7l-0.1,0.6l-0.3,0.5l-0.1,0.6v0.8l-0.1,1.1l-0.1,0.7l-0.3,1v0.5l-0.1,0.4l-0.3,0.6l-0.1,0.6l0.1,0.6l-0.3,0.7
			l-0.2,0.5h-6.6L134.7,56z M145.8,24l0.1-0.8l0.1-0.8l0.1-0.7l0.1-1l0.1-0.9l0.1-1.1l0.4-1.1l0.1-0.7l0.1-0.8l0.1-0.9l0.3-0.8
			l0.1-0.8l0.4-0.2l1.1,0.1h0.5l0.8,0.1l0.7,0.4l0.3,0.6l0.1,0.4h-0.8l-0.8,0.1l-0.6,0.5l-0.3,1.1v0.9l-0.2,0.8l-0.3,0.7l-0.2,1.1
			v1.1l-0.2,0.9l-0.4,1.7l-0.1,0.4l-0.6,0.2h-0.8L145.8,24z"/>
		<path class="st1" d="M171.6,56h-0.9l-2.2-0.1l-0.6-0.1l-0.1-0.4v-0.6l0.1-0.1l1.1,0.1h0.9l2.5,0.1l0.6-0.1l1.1-0.1l0.6-0.1
			l0.9-0.6l0.2-0.5l0.1-0.8l0.1-0.5v-0.4l0.1-0.5l0.1-0.9v-0.4l0.1-0.5l-0.1-0.4l0.2-1v-0.6l0.1-0.4l0.1-0.6l0.1-1.1l0.1-0.7l0.1-1
			l0.1-1.6l0.1-0.5l0.1-0.6l0.2-1l0.1-0.4l0.1-0.3h0.4l0.2,0.5l0.2,0.7l0.1,0.6l0.3,1.3V43l-0.1,0.6v0.6l-0.1,0.9l-0.1,0.8v0.6
			l-0.1,1.3l-0.1,0.6l-0.1,0.4v0.6l-0.2,1l0.1,0.4l-0.1,0.5v0.4l-0.1,0.9l-0.1,0.5v0.4l-0.1,0.5l-0.1,0.8l-0.2,0.5l-0.9,0.6
			l-0.6,0.1l-1.1,0.1l-0.6,0.1L171.6,56z M180.8,22.5v-0.9l0.1-0.6l0.1-1.3v-0.5l0.2-1.1l0.1-0.6l0.1-0.9l0.1-1.1l0.1-1.1l0.2-0.5
			l0.2-0.8l0.6-0.2h0.6l0.7,0.1l0.7,0.4l0.2,0.6l-0.3,0.4l-0.9,0.1l-0.2,0.8l-0.2,0.5l-0.1,1.1l-0.1,1.1L183,19l-0.1,0.6l-0.2,1.3
			v0.5l-0.2,0.5l-0.1,0.3l-0.2,0.2l-0.4,0.2l-0.5,0.1L180.8,22.5z M187,56l-0.6-0.6l-0.1-0.4l-0.1-0.4h0.7l0.8-0.1h0.9l1.8-0.2
			l1.5-0.2h0.9l0.8-0.1l0.5-0.2l0.5-1.1l-0.3-1l-0.1-0.6l-0.1-0.5l-0.1-0.8l-0.5-1.2l-0.1-1l-0.8-2.5l-0.1-0.9l-0.4-1.1v-0.4
			l-0.3-0.9l-0.1-0.6l-0.2-0.5l-0.1-1l-0.1-0.4l-0.2-0.9l-0.3-0.4l-0.1-0.9l-0.1-0.6l-0.3-0.4l-0.1-0.9v-0.6l-0.4-1.1l-0.2-0.6
			l-0.1-0.6l0.5-0.4l1.1-0.6l0.7-0.6l0.9-1.1l0.4-0.4l0.7-0.8l0.3-0.4l0.6-0.9l0.4-0.6l0.3-0.6l0.5-0.9l0.4-0.8l0.2-0.5l0.1-0.4
			l0.1-0.5l0.3-0.8l0.2-0.7l0.1-1.1l0.4-1.1v-0.5l0.1-1.1l0.1-0.5l0.2-1v-0.6l-0.1-1.3v-0.5l-0.1-1.1l-0.2-1.3l-0.2-1.1l-0.6-1.5
			l0.4-0.1l0.3,0.3l0.4,0.5l0.3,0.4l0.5,0.8l0.5,1l0.2,0.9l0.1,1.3l0.1,1.3v0.5l0.1,1.3v0.6l-0.2,1l-0.1,0.5l-0.2,1.1l-0.1,0.5
			l-0.2,1.1l-0.1,0.9l-0.4,0.9l-0.3,0.8l-0.1,0.5l-0.1,0.4l-0.2,0.5l-0.4,0.6l-0.8,1.4l-0.3,0.6l-0.7,0.9l-0.2,0.4l-1.6,1.8
			l-0.8,0.6l-0.4,0.4l-0.3,0.2l-0.4,0.4v0.6L192,34l0.1,0.6l0.5,2.3l0.2,0.7l0.1,0.6l0.2,1l0.2,0.4l0.2,0.9l0.1,0.4l0.1,1l0.2,0.5
			l0.1,0.6l0.4,1v0.4l0.4,1.1l0.1,0.9l0.7,2.5l0.2,1l0.3,1.2l0.3,0.8l0.1,0.5V53l0.1,0.9l-0.6,0.9l-0.7,0.3l-0.8,0.4h-0.9l-1.5,0.2
			l-1.8,0.2h-0.9l-0.8,0.1h-0.6l-0.6,0.1L187,56z"/>
		<path class="st2" d="M210.5,53.3H210l-1.1,0.1h-2.8l-0.4-0.1h-0.5l-1-0.1l-0.6-0.1l-0.5-0.4l0.1-0.5l0.1-0.7v-1l0.2-0.5l0.1-0.6
			l0.1-1l0.1-0.8l0.1-0.5l0.3-0.9l0.1-1l0.1-1l0.1-0.4l0.1-0.5l0.1-0.5l0.1-0.5l0.2-0.5l0.1-0.4l0.1-1l0.1-1.1l0.3-0.7l-0.1-0.7
			l0.2-1l0.2-0.5l0.1-0.5l0.1-0.4v-0.5l0.2-0.9l0.1-0.9l0.1-0.5l0.2-0.8v-0.4l0.1-0.3l0.1-0.7l0.3-1l0.1-1l0.1-0.3l0.3-0.9l0.1-0.5
			l0.3-1l0.1-1v-0.5l0.1-0.5l0.1-0.5l0.2-0.6l0.1-0.6l0.1-0.8l0.1-0.5l0.1-0.4l0.2-0.5l0.1-0.6l0.1-0.4v-0.5l0.1-0.4l0.1-0.4l0.1-1
			l0.3-1l0.1-2.2l0.2-1l0.2-0.9l0.4-1.6l0.2-0.9V8.4l0.1-0.5l0.1-1l0.1-0.6l0.2-0.3l0.6-0.5l1-0.1h1.7l0.4,0.1l0.8-0.1h1.4l3.3,0.1
			l2.7-0.1l1,0.1h2.1l0.8,0.1l0.7,0.1l1,0.3l0.8,0.2l0.7,0.3l0.6,0.3l0.8,0.6l0.9,1l0.6,0.5l0.3,0.4l0.2,0.3l0.3,0.8l0.4,1l0.1,0.5
			v0.5l0.1,0.5l0.1,0.8l-0.1,1l-0.1,0.4v0.5l-0.1,0.4l-0.1,0.5V17l-0.1,0.9l-0.1,0.5l-0.3,0.9l0.1,0.4l-0.1,0.5l-0.1,0.2l-0.1,0.5
			l-0.1,0.4l-0.1,0.5l-0.2,0.4l-0.3,0.6l-0.5,0.8l-0.5,0.7l-0.5,0.8l-0.9,0.9l-0.3,0.3l-0.3,0.4l-0.3,0.3l-0.5,0.3l-0.8,0.5
			l-0.8,0.3l-0.6,0.3v0.4l0.7,0.3l0.8,0.4l0.6,0.3l0.8,0.5l0.4,0.5l0.4,0.4l0.4,0.7l0.3,0.5l0.3,0.8l0.1,0.7l0.2,0.4l0.1,0.9
			l0.3,0.9l-0.1,0.9l0.1,0.7l-0.1,0.6v0.9l-0.1,0.5l-0.1,1l-0.2,1l-0.2,0.9l-0.1,0.5l-0.2,1l-0.1,0.4l-0.1,0.5l-0.1,0.4l-0.1,0.5
			l-1.1,2.2l-0.6,0.8l-0.4,0.8l-0.3,0.3l-0.5,0.4l-0.3,0.3l-0.5,0.3l-0.4,0.2l-0.3,0.3l-0.5,0.3l-0.3,0.3l-0.3,0.2l-0.5,0.2
			l-0.5,0.3l-0.8,0.2l-0.5,0.2l-0.4,0.1l-0.6,0.1l-0.9,0.2l-0.4-0.1l-1,0.2l-1-0.1l-0.5-0.1l-0.5,0.1l-1.8,0.1l-0.9-0.1l-0.5-0.1h-1
			l-0.5,0.1h-0.2l-1,0.1L210.5,53.3z M215.6,44.4l1.7,0.2h1.3l0.5-0.2h0.5l0.5-0.2l0.6-0.5l0.5-0.4l0.4-0.6l0.1-0.5l0.3-0.8l0.1-0.5
			l0.1-0.5l0.3-0.9l0.1-1.2l-0.1-1.2l0.1-0.9l-0.6-1.6l-0.8-0.7l-1.3-0.5l-0.7-0.1l-0.5-0.1h-1L217,33h-1l-0.2,0.6l-0.1,1.2
			l-0.1,0.5l-0.1,0.3l-0.1,1l-0.1,0.5v0.5l-0.1,0.4l-0.1,0.5l-0.1,1l-0.1,0.5l-0.2,1v0.5l-0.1,1l-0.1,0.5l-0.1,0.5l-0.3,0.9l1.1,0.1
			L215.6,44.4z M220.3,23.6l0.8-0.1l0.5-0.3l0.8-0.5l0.8-0.7l0.3-0.6l0.5-0.7l0.3-1l0.2-0.8l0.1-0.4l0.1-0.5l0.3-0.7l-0.1-0.8
			L225,16l-0.1-0.8l-0.4-0.8l-0.2-0.3l-0.5-0.5l-0.4-0.1l-0.6-0.1l-1.2-0.1h-1.7l-0.5,0.1v0.5l-0.2,0.6l-0.1,0.6l-0.1,0.5l-0.2,0.8
			v0.5l-0.2,0.9l-0.1,0.5l-0.1,0.4l-0.5,3.3l-0.1,0.5l-0.1,0.7v0.4h0.9l0.8,0.1L220.3,23.6z"/>
		<path class="st2" d="M242.6,53.4h-2l-1-0.1h-0.5l-0.5,0.1l-0.8-0.1l-0.5-0.1l-0.5,0.1l-0.5-0.1l-0.5-0.5l-0.1-1l0.3-1l0.1-1
			l0.1-0.5l0.1-1l0.1-0.5l0.2-1l0.1-0.5l0.1-0.5l0.1-0.5l0.3-0.9l-0.1-0.4l0.2-1.2l0.2-0.8l0.1-0.6l0.2-0.6l0.1-0.6l0.1-0.8v-0.5
			l0.1-0.5l0.1-0.4l0.1-0.5l-0.1-0.5l0.5-1.5l0.1-1v-0.4l0.1-0.5l0.1-0.5l0.1-0.4l0.1-1v-1l0.3-1v-0.5l0.1-1l0.3-0.5v-0.9l0.1-0.8
			l0.2-0.9l0.3-1l0.2-1.4v-1l0.2-0.5l0.1-1l0.1-0.4l-0.1-0.5l0.3-0.8l0.1-0.4l0.2-0.9l0.1-0.5l0.3-0.9l-0.1-0.5l0.1-0.5l0.1-0.9
			l0.1-0.3l0.1-1l0.2-0.9l0.1-0.4l0.1-0.4l0.1-0.8l0.1-0.8l0.3-0.8l0.1-1l0.1-0.4l0.1-0.5l0.5-0.7l0.5-0.2l0.4-0.3l0.5-0.1l1-0.1
			l0.6,0.1h1l0.5-0.1h3.6l0.5-0.1l0.8,0.2l0.3,0.7l-0.1,0.4v0.9l-0.1,0.2l-0.1,0.8l0.1,0.4l-0.2,0.3v0.6l-0.2,0.3l-0.1,1l-0.3,0.6
			v0.5l-0.1,0.4v0.5l-0.1,0.4l-0.3,1.8l-0.1,0.8l-0.1,0.4l-0.1,0.8l-0.1,0.5l-0.1,0.8l-0.1,0.5l-0.1,0.9l-0.2,0.8l-0.2,0.9l-0.1,0.3
			l-0.2,1l-0.2,0.6v0.6l-0.1,0.5l-0.1,0.5v0.5l-0.1,0.9l-0.2,0.7l-0.3,2.1l-0.3,1l-0.2,0.5v0.5l-0.2,0.9l-0.1,0.9L249,34l-0.3,1v0.5
			l-0.3,1V37l-0.1,1l-0.1,0.3v1l-0.3,0.7l0.1,0.8l-0.2,1l-0.1,0.5l-0.3,0.9v0.5l-0.2,1l-0.1,1l-0.1,0.9V47l-0.2,0.8l-0.3,1.6
			l-0.2,0.9l-0.1,1l-0.2,0.9l-0.1,0.5l-0.2,0.6l-0.8,0.2h-1.8L242.6,53.4z"/>
		<path class="st2" d="M265.9,53.3h-8.6l-0.8-0.2l-0.9,0.2h-0.5l-0.5,0.1l-0.5-0.1h-1l-0.8-0.1l-0.5-0.1l-0.3-0.7l-0.2-0.6l0.2-1.4
			l0.1-0.4v-1.6l0.2-0.8l0.2-0.9l1-1.4l0.4-0.7l0.3-0.4l0.1-0.3l0.3-0.3l0.4-0.7l0.7-1.2l0.3-0.7l0.3-0.8l0.3-0.5l0.3-0.4l0.2-0.5
			l0.5-0.8l0.3-0.3l0.1-0.4L259,35l0.5-0.9l0.5-0.8l0.1-0.3l0.3-1l0.3-0.6l0.7-1.2l2-3.5l0.4-0.8l0.2-0.3l0.3-0.8l0.2-0.4l0.6-0.7
			l0.1-0.4l0.6-1.2l0.4-0.7l0.2-0.4l0.4-0.8l0.3-0.4l0.4-0.8l0.2-0.3l0.3-0.6l0.4-0.5l0.2-0.4l0.5-0.8l0.6-1v-0.6l-0.5-0.1l-0.8,0.1
			H264l-1.1-0.1h-0.5l-1.1-0.1l-1.3,0.1l-0.5-0.1l-0.5,0.1l-1-0.1l-0.2-0.5l0.1-0.3v-0.9l0.1-0.5l0.1-0.4v-0.4l0.1-0.5l0.2-0.9
			l0.1-0.4l0.1-0.5l0.1-0.4V8.4l0.3-0.9l0.3-1.1l0.4-0.7l0.4-0.2h2.9l1.2,0.1h6.7l0.6,0.1h3.2l2.2-0.1l0.5,0.1l1,0.1l0.5-0.1h0.4
			l1,0.1l0.5,0.1l0.4,0.2l0.4,0.3l0.1,1.2l0.1,0.5l-0.2,0.6l-0.1,0.6v0.9l-0.1,0.9l-0.1,0.5l-0.1,0.7v0.7l-0.1,0.5l-0.4,0.8
			l-0.8,1.7l-0.2,0.8l-0.2,0.5l-0.2,0.3l-0.5,0.8l-0.1,0.4l-0.4,0.8l-0.2,0.4l-0.1,0.5l-0.3,0.5l-0.1,0.4l-1,2.1l-0.5,0.8l-0.1,0.4
			l-0.3,0.3l-0.7,1.2l-0.2,0.4l-0.3,0.4l-0.1,0.4l-0.4,0.9l-0.3,0.5l-0.1,0.4l-0.3,0.4l-0.2,0.4l-0.2,0.6l-0.3,0.5l-0.3,0.4
			l-0.3,0.3l-0.2,0.4l-0.3,0.4l-0.2,0.4l-0.3,0.4l-0.2,0.4l-0.1,0.4L270,35l-0.1,0.4l-0.7,1.2l-0.6,1.2l-0.5,0.8l-0.3,0.4l-0.5,0.8
			l-0.1,0.4l-0.5,0.8l-0.2,0.4l-0.2,0.5l-0.4,0.8l-0.3,0.4l-0.3,0.6l0.5,0.2l1.5,0.1l0.5,0.1h1.4l0.5-0.1l0.5,0.1h0.5l1,0.1h0.5
			l1-0.1h0.5l0.5,0.1l1,0.1l0.5,0.1h1.3l0.6,0.3v0.9l-0.2,1.2v0.5l-0.1,0.4v0.4l-0.1,0.5l-0.1,0.8l-0.1,0.9l-0.1,0.5l-0.1,0.4
			l-0.1,0.4l-0.1,0.5l-0.1,0.5l-0.1,0.5l-0.7,0.1H267l-0.5,0.2L265.9,53.3z"/>
		<path class="st0" d="M213.5,56H213l-1.1,0.1h-2.8l-0.4-0.1h-0.5l-1-0.1l-0.6-0.1l-0.5-0.5l0.1-0.5l0.1-0.3h0.8l0.4,0.1h2.8
			l1.1-0.1h0.5l1.1,0.1l1-0.1h0.2l0.5-0.1h1l0.5,0.1l0.9,0.1l1.8-0.1l0.5-0.1l0.5,0.1h1l1-0.1l1.3-0.2l0.5-0.2l0.4-0.1l0.5-0.1
			l0.8-0.2l0.5-0.3l0.5-0.3l0.4-0.2l0.3-0.2l0.5-0.3l0.3-0.3l0.3-0.2l0.4-0.3l0.3-0.4l0.5-0.3l0.3-0.3l0.5-0.8l0.5-0.8l0.5-0.9
			l0.5-0.8l0.3-1l0.2-0.4l0.1-0.5l0.1-0.4l0.2-1l0.1-0.5l0.3-0.9l0.2-1l0.1-1l0.1-0.5v-0.5l-0.1-0.4l0.1-0.6l0.1-0.7v-0.9l-0.3-1.8
			l-0.2-0.4v-0.7l-0.2-0.8L233,33l0.5-0.2l0.3,0.5l0.5,1.1l0.2,0.5l0.3,0.8l0.1,0.7v0.4l0.2,0.9l0.1,0.9l-0.1,0.9l0.1,0.7l-0.1,0.6
			v0.5l-0.1,0.5v0.5l-0.2,1l-0.2,1l-0.3,0.9l-0.1,0.5l-0.3,0.8l-0.2,0.5l-0.2,0.5l-0.2,0.4l-0.1,0.5l-0.3,0.5l-0.4,0.6l-0.5,1
			l-0.6,0.8l-0.9,0.9l-0.4,0.5l-0.3,0.3l-0.3,0.3l-0.7,0.4l-0.3,0.3l-0.3,0.2l-0.5,0.2l-0.3,0.2l-0.5,0.3l-0.7,0.3l-0.5,0.2
			l-0.4,0.1l-0.6,0.1l-0.7,0.1l-0.5,0.1l-2,0.3l-0.5-0.1l-0.5,0.1l-1.8,0.1h-0.9l-0.5-0.1h-1l-0.5,0.1h-0.2l-1,0.1L213.5,56z
			 M216.3,43.2l-0.5,0.1l0.1-0.8V42l0.1-0.4l0.1-0.7l0.1-1l0.1-0.5l0.1-0.4v-0.5l0.1-0.5l0.1-1l0.1-0.3l0.1-0.5l0.1-1.2l0.2-0.6h1
			l0.9,0.1h0.3l0.7,0.2l0.3,0.2l0.4,0.4l0.1,0.5h-0.8l-0.5-0.1h-0.9l-0.2,0.6l-0.1,1.2l-0.1,0.5l-0.1,0.3l-0.1,1l-0.1,0.5v0.5
			l-0.1,0.4l-0.1,0.8l-0.1,0.3l-0.1,0.5l-0.2,0.9l-0.4,0.1L216.3,43.2z M219.3,22.4v-0.5l0.3-1.2l0.1-0.8l0.1-0.4l0.1-0.5l0.2-0.9
			v-0.5l0.2-0.8l0.1-0.5l0.1-0.6l0.2-0.6v-0.5l0.5-0.1h0.8l0.8,0.1l0.8,0.1l0.3,0.7l-0.2,0.5h-0.8l-0.5,0.1v0.5l-0.2,0.6l-0.1,0.6
			l-0.1,0.5l-0.2,0.8v0.5l-0.2,1.2l-0.1,0.5l-0.1,0.4l-0.2,0.6l-0.5,0.3l-0.6,0.1h-0.5L219.3,22.4z M230.8,29.5l-0.5-0.4l-0.5-0.3
			l0.1-0.2l0.7-0.4L231,28l0.3-0.3l0.3-0.3l0.3-0.2l0.2-0.3l0.5-0.5l0.5-0.8l0.4-0.8l0.5-0.7l0.3-0.6l0.2-0.4l0.2-0.5l0.1-0.4
			l0.1-0.5l0.1-0.2l0.3-0.5l-0.1-0.4l0.3-0.9l0.1-0.5l0.1-0.9v-0.4l0.1-0.5L236,17v-0.5l0.1-0.4l0.1-1v-1l-0.2-1.2v-0.5l-0.1-0.5
			l-0.3-1l-0.1-0.8l-0.2-0.3l0.5-0.2l0.7,0.8l0.4,0.8l0.1,0.3l0.2,0.8l0.3,1l0.1,0.5l0.1,1.3l0.1,0.5l0.1,0.8l-0.1,1l-0.1,0.4v0.9
			l-0.1,0.5v0.4l-0.1,0.9l-0.1,0.5l-0.5,0.9l0.1,0.4l-0.3,0.5l-0.1,0.2l-0.1,0.5l-0.2,0.4l-0.1,0.5l-0.2,0.4l-0.3,0.5l-0.4,0.8
			l-0.5,0.7l-0.6,0.8l-0.5,0.5l-0.3,0.2l-0.3,0.3l-0.4,0.3l-0.2,0.3l-0.4,0.3l-0.5,0.3l-0.3,0.1L230.8,29.5z"/>
		<path class="st0" d="M245.6,56.1h-2l-1-0.1h-0.5l-0.5,0.1l-0.8-0.1l-0.5-0.1l-0.5,0.1l-0.5-0.1l-0.5-0.5l-0.1-0.9l0.5,0.1h1.6
			l0.4,0.1l1.2,0.1l1.9,0.1l1.5-0.1l0.8-0.3l0.3-0.5l0.3-0.6v-0.8l0.1-1l0.3-0.8v-0.7l0.1-0.6L248,49l0.1-0.6l0.1-0.7l0.1-0.8l0.3-1
			v-0.9l0.2-0.7v-0.8l0.3-0.8l0.1-0.8v-0.8l0.3-0.8l0.1-0.8v-0.6l0.1-0.8l0.3-1.5l0.3-0.8l0.1-0.8l0.3-0.8l0.1-0.9l0.1-0.8l0.2-0.6
			v-0.5l0.3-0.5l0.1-0.5V30l0.1-0.6l0.2-0.7l0.1-0.8l0.2-0.8v-1.1l0.1-1.1l0.2-0.7l0.1-0.8v-0.6l0.2-0.8l0.2-0.8l0.1-0.8l0.3-0.6
			v-1.3l0.1-0.7l0.3-0.5l0.1-1l0.3-1.2l0.1-0.8l-0.1-0.5l0.1-0.5l-0.1-0.5l0.1-0.7l0.3-0.8l0.1-0.5l0.1-0.5l0.1-0.4V9.8l0.1-0.5V8.2
			h0.5l0.5-0.1l0.8,0.2l0.3,0.7l-0.1,0.4v0.9l-0.1,0.2l-0.1,0.8l0.1,0.4l-0.2,0.3v0.6l-0.2,0.3l-0.1,1l-0.3,0.6V15l-0.1,0.4v0.5
			l-0.1,0.4l-0.3,1.8l-0.1,0.8l-0.1,0.4L255,20l-0.1,0.5l-0.1,0.8l-0.1,0.5l-0.1,0.9l-0.2,0.8l-0.2,0.9l-0.1,0.3l-0.2,1l-0.2,0.6V27
			l-0.1,0.5l-0.1,0.5v0.5l-0.1,0.9l-0.2,0.7l-0.3,2.1l-0.3,1l-0.2,0.5v0.5l-0.2,0.9l-0.1,0.9l-0.1,0.8l-0.3,1v0.5l-0.3,1v0.5l-0.1,1
			l-0.1,0.3v1l-0.3,0.7l0.1,0.8l-0.2,1l-0.1,0.5l-0.3,0.9v0.5l-0.2,1l-0.1,1l-0.1,0.9v0.5l-0.2,0.8l-0.3,1.6l-0.2,0.9l-0.1,1
			l-0.2,0.9l-0.1,0.5l-0.2,0.6l-0.8,0.2l-1.8,0.1L245.6,56.1z"/>
		<path class="st0" d="M267.9,56.1h-1l-5.2-0.1h-3.6l-0.5,0.1l-0.5-0.1h-1l-0.8-0.1l-0.5-0.1l-0.5-1l0.1-0.3h1l0.5,0.1l0.5-0.1h0.5
			l0.9-0.2l1.3,0.2h1.4l5.3,0.1l0.9-0.1h0.4l0.8,0.2l0.9-0.1l8.1-0.1l0.7-0.1l0.1-0.5l0.1-0.5l0.1-0.5l0.1-0.4l0.1-0.4l0.1-0.5
			l0.1-0.9l0.1-0.8l0.1-0.5v-0.4l0.1-0.4v-0.5l0.1-0.8l0.3-0.3h0.9l0.6,0.3v0.9l-0.2,1.2v0.5l-0.1,0.4v0.4l-0.1,0.5l-0.1,0.8
			l-0.1,0.9l-0.1,0.5l-0.1,0.4l-0.1,0.4l-0.1,0.5l-0.1,0.5l-0.1,0.5l-0.7,0.1l-7.6-0.1l-1.4,0.3L267.9,56.1z M261,17.3l-0.2-0.5
			l0.1-0.3l0.1-0.5h0.3l1.3-0.1l1.1,0.1l3-0.1h1l0.1,0.1l-0.9,1.2l-0.6,0.2l-0.6-0.1l-2.6,0.1l-0.5-0.1l-0.5,0.1L261,17.3z
			 M267.9,42.7l-0.3-0.1v-0.3l0.2-0.4l0.7-1l0.5-0.8l0.3-0.4l0.3-0.5l0.6-1.2l0.7-1.2l0.1-0.4l0.3-0.4l0.1-0.4l0.2-0.4l0.3-0.4
			l0.2-0.4l0.3-0.4l0.2-0.4l0.5-0.8l0.3-0.5l0.5-1l0.3-0.4l0.1-0.4l0.3-0.5l0.4-0.9l0.1-0.4l0.3-0.4l0.2-0.4l0.7-1.2l0.3-0.3
			l0.1-0.4l0.5-0.8l1-2.1l0.1-0.4l0.3-0.5l0.1-0.3l0.2-0.4l0.5-0.8l0.1-0.4l0.2-0.4l0.3-0.4l0.1-0.5l0.3-0.5l0.4-0.8l0.9-1.5l0.3-1
			l0.1-0.5v-0.7l0.1-0.7l0.1-0.5l0.1-0.9v-0.9l0.1-0.6l0.2-0.6L283,8.9l0.2-0.3l0.5,0.1l0.4,0.2l0.4,0.3l0.1,1.2l0.1,0.5l-0.2,0.6
			l-0.1,0.6v0.9l-0.1,0.9l-0.1,0.5l-0.1,0.7l-0.2,0.7l-0.1,0.5l-0.4,0.8l-0.8,1.7l-0.3,0.7l-0.2,0.5l-0.3,0.5l-0.1,0.3l-0.3,0.4
			l-0.1,0.4l-0.4,0.6l-0.2,0.4l-0.2,0.5l-0.3,0.5L280,24l-1.1,2.2l-0.3,0.4l-0.2,0.4l-0.1,0.4l-0.3,0.3l-0.8,1.6l-0.3,0.4l-0.2,0.3
			l-0.4,0.9l-0.3,0.5l-0.1,0.4l-0.3,0.4l-0.3,0.3l-0.2,0.5l-0.3,0.5l-0.3,0.5l-0.3,0.4L274,35l-0.3,0.6l-0.2,0.4l-0.3,0.4l-0.2,0.4
			l-0.1,0.4l-0.3,0.4l-0.1,0.4l-0.5,0.9l-0.3,0.4l-0.4,0.8l-0.3,0.5l-0.2,0.4l-0.4,0.5l-0.5,0.9l-0.6,0.2L267.9,42.7z"/>
	</g>
</g>
</svg>
