<?xml version="1.0" encoding="utf-8"?>
<!-- Generator: Adobe Illustrator 26.0.3, SVG Export Plug-In . SVG Version: 6.00 Build 0)  -->
<svg version="1.1" id="Layer_1" xmlns="http://www.w3.org/2000/svg" xmlns:xlink="http://www.w3.org/1999/xlink" x="0px" y="0px"
	 width="500px" height="500px" viewBox="0 0 500 500" enable-background="new 0 0 500 500" xml:space="preserve">
<path d="M224.71,203.06V29.19c0-13.91,11.38-25.29,25.29-25.29h0c13.91,0,25.29,11.38,25.29,25.29v173.87
	c0,13.91-11.38,25.29-25.29,25.29h0C236.09,228.35,224.71,216.97,224.71,203.06z M193.1,395.45L193.1,395.45
	c13.91,0,25.29-11.38,25.29-25.29V53.39c0-13.91-11.38-25.29-25.29-25.29h0c-13.91,0-25.29,11.38-25.29,25.29v316.76
	C167.81,384.06,179.19,395.45,193.1,395.45z M136.19,169.1L136.19,169.1c13.91,0,25.29-11.38,25.29-25.29v-43.63
	c0-13.91-11.38-25.29-25.29-25.29h0c-13.91,0-25.29,11.38-25.29,25.29v43.63C110.9,157.72,122.28,169.1,136.19,169.1z
	 M136.19,452.35L136.19,452.35c13.91,0,25.29-11.38,25.29-25.29V200.71c0-13.91-11.38-25.29-25.29-25.29h0
	c-13.91,0-25.29,11.38-25.29,25.29v226.35C110.9,440.97,122.28,452.35,136.19,452.35z M79.29,404.93L79.29,404.93
	c13.91,0,25.29-11.38,25.29-25.29V205.77c0-13.91-11.38-25.29-25.29-25.29h0c-13.91,0-25.29,11.38-25.29,25.29v173.87
	C54,393.55,65.38,404.93,79.29,404.93z"/>
</svg>
