<?xml version="1.0" encoding="utf-8"?>
<!-- Generator: Adobe Illustrator 26.0.3, SVG Export Plug-In . SVG Version: 6.00 Build 0)  -->
<svg version="1.1" id="Layer_1" xmlns="http://www.w3.org/2000/svg" xmlns:xlink="http://www.w3.org/1999/xlink" x="0px" y="0px"
	 width="500px" height="500px" viewBox="0 0 500 500" enable-background="new 0 0 500 500" xml:space="preserve">
<path d="M395.42,227.9v-115.7c0-13.91,11.38-25.29,25.29-25.29h0c13.91,0,25.29,11.38,25.29,25.29v115.7
	c0,13.91-11.38,25.29-25.29,25.29h0C406.8,253.19,395.42,241.81,395.42,227.9z M306.9,395.45L306.9,395.45
	c13.91,0,25.29-11.38,25.29-25.29V74.89c0-13.91-11.38-25.29-25.29-25.29h0c-13.91,0-25.29,11.38-25.29,25.29v295.26
	C281.61,384.06,292.99,395.45,306.9,395.45z M363.81,365.73L363.81,365.73c13.91,0,25.29-11.38,25.29-25.29v-115.7
	c0-13.91-11.38-25.29-25.29-25.29h0c-13.91,0-25.29,11.38-25.29,25.29v115.7C338.52,354.35,349.9,365.73,363.81,365.73z
	 M363.81,193.12L363.81,193.12c13.91,0,25.29-11.38,25.29-25.29V52.13c0-13.91-11.38-25.29-25.29-25.29h0
	c-13.91,0-25.29,11.38-25.29,25.29v115.7C338.52,181.74,349.9,193.12,363.81,193.12z M250,496.1L250,496.1
	c13.91,0,25.29-11.38,25.29-25.29V260.89c0-13.91-11.38-25.29-25.29-25.29h0c-13.91,0-25.29,11.38-25.29,25.29v209.92
	C224.71,484.72,236.09,496.1,250,496.1z"/>
</svg>
