<?xml version="1.0" encoding="utf-8"?>
<!-- Generator: Adobe Illustrator 26.0.3, SVG Export Plug-In . SVG Version: 6.00 Build 0)  -->
<svg version="1.1" id="Layer_1" xmlns="http://www.w3.org/2000/svg" xmlns:xlink="http://www.w3.org/1999/xlink" x="0px" y="0px"
	 width="148px" height="50px" viewBox="0 0 148 50" enable-background="new 0 0 148 50" xml:space="preserve">
<g>
	<g>
		<g>
			<path fill="#A6A6A6" d="M136.09,0.31H11.91c-0.45,0-0.9,0-1.35,0c-0.38,0-0.75,0.01-1.13,0.02C8.6,0.34,7.77,0.41,6.95,0.55
				c-0.82,0.14-1.61,0.4-2.35,0.77c-0.74,0.38-1.41,0.87-2,1.45c-0.59,0.58-1.08,1.26-1.45,2C0.78,5.52,0.52,6.31,0.38,7.13
				C0.25,7.94,0.17,8.77,0.16,9.6c-0.01,0.38-0.01,0.76-0.02,1.14v28.53c0.01,0.38,0.01,0.75,0.02,1.14
				c0.01,0.83,0.08,1.65,0.22,2.47c0.14,0.82,0.4,1.61,0.77,2.35c0.37,0.74,0.87,1.41,1.45,1.99c0.58,0.59,1.26,1.08,2,1.45
				c0.74,0.38,1.53,0.64,2.35,0.78c0.82,0.13,1.64,0.21,2.47,0.22c0.38,0.01,0.76,0.01,1.13,0.01c0.45,0,0.9,0,1.35,0h124.18
				c0.44,0,0.89,0,1.34,0c0.38,0,0.76,0,1.14-0.01c0.83-0.01,1.65-0.08,2.47-0.22c0.82-0.14,1.61-0.4,2.36-0.78
				c0.74-0.38,1.41-0.87,2-1.45c0.59-0.58,1.08-1.26,1.46-1.99c0.37-0.74,0.63-1.53,0.76-2.35c0.14-0.82,0.21-1.64,0.23-2.47
				c0-0.38,0-0.75,0-1.14c0.01-0.45,0.01-0.89,0.01-1.35V12.08c0-0.45,0-0.9-0.01-1.35c0-0.38,0-0.76,0-1.14
				c-0.01-0.83-0.09-1.65-0.23-2.47c-0.13-0.82-0.39-1.61-0.76-2.35c-0.76-1.48-1.97-2.69-3.45-3.46c-0.74-0.37-1.54-0.63-2.36-0.77
				c-0.82-0.14-1.64-0.21-2.47-0.22c-0.38-0.01-0.76-0.01-1.14-0.02C136.99,0.31,136.54,0.31,136.09,0.31L136.09,0.31z"/>
			<path d="M10.57,48.61c-0.38,0-0.74,0-1.12-0.01c-0.77-0.01-1.54-0.08-2.31-0.2c-0.71-0.12-1.4-0.35-2.05-0.68
				c-0.64-0.32-1.22-0.75-1.72-1.25c-0.51-0.5-0.94-1.08-1.26-1.72c-0.33-0.64-0.55-1.33-0.67-2.05c-0.13-0.77-0.2-1.54-0.21-2.31
				c-0.01-0.26-0.02-1.13-0.02-1.13V10.74c0,0,0.01-0.85,0.02-1.1c0.01-0.77,0.08-1.55,0.2-2.31c0.12-0.71,0.34-1.41,0.67-2.05
				c0.32-0.64,0.75-1.22,1.25-1.73C3.88,3.03,4.46,2.61,5.1,2.28c0.64-0.32,1.33-0.55,2.04-0.67c0.77-0.13,1.54-0.19,2.32-0.2
				l1.11-0.02h126.86l1.13,0.02c0.77,0.01,1.54,0.08,2.29,0.2c0.72,0.12,1.41,0.35,2.06,0.68c1.28,0.66,2.32,1.7,2.98,2.99
				c0.32,0.64,0.54,1.33,0.66,2.04c0.13,0.77,0.2,1.55,0.21,2.33c0,0.35,0,0.73,0,1.1c0.01,0.46,0.01,0.9,0.01,1.35v25.83
				c0,0.45,0,0.89-0.01,1.33c0,0.4,0,0.77,0,1.15c-0.01,0.77-0.08,1.53-0.21,2.29c-0.12,0.72-0.34,1.41-0.67,2.06
				c-0.33,0.63-0.75,1.21-1.25,1.71c-0.5,0.51-1.09,0.94-1.73,1.26c-0.65,0.33-1.34,0.56-2.06,0.68c-0.76,0.12-1.53,0.19-2.31,0.2
				c-0.36,0.01-0.74,0.01-1.11,0.01l-1.34,0L10.57,48.61z"/>
		</g>
		<g id="_Group__00000005971830386615124920000009426252692637827466_">
			<g id="_Group_2_00000163039818262253768330000013135129766715233950_">
				<g id="_Group_3_00000060007490505788645150000001649057983871027610_">
					<path id="_Path__00000057115448105479293060000013594335796128397989_" fill="#FFFFFF" d="M30.72,25.37
						c0.03-2.09,1.12-4.03,2.91-5.13c-1.13-1.61-2.96-2.6-4.93-2.66c-2.07-0.22-4.08,1.24-5.14,1.24c-1.08,0-2.7-1.22-4.45-1.18
						c-2.3,0.07-4.4,1.35-5.52,3.37c-2.39,4.13-0.61,10.21,1.68,13.55c1.14,1.64,2.48,3.46,4.23,3.4c1.71-0.07,2.35-1.09,4.42-1.09
						c2.05,0,2.65,1.09,4.43,1.05c1.84-0.03,2.99-1.64,4.1-3.29c0.82-1.17,1.45-2.45,1.87-3.82C32.14,29.88,30.72,27.74,30.72,25.37
						z"/>
					<path id="_Path_2_00000183964393764326046900000003174136712165724559_" fill="#FFFFFF" d="M27.35,15.39
						c1-1.2,1.5-2.75,1.38-4.31c-1.53,0.16-2.94,0.89-3.96,2.05c-1,1.14-1.51,2.63-1.41,4.15C24.9,17.29,26.37,16.59,27.35,15.39z"
						/>
				</g>
			</g>
			<g>
				<path fill="#FFFFFF" d="M52.36,33.81h-5.84l-1.4,4.14h-2.47l5.53-15.33h2.57l5.53,15.33h-2.52L52.36,33.81z M47.12,31.9h4.63
					l-2.28-6.72h-0.06L47.12,31.9z"/>
				<path fill="#FFFFFF" d="M68.23,32.37c0,3.47-1.86,5.7-4.66,5.7c-1.45,0.08-2.82-0.68-3.52-1.96H60v5.54h-2.29V26.78h2.22v1.86
					h0.04c0.73-1.26,2.1-2.02,3.56-1.98C66.36,26.66,68.23,28.91,68.23,32.37z M65.87,32.37c0-2.26-1.17-3.75-2.95-3.75
					c-1.75,0-2.93,1.52-2.93,3.75c0,2.25,1.18,3.76,2.93,3.76C64.71,36.13,65.87,34.65,65.87,32.37z"/>
				<path fill="#FFFFFF" d="M80.53,32.37c0,3.47-1.86,5.7-4.66,5.7c-1.45,0.08-2.82-0.68-3.52-1.96H72.3v5.54h-2.29V26.78h2.22v1.86
					h0.04c0.73-1.26,2.1-2.02,3.56-1.98C78.66,26.66,80.53,28.91,80.53,32.37z M78.18,32.37c0-2.26-1.17-3.75-2.95-3.75
					c-1.75,0-2.93,1.52-2.93,3.75c0,2.25,1.18,3.76,2.93,3.76C77.01,36.13,78.18,34.65,78.18,32.37L78.18,32.37z"/>
				<path fill="#FFFFFF" d="M88.66,33.69c0.17,1.52,1.65,2.52,3.66,2.52c1.93,0,3.32-1,3.32-2.37c0-1.19-0.84-1.9-2.83-2.39
					l-1.99-0.48c-2.81-0.68-4.12-2-4.12-4.13c0-2.64,2.3-4.46,5.58-4.46c3.24,0,5.46,1.82,5.53,4.46h-2.32
					c-0.14-1.53-1.4-2.45-3.25-2.45s-3.11,0.93-3.11,2.29c0,1.08,0.81,1.72,2.78,2.21l1.69,0.41c3.15,0.74,4.45,2.01,4.45,4.25
					c0,2.87-2.28,4.66-5.92,4.66c-3.4,0-5.69-1.75-5.84-4.53L88.66,33.69z"/>
				<path fill="#FFFFFF" d="M103.03,24.14v2.64h2.13v1.82h-2.13v6.16c0,0.96,0.43,1.4,1.36,1.4c0.25,0,0.5-0.02,0.75-0.05v1.81
					c-0.42,0.08-0.85,0.11-1.27,0.11c-2.26,0-3.15-0.85-3.15-3.02V28.6H99.1v-1.82h1.62v-2.64H103.03z"/>
				<path fill="#FFFFFF" d="M106.38,32.37c0-3.52,2.07-5.73,5.3-5.73c3.24,0,5.3,2.21,5.3,5.73c0,3.53-2.05,5.73-5.3,5.73
					C108.43,38.1,106.38,35.9,106.38,32.37z M114.65,32.37c0-2.41-1.11-3.84-2.96-3.84s-2.96,1.43-2.96,3.84
					c0,2.42,1.1,3.83,2.96,3.83S114.65,34.79,114.65,32.37L114.65,32.37z"/>
				<path fill="#FFFFFF" d="M118.88,26.78h2.19v1.9h0.05c0.31-1.22,1.43-2.07,2.69-2.02c0.26,0,0.53,0.03,0.79,0.09v2.15
					c-0.33-0.1-0.68-0.15-1.03-0.14c-1.28-0.05-2.35,0.94-2.4,2.22c0,0.12,0,0.24,0.01,0.36v6.63h-2.29L118.88,26.78z"/>
				<path fill="#FFFFFF" d="M135.17,34.67c-0.31,2.03-2.28,3.42-4.81,3.42c-3.25,0-5.27-2.18-5.27-5.67c0-3.51,2.03-5.78,5.17-5.78
					c3.09,0,5.04,2.12,5.04,5.51v0.79h-7.89v0.14c-0.14,1.6,1.04,3.01,2.64,3.16c0.12,0.01,0.24,0.01,0.36,0.01
					c1.11,0.1,2.16-0.53,2.58-1.57L135.17,34.67z M127.41,31.34H133c0.08-1.48-1.05-2.75-2.53-2.83c-0.07,0-0.14-0.01-0.21,0
					c-1.56-0.01-2.84,1.25-2.85,2.81C127.41,31.32,127.41,31.33,127.41,31.34z"/>
			</g>
		</g>
	</g>
	<g id="_Group_4_00000069392612807598219530000010269280042105287860_">
		<g>
			<path fill="#FFFFFF" d="M46.84,11.09c1.79-0.13,3.35,1.22,3.48,3.02c0.02,0.21,0.01,0.43-0.02,0.64c0,2.35-1.27,3.71-3.47,3.71
				h-2.66v-7.37H46.84z M45.32,17.41h1.39c1.28,0.08,2.37-0.9,2.45-2.17c0.01-0.16,0-0.32-0.02-0.48c0.17-1.27-0.71-2.44-1.98-2.62
				c-0.15-0.02-0.3-0.03-0.44-0.02h-1.39V17.41z"/>
			<path fill="#FFFFFF" d="M51.59,15.67c-0.14-1.45,0.92-2.73,2.37-2.87c1.45-0.14,2.73,0.92,2.87,2.37c0.02,0.17,0.02,0.33,0,0.5
				c0.14,1.45-0.92,2.74-2.37,2.88c-1.45,0.14-2.74-0.92-2.88-2.37C51.58,16.01,51.58,15.84,51.59,15.67z M55.71,15.67
				c0-1.2-0.54-1.91-1.49-1.91c-0.95,0-1.49,0.7-1.49,1.91c0,1.21,0.54,1.91,1.49,1.91C55.17,17.59,55.71,16.88,55.71,15.67
				L55.71,15.67z"/>
			<path fill="#FFFFFF" d="M63.81,18.45h-1.14l-1.15-4.09h-0.09l-1.14,4.09h-1.13l-1.53-5.56h1.11l1,4.24h0.08l1.14-4.24h1.05
				l1.14,4.24h0.09l0.99-4.24h1.1L63.81,18.45z"/>
			<path fill="#FFFFFF" d="M66.62,12.9h1.06v0.88h0.08c0.29-0.65,0.95-1.05,1.66-0.99c1-0.07,1.86,0.67,1.94,1.67
				c0.01,0.13,0.01,0.27-0.01,0.4v3.6h-1.1v-3.32c0-0.89-0.39-1.34-1.2-1.34c-0.7-0.03-1.3,0.51-1.33,1.21c0,0.06,0,0.13,0.01,0.19
				v3.25h-1.1L66.62,12.9z"/>
			<path fill="#FFFFFF" d="M73.09,10.73h1.1v7.73h-1.1V10.73z"/>
			<path fill="#FFFFFF" d="M75.71,15.67c-0.14-1.45,0.92-2.73,2.37-2.87c1.45-0.14,2.73,0.92,2.87,2.37c0.02,0.17,0.02,0.33,0,0.5
				c0.14,1.45-0.92,2.74-2.37,2.88c-1.45,0.14-2.74-0.92-2.88-2.37C75.69,16.01,75.69,15.84,75.71,15.67z M79.82,15.67
				c0-1.2-0.54-1.91-1.49-1.91c-0.95,0-1.49,0.7-1.49,1.91c0,1.21,0.54,1.91,1.49,1.91C79.28,17.59,79.82,16.88,79.82,15.67z"/>
			<path fill="#FFFFFF" d="M82.11,16.88c0-1,0.74-1.58,2.07-1.66l1.51-0.09v-0.48c0-0.59-0.39-0.92-1.14-0.92
				c-0.61,0-1.04,0.22-1.16,0.62h-1.06c0.11-0.95,1.01-1.57,2.27-1.57c1.39,0,2.18,0.69,2.18,1.87v3.8h-1.06v-0.78h-0.09
				c-0.36,0.57-1,0.9-1.67,0.87c-0.92,0.1-1.75-0.57-1.84-1.5C82.11,16.99,82.11,16.94,82.11,16.88z M85.68,16.41v-0.46l-1.36,0.09
				c-0.77,0.05-1.11,0.31-1.11,0.8c0,0.5,0.43,0.79,1.03,0.79c0.72,0.07,1.36-0.45,1.44-1.17C85.68,16.44,85.68,16.42,85.68,16.41z"
				/>
			<path fill="#FFFFFF" d="M88.22,15.67c0-1.76,0.9-2.87,2.31-2.87c0.71-0.03,1.37,0.35,1.7,0.98h0.08v-3.05h1.1v7.73h-1.05v-0.88
				h-0.09c-0.36,0.62-1.03,1-1.75,0.97C89.11,18.55,88.22,17.43,88.22,15.67z M89.35,15.67c0,1.18,0.56,1.89,1.49,1.89
				c0.92,0,1.5-0.72,1.5-1.88c0-1.16-0.58-1.89-1.5-1.89C89.91,13.79,89.35,14.5,89.35,15.67L89.35,15.67z"/>
			<path fill="#FFFFFF" d="M97.94,15.67c-0.14-1.45,0.92-2.73,2.37-2.87c1.45-0.14,2.73,0.92,2.87,2.37c0.02,0.17,0.02,0.33,0,0.5
				c0.14,1.45-0.92,2.74-2.37,2.88c-1.45,0.14-2.74-0.92-2.88-2.37C97.93,16.01,97.93,15.84,97.94,15.67z M102.06,15.67
				c0-1.2-0.54-1.91-1.49-1.91c-0.95,0-1.49,0.7-1.49,1.91c0,1.21,0.54,1.91,1.49,1.91C101.52,17.59,102.06,16.88,102.06,15.67z"/>
			<path fill="#FFFFFF" d="M104.66,12.9h1.06v0.88h0.08c0.29-0.65,0.95-1.05,1.66-0.99c1-0.07,1.86,0.67,1.94,1.67
				c0.01,0.13,0.01,0.27-0.01,0.4v3.6h-1.1v-3.32c0-0.89-0.39-1.34-1.2-1.34c-0.7-0.03-1.3,0.51-1.33,1.21c0,0.06,0,0.13,0.01,0.19
				v3.25h-1.1V12.9z"/>
			<path fill="#FFFFFF" d="M115.58,11.51v1.41h1.2v0.92h-1.2v2.86c0,0.58,0.24,0.84,0.79,0.84c0.14,0,0.28-0.01,0.42-0.03v0.91
				c-0.2,0.04-0.4,0.05-0.6,0.06c-1.22,0-1.71-0.43-1.71-1.5v-3.14h-0.88v-0.92h0.88v-1.41H115.58z"/>
			<path fill="#FFFFFF" d="M118.28,10.73h1.09v3.06h0.09c0.3-0.66,0.98-1.05,1.69-1c1.01-0.05,1.87,0.72,1.93,1.73
				c0.01,0.11,0,0.23-0.01,0.34v3.59h-1.1v-3.32c0-0.89-0.41-1.34-1.19-1.34c-0.71-0.06-1.34,0.47-1.4,1.19
				c-0.01,0.07-0.01,0.15,0,0.22v3.25h-1.1L118.28,10.73z"/>
			<path fill="#FFFFFF" d="M129.46,16.95c-0.31,1.05-1.32,1.73-2.41,1.61c-1.39,0.04-2.55-1.06-2.59-2.46c0-0.14,0-0.28,0.02-0.41
				c-0.19-1.4,0.8-2.69,2.2-2.88c0.12-0.02,0.24-0.02,0.36-0.02c1.55,0,2.48,1.06,2.48,2.8v0.38h-3.92v0.06
				c-0.07,0.81,0.53,1.52,1.34,1.59c0.05,0,0.09,0.01,0.14,0.01c0.54,0.06,1.06-0.2,1.32-0.67L129.46,16.95z M125.6,15.16h2.81
				c0.05-0.74-0.5-1.38-1.24-1.44c-0.04,0-0.09,0-0.13,0c-0.79-0.01-1.43,0.62-1.44,1.4C125.6,15.14,125.6,15.15,125.6,15.16
				L125.6,15.16z"/>
		</g>
	</g>
</g>
</svg>
