<?xml version="1.0" encoding="utf-8"?>
<!-- Generator: Adobe Illustrator 26.0.3, SVG Export Plug-In . SVG Version: 6.00 Build 0)  -->
<svg version="1.1" id="Layer_1" xmlns="http://www.w3.org/2000/svg" xmlns:xlink="http://www.w3.org/1999/xlink" x="0px" y="0px"
	 width="166px" height="50px" viewBox="0 0 166 50" enable-background="new 0 0 166 50" xml:space="preserve">
<g>
	<path id="path11_00000047042362078376053110000011262428274467964326_" fill="#100F0D" d="M159.85,49.59H6.15
		C2.77,49.59,0,46.83,0,43.44V6.56c0-3.38,2.77-6.15,6.15-6.15h153.7c3.38,0,6.15,2.77,6.15,6.15v36.89
		C166,46.83,163.23,49.59,159.85,49.59"/>
	<path id="path13_00000141444955266278183300000014181688573062984348_" fill="#A2A2A1" d="M159.85,0.41H6.15
		C2.77,0.41,0,3.17,0,6.56v36.89c0,3.38,2.77,6.15,6.15,6.15h153.7c3.38,0,6.15-2.77,6.15-6.15V6.56
		C166,3.17,163.23,0.41,159.85,0.41z M159.85,1.39c2.85,0,5.16,2.32,5.16,5.17v36.89c0,2.85-2.32,5.17-5.16,5.17H6.15
		c-2.85,0-5.16-2.32-5.16-5.17V6.56c0-2.85,2.32-5.17,5.16-5.17L159.85,1.39"/>
	<path id="path35_00000120557795616320646440000008343894540468187572_" fill="#FFFFFF" d="M131.49,37.3h2.29V21.92h-2.29V37.3z
		 M152.16,27.46l-2.63,6.66h-0.08l-2.73-6.66h-2.47l4.09,9.31l-2.34,5.18h2.39l6.31-14.5L152.16,27.46z M139.15,35.55
		c-0.75,0-1.8-0.38-1.8-1.31c0-1.19,1.31-1.64,2.43-1.64c1.01,0,1.48,0.22,2.1,0.51C141.7,34.54,140.47,35.55,139.15,35.55
		L139.15,35.55z M139.42,27.13c-1.66,0-3.38,0.73-4.09,2.35l2.04,0.85c0.44-0.85,1.25-1.13,2.1-1.13c1.19,0,2.39,0.71,2.41,1.98
		v0.16c-0.42-0.24-1.31-0.59-2.39-0.59c-2.2,0-4.43,1.21-4.43,3.46c0,2.06,1.8,3.38,3.82,3.38c1.54,0,2.39-0.69,2.93-1.5h0.08v1.19
		h2.22v-5.89C144.09,28.65,142.05,27.13,139.42,27.13L139.42,27.13z M125.24,29.33h-3.26v-5.27h3.26c1.72,0,2.69,1.42,2.69,2.63
		C127.93,27.89,126.96,29.33,125.24,29.33z M125.18,21.92h-5.5V37.3h2.29v-5.82h3.2c2.54,0,5.04-1.84,5.04-4.77
		C130.23,23.77,127.73,21.92,125.18,21.92L125.18,21.92z M95.2,35.55c-1.59,0-2.91-1.33-2.91-3.15c0-1.84,1.33-3.19,2.91-3.19
		c1.56,0,2.79,1.35,2.79,3.19C98,34.23,96.77,35.55,95.2,35.55z M97.84,28.32h-0.08c-0.51-0.61-1.51-1.17-2.75-1.17
		c-2.62,0-5.01,2.3-5.01,5.25c0,2.93,2.4,5.21,5.01,5.21c1.25,0,2.24-0.55,2.75-1.19h0.08v0.75c0,2-1.07,3.07-2.79,3.07
		c-1.41,0-2.28-1.01-2.63-1.86l-2,0.83c0.57,1.39,2.1,3.09,4.64,3.09c2.69,0,4.97-1.59,4.97-5.45v-9.39h-2.18L97.84,28.32z
		 M101.6,37.3h2.3V21.92h-2.3V37.3z M107.29,32.22c-0.06-2.02,1.57-3.05,2.73-3.05c0.91,0,1.68,0.46,1.94,1.11L107.29,32.22z
		 M114.42,30.48c-0.44-1.17-1.76-3.33-4.48-3.33c-2.69,0-4.93,2.12-4.93,5.23c0,2.93,2.22,5.23,5.19,5.23c2.4,0,3.78-1.47,4.36-2.32
		l-1.78-1.19c-0.59,0.87-1.41,1.45-2.58,1.45c-1.17,0-2-0.54-2.53-1.58l6.99-2.89L114.42,30.48z M58.71,28.76v2.22h5.31
		c-0.16,1.25-0.57,2.16-1.21,2.79c-0.77,0.77-1.98,1.62-4.1,1.62c-3.27,0-5.82-2.63-5.82-5.9s2.56-5.9,5.82-5.9
		c1.76,0,3.05,0.69,4,1.58l1.57-1.57c-1.33-1.27-3.09-2.24-5.57-2.24c-4.48,0-8.24,3.65-8.24,8.12c0,4.48,3.76,8.12,8.24,8.12
		c2.42,0,4.24-0.79,5.67-2.28c1.47-1.47,1.92-3.53,1.92-5.19c0-0.51-0.04-0.99-0.12-1.39L58.71,28.76z M72.33,35.55
		c-1.59,0-2.95-1.31-2.95-3.17c0-1.88,1.37-3.17,2.95-3.17c1.58,0,2.95,1.29,2.95,3.17C75.28,34.25,73.92,35.55,72.33,35.55z
		 M72.33,27.15c-2.89,0-5.25,2.2-5.25,5.23c0,3.01,2.36,5.23,5.25,5.23c2.89,0,5.25-2.22,5.25-5.23
		C77.58,29.35,75.22,27.15,72.33,27.15z M83.78,35.55c-1.58,0-2.95-1.31-2.95-3.17c0-1.88,1.37-3.17,2.95-3.17
		c1.59,0,2.95,1.29,2.95,3.17C86.73,34.25,85.37,35.55,83.78,35.55z M83.78,27.15c-2.89,0-5.25,2.2-5.25,5.23
		c0,3.01,2.36,5.23,5.25,5.23c2.89,0,5.25-2.22,5.25-5.23C89.03,29.35,86.68,27.15,83.78,27.15"/>
	<path id="path37_00000012464737280200650260000011206776065384193941_" fill="#EB3131" d="M25.47,24.29L12.38,38.19
		c0,0,0,0.01,0,0.01c0.4,1.51,1.78,2.62,3.42,2.62c0.65,0,1.27-0.18,1.79-0.49l0.04-0.02l14.74-8.5L25.47,24.29"/>
	<path id="path39_00000039855324116426248870000017134931083753625499_" fill="#F6B60B" d="M38.72,21.93l-0.01-0.01l-6.36-3.69
		l-7.17,6.38l7.19,7.19l6.33-3.65c1.11-0.6,1.86-1.77,1.86-3.12C40.56,23.69,39.81,22.53,38.72,21.93"/>
	<path id="path41_00000012463459565429219420000010219443468052915891_" fill="#5778C5" d="M12.38,11.81
		c-0.08,0.29-0.12,0.59-0.12,0.91v24.55c0,0.32,0.04,0.62,0.12,0.91l13.54-13.54L12.38,11.81"/>
	<path id="path43_00000090293471497459684540000000426892191759865249_" fill="#3BAD49" d="M25.57,25l6.78-6.77L17.63,9.69
		c-0.54-0.32-1.16-0.51-1.83-0.51c-1.64,0-3.02,1.11-3.42,2.62c0,0,0,0,0,0L25.57,25"/>
	
		<path id="path33_00000014627401680732881160000007983554695488388753_" fill="#FFFFFF" stroke="#FFFFFF" stroke-width="0.2667" stroke-miterlimit="10" d="
		M58.28,12.43h-3.59v0.89h2.69c-0.07,0.72-0.36,1.29-0.85,1.71c-0.49,0.41-1.11,0.62-1.84,0.62c-0.81,0-1.49-0.28-2.05-0.84
		c-0.55-0.57-0.83-1.27-0.83-2.12c0-0.85,0.28-1.55,0.83-2.12c0.56-0.56,1.24-0.84,2.05-0.84c0.41,0,0.81,0.07,1.17,0.23
		c0.36,0.16,0.65,0.37,0.88,0.65l0.68-0.68c-0.31-0.35-0.7-0.62-1.19-0.82c-0.49-0.2-0.99-0.29-1.54-0.29
		c-1.07,0-1.98,0.37-2.73,1.12c-0.74,0.75-1.12,1.66-1.12,2.75s0.37,2.01,1.12,2.75c0.74,0.74,1.65,1.12,2.73,1.12
		c1.13,0,2.03-0.36,2.72-1.1c0.61-0.61,0.92-1.44,0.92-2.47C58.33,12.82,58.31,12.63,58.28,12.43L58.28,12.43z M59.67,8.99v7.4h4.32
		v-0.91h-3.37v-2.35h3.04v-0.89h-3.04V9.9h3.37V8.99L59.67,8.99z M70.05,9.9V8.99h-5.09V9.9h2.07v6.49h0.95V9.9L70.05,9.9z
		 M74.65,8.99H73.7v7.4h0.95V8.99z M80.93,9.9V8.99h-5.09V9.9h2.07v6.49h0.95V9.9L80.93,9.9z M90.53,9.95
		c-0.73-0.76-1.63-1.13-2.71-1.13c-1.08,0-1.98,0.37-2.71,1.12c-0.73,0.73-1.1,1.65-1.1,2.75s0.36,2.02,1.1,2.75
		c0.73,0.74,1.63,1.12,2.71,1.12c1.06,0,1.97-0.37,2.71-1.12c0.73-0.73,1.1-1.65,1.1-2.75C91.62,11.61,91.26,10.69,90.53,9.95z
		 M85.79,10.57c0.55-0.56,1.22-0.84,2.03-0.84c0.81,0,1.48,0.28,2.02,0.84c0.55,0.55,0.82,1.26,0.82,2.12
		c0,0.86-0.27,1.57-0.82,2.12c-0.54,0.56-1.21,0.84-2.02,0.84c-0.81,0-1.48-0.28-2.03-0.84c-0.54-0.56-0.81-1.26-0.81-2.12
		C84.99,11.83,85.26,11.13,85.79,10.57z M93.88,11.78l-0.04-1.43h0.04l3.76,6.04h0.99v-7.4h-0.95v4.33l0.04,1.43h-0.04l-3.6-5.76
		h-1.16v7.4h0.95V11.78z"/>
</g>
</svg>
